<svg width="360" height="640" viewBox="0 0 360 640" fill="none" xmlns="http://www.w3.org/2000/svg">
<rect width="360" height="640" fill="#F2F2F2"/>
<path fill-rule="evenodd" clip-rule="evenodd" d="M0 0V24H360V0H0Z" fill="#757575"/>
<g opacity="0.9">
<path d="M321.696 17H320.042V9.00879L317.602 9.84277V8.44141L321.484 7.0127H321.696V17ZM331.848 17H325.155V15.8584L328.471 12.2422C328.949 11.709 329.289 11.2646 329.489 10.9092C329.694 10.5492 329.797 10.1891 329.797 9.8291C329.797 9.35514 329.662 8.97233 329.394 8.68066C329.129 8.389 328.771 8.24316 328.32 8.24316C327.783 8.24316 327.366 8.40723 327.069 8.73535C326.773 9.06348 326.625 9.51237 326.625 10.082H324.964C324.964 9.47591 325.101 8.93132 325.374 8.44824C325.652 7.96061 326.046 7.58236 326.557 7.31348C327.072 7.0446 327.664 6.91016 328.334 6.91016C329.3 6.91016 330.061 7.15397 330.617 7.6416C331.178 8.12467 331.458 8.7946 331.458 9.65137C331.458 10.1481 331.317 10.6699 331.034 11.2168C330.756 11.7591 330.298 12.3766 329.66 13.0693L327.227 15.6738H331.848V17ZM334.22 15.25C334.53 15.25 334.769 15.3389 334.938 15.5166C335.106 15.6898 335.19 15.9085 335.19 16.1729C335.19 16.4326 335.106 16.6491 334.938 16.8223C334.769 16.9909 334.53 17.0752 334.22 17.0752C333.924 17.0752 333.689 16.9909 333.516 16.8223C333.342 16.6536 333.256 16.4372 333.256 16.1729C333.256 15.9085 333.34 15.6898 333.509 15.5166C333.677 15.3389 333.914 15.25 334.22 15.25ZM334.22 9.44629C334.53 9.44629 334.769 9.53516 334.938 9.71289C335.106 9.88607 335.19 10.1048 335.19 10.3691C335.19 10.6289 335.106 10.8454 334.938 11.0186C334.769 11.1872 334.53 11.2715 334.22 11.2715C333.924 11.2715 333.689 11.1872 333.516 11.0186C333.342 10.8499 333.256 10.6335 333.256 10.3691C333.256 10.1048 333.34 9.88607 333.509 9.71289C333.677 9.53516 333.914 9.44629 334.22 9.44629ZM338.752 11.2646H339.764C340.274 11.2601 340.677 11.1279 340.974 10.8682C341.274 10.6084 341.425 10.2324 341.425 9.74023C341.425 9.26628 341.299 8.89941 341.049 8.63965C340.803 8.37533 340.424 8.24316 339.914 8.24316C339.467 8.24316 339.101 8.37305 338.813 8.63281C338.526 8.88802 338.383 9.22298 338.383 9.6377H336.722C336.722 9.12728 336.856 8.66243 337.125 8.24316C337.398 7.82389 337.777 7.49805 338.26 7.26562C338.747 7.02865 339.292 6.91016 339.894 6.91016C340.887 6.91016 341.666 7.16081 342.231 7.66211C342.801 8.15885 343.086 8.85156 343.086 9.74023C343.086 10.1868 342.942 10.6084 342.655 11.0049C342.373 11.3968 342.006 11.693 341.555 11.8936C342.102 12.0804 342.516 12.3743 342.799 12.7754C343.086 13.1764 343.229 13.6549 343.229 14.2109C343.229 15.1042 342.922 15.8151 342.307 16.3438C341.696 16.8724 340.892 17.1367 339.894 17.1367C338.937 17.1367 338.153 16.8815 337.542 16.3711C336.931 15.8607 336.626 15.1816 336.626 14.334H338.287C338.287 14.7715 338.433 15.127 338.725 15.4004C339.021 15.6738 339.417 15.8105 339.914 15.8105C340.429 15.8105 340.835 15.6738 341.131 15.4004C341.427 15.127 341.575 14.7305 341.575 14.2109C341.575 13.6868 341.42 13.2835 341.11 13.001C340.8 12.7184 340.34 12.5771 339.729 12.5771H338.752V11.2646ZM351.275 12.8096C351.275 14.2406 351.007 15.3206 350.469 16.0498C349.936 16.7744 349.122 17.1367 348.028 17.1367C346.953 17.1367 346.142 16.7835 345.595 16.0771C345.052 15.3662 344.774 14.3158 344.761 12.9258V11.2031C344.761 9.77214 345.027 8.69889 345.561 7.9834C346.098 7.2679 346.916 6.91016 348.015 6.91016C349.104 6.91016 349.915 7.25879 350.448 7.95605C350.986 8.65332 351.262 9.69694 351.275 11.0869V12.8096ZM349.614 10.9502C349.614 10.016 349.487 9.33236 349.231 8.89941C348.976 8.46191 348.571 8.24316 348.015 8.24316C347.472 8.24316 347.074 8.45052 346.818 8.86523C346.563 9.27539 346.429 9.91797 346.415 10.793V13.0488C346.415 13.9785 346.545 14.6712 346.805 15.127C347.064 15.5827 347.472 15.8105 348.028 15.8105C348.562 15.8105 348.956 15.6009 349.211 15.1816C349.466 14.7578 349.601 14.097 349.614 13.1992V10.9502Z" fill="white"/>
</g>
<path fill-rule="evenodd" clip-rule="evenodd" d="M306 5.875V5L303 5V5.875H300V19H309V5.875H306Z" fill="white"/>
<path fill-rule="evenodd" clip-rule="evenodd" d="M277 19H291V5L277 19Z" fill="white"/>
<path fill-rule="evenodd" clip-rule="evenodd" d="M256.977 8.01593C259.488 6.12256 262.613 5 266 5C269.387 5 272.512 6.12256 275.023 8.01593L266 19L256.977 8.01593Z" fill="white"/>
<path fill-rule="evenodd" clip-rule="evenodd" d="M0 592V640H360V592H0Z" fill="black"/>
<path d="M274 610C274 609.448 274.448 609 275 609H287C287.552 609 288 609.448 288 610V622C288 622.552 287.552 623 287 623H275C274.448 623 274 622.552 274 622V610Z" stroke="white" stroke-width="2"/>
<circle cx="180" cy="616" r="7" stroke="white" stroke-width="2"/>
<path d="M84.4995 608.849C85.1662 608.464 86 608.945 86 609.715V621.287C86 622.057 85.1662 622.538 84.4995 622.153L74.4904 616.367C73.8244 615.982 73.8244 615.02 74.4904 614.635L84.4995 608.849Z" stroke="white" stroke-width="2"/>
<rect y="24" width="360" height="60" fill="#4DD0E1"/>
<path d="M42.604 40.6785C42.2765 40.3333 41.7054 40.3326 41.3629 40.664L40.1485 41.8387C39.8236 42.153 39.8275 42.6503 40.1366 42.9792C43.0962 46.1297 44.5759 50.1252 44.5758 54.1207C44.5756 58.1157 43.0959 62.1106 40.1366 65.2607C39.8275 65.5897 39.8236 66.0869 40.1485 66.4012L41.3629 67.5759C41.7054 67.9073 42.2765 67.9066 42.6041 67.5614C46.2016 63.7701 48.0003 58.9445 48 54.1189C47.9998 49.2942 46.2011 44.4693 42.604 40.6785Z" fill="white"/>
<path d="M11.4242 54.1195C11.4243 50.1244 12.9041 46.1294 15.8635 42.9792C16.1725 42.6502 16.1764 42.153 15.8515 41.8387L14.6372 40.664C14.2946 40.3326 13.7236 40.3333 13.3959 40.6785C9.79856 44.4696 7.99992 49.295 8 54.1204C8.00008 58.9455 9.7988 63.7705 13.3959 67.5614C13.7235 67.9066 14.2946 67.9073 14.6372 67.5759L15.8515 66.4012C16.1764 66.0869 16.1725 65.5896 15.8635 65.2606C12.9039 62.1102 11.4242 58.1149 11.4242 54.1195Z" fill="white"/>
<path fill-rule="evenodd" clip-rule="evenodd" d="M13.2381 53.8837C13.2381 45.6764 19.9674 39 28.2381 39C36.5088 39 43.2381 45.6764 43.2381 53.8837C43.2381 62.0911 36.5088 68.7674 28.2381 68.7674C19.9674 68.7674 13.2381 62.0911 13.2381 53.8837ZM26.5617 55.5374H29.0617C31.359 55.5374 33.2283 53.6835 33.2283 51.4031C33.2283 49.1227 31.359 47.2688 29.0617 47.2687H25.7283C25.2677 47.2687 24.895 47.6385 24.895 48.0956V59.6718C24.895 60.1288 25.2677 60.4987 25.7283 60.4987C26.189 60.4987 26.5617 60.1288 26.5617 59.6718V55.5374Z" fill="white"/>
<path d="M29.1905 48.9225H26.5714V53.6475H29.1905C30.6347 53.6475 31.8095 52.5877 31.8095 51.285C31.8095 49.9822 30.6347 48.9225 29.1905 48.9225Z" fill="white"/>
<path d="M350.546 53.0769H317.454C316.651 53.0769 316 53.6968 316 54.4615C316 55.2263 316.651 55.8462 317.454 55.8462H350.546C351.349 55.8462 352 55.2263 352 54.4615C352 53.6969 351.349 53.0769 350.546 53.0769Z" fill="white"/>
<path d="M350.546 42H317.454C316.651 42 316 42.6199 316 43.3846C316 44.1493 316.651 44.7692 317.454 44.7692H350.546C351.349 44.7692 352 44.1493 352 43.3846C352 42.6199 351.349 42 350.546 42Z" fill="white"/>
<path d="M350.546 64.1538H317.454C316.651 64.1538 316 64.7737 316 65.5385C316 66.3032 316.651 66.9231 317.454 66.9231H350.546C351.349 66.9231 352 66.3032 352 65.5385C352 64.7737 351.349 64.1538 350.546 64.1538Z" fill="white"/>
<path d="M8 172H352V447C352 449.209 350.209 451 348 451H12C9.79086 451 8 449.209 8 447V172Z" fill="white"/>
<path d="M8 129C8 126.791 9.79086 125 12 125H176C178.209 125 180 126.791 180 129V173H8V129Z" fill="white"/>
<rect x="8" y="170" width="172" height="3" fill="#4DD0E1"/>
<path d="M72.6641 155H66.2969V143.578H72.6641V144.758H67.625V148.438H72.3594V149.609H67.625V153.812H72.6641V155ZM80.8672 155V149.461C80.8672 148.763 80.7083 148.242 80.3906 147.898C80.0729 147.555 79.5755 147.383 78.8984 147.383C78.0026 147.383 77.3464 147.625 76.9297 148.109C76.513 148.594 76.3047 149.393 76.3047 150.508V155H75.0078V146.438H76.0625L76.2734 147.609H76.3359C76.6016 147.188 76.974 146.862 77.4531 146.633C77.9323 146.398 78.4661 146.281 79.0547 146.281C80.0859 146.281 80.862 146.531 81.3828 147.031C81.9036 147.526 82.1641 148.32 82.1641 149.414V155H80.8672ZM87.6016 154.086C87.8307 154.086 88.0521 154.07 88.2656 154.039C88.4792 154.003 88.6484 153.966 88.7734 153.93V154.922C88.6328 154.99 88.4245 155.044 88.1484 155.086C87.8776 155.133 87.6328 155.156 87.4141 155.156C85.7578 155.156 84.9297 154.284 84.9297 152.539V147.445H83.7031V146.82L84.9297 146.281L85.4766 144.453H86.2266V146.438H88.7109V147.445H86.2266V152.484C86.2266 153 86.349 153.396 86.5938 153.672C86.8385 153.948 87.1745 154.086 87.6016 154.086ZM94.3984 146.281C94.7786 146.281 95.1198 146.312 95.4219 146.375L95.2422 147.578C94.888 147.5 94.5755 147.461 94.3047 147.461C93.612 147.461 93.0182 147.742 92.5234 148.305C92.0339 148.867 91.7891 149.568 91.7891 150.406V155H90.4922V146.438H91.5625L91.7109 148.023H91.7734C92.0911 147.466 92.474 147.036 92.9219 146.734C93.3698 146.432 93.862 146.281 94.3984 146.281ZM102.289 155L102.031 153.781H101.969C101.542 154.318 101.115 154.682 100.688 154.875C100.266 155.062 99.737 155.156 99.1016 155.156C98.2526 155.156 97.5859 154.938 97.1016 154.5C96.6224 154.062 96.3828 153.44 96.3828 152.633C96.3828 150.904 97.7656 149.997 100.531 149.914L101.984 149.867V149.336C101.984 148.664 101.839 148.169 101.547 147.852C101.26 147.529 100.799 147.367 100.164 147.367C99.4505 147.367 98.6432 147.586 97.7422 148.023L97.3438 147.031C97.7656 146.802 98.2266 146.622 98.7266 146.492C99.2318 146.362 99.737 146.297 100.242 146.297C101.263 146.297 102.018 146.523 102.508 146.977C103.003 147.43 103.25 148.156 103.25 149.156V155H102.289ZM99.3594 154.086C100.167 154.086 100.799 153.865 101.258 153.422C101.721 152.979 101.953 152.359 101.953 151.562V150.789L100.656 150.844C99.625 150.88 98.8802 151.042 98.4219 151.328C97.9688 151.609 97.7422 152.049 97.7422 152.648C97.7422 153.117 97.8828 153.474 98.1641 153.719C98.4505 153.964 98.849 154.086 99.3594 154.086ZM111.758 153.852H111.688C111.089 154.721 110.193 155.156 109 155.156C107.88 155.156 107.008 154.773 106.383 154.008C105.763 153.242 105.453 152.154 105.453 150.742C105.453 149.331 105.766 148.234 106.391 147.453C107.016 146.672 107.885 146.281 109 146.281C110.161 146.281 111.052 146.703 111.672 147.547H111.773L111.719 146.93L111.688 146.328V142.844H112.984V155H111.93L111.758 153.852ZM109.164 154.07C110.049 154.07 110.69 153.831 111.086 153.352C111.487 152.867 111.688 152.089 111.688 151.016V150.742C111.688 149.529 111.484 148.664 111.078 148.148C110.677 147.628 110.034 147.367 109.148 147.367C108.388 147.367 107.805 147.664 107.398 148.258C106.997 148.846 106.797 149.68 106.797 150.758C106.797 151.852 106.997 152.677 107.398 153.234C107.799 153.792 108.388 154.07 109.164 154.07ZM121.008 155L120.75 153.781H120.688C120.26 154.318 119.833 154.682 119.406 154.875C118.984 155.062 118.456 155.156 117.82 155.156C116.971 155.156 116.305 154.938 115.82 154.5C115.341 154.062 115.102 153.44 115.102 152.633C115.102 150.904 116.484 149.997 119.25 149.914L120.703 149.867V149.336C120.703 148.664 120.557 148.169 120.266 147.852C119.979 147.529 119.518 147.367 118.883 147.367C118.169 147.367 117.362 147.586 116.461 148.023L116.062 147.031C116.484 146.802 116.945 146.622 117.445 146.492C117.951 146.362 118.456 146.297 118.961 146.297C119.982 146.297 120.737 146.523 121.227 146.977C121.721 147.43 121.969 148.156 121.969 149.156V155H121.008ZM118.078 154.086C118.885 154.086 119.518 153.865 119.977 153.422C120.44 152.979 120.672 152.359 120.672 151.562V150.789L119.375 150.844C118.344 150.88 117.599 151.042 117.141 151.328C116.688 151.609 116.461 152.049 116.461 152.648C116.461 153.117 116.602 153.474 116.883 153.719C117.169 153.964 117.568 154.086 118.078 154.086Z" fill="#4DD0E1"/>
<rect x="180" y="125" width="172" height="48" fill="#F2F2F2"/>
<path d="M254.289 152.961C254.289 153.966 253.924 154.75 253.195 155.312C252.466 155.875 251.477 156.156 250.227 156.156C248.872 156.156 247.831 155.982 247.102 155.633V154.352C247.57 154.549 248.081 154.706 248.633 154.82C249.185 154.935 249.732 154.992 250.273 154.992C251.159 154.992 251.826 154.826 252.273 154.492C252.721 154.154 252.945 153.685 252.945 153.086C252.945 152.69 252.865 152.367 252.703 152.117C252.547 151.862 252.281 151.628 251.906 151.414C251.536 151.201 250.971 150.958 250.211 150.688C249.148 150.307 248.388 149.857 247.93 149.336C247.477 148.815 247.25 148.135 247.25 147.297C247.25 146.417 247.581 145.716 248.242 145.195C248.904 144.674 249.779 144.414 250.867 144.414C252.003 144.414 253.047 144.622 254 145.039L253.586 146.195C252.643 145.799 251.727 145.602 250.836 145.602C250.133 145.602 249.583 145.753 249.188 146.055C248.792 146.357 248.594 146.776 248.594 147.312C248.594 147.708 248.667 148.034 248.812 148.289C248.958 148.539 249.203 148.771 249.547 148.984C249.896 149.193 250.427 149.424 251.141 149.68C252.339 150.107 253.161 150.565 253.609 151.055C254.062 151.544 254.289 152.18 254.289 152.961ZM261.695 156L261.438 154.781H261.375C260.948 155.318 260.521 155.682 260.094 155.875C259.672 156.062 259.143 156.156 258.508 156.156C257.659 156.156 256.992 155.938 256.508 155.5C256.029 155.062 255.789 154.44 255.789 153.633C255.789 151.904 257.172 150.997 259.938 150.914L261.391 150.867V150.336C261.391 149.664 261.245 149.169 260.953 148.852C260.667 148.529 260.206 148.367 259.57 148.367C258.857 148.367 258.049 148.586 257.148 149.023L256.75 148.031C257.172 147.802 257.633 147.622 258.133 147.492C258.638 147.362 259.143 147.297 259.648 147.297C260.669 147.297 261.424 147.523 261.914 147.977C262.409 148.43 262.656 149.156 262.656 150.156V156H261.695ZM258.766 155.086C259.573 155.086 260.206 154.865 260.664 154.422C261.128 153.979 261.359 153.359 261.359 152.562V151.789L260.062 151.844C259.031 151.88 258.286 152.042 257.828 152.328C257.375 152.609 257.148 153.049 257.148 153.648C257.148 154.117 257.289 154.474 257.57 154.719C257.857 154.964 258.255 155.086 258.766 155.086ZM266.633 156H265.336V147.438H266.633V156ZM265.281 146.109C265.531 145.786 265.799 145.396 266.086 144.938C266.378 144.479 266.607 144.081 266.773 143.742H268.352V143.906C268.122 144.245 267.781 144.661 267.328 145.156C266.875 145.651 266.482 146.034 266.148 146.305H265.281V146.109ZM275.211 154.852H275.141C274.542 155.721 273.646 156.156 272.453 156.156C271.333 156.156 270.461 155.773 269.836 155.008C269.216 154.242 268.906 153.154 268.906 151.742C268.906 150.331 269.219 149.234 269.844 148.453C270.469 147.672 271.339 147.281 272.453 147.281C273.615 147.281 274.505 147.703 275.125 148.547H275.227L275.172 147.93L275.141 147.328V143.844H276.438V156H275.383L275.211 154.852ZM272.617 155.07C273.503 155.07 274.143 154.831 274.539 154.352C274.94 153.867 275.141 153.089 275.141 152.016V151.742C275.141 150.529 274.938 149.664 274.531 149.148C274.13 148.628 273.487 148.367 272.602 148.367C271.841 148.367 271.258 148.664 270.852 149.258C270.451 149.846 270.25 150.68 270.25 151.758C270.25 152.852 270.451 153.677 270.852 154.234C271.253 154.792 271.841 155.07 272.617 155.07ZM284.461 156L284.203 154.781H284.141C283.714 155.318 283.286 155.682 282.859 155.875C282.438 156.062 281.909 156.156 281.273 156.156C280.424 156.156 279.758 155.938 279.273 155.5C278.794 155.062 278.555 154.44 278.555 153.633C278.555 151.904 279.938 150.997 282.703 150.914L284.156 150.867V150.336C284.156 149.664 284.01 149.169 283.719 148.852C283.432 148.529 282.971 148.367 282.336 148.367C281.622 148.367 280.815 148.586 279.914 149.023L279.516 148.031C279.938 147.802 280.398 147.622 280.898 147.492C281.404 147.362 281.909 147.297 282.414 147.297C283.435 147.297 284.19 147.523 284.68 147.977C285.174 148.43 285.422 149.156 285.422 150.156V156H284.461ZM281.531 155.086C282.339 155.086 282.971 154.865 283.43 154.422C283.893 153.979 284.125 153.359 284.125 152.562V151.789L282.828 151.844C281.797 151.88 281.052 152.042 280.594 152.328C280.141 152.609 279.914 153.049 279.914 153.648C279.914 154.117 280.055 154.474 280.336 154.719C280.622 154.964 281.021 155.086 281.531 155.086Z" fill="#9B9B9B"/>
<rect x="24.5" y="240.5" width="311" height="66" rx="3.5" fill="#FFFBE6" stroke="#CCCCCC"/>
<path d="M140.344 283L138.211 277.551H131.344L129.234 283H127.219L133.992 265.797H135.668L142.406 283H140.344ZM137.59 275.758L135.598 270.449C135.34 269.777 135.074 268.953 134.801 267.977C134.629 268.727 134.383 269.551 134.062 270.449L132.047 275.758H137.59ZM144.762 265.867H149.602C151.875 265.867 153.52 266.207 154.535 266.887C155.551 267.566 156.059 268.641 156.059 270.109C156.059 271.125 155.773 271.965 155.203 272.629C154.641 273.285 153.816 273.711 152.73 273.906V274.023C155.332 274.469 156.633 275.836 156.633 278.125C156.633 279.656 156.113 280.852 155.074 281.711C154.043 282.57 152.598 283 150.738 283H144.762V265.867ZM146.754 273.203H150.035C151.441 273.203 152.453 272.984 153.07 272.547C153.688 272.102 153.996 271.355 153.996 270.309C153.996 269.348 153.652 268.656 152.965 268.234C152.277 267.805 151.184 267.59 149.684 267.59H146.754V273.203ZM146.754 274.891V281.301H150.328C151.711 281.301 152.75 281.035 153.445 280.504C154.148 279.965 154.5 279.125 154.5 277.984C154.5 276.922 154.141 276.141 153.422 275.641C152.711 275.141 151.625 274.891 150.164 274.891H146.754ZM167.66 267.402C165.777 267.402 164.289 268.031 163.195 269.289C162.109 270.539 161.566 272.254 161.566 274.434C161.566 276.676 162.09 278.41 163.137 279.637C164.191 280.855 165.691 281.465 167.637 281.465C168.832 281.465 170.195 281.25 171.727 280.82V282.566C170.539 283.012 169.074 283.234 167.332 283.234C164.809 283.234 162.859 282.469 161.484 280.938C160.117 279.406 159.434 277.23 159.434 274.41C159.434 272.645 159.762 271.098 160.418 269.77C161.082 268.441 162.035 267.418 163.277 266.699C164.527 265.98 165.996 265.621 167.684 265.621C169.48 265.621 171.051 265.949 172.395 266.605L171.551 268.316C170.254 267.707 168.957 267.402 167.66 267.402ZM174.094 277.457V275.676H179.848V277.457H174.094ZM189.223 283H187.324V270.789C187.324 269.773 187.355 268.812 187.418 267.906C187.254 268.07 187.07 268.242 186.867 268.422C186.664 268.602 185.734 269.363 184.078 270.707L183.047 269.371L187.582 265.867H189.223V283ZM207.012 283H195.75V281.324L200.262 276.789C201.637 275.398 202.543 274.406 202.98 273.812C203.418 273.219 203.746 272.641 203.965 272.078C204.184 271.516 204.293 270.91 204.293 270.262C204.293 269.348 204.016 268.625 203.461 268.094C202.906 267.555 202.137 267.285 201.152 267.285C200.441 267.285 199.766 267.402 199.125 267.637C198.492 267.871 197.785 268.297 197.004 268.914L195.973 267.59C197.551 266.277 199.27 265.621 201.129 265.621C202.738 265.621 204 266.035 204.914 266.863C205.828 267.684 206.285 268.789 206.285 270.18C206.285 271.266 205.98 272.34 205.371 273.402C204.762 274.465 203.621 275.809 201.949 277.434L198.199 281.102V281.195H207.012V283ZM220.102 269.898C220.102 270.992 219.793 271.887 219.176 272.582C218.566 273.277 217.699 273.742 216.574 273.977V274.07C217.949 274.242 218.969 274.68 219.633 275.383C220.297 276.086 220.629 277.008 220.629 278.148C220.629 279.781 220.062 281.039 218.93 281.922C217.797 282.797 216.188 283.234 214.102 283.234C213.195 283.234 212.363 283.164 211.605 283.023C210.855 282.891 210.125 282.652 209.414 282.309V280.457C210.156 280.824 210.945 281.105 211.781 281.301C212.625 281.488 213.422 281.582 214.172 281.582C217.133 281.582 218.613 280.422 218.613 278.102C218.613 276.023 216.98 274.984 213.715 274.984H212.027V273.309H213.738C215.074 273.309 216.133 273.016 216.914 272.43C217.695 271.836 218.086 271.016 218.086 269.969C218.086 269.133 217.797 268.477 217.219 268C216.648 267.523 215.871 267.285 214.887 267.285C214.137 267.285 213.43 267.387 212.766 267.59C212.102 267.793 211.344 268.168 210.492 268.715L209.508 267.402C210.211 266.848 211.02 266.414 211.934 266.102C212.855 265.781 213.824 265.621 214.84 265.621C216.504 265.621 217.797 266.004 218.719 266.77C219.641 267.527 220.102 268.57 220.102 269.898ZM235.289 279.062H232.746V283H230.883V279.062H222.551V277.363L230.684 265.773H232.746V277.293H235.289V279.062ZM230.883 277.293V271.598C230.883 270.48 230.922 269.219 231 267.812H230.906C230.531 268.562 230.18 269.184 229.852 269.676L224.496 277.293H230.883Z" fill="#0A261D"/>
<path d="M34.7109 228H33.1953L26.9531 218.414H26.8906C26.974 219.539 27.0156 220.57 27.0156 221.508V228H25.7891V216.578H27.2891L33.5156 226.125H33.5781C33.5677 225.984 33.5443 225.534 33.5078 224.773C33.4714 224.008 33.4583 223.461 33.4688 223.133V216.578H34.7109V228ZM38.875 219.438V224.992C38.875 225.69 39.0339 226.211 39.3516 226.555C39.6693 226.898 40.1667 227.07 40.8438 227.07C41.7396 227.07 42.3932 226.826 42.8047 226.336C43.2214 225.846 43.4297 225.047 43.4297 223.938V219.438H44.7266V228H43.6562L43.4688 226.852H43.3984C43.1328 227.273 42.763 227.596 42.2891 227.82C41.8203 228.044 41.2839 228.156 40.6797 228.156C39.638 228.156 38.8568 227.909 38.3359 227.414C37.8203 226.919 37.5625 226.128 37.5625 225.039V219.438H38.875ZM40.2344 218.109C40.4844 217.786 40.7526 217.396 41.0391 216.938C41.3307 216.479 41.5599 216.081 41.7266 215.742H43.3047V215.906C43.0755 216.245 42.7344 216.661 42.2812 217.156C41.8281 217.651 41.4349 218.034 41.1016 218.305H40.2344V218.109ZM58.3984 228V222.43C58.3984 221.747 58.2526 221.237 57.9609 220.898C57.6693 220.555 57.2161 220.383 56.6016 220.383C55.7943 220.383 55.1979 220.615 54.8125 221.078C54.4271 221.542 54.2344 222.255 54.2344 223.219V228H52.9375V222.43C52.9375 221.747 52.7917 221.237 52.5 220.898C52.2083 220.555 51.7526 220.383 51.1328 220.383C50.3203 220.383 49.724 220.628 49.3438 221.117C48.9688 221.602 48.7812 222.398 48.7812 223.508V228H47.4844V219.438H48.5391L48.75 220.609H48.8125C49.0573 220.193 49.401 219.867 49.8438 219.633C50.2917 219.398 50.7917 219.281 51.3438 219.281C52.6823 219.281 53.5573 219.766 53.9688 220.734H54.0312C54.2865 220.286 54.6562 219.932 55.1406 219.672C55.625 219.411 56.1771 219.281 56.7969 219.281C57.7656 219.281 58.4896 219.531 58.9688 220.031C59.4531 220.526 59.6953 221.32 59.6953 222.414V228H58.3984ZM65.9922 228.156C64.7266 228.156 63.7266 227.771 62.9922 227C62.263 226.229 61.8984 225.159 61.8984 223.789C61.8984 222.409 62.237 221.312 62.9141 220.5C63.5964 219.688 64.5104 219.281 65.6562 219.281C66.7292 219.281 67.5781 219.635 68.2031 220.344C68.8281 221.047 69.1406 221.977 69.1406 223.133V223.953H63.2422C63.2682 224.958 63.5208 225.721 64 226.242C64.4844 226.763 65.1641 227.023 66.0391 227.023C66.9609 227.023 67.8724 226.831 68.7734 226.445V227.602C68.3151 227.799 67.8802 227.94 67.4688 228.023C67.0625 228.112 66.5703 228.156 65.9922 228.156ZM65.6406 220.367C64.9531 220.367 64.4036 220.591 63.9922 221.039C63.5859 221.487 63.3464 222.107 63.2734 222.898H67.75C67.75 222.081 67.5677 221.456 67.2031 221.023C66.8385 220.586 66.3177 220.367 65.6406 220.367ZM75.2656 219.281C75.6458 219.281 75.987 219.312 76.2891 219.375L76.1094 220.578C75.7552 220.5 75.4427 220.461 75.1719 220.461C74.4792 220.461 73.8854 220.742 73.3906 221.305C72.901 221.867 72.6562 222.568 72.6562 223.406V228H71.3594V219.438H72.4297L72.5781 221.023H72.6406C72.9583 220.466 73.3411 220.036 73.7891 219.734C74.237 219.432 74.7292 219.281 75.2656 219.281ZM85.2812 223.711C85.2812 225.107 84.9297 226.198 84.2266 226.984C83.5234 227.766 82.5521 228.156 81.3125 228.156C80.5469 228.156 79.8672 227.977 79.2734 227.617C78.6797 227.258 78.2214 226.742 77.8984 226.07C77.5755 225.398 77.4141 224.612 77.4141 223.711C77.4141 222.315 77.763 221.229 78.4609 220.453C79.1589 219.672 80.1276 219.281 81.3672 219.281C82.5651 219.281 83.5156 219.68 84.2188 220.477C84.9271 221.273 85.2812 222.352 85.2812 223.711ZM78.7578 223.711C78.7578 224.805 78.9766 225.638 79.4141 226.211C79.8516 226.784 80.4948 227.07 81.3438 227.07C82.1927 227.07 82.8359 226.786 83.2734 226.219C83.7161 225.646 83.9375 224.81 83.9375 223.711C83.9375 222.622 83.7161 221.797 83.2734 221.234C82.8359 220.667 82.1875 220.383 81.3281 220.383C80.4792 220.383 79.8385 220.661 79.4062 221.219C78.974 221.776 78.7578 222.607 78.7578 223.711ZM97.5469 226.852H97.4766C96.8776 227.721 95.9818 228.156 94.7891 228.156C93.6693 228.156 92.7969 227.773 92.1719 227.008C91.5521 226.242 91.2422 225.154 91.2422 223.742C91.2422 222.331 91.5547 221.234 92.1797 220.453C92.8047 219.672 93.6745 219.281 94.7891 219.281C95.9505 219.281 96.8411 219.703 97.4609 220.547H97.5625L97.5078 219.93L97.4766 219.328V215.844H98.7734V228H97.7188L97.5469 226.852ZM94.9531 227.07C95.8385 227.07 96.4792 226.831 96.875 226.352C97.276 225.867 97.4766 225.089 97.4766 224.016V223.742C97.4766 222.529 97.2734 221.664 96.8672 221.148C96.4661 220.628 95.8229 220.367 94.9375 220.367C94.1771 220.367 93.5938 220.664 93.1875 221.258C92.7865 221.846 92.5859 222.68 92.5859 223.758C92.5859 224.852 92.7865 225.677 93.1875 226.234C93.5885 226.792 94.1771 227.07 94.9531 227.07ZM106.797 228L106.539 226.781H106.477C106.049 227.318 105.622 227.682 105.195 227.875C104.773 228.062 104.245 228.156 103.609 228.156C102.76 228.156 102.094 227.938 101.609 227.5C101.13 227.062 100.891 226.44 100.891 225.633C100.891 223.904 102.273 222.997 105.039 222.914L106.492 222.867V222.336C106.492 221.664 106.346 221.169 106.055 220.852C105.768 220.529 105.307 220.367 104.672 220.367C103.958 220.367 103.151 220.586 102.25 221.023L101.852 220.031C102.273 219.802 102.734 219.622 103.234 219.492C103.74 219.362 104.245 219.297 104.75 219.297C105.771 219.297 106.526 219.523 107.016 219.977C107.51 220.43 107.758 221.156 107.758 222.156V228H106.797ZM103.867 227.086C104.674 227.086 105.307 226.865 105.766 226.422C106.229 225.979 106.461 225.359 106.461 224.562V223.789L105.164 223.844C104.133 223.88 103.388 224.042 102.93 224.328C102.477 224.609 102.25 225.049 102.25 225.648C102.25 226.117 102.391 226.474 102.672 226.719C102.958 226.964 103.357 227.086 103.867 227.086ZM118.578 228.156C118.021 228.156 117.51 228.055 117.047 227.852C116.589 227.643 116.203 227.326 115.891 226.898H115.797C115.859 227.398 115.891 227.872 115.891 228.32V231.844H114.594V219.438H115.648L115.828 220.609H115.891C116.224 220.141 116.612 219.802 117.055 219.594C117.497 219.385 118.005 219.281 118.578 219.281C119.714 219.281 120.589 219.669 121.203 220.445C121.823 221.221 122.133 222.31 122.133 223.711C122.133 225.117 121.818 226.211 121.188 226.992C120.562 227.768 119.693 228.156 118.578 228.156ZM118.391 220.383C117.516 220.383 116.883 220.625 116.492 221.109C116.102 221.594 115.901 222.365 115.891 223.422V223.711C115.891 224.914 116.091 225.776 116.492 226.297C116.893 226.812 117.536 227.07 118.422 227.07C119.161 227.07 119.74 226.771 120.156 226.172C120.578 225.573 120.789 224.747 120.789 223.695C120.789 222.628 120.578 221.81 120.156 221.242C119.74 220.669 119.151 220.383 118.391 220.383ZM125.703 228H124.406V215.844H125.703V228ZM133.719 228L133.461 226.781H133.398C132.971 227.318 132.544 227.682 132.117 227.875C131.695 228.062 131.167 228.156 130.531 228.156C129.682 228.156 129.016 227.938 128.531 227.5C128.052 227.062 127.812 226.44 127.812 225.633C127.812 223.904 129.195 222.997 131.961 222.914L133.414 222.867V222.336C133.414 221.664 133.268 221.169 132.977 220.852C132.69 220.529 132.229 220.367 131.594 220.367C130.88 220.367 130.073 220.586 129.172 221.023L128.773 220.031C129.195 219.802 129.656 219.622 130.156 219.492C130.661 219.362 131.167 219.297 131.672 219.297C132.693 219.297 133.448 219.523 133.938 219.977C134.432 220.43 134.68 221.156 134.68 222.156V228H133.719ZM130.789 227.086C131.596 227.086 132.229 226.865 132.688 226.422C133.151 225.979 133.383 225.359 133.383 224.562V223.789L132.086 223.844C131.055 223.88 130.31 224.042 129.852 224.328C129.398 224.609 129.172 225.049 129.172 225.648C129.172 226.117 129.312 226.474 129.594 226.719C129.88 226.964 130.279 227.086 130.789 227.086ZM140.781 228.156C139.542 228.156 138.581 227.776 137.898 227.016C137.221 226.25 136.883 225.169 136.883 223.773C136.883 222.341 137.227 221.234 137.914 220.453C138.607 219.672 139.591 219.281 140.867 219.281C141.279 219.281 141.69 219.326 142.102 219.414C142.513 219.503 142.836 219.607 143.07 219.727L142.672 220.828C142.385 220.714 142.073 220.62 141.734 220.547C141.396 220.469 141.096 220.43 140.836 220.43C139.096 220.43 138.227 221.539 138.227 223.758C138.227 224.81 138.438 225.617 138.859 226.18C139.286 226.742 139.917 227.023 140.75 227.023C141.464 227.023 142.195 226.87 142.945 226.562V227.711C142.372 228.008 141.651 228.156 140.781 228.156ZM150.25 228L149.992 226.781H149.93C149.503 227.318 149.076 227.682 148.648 227.875C148.227 228.062 147.698 228.156 147.062 228.156C146.214 228.156 145.547 227.938 145.062 227.5C144.583 227.062 144.344 226.44 144.344 225.633C144.344 223.904 145.727 222.997 148.492 222.914L149.945 222.867V222.336C149.945 221.664 149.799 221.169 149.508 220.852C149.221 220.529 148.76 220.367 148.125 220.367C147.411 220.367 146.604 220.586 145.703 221.023L145.305 220.031C145.727 219.802 146.188 219.622 146.688 219.492C147.193 219.362 147.698 219.297 148.203 219.297C149.224 219.297 149.979 219.523 150.469 219.977C150.964 220.43 151.211 221.156 151.211 222.156V228H150.25ZM147.32 227.086C148.128 227.086 148.76 226.865 149.219 226.422C149.682 225.979 149.914 225.359 149.914 224.562V223.789L148.617 223.844C147.586 223.88 146.841 224.042 146.383 224.328C145.93 224.609 145.703 225.049 145.703 225.648C145.703 226.117 145.844 226.474 146.125 226.719C146.411 226.964 146.81 227.086 147.32 227.086ZM153.703 227.172C153.703 226.823 153.781 226.56 153.938 226.383C154.099 226.201 154.328 226.109 154.625 226.109C154.927 226.109 155.161 226.201 155.328 226.383C155.5 226.56 155.586 226.823 155.586 227.172C155.586 227.51 155.5 227.771 155.328 227.953C155.156 228.135 154.922 228.227 154.625 228.227C154.359 228.227 154.138 228.146 153.961 227.984C153.789 227.818 153.703 227.547 153.703 227.172ZM153.703 220.273C153.703 219.57 154.01 219.219 154.625 219.219C155.266 219.219 155.586 219.57 155.586 220.273C155.586 220.612 155.5 220.872 155.328 221.055C155.156 221.237 154.922 221.328 154.625 221.328C154.359 221.328 154.138 221.247 153.961 221.086C153.789 220.919 153.703 220.648 153.703 220.273Z" fill="#9B9B9B"/>
<rect x="24" y="320" width="312" height="67" rx="4" fill="#28DD91"/>
<path d="M105.198 350.64C104.192 350.64 103.401 350.996 102.825 351.709C102.249 352.422 101.96 353.406 101.96 354.661C101.96 355.974 102.236 356.968 102.788 357.642C103.345 358.315 104.148 358.652 105.198 358.652C105.652 358.652 106.091 358.608 106.516 358.521C106.941 358.428 107.383 358.311 107.842 358.169V359.67C107.002 359.988 106.05 360.146 104.985 360.146C103.418 360.146 102.214 359.673 101.375 358.726C100.535 357.773 100.115 356.414 100.115 354.646C100.115 353.533 100.317 352.559 100.723 351.724C101.133 350.889 101.724 350.249 102.495 349.805C103.267 349.36 104.172 349.138 105.212 349.138C106.306 349.138 107.317 349.368 108.245 349.827L107.615 351.284C107.253 351.113 106.87 350.964 106.465 350.837C106.064 350.706 105.642 350.64 105.198 350.64ZM119.656 354.631C119.656 356.375 119.219 357.729 118.345 358.696C117.476 359.663 116.243 360.146 114.646 360.146C113.03 360.146 111.787 359.668 110.918 358.711C110.054 357.749 109.622 356.384 109.622 354.617C109.622 352.849 110.056 351.492 110.925 350.544C111.799 349.597 113.044 349.124 114.661 349.124C116.252 349.124 117.483 349.604 118.352 350.566C119.221 351.528 119.656 352.883 119.656 354.631ZM111.482 354.631C111.482 355.95 111.748 356.951 112.28 357.634C112.812 358.313 113.601 358.652 114.646 358.652C115.686 358.652 116.47 358.315 116.997 357.642C117.529 356.968 117.795 355.964 117.795 354.631C117.795 353.318 117.532 352.322 117.004 351.643C116.482 350.964 115.701 350.625 114.661 350.625C113.611 350.625 112.817 350.964 112.28 351.643C111.748 352.322 111.482 353.318 111.482 354.631ZM130.876 360H128.73L123.464 351.467H123.406L123.442 351.943C123.511 352.852 123.545 353.682 123.545 354.434V360H121.956V349.292H124.08L129.331 357.781H129.375C129.365 357.668 129.346 357.261 129.316 356.558C129.287 355.85 129.272 355.298 129.272 354.902V349.292H130.876V360ZM135.439 360H133.704V349.292H139.746V350.771H135.439V354.119H139.475V355.605H135.439V360ZM141.687 360V349.292H143.438V360H141.687ZM148.022 354.272H149.238C150.054 354.272 150.645 354.121 151.011 353.818C151.377 353.516 151.56 353.066 151.56 352.471C151.56 351.865 151.362 351.431 150.967 351.167C150.571 350.903 149.976 350.771 149.18 350.771H148.022V354.272ZM148.022 355.723V360H146.272V349.292H149.297C150.679 349.292 151.702 349.551 152.366 350.068C153.03 350.586 153.362 351.367 153.362 352.412C153.362 353.745 152.668 354.695 151.282 355.261L154.307 360H152.314L149.751 355.723H148.022ZM160.496 360L157.39 351.057H157.332C157.415 352.385 157.456 353.63 157.456 354.792V360H155.867V349.292H158.335L161.309 357.81H161.353L164.414 349.292H166.89V360H165.205V354.705C165.205 354.172 165.217 353.479 165.242 352.625C165.271 351.77 165.295 351.252 165.315 351.072H165.256L162.041 360H160.496ZM176.353 360L175.283 357.026H171.189L170.142 360H168.296L172.302 349.248H174.207L178.213 360H176.353ZM174.822 355.518L173.818 352.603C173.745 352.407 173.643 352.1 173.511 351.68C173.384 351.26 173.296 350.952 173.247 350.757C173.115 351.357 172.922 352.014 172.668 352.727L171.702 355.518H174.822ZM181.377 354.272H182.593C183.408 354.272 183.999 354.121 184.365 353.818C184.731 353.516 184.915 353.066 184.915 352.471C184.915 351.865 184.717 351.431 184.321 351.167C183.926 350.903 183.33 350.771 182.534 350.771H181.377V354.272ZM181.377 355.723V360H179.626V349.292H182.651C184.033 349.292 185.056 349.551 185.72 350.068C186.384 350.586 186.716 351.367 186.716 352.412C186.716 353.745 186.023 354.695 184.636 355.261L187.661 360H185.669L183.105 355.723H181.377ZM199.175 360H193.118V349.292H199.175V350.771H194.868V353.687H198.904V355.151H194.868V358.513H199.175V360ZM210.417 360H208.271L203.005 351.467H202.947L202.983 351.943C203.052 352.852 203.086 353.682 203.086 354.434V360H201.497V349.292H203.621L208.872 357.781H208.916C208.906 357.668 208.887 357.261 208.857 356.558C208.828 355.85 208.813 355.298 208.813 354.902V349.292H210.417V360ZM216.943 360H215.193V350.793H212.043V349.292H220.093V350.793H216.943V360ZM223.491 354.272H224.707C225.522 354.272 226.113 354.121 226.479 353.818C226.846 353.516 227.029 353.066 227.029 352.471C227.029 351.865 226.831 351.431 226.436 351.167C226.04 350.903 225.444 350.771 224.648 350.771H223.491V354.272ZM223.491 355.723V360H221.741V349.292H224.766C226.147 349.292 227.17 349.551 227.834 350.068C228.499 350.586 228.831 351.367 228.831 352.412C228.831 353.745 228.137 354.695 226.75 355.261L229.775 360H227.783L225.22 355.723H223.491ZM237.979 360L236.909 357.026H232.815L231.768 360H229.922L233.928 349.248H235.833L239.839 360H237.979ZM236.448 355.518L235.444 352.603C235.371 352.407 235.269 352.1 235.137 351.68C235.01 351.26 234.922 350.952 234.873 350.757C234.741 351.357 234.548 352.014 234.294 352.727L233.328 355.518H236.448ZM249.961 354.543C249.961 356.311 249.47 357.664 248.489 358.601C247.507 359.534 246.094 360 244.248 360H241.252V349.292H244.563C246.267 349.292 247.593 349.751 248.54 350.669C249.487 351.587 249.961 352.878 249.961 354.543ZM248.115 354.602C248.115 352.039 246.917 350.757 244.519 350.757H243.003V358.528H244.248C246.826 358.528 248.115 357.219 248.115 354.602ZM258.911 360L257.842 357.026H253.748L252.7 360H250.854L254.861 349.248H256.765L260.771 360H258.911ZM257.38 355.518L256.377 352.603C256.304 352.407 256.201 352.1 256.069 351.68C255.942 351.26 255.854 350.952 255.806 350.757C255.674 351.357 255.481 352.014 255.227 352.727L254.26 355.518H257.38Z" fill="white"/>
</svg>
