<svg width="360" height="640" viewBox="0 0 360 640" fill="none" xmlns="http://www.w3.org/2000/svg">
<rect width="360" height="640" fill="#F2F2F2"/>
<path fill-rule="evenodd" clip-rule="evenodd" d="M0 0V24H360V0H0Z" fill="#757575"/>
<g opacity="0.9">
<path d="M321.696 17H320.042V9.00879L317.602 9.84277V8.44141L321.484 7.0127H321.696V17ZM331.848 17H325.155V15.8584L328.471 12.2422C328.949 11.709 329.289 11.2646 329.489 10.9092C329.694 10.5492 329.797 10.1891 329.797 9.8291C329.797 9.35514 329.662 8.97233 329.394 8.68066C329.129 8.389 328.771 8.24316 328.32 8.24316C327.783 8.24316 327.366 8.40723 327.069 8.73535C326.773 9.06348 326.625 9.51237 326.625 10.082H324.964C324.964 9.47591 325.101 8.93132 325.374 8.44824C325.652 7.96061 326.046 7.58236 326.557 7.31348C327.072 7.0446 327.664 6.91016 328.334 6.91016C329.3 6.91016 330.061 7.15397 330.617 7.6416C331.178 8.12467 331.458 8.7946 331.458 9.65137C331.458 10.1481 331.317 10.6699 331.034 11.2168C330.756 11.7591 330.298 12.3766 329.66 13.0693L327.227 15.6738H331.848V17ZM334.22 15.25C334.53 15.25 334.769 15.3389 334.938 15.5166C335.106 15.6898 335.19 15.9085 335.19 16.1729C335.19 16.4326 335.106 16.6491 334.938 16.8223C334.769 16.9909 334.53 17.0752 334.22 17.0752C333.924 17.0752 333.689 16.9909 333.516 16.8223C333.342 16.6536 333.256 16.4372 333.256 16.1729C333.256 15.9085 333.34 15.6898 333.509 15.5166C333.677 15.3389 333.914 15.25 334.22 15.25ZM334.22 9.44629C334.53 9.44629 334.769 9.53516 334.938 9.71289C335.106 9.88607 335.19 10.1048 335.19 10.3691C335.19 10.6289 335.106 10.8454 334.938 11.0186C334.769 11.1872 334.53 11.2715 334.22 11.2715C333.924 11.2715 333.689 11.1872 333.516 11.0186C333.342 10.8499 333.256 10.6335 333.256 10.3691C333.256 10.1048 333.34 9.88607 333.509 9.71289C333.677 9.53516 333.914 9.44629 334.22 9.44629ZM338.752 11.2646H339.764C340.274 11.2601 340.677 11.1279 340.974 10.8682C341.274 10.6084 341.425 10.2324 341.425 9.74023C341.425 9.26628 341.299 8.89941 341.049 8.63965C340.803 8.37533 340.424 8.24316 339.914 8.24316C339.467 8.24316 339.101 8.37305 338.813 8.63281C338.526 8.88802 338.383 9.22298 338.383 9.6377H336.722C336.722 9.12728 336.856 8.66243 337.125 8.24316C337.398 7.82389 337.777 7.49805 338.26 7.26562C338.747 7.02865 339.292 6.91016 339.894 6.91016C340.887 6.91016 341.666 7.16081 342.231 7.66211C342.801 8.15885 343.086 8.85156 343.086 9.74023C343.086 10.1868 342.942 10.6084 342.655 11.0049C342.373 11.3968 342.006 11.693 341.555 11.8936C342.102 12.0804 342.516 12.3743 342.799 12.7754C343.086 13.1764 343.229 13.6549 343.229 14.2109C343.229 15.1042 342.922 15.8151 342.307 16.3438C341.696 16.8724 340.892 17.1367 339.894 17.1367C338.937 17.1367 338.153 16.8815 337.542 16.3711C336.931 15.8607 336.626 15.1816 336.626 14.334H338.287C338.287 14.7715 338.433 15.127 338.725 15.4004C339.021 15.6738 339.417 15.8105 339.914 15.8105C340.429 15.8105 340.835 15.6738 341.131 15.4004C341.427 15.127 341.575 14.7305 341.575 14.2109C341.575 13.6868 341.42 13.2835 341.11 13.001C340.8 12.7184 340.34 12.5771 339.729 12.5771H338.752V11.2646ZM351.275 12.8096C351.275 14.2406 351.007 15.3206 350.469 16.0498C349.936 16.7744 349.122 17.1367 348.028 17.1367C346.953 17.1367 346.142 16.7835 345.595 16.0771C345.052 15.3662 344.774 14.3158 344.761 12.9258V11.2031C344.761 9.77214 345.027 8.69889 345.561 7.9834C346.098 7.2679 346.916 6.91016 348.015 6.91016C349.104 6.91016 349.915 7.25879 350.448 7.95605C350.986 8.65332 351.262 9.69694 351.275 11.0869V12.8096ZM349.614 10.9502C349.614 10.016 349.487 9.33236 349.231 8.89941C348.976 8.46191 348.571 8.24316 348.015 8.24316C347.472 8.24316 347.074 8.45052 346.818 8.86523C346.563 9.27539 346.429 9.91797 346.415 10.793V13.0488C346.415 13.9785 346.545 14.6712 346.805 15.127C347.064 15.5827 347.472 15.8105 348.028 15.8105C348.562 15.8105 348.956 15.6009 349.211 15.1816C349.466 14.7578 349.601 14.097 349.614 13.1992V10.9502Z" fill="white"/>
</g>
<path fill-rule="evenodd" clip-rule="evenodd" d="M306 5.875V5L303 5V5.875H300V19H309V5.875H306Z" fill="white"/>
<path fill-rule="evenodd" clip-rule="evenodd" d="M277 19H291V5L277 19Z" fill="white"/>
<path fill-rule="evenodd" clip-rule="evenodd" d="M256.977 8.01593C259.488 6.12256 262.613 5 266 5C269.387 5 272.512 6.12256 275.023 8.01593L266 19L256.977 8.01593Z" fill="white"/>
<path fill-rule="evenodd" clip-rule="evenodd" d="M0 592V640H360V592H0Z" fill="black"/>
<path d="M274 610C274 609.448 274.448 609 275 609H287C287.552 609 288 609.448 288 610V622C288 622.552 287.552 623 287 623H275C274.448 623 274 622.552 274 622V610Z" stroke="white" stroke-width="2"/>
<circle cx="180" cy="616" r="7" stroke="white" stroke-width="2"/>
<path d="M84.4995 608.849C85.1662 608.464 86 608.945 86 609.715V621.287C86 622.057 85.1662 622.538 84.4995 622.153L74.4904 616.367C73.8244 615.982 73.8244 615.02 74.4904 614.635L84.4995 608.849Z" stroke="white" stroke-width="2"/>
<rect y="24" width="360" height="60" fill="#4DD0E1"/>
<path d="M42.604 40.6785C42.2765 40.3333 41.7054 40.3326 41.3629 40.664L40.1485 41.8387C39.8236 42.153 39.8275 42.6503 40.1366 42.9792C43.0962 46.1297 44.5759 50.1252 44.5758 54.1207C44.5756 58.1157 43.0959 62.1106 40.1366 65.2607C39.8275 65.5897 39.8236 66.0869 40.1485 66.4012L41.3629 67.5759C41.7054 67.9073 42.2765 67.9066 42.6041 67.5614C46.2016 63.7701 48.0003 58.9445 48 54.1189C47.9998 49.2942 46.2011 44.4693 42.604 40.6785Z" fill="white"/>
<path d="M11.4242 54.1195C11.4243 50.1244 12.9041 46.1294 15.8635 42.9792C16.1725 42.6502 16.1764 42.153 15.8515 41.8387L14.6372 40.664C14.2946 40.3326 13.7236 40.3333 13.3959 40.6785C9.79856 44.4696 7.99992 49.295 8 54.1204C8.00008 58.9455 9.7988 63.7705 13.3959 67.5614C13.7235 67.9066 14.2946 67.9073 14.6372 67.5759L15.8515 66.4012C16.1764 66.0869 16.1725 65.5896 15.8635 65.2606C12.9039 62.1102 11.4242 58.1149 11.4242 54.1195Z" fill="white"/>
<path fill-rule="evenodd" clip-rule="evenodd" d="M13.238 53.8837C13.238 45.6764 19.9673 39 28.238 39C36.5087 39 43.238 45.6764 43.238 53.8837C43.238 62.0911 36.5087 68.7674 28.238 68.7674C19.9673 68.7674 13.238 62.0911 13.238 53.8837ZM26.5616 55.5374H29.0616C31.359 55.5374 33.2283 53.6835 33.2283 51.4031C33.2283 49.1227 31.359 47.2688 29.0616 47.2687H25.7283C25.2677 47.2687 24.8949 47.6385 24.8949 48.0956V59.6718C24.8949 60.1288 25.2677 60.4987 25.7283 60.4987C26.1889 60.4987 26.5616 60.1288 26.5616 59.6718V55.5374Z" fill="white"/>
<path d="M29.1905 48.9225H26.5714V53.6475H29.1905C30.6347 53.6475 31.8095 52.5877 31.8095 51.285C31.8095 49.9822 30.6347 48.9225 29.1905 48.9225Z" fill="white"/>
<path d="M350.546 53.0769H317.454C316.651 53.0769 316 53.6968 316 54.4615C316 55.2263 316.651 55.8462 317.454 55.8462H350.546C351.349 55.8462 352 55.2263 352 54.4615C352 53.6969 351.349 53.0769 350.546 53.0769Z" fill="white"/>
<path d="M350.546 42H317.454C316.651 42 316 42.6199 316 43.3846C316 44.1493 316.651 44.7692 317.454 44.7692H350.546C351.349 44.7692 352 44.1493 352 43.3846C352 42.6199 351.349 42 350.546 42Z" fill="white"/>
<path d="M350.546 64.1538H317.454C316.651 64.1538 316 64.7737 316 65.5385C316 66.3032 316.651 66.9231 317.454 66.9231H350.546C351.349 66.9231 352 66.3032 352 65.5385C352 64.7737 351.349 64.1538 350.546 64.1538Z" fill="white"/>
<path d="M8 172H352V447C352 449.209 350.209 451 348 451H12C9.79086 451 8 449.209 8 447V172Z" fill="white"/>
<path d="M8 129C8 126.791 9.79086 125 12 125H176C178.209 125 180 126.791 180 129V173H8V129Z" fill="white"/>
<rect x="8" y="170" width="172" height="3" fill="#4DD0E1"/>
<path d="M72.6641 155H66.2969V143.578H72.6641V144.758H67.625V148.438H72.3594V149.609H67.625V153.812H72.6641V155ZM80.8672 155V149.461C80.8672 148.763 80.7083 148.242 80.3906 147.898C80.0729 147.555 79.5755 147.383 78.8984 147.383C78.0026 147.383 77.3464 147.625 76.9297 148.109C76.513 148.594 76.3047 149.393 76.3047 150.508V155H75.0078V146.438H76.0625L76.2734 147.609H76.3359C76.6016 147.188 76.974 146.862 77.4531 146.633C77.9323 146.398 78.4661 146.281 79.0547 146.281C80.0859 146.281 80.862 146.531 81.3828 147.031C81.9036 147.526 82.1641 148.32 82.1641 149.414V155H80.8672ZM87.6016 154.086C87.8307 154.086 88.0521 154.07 88.2656 154.039C88.4792 154.003 88.6484 153.966 88.7734 153.93V154.922C88.6328 154.99 88.4245 155.044 88.1484 155.086C87.8776 155.133 87.6328 155.156 87.4141 155.156C85.7578 155.156 84.9297 154.284 84.9297 152.539V147.445H83.7031V146.82L84.9297 146.281L85.4766 144.453H86.2266V146.438H88.7109V147.445H86.2266V152.484C86.2266 153 86.349 153.396 86.5938 153.672C86.8385 153.948 87.1745 154.086 87.6016 154.086ZM94.3984 146.281C94.7786 146.281 95.1198 146.312 95.4219 146.375L95.2422 147.578C94.888 147.5 94.5755 147.461 94.3047 147.461C93.612 147.461 93.0182 147.742 92.5234 148.305C92.0339 148.867 91.7891 149.568 91.7891 150.406V155H90.4922V146.438H91.5625L91.7109 148.023H91.7734C92.0911 147.466 92.474 147.036 92.9219 146.734C93.3698 146.432 93.862 146.281 94.3984 146.281ZM102.289 155L102.031 153.781H101.969C101.542 154.318 101.115 154.682 100.688 154.875C100.266 155.062 99.737 155.156 99.1016 155.156C98.2526 155.156 97.5859 154.938 97.1016 154.5C96.6224 154.062 96.3828 153.44 96.3828 152.633C96.3828 150.904 97.7656 149.997 100.531 149.914L101.984 149.867V149.336C101.984 148.664 101.839 148.169 101.547 147.852C101.26 147.529 100.799 147.367 100.164 147.367C99.4505 147.367 98.6432 147.586 97.7422 148.023L97.3438 147.031C97.7656 146.802 98.2266 146.622 98.7266 146.492C99.2318 146.362 99.737 146.297 100.242 146.297C101.263 146.297 102.018 146.523 102.508 146.977C103.003 147.43 103.25 148.156 103.25 149.156V155H102.289ZM99.3594 154.086C100.167 154.086 100.799 153.865 101.258 153.422C101.721 152.979 101.953 152.359 101.953 151.562V150.789L100.656 150.844C99.625 150.88 98.8802 151.042 98.4219 151.328C97.9688 151.609 97.7422 152.049 97.7422 152.648C97.7422 153.117 97.8828 153.474 98.1641 153.719C98.4505 153.964 98.849 154.086 99.3594 154.086ZM111.758 153.852H111.688C111.089 154.721 110.193 155.156 109 155.156C107.88 155.156 107.008 154.773 106.383 154.008C105.763 153.242 105.453 152.154 105.453 150.742C105.453 149.331 105.766 148.234 106.391 147.453C107.016 146.672 107.885 146.281 109 146.281C110.161 146.281 111.052 146.703 111.672 147.547H111.773L111.719 146.93L111.688 146.328V142.844H112.984V155H111.93L111.758 153.852ZM109.164 154.07C110.049 154.07 110.69 153.831 111.086 153.352C111.487 152.867 111.688 152.089 111.688 151.016V150.742C111.688 149.529 111.484 148.664 111.078 148.148C110.677 147.628 110.034 147.367 109.148 147.367C108.388 147.367 107.805 147.664 107.398 148.258C106.997 148.846 106.797 149.68 106.797 150.758C106.797 151.852 106.997 152.677 107.398 153.234C107.799 153.792 108.388 154.07 109.164 154.07ZM121.008 155L120.75 153.781H120.688C120.26 154.318 119.833 154.682 119.406 154.875C118.984 155.062 118.456 155.156 117.82 155.156C116.971 155.156 116.305 154.938 115.82 154.5C115.341 154.062 115.102 153.44 115.102 152.633C115.102 150.904 116.484 149.997 119.25 149.914L120.703 149.867V149.336C120.703 148.664 120.557 148.169 120.266 147.852C119.979 147.529 119.518 147.367 118.883 147.367C118.169 147.367 117.362 147.586 116.461 148.023L116.062 147.031C116.484 146.802 116.945 146.622 117.445 146.492C117.951 146.362 118.456 146.297 118.961 146.297C119.982 146.297 120.737 146.523 121.227 146.977C121.721 147.43 121.969 148.156 121.969 149.156V155H121.008ZM118.078 154.086C118.885 154.086 119.518 153.865 119.977 153.422C120.44 152.979 120.672 152.359 120.672 151.562V150.789L119.375 150.844C118.344 150.88 117.599 151.042 117.141 151.328C116.688 151.609 116.461 152.049 116.461 152.648C116.461 153.117 116.602 153.474 116.883 153.719C117.169 153.964 117.568 154.086 118.078 154.086Z" fill="#4DD0E1"/>
<rect x="180" y="125" width="172" height="48" fill="#F2F2F2"/>
<path d="M254.289 152.961C254.289 153.966 253.924 154.75 253.195 155.312C252.466 155.875 251.477 156.156 250.227 156.156C248.872 156.156 247.831 155.982 247.102 155.633V154.352C247.57 154.549 248.081 154.706 248.633 154.82C249.185 154.935 249.732 154.992 250.273 154.992C251.159 154.992 251.826 154.826 252.273 154.492C252.721 154.154 252.945 153.685 252.945 153.086C252.945 152.69 252.865 152.367 252.703 152.117C252.547 151.862 252.281 151.628 251.906 151.414C251.536 151.201 250.971 150.958 250.211 150.688C249.148 150.307 248.388 149.857 247.93 149.336C247.477 148.815 247.25 148.135 247.25 147.297C247.25 146.417 247.581 145.716 248.242 145.195C248.904 144.674 249.779 144.414 250.867 144.414C252.003 144.414 253.047 144.622 254 145.039L253.586 146.195C252.643 145.799 251.727 145.602 250.836 145.602C250.133 145.602 249.583 145.753 249.188 146.055C248.792 146.357 248.594 146.776 248.594 147.312C248.594 147.708 248.667 148.034 248.812 148.289C248.958 148.539 249.203 148.771 249.547 148.984C249.896 149.193 250.427 149.424 251.141 149.68C252.339 150.107 253.161 150.565 253.609 151.055C254.062 151.544 254.289 152.18 254.289 152.961ZM261.695 156L261.438 154.781H261.375C260.948 155.318 260.521 155.682 260.094 155.875C259.672 156.062 259.143 156.156 258.508 156.156C257.659 156.156 256.992 155.938 256.508 155.5C256.029 155.062 255.789 154.44 255.789 153.633C255.789 151.904 257.172 150.997 259.938 150.914L261.391 150.867V150.336C261.391 149.664 261.245 149.169 260.953 148.852C260.667 148.529 260.206 148.367 259.57 148.367C258.857 148.367 258.049 148.586 257.148 149.023L256.75 148.031C257.172 147.802 257.633 147.622 258.133 147.492C258.638 147.362 259.143 147.297 259.648 147.297C260.669 147.297 261.424 147.523 261.914 147.977C262.409 148.43 262.656 149.156 262.656 150.156V156H261.695ZM258.766 155.086C259.573 155.086 260.206 154.865 260.664 154.422C261.128 153.979 261.359 153.359 261.359 152.562V151.789L260.062 151.844C259.031 151.88 258.286 152.042 257.828 152.328C257.375 152.609 257.148 153.049 257.148 153.648C257.148 154.117 257.289 154.474 257.57 154.719C257.857 154.964 258.255 155.086 258.766 155.086ZM266.633 156H265.336V147.438H266.633V156ZM265.281 146.109C265.531 145.786 265.799 145.396 266.086 144.938C266.378 144.479 266.607 144.081 266.773 143.742H268.352V143.906C268.122 144.245 267.781 144.661 267.328 145.156C266.875 145.651 266.482 146.034 266.148 146.305H265.281V146.109ZM275.211 154.852H275.141C274.542 155.721 273.646 156.156 272.453 156.156C271.333 156.156 270.461 155.773 269.836 155.008C269.216 154.242 268.906 153.154 268.906 151.742C268.906 150.331 269.219 149.234 269.844 148.453C270.469 147.672 271.339 147.281 272.453 147.281C273.615 147.281 274.505 147.703 275.125 148.547H275.227L275.172 147.93L275.141 147.328V143.844H276.438V156H275.383L275.211 154.852ZM272.617 155.07C273.503 155.07 274.143 154.831 274.539 154.352C274.94 153.867 275.141 153.089 275.141 152.016V151.742C275.141 150.529 274.938 149.664 274.531 149.148C274.13 148.628 273.487 148.367 272.602 148.367C271.841 148.367 271.258 148.664 270.852 149.258C270.451 149.846 270.25 150.68 270.25 151.758C270.25 152.852 270.451 153.677 270.852 154.234C271.253 154.792 271.841 155.07 272.617 155.07ZM284.461 156L284.203 154.781H284.141C283.714 155.318 283.286 155.682 282.859 155.875C282.438 156.062 281.909 156.156 281.273 156.156C280.424 156.156 279.758 155.938 279.273 155.5C278.794 155.062 278.555 154.44 278.555 153.633C278.555 151.904 279.938 150.997 282.703 150.914L284.156 150.867V150.336C284.156 149.664 284.01 149.169 283.719 148.852C283.432 148.529 282.971 148.367 282.336 148.367C281.622 148.367 280.815 148.586 279.914 149.023L279.516 148.031C279.938 147.802 280.398 147.622 280.898 147.492C281.404 147.362 281.909 147.297 282.414 147.297C283.435 147.297 284.19 147.523 284.68 147.977C285.174 148.43 285.422 149.156 285.422 150.156V156H284.461ZM281.531 155.086C282.339 155.086 282.971 154.865 283.43 154.422C283.893 153.979 284.125 153.359 284.125 152.562V151.789L282.828 151.844C281.797 151.88 281.052 152.042 280.594 152.328C280.141 152.609 279.914 153.049 279.914 153.648C279.914 154.117 280.055 154.474 280.336 154.719C280.622 154.964 281.021 155.086 281.531 155.086Z" fill="#9B9B9B"/>
<rect x="24.5" y="269.5" width="311" height="66" rx="3.5" fill="#FFFBE6" stroke="#CCCCCC"/>
<path d="M150.012 312H147.75L143.145 304.465L138.457 312H136.348L142.043 303.047L136.734 294.867H138.938L143.191 301.652L147.48 294.867H149.602L144.293 302.977L150.012 312ZM163.863 312H161.602L156.996 304.465L152.309 312H150.199L155.895 303.047L150.586 294.867H152.789L157.043 301.652L161.332 294.867H163.453L158.145 302.977L163.863 312ZM177.715 312H175.453L170.848 304.465L166.16 312H164.051L169.746 303.047L164.438 294.867H166.641L170.895 301.652L175.184 294.867H177.305L171.996 302.977L177.715 312ZM178.793 306.457V304.676H184.547V306.457H178.793ZM197.977 302.18C197.977 308.883 195.383 312.234 190.195 312.234C189.289 312.234 188.57 312.156 188.039 312V310.324C188.664 310.527 189.375 310.629 190.172 310.629C192.047 310.629 193.461 310.051 194.414 308.895C195.375 307.73 195.898 305.949 195.984 303.551H195.844C195.414 304.199 194.844 304.695 194.133 305.039C193.422 305.375 192.621 305.543 191.73 305.543C190.215 305.543 189.012 305.09 188.121 304.184C187.23 303.277 186.785 302.012 186.785 300.387C186.785 298.605 187.281 297.199 188.273 296.168C189.273 295.137 190.586 294.621 192.211 294.621C193.375 294.621 194.391 294.922 195.258 295.523C196.133 296.117 196.805 296.988 197.273 298.137C197.742 299.277 197.977 300.625 197.977 302.18ZM192.211 296.285C191.094 296.285 190.23 296.645 189.621 297.363C189.012 298.082 188.707 299.082 188.707 300.363C188.707 301.488 188.988 302.375 189.551 303.023C190.113 303.664 190.969 303.984 192.117 303.984C192.828 303.984 193.48 303.84 194.074 303.551C194.676 303.262 195.148 302.867 195.492 302.367C195.836 301.867 196.008 301.344 196.008 300.797C196.008 299.977 195.848 299.219 195.527 298.523C195.207 297.828 194.758 297.281 194.18 296.883C193.609 296.484 192.953 296.285 192.211 296.285ZM211.711 302.18C211.711 308.883 209.117 312.234 203.93 312.234C203.023 312.234 202.305 312.156 201.773 312V310.324C202.398 310.527 203.109 310.629 203.906 310.629C205.781 310.629 207.195 310.051 208.148 308.895C209.109 307.73 209.633 305.949 209.719 303.551H209.578C209.148 304.199 208.578 304.695 207.867 305.039C207.156 305.375 206.355 305.543 205.465 305.543C203.949 305.543 202.746 305.09 201.855 304.184C200.965 303.277 200.52 302.012 200.52 300.387C200.52 298.605 201.016 297.199 202.008 296.168C203.008 295.137 204.32 294.621 205.945 294.621C207.109 294.621 208.125 294.922 208.992 295.523C209.867 296.117 210.539 296.988 211.008 298.137C211.477 299.277 211.711 300.625 211.711 302.18ZM205.945 296.285C204.828 296.285 203.965 296.645 203.355 297.363C202.746 298.082 202.441 299.082 202.441 300.363C202.441 301.488 202.723 302.375 203.285 303.023C203.848 303.664 204.703 303.984 205.852 303.984C206.562 303.984 207.215 303.84 207.809 303.551C208.41 303.262 208.883 302.867 209.227 302.367C209.57 301.867 209.742 301.344 209.742 300.797C209.742 299.977 209.582 299.219 209.262 298.523C208.941 297.828 208.492 297.281 207.914 296.883C207.344 296.484 206.688 296.285 205.945 296.285ZM225.445 302.18C225.445 308.883 222.852 312.234 217.664 312.234C216.758 312.234 216.039 312.156 215.508 312V310.324C216.133 310.527 216.844 310.629 217.641 310.629C219.516 310.629 220.93 310.051 221.883 308.895C222.844 307.73 223.367 305.949 223.453 303.551H223.312C222.883 304.199 222.312 304.695 221.602 305.039C220.891 305.375 220.09 305.543 219.199 305.543C217.684 305.543 216.48 305.09 215.59 304.184C214.699 303.277 214.254 302.012 214.254 300.387C214.254 298.605 214.75 297.199 215.742 296.168C216.742 295.137 218.055 294.621 219.68 294.621C220.844 294.621 221.859 294.922 222.727 295.523C223.602 296.117 224.273 296.988 224.742 298.137C225.211 299.277 225.445 300.625 225.445 302.18ZM219.68 296.285C218.562 296.285 217.699 296.645 217.09 297.363C216.48 298.082 216.176 299.082 216.176 300.363C216.176 301.488 216.457 302.375 217.02 303.023C217.582 303.664 218.438 303.984 219.586 303.984C220.297 303.984 220.949 303.84 221.543 303.551C222.145 303.262 222.617 302.867 222.961 302.367C223.305 301.867 223.477 301.344 223.477 300.797C223.477 299.977 223.316 299.219 222.996 298.523C222.676 297.828 222.227 297.281 221.648 296.883C221.078 296.484 220.422 296.285 219.68 296.285Z" fill="#9B9B9B"/>
<path d="M34.7109 257H33.1953L26.9531 247.414H26.8906C26.974 248.539 27.0156 249.57 27.0156 250.508V257H25.7891V245.578H27.2891L33.5156 255.125H33.5781C33.5677 254.984 33.5443 254.534 33.5078 253.773C33.4714 253.008 33.4583 252.461 33.4688 252.133V245.578H34.7109V257ZM38.875 248.438V253.992C38.875 254.69 39.0339 255.211 39.3516 255.555C39.6693 255.898 40.1667 256.07 40.8438 256.07C41.7396 256.07 42.3932 255.826 42.8047 255.336C43.2214 254.846 43.4297 254.047 43.4297 252.938V248.438H44.7266V257H43.6562L43.4688 255.852H43.3984C43.1328 256.273 42.763 256.596 42.2891 256.82C41.8203 257.044 41.2839 257.156 40.6797 257.156C39.638 257.156 38.8568 256.909 38.3359 256.414C37.8203 255.919 37.5625 255.128 37.5625 254.039V248.438H38.875ZM40.2344 247.109C40.4844 246.786 40.7526 246.396 41.0391 245.938C41.3307 245.479 41.5599 245.081 41.7266 244.742H43.3047V244.906C43.0755 245.245 42.7344 245.661 42.2812 246.156C41.8281 246.651 41.4349 247.034 41.1016 247.305H40.2344V247.109ZM58.3984 257V251.43C58.3984 250.747 58.2526 250.237 57.9609 249.898C57.6693 249.555 57.2161 249.383 56.6016 249.383C55.7943 249.383 55.1979 249.615 54.8125 250.078C54.4271 250.542 54.2344 251.255 54.2344 252.219V257H52.9375V251.43C52.9375 250.747 52.7917 250.237 52.5 249.898C52.2083 249.555 51.7526 249.383 51.1328 249.383C50.3203 249.383 49.724 249.628 49.3438 250.117C48.9688 250.602 48.7812 251.398 48.7812 252.508V257H47.4844V248.438H48.5391L48.75 249.609H48.8125C49.0573 249.193 49.401 248.867 49.8438 248.633C50.2917 248.398 50.7917 248.281 51.3438 248.281C52.6823 248.281 53.5573 248.766 53.9688 249.734H54.0312C54.2865 249.286 54.6562 248.932 55.1406 248.672C55.625 248.411 56.1771 248.281 56.7969 248.281C57.7656 248.281 58.4896 248.531 58.9688 249.031C59.4531 249.526 59.6953 250.32 59.6953 251.414V257H58.3984ZM65.9922 257.156C64.7266 257.156 63.7266 256.771 62.9922 256C62.263 255.229 61.8984 254.159 61.8984 252.789C61.8984 251.409 62.237 250.312 62.9141 249.5C63.5964 248.688 64.5104 248.281 65.6562 248.281C66.7292 248.281 67.5781 248.635 68.2031 249.344C68.8281 250.047 69.1406 250.977 69.1406 252.133V252.953H63.2422C63.2682 253.958 63.5208 254.721 64 255.242C64.4844 255.763 65.1641 256.023 66.0391 256.023C66.9609 256.023 67.8724 255.831 68.7734 255.445V256.602C68.3151 256.799 67.8802 256.94 67.4688 257.023C67.0625 257.112 66.5703 257.156 65.9922 257.156ZM65.6406 249.367C64.9531 249.367 64.4036 249.591 63.9922 250.039C63.5859 250.487 63.3464 251.107 63.2734 251.898H67.75C67.75 251.081 67.5677 250.456 67.2031 250.023C66.8385 249.586 66.3177 249.367 65.6406 249.367ZM75.2656 248.281C75.6458 248.281 75.987 248.312 76.2891 248.375L76.1094 249.578C75.7552 249.5 75.4427 249.461 75.1719 249.461C74.4792 249.461 73.8854 249.742 73.3906 250.305C72.901 250.867 72.6562 251.568 72.6562 252.406V257H71.3594V248.438H72.4297L72.5781 250.023H72.6406C72.9583 249.466 73.3411 249.036 73.7891 248.734C74.237 248.432 74.7292 248.281 75.2656 248.281ZM85.2812 252.711C85.2812 254.107 84.9297 255.198 84.2266 255.984C83.5234 256.766 82.5521 257.156 81.3125 257.156C80.5469 257.156 79.8672 256.977 79.2734 256.617C78.6797 256.258 78.2214 255.742 77.8984 255.07C77.5755 254.398 77.4141 253.612 77.4141 252.711C77.4141 251.315 77.763 250.229 78.4609 249.453C79.1589 248.672 80.1276 248.281 81.3672 248.281C82.5651 248.281 83.5156 248.68 84.2188 249.477C84.9271 250.273 85.2812 251.352 85.2812 252.711ZM78.7578 252.711C78.7578 253.805 78.9766 254.638 79.4141 255.211C79.8516 255.784 80.4948 256.07 81.3438 256.07C82.1927 256.07 82.8359 255.786 83.2734 255.219C83.7161 254.646 83.9375 253.81 83.9375 252.711C83.9375 251.622 83.7161 250.797 83.2734 250.234C82.8359 249.667 82.1875 249.383 81.3281 249.383C80.4792 249.383 79.8385 249.661 79.4062 250.219C78.974 250.776 78.7578 251.607 78.7578 252.711ZM97.5469 255.852H97.4766C96.8776 256.721 95.9818 257.156 94.7891 257.156C93.6693 257.156 92.7969 256.773 92.1719 256.008C91.5521 255.242 91.2422 254.154 91.2422 252.742C91.2422 251.331 91.5547 250.234 92.1797 249.453C92.8047 248.672 93.6745 248.281 94.7891 248.281C95.9505 248.281 96.8411 248.703 97.4609 249.547H97.5625L97.5078 248.93L97.4766 248.328V244.844H98.7734V257H97.7188L97.5469 255.852ZM94.9531 256.07C95.8385 256.07 96.4792 255.831 96.875 255.352C97.276 254.867 97.4766 254.089 97.4766 253.016V252.742C97.4766 251.529 97.2734 250.664 96.8672 250.148C96.4661 249.628 95.8229 249.367 94.9375 249.367C94.1771 249.367 93.5938 249.664 93.1875 250.258C92.7865 250.846 92.5859 251.68 92.5859 252.758C92.5859 253.852 92.7865 254.677 93.1875 255.234C93.5885 255.792 94.1771 256.07 94.9531 256.07ZM106.797 257L106.539 255.781H106.477C106.049 256.318 105.622 256.682 105.195 256.875C104.773 257.062 104.245 257.156 103.609 257.156C102.76 257.156 102.094 256.938 101.609 256.5C101.13 256.062 100.891 255.44 100.891 254.633C100.891 252.904 102.273 251.997 105.039 251.914L106.492 251.867V251.336C106.492 250.664 106.346 250.169 106.055 249.852C105.768 249.529 105.307 249.367 104.672 249.367C103.958 249.367 103.151 249.586 102.25 250.023L101.852 249.031C102.273 248.802 102.734 248.622 103.234 248.492C103.74 248.362 104.245 248.297 104.75 248.297C105.771 248.297 106.526 248.523 107.016 248.977C107.51 249.43 107.758 250.156 107.758 251.156V257H106.797ZM103.867 256.086C104.674 256.086 105.307 255.865 105.766 255.422C106.229 254.979 106.461 254.359 106.461 253.562V252.789L105.164 252.844C104.133 252.88 103.388 253.042 102.93 253.328C102.477 253.609 102.25 254.049 102.25 254.648C102.25 255.117 102.391 255.474 102.672 255.719C102.958 255.964 103.357 256.086 103.867 256.086ZM118.578 257.156C118.021 257.156 117.51 257.055 117.047 256.852C116.589 256.643 116.203 256.326 115.891 255.898H115.797C115.859 256.398 115.891 256.872 115.891 257.32V260.844H114.594V248.438H115.648L115.828 249.609H115.891C116.224 249.141 116.612 248.802 117.055 248.594C117.497 248.385 118.005 248.281 118.578 248.281C119.714 248.281 120.589 248.669 121.203 249.445C121.823 250.221 122.133 251.31 122.133 252.711C122.133 254.117 121.818 255.211 121.188 255.992C120.562 256.768 119.693 257.156 118.578 257.156ZM118.391 249.383C117.516 249.383 116.883 249.625 116.492 250.109C116.102 250.594 115.901 251.365 115.891 252.422V252.711C115.891 253.914 116.091 254.776 116.492 255.297C116.893 255.812 117.536 256.07 118.422 256.07C119.161 256.07 119.74 255.771 120.156 255.172C120.578 254.573 120.789 253.747 120.789 252.695C120.789 251.628 120.578 250.81 120.156 250.242C119.74 249.669 119.151 249.383 118.391 249.383ZM125.703 257H124.406V244.844H125.703V257ZM133.719 257L133.461 255.781H133.398C132.971 256.318 132.544 256.682 132.117 256.875C131.695 257.062 131.167 257.156 130.531 257.156C129.682 257.156 129.016 256.938 128.531 256.5C128.052 256.062 127.812 255.44 127.812 254.633C127.812 252.904 129.195 251.997 131.961 251.914L133.414 251.867V251.336C133.414 250.664 133.268 250.169 132.977 249.852C132.69 249.529 132.229 249.367 131.594 249.367C130.88 249.367 130.073 249.586 129.172 250.023L128.773 249.031C129.195 248.802 129.656 248.622 130.156 248.492C130.661 248.362 131.167 248.297 131.672 248.297C132.693 248.297 133.448 248.523 133.938 248.977C134.432 249.43 134.68 250.156 134.68 251.156V257H133.719ZM130.789 256.086C131.596 256.086 132.229 255.865 132.688 255.422C133.151 254.979 133.383 254.359 133.383 253.562V252.789L132.086 252.844C131.055 252.88 130.31 253.042 129.852 253.328C129.398 253.609 129.172 254.049 129.172 254.648C129.172 255.117 129.312 255.474 129.594 255.719C129.88 255.964 130.279 256.086 130.789 256.086ZM140.781 257.156C139.542 257.156 138.581 256.776 137.898 256.016C137.221 255.25 136.883 254.169 136.883 252.773C136.883 251.341 137.227 250.234 137.914 249.453C138.607 248.672 139.591 248.281 140.867 248.281C141.279 248.281 141.69 248.326 142.102 248.414C142.513 248.503 142.836 248.607 143.07 248.727L142.672 249.828C142.385 249.714 142.073 249.62 141.734 249.547C141.396 249.469 141.096 249.43 140.836 249.43C139.096 249.43 138.227 250.539 138.227 252.758C138.227 253.81 138.438 254.617 138.859 255.18C139.286 255.742 139.917 256.023 140.75 256.023C141.464 256.023 142.195 255.87 142.945 255.562V256.711C142.372 257.008 141.651 257.156 140.781 257.156ZM150.25 257L149.992 255.781H149.93C149.503 256.318 149.076 256.682 148.648 256.875C148.227 257.062 147.698 257.156 147.062 257.156C146.214 257.156 145.547 256.938 145.062 256.5C144.583 256.062 144.344 255.44 144.344 254.633C144.344 252.904 145.727 251.997 148.492 251.914L149.945 251.867V251.336C149.945 250.664 149.799 250.169 149.508 249.852C149.221 249.529 148.76 249.367 148.125 249.367C147.411 249.367 146.604 249.586 145.703 250.023L145.305 249.031C145.727 248.802 146.188 248.622 146.688 248.492C147.193 248.362 147.698 248.297 148.203 248.297C149.224 248.297 149.979 248.523 150.469 248.977C150.964 249.43 151.211 250.156 151.211 251.156V257H150.25ZM147.32 256.086C148.128 256.086 148.76 255.865 149.219 255.422C149.682 254.979 149.914 254.359 149.914 253.562V252.789L148.617 252.844C147.586 252.88 146.841 253.042 146.383 253.328C145.93 253.609 145.703 254.049 145.703 254.648C145.703 255.117 145.844 255.474 146.125 255.719C146.411 255.964 146.81 256.086 147.32 256.086ZM153.703 256.172C153.703 255.823 153.781 255.56 153.938 255.383C154.099 255.201 154.328 255.109 154.625 255.109C154.927 255.109 155.161 255.201 155.328 255.383C155.5 255.56 155.586 255.823 155.586 256.172C155.586 256.51 155.5 256.771 155.328 256.953C155.156 257.135 154.922 257.227 154.625 257.227C154.359 257.227 154.138 257.146 153.961 256.984C153.789 256.818 153.703 256.547 153.703 256.172ZM153.703 249.273C153.703 248.57 154.01 248.219 154.625 248.219C155.266 248.219 155.586 248.57 155.586 249.273C155.586 249.612 155.5 249.872 155.328 250.055C155.156 250.237 154.922 250.328 154.625 250.328C154.359 250.328 154.138 250.247 153.961 250.086C153.789 249.919 153.703 249.648 153.703 249.273Z" fill="#9B9B9B"/>
<rect x="24" y="320" width="312" height="67" rx="4" fill="#28DD91"/>
<path d="M105.198 350.64C104.192 350.64 103.401 350.996 102.825 351.709C102.249 352.422 101.96 353.406 101.96 354.661C101.96 355.974 102.236 356.968 102.788 357.642C103.345 358.315 104.148 358.652 105.198 358.652C105.652 358.652 106.091 358.608 106.516 358.521C106.941 358.428 107.383 358.311 107.842 358.169V359.67C107.002 359.988 106.05 360.146 104.985 360.146C103.418 360.146 102.214 359.673 101.375 358.726C100.535 357.773 100.115 356.414 100.115 354.646C100.115 353.533 100.317 352.559 100.723 351.724C101.133 350.889 101.724 350.249 102.495 349.805C103.267 349.36 104.172 349.138 105.212 349.138C106.306 349.138 107.317 349.368 108.245 349.827L107.615 351.284C107.253 351.113 106.87 350.964 106.465 350.837C106.064 350.706 105.642 350.64 105.198 350.64ZM119.656 354.631C119.656 356.375 119.219 357.729 118.345 358.696C117.476 359.663 116.243 360.146 114.646 360.146C113.03 360.146 111.787 359.668 110.918 358.711C110.054 357.749 109.622 356.384 109.622 354.617C109.622 352.849 110.056 351.492 110.925 350.544C111.799 349.597 113.044 349.124 114.661 349.124C116.252 349.124 117.483 349.604 118.352 350.566C119.221 351.528 119.656 352.883 119.656 354.631ZM111.482 354.631C111.482 355.95 111.748 356.951 112.28 357.634C112.812 358.313 113.601 358.652 114.646 358.652C115.686 358.652 116.47 358.315 116.997 357.642C117.529 356.968 117.795 355.964 117.795 354.631C117.795 353.318 117.532 352.322 117.004 351.643C116.482 350.964 115.701 350.625 114.661 350.625C113.611 350.625 112.817 350.964 112.28 351.643C111.748 352.322 111.482 353.318 111.482 354.631ZM130.876 360H128.73L123.464 351.467H123.406L123.442 351.943C123.511 352.852 123.545 353.682 123.545 354.434V360H121.956V349.292H124.08L129.331 357.781H129.375C129.365 357.668 129.346 357.261 129.316 356.558C129.287 355.85 129.272 355.298 129.272 354.902V349.292H130.876V360ZM135.439 360H133.704V349.292H139.746V350.771H135.439V354.119H139.475V355.605H135.439V360ZM141.687 360V349.292H143.438V360H141.687ZM148.022 354.272H149.238C150.054 354.272 150.645 354.121 151.011 353.818C151.377 353.516 151.56 353.066 151.56 352.471C151.56 351.865 151.362 351.431 150.967 351.167C150.571 350.903 149.976 350.771 149.18 350.771H148.022V354.272ZM148.022 355.723V360H146.272V349.292H149.297C150.679 349.292 151.702 349.551 152.366 350.068C153.03 350.586 153.362 351.367 153.362 352.412C153.362 353.745 152.668 354.695 151.282 355.261L154.307 360H152.314L149.751 355.723H148.022ZM160.496 360L157.39 351.057H157.332C157.415 352.385 157.456 353.63 157.456 354.792V360H155.867V349.292H158.335L161.309 357.81H161.353L164.414 349.292H166.89V360H165.205V354.705C165.205 354.172 165.217 353.479 165.242 352.625C165.271 351.77 165.295 351.252 165.315 351.072H165.256L162.041 360H160.496ZM176.353 360L175.283 357.026H171.189L170.142 360H168.296L172.302 349.248H174.207L178.213 360H176.353ZM174.822 355.518L173.818 352.603C173.745 352.407 173.643 352.1 173.511 351.68C173.384 351.26 173.296 350.952 173.247 350.757C173.115 351.357 172.922 352.014 172.668 352.727L171.702 355.518H174.822ZM181.377 354.272H182.593C183.408 354.272 183.999 354.121 184.365 353.818C184.731 353.516 184.915 353.066 184.915 352.471C184.915 351.865 184.717 351.431 184.321 351.167C183.926 350.903 183.33 350.771 182.534 350.771H181.377V354.272ZM181.377 355.723V360H179.626V349.292H182.651C184.033 349.292 185.056 349.551 185.72 350.068C186.384 350.586 186.716 351.367 186.716 352.412C186.716 353.745 186.023 354.695 184.636 355.261L187.661 360H185.669L183.105 355.723H181.377ZM199.175 360H193.118V349.292H199.175V350.771H194.868V353.687H198.904V355.151H194.868V358.513H199.175V360ZM210.417 360H208.271L203.005 351.467H202.947L202.983 351.943C203.052 352.852 203.086 353.682 203.086 354.434V360H201.497V349.292H203.621L208.872 357.781H208.916C208.906 357.668 208.887 357.261 208.857 356.558C208.828 355.85 208.813 355.298 208.813 354.902V349.292H210.417V360ZM216.943 360H215.193V350.793H212.043V349.292H220.093V350.793H216.943V360ZM223.491 354.272H224.707C225.522 354.272 226.113 354.121 226.479 353.818C226.846 353.516 227.029 353.066 227.029 352.471C227.029 351.865 226.831 351.431 226.436 351.167C226.04 350.903 225.444 350.771 224.648 350.771H223.491V354.272ZM223.491 355.723V360H221.741V349.292H224.766C226.147 349.292 227.17 349.551 227.834 350.068C228.499 350.586 228.831 351.367 228.831 352.412C228.831 353.745 228.137 354.695 226.75 355.261L229.775 360H227.783L225.22 355.723H223.491ZM237.979 360L236.909 357.026H232.815L231.768 360H229.922L233.928 349.248H235.833L239.839 360H237.979ZM236.448 355.518L235.444 352.603C235.371 352.407 235.269 352.1 235.137 351.68C235.01 351.26 234.922 350.952 234.873 350.757C234.741 351.357 234.548 352.014 234.294 352.727L233.328 355.518H236.448ZM249.961 354.543C249.961 356.311 249.47 357.664 248.489 358.601C247.507 359.534 246.094 360 244.248 360H241.252V349.292H244.563C246.267 349.292 247.593 349.751 248.54 350.669C249.487 351.587 249.961 352.878 249.961 354.543ZM248.115 354.602C248.115 352.039 246.917 350.757 244.519 350.757H243.003V358.528H244.248C246.826 358.528 248.115 357.219 248.115 354.602ZM258.911 360L257.842 357.026H253.748L252.7 360H250.854L254.861 349.248H256.765L260.771 360H258.911ZM257.38 355.518L256.377 352.603C256.304 352.407 256.201 352.1 256.069 351.68C255.942 351.26 255.854 350.952 255.806 350.757C255.674 351.357 255.481 352.014 255.227 352.727L254.26 355.518H257.38Z" fill="white"/>
<path d="M8 172H352V447C352 449.209 350.209 451 348 451H12C9.79086 451 8 449.209 8 447V172Z" fill="white"/>
<path d="M179.5 312C178.119 312 177 313.033 177 314.308V330.692C177 331.967 178.119 333 179.5 333C180.881 333 182 331.967 182 330.692V314.308C182 313.033 180.881 312 179.5 312Z" fill="#26C6DA"/>
<path d="M179.5 263C178.119 263 177 264.034 177 265.309V281.691C177 282.966 178.119 284 179.5 284C180.881 284 182 282.966 182 281.691V265.309C182 264.034 180.881 263 179.5 263Z" fill="#26C6DA"/>
<path d="M166 297.5C166 296.119 164.968 295 163.694 295H147.306C146.032 295 145 296.119 145 297.5C145 298.881 146.032 300 147.306 300H163.694C164.968 300 166 298.881 166 297.5Z" fill="#26C6DA"/>
<path d="M212.693 295H196.307C195.033 295 194 296.119 194 297.5C194 298.881 195.033 300 196.307 300H212.693C213.967 300 215 298.881 215 297.5C215 296.119 213.967 295 212.693 295Z" fill="#26C6DA"/>
<path d="M166.11 308.668L154.667 320.111C153.777 321.001 153.778 322.443 154.668 323.333C155.113 323.778 155.696 324 156.279 324C156.862 324 157.445 323.778 157.891 323.333L169.333 311.889C170.223 310.999 170.222 309.557 169.332 308.667C168.442 307.778 166.999 307.778 166.11 308.668Z" fill="#26C6DA"/>
<path d="M166.107 287.332C166.552 287.777 167.136 288 167.719 288C168.303 288 168.887 287.777 169.332 287.332C170.223 286.441 170.223 284.997 169.332 284.107L157.893 272.668C157.002 271.777 155.559 271.777 154.668 272.668C153.777 273.559 153.777 275.003 154.668 275.893L166.107 287.332Z" fill="#26C6DA"/>
<path d="M193.891 308.668C193 307.777 191.557 307.777 190.667 308.668C189.777 309.559 189.778 311.004 190.668 311.894L202.109 323.333C202.554 323.777 203.137 324 203.72 324C204.304 324 204.888 323.777 205.333 323.332C206.223 322.441 206.222 320.997 205.332 320.106L193.891 308.668Z" fill="#26C6DA"/>
<path d="M132.258 368.25V373H130.93V361.578H134.062C135.464 361.578 136.497 361.846 137.164 362.383C137.836 362.919 138.172 363.727 138.172 364.805C138.172 366.315 137.406 367.336 135.875 367.867L138.977 373H137.406L134.641 368.25H132.258ZM132.258 367.109H134.078C135.016 367.109 135.703 366.924 136.141 366.555C136.578 366.18 136.797 365.62 136.797 364.875C136.797 364.12 136.573 363.576 136.125 363.242C135.682 362.909 134.969 362.742 133.984 362.742H132.258V367.109ZM144.242 373.156C142.977 373.156 141.977 372.771 141.242 372C140.513 371.229 140.148 370.159 140.148 368.789C140.148 367.409 140.487 366.312 141.164 365.5C141.846 364.688 142.76 364.281 143.906 364.281C144.979 364.281 145.828 364.635 146.453 365.344C147.078 366.047 147.391 366.977 147.391 368.133V368.953H141.492C141.518 369.958 141.771 370.721 142.25 371.242C142.734 371.763 143.414 372.023 144.289 372.023C145.211 372.023 146.122 371.831 147.023 371.445V372.602C146.565 372.799 146.13 372.94 145.719 373.023C145.312 373.112 144.82 373.156 144.242 373.156ZM143.891 365.367C143.203 365.367 142.654 365.591 142.242 366.039C141.836 366.487 141.596 367.107 141.523 367.898H146C146 367.081 145.818 366.456 145.453 366.023C145.089 365.586 144.568 365.367 143.891 365.367ZM156.617 364.438V365.258L155.031 365.445C155.177 365.628 155.307 365.867 155.422 366.164C155.536 366.456 155.594 366.786 155.594 367.156C155.594 367.995 155.307 368.664 154.734 369.164C154.161 369.664 153.375 369.914 152.375 369.914C152.12 369.914 151.88 369.893 151.656 369.852C151.104 370.143 150.828 370.51 150.828 370.953C150.828 371.188 150.924 371.362 151.117 371.477C151.31 371.586 151.641 371.641 152.109 371.641H153.625C154.552 371.641 155.263 371.836 155.758 372.227C156.258 372.617 156.508 373.185 156.508 373.93C156.508 374.878 156.128 375.599 155.367 376.094C154.607 376.594 153.497 376.844 152.039 376.844C150.919 376.844 150.055 376.635 149.445 376.219C148.841 375.802 148.539 375.214 148.539 374.453C148.539 373.932 148.706 373.482 149.039 373.102C149.372 372.721 149.841 372.464 150.445 372.328C150.227 372.229 150.042 372.076 149.891 371.867C149.745 371.659 149.672 371.417 149.672 371.141C149.672 370.828 149.755 370.555 149.922 370.32C150.089 370.086 150.352 369.859 150.711 369.641C150.268 369.458 149.906 369.148 149.625 368.711C149.349 368.273 149.211 367.773 149.211 367.211C149.211 366.273 149.492 365.552 150.055 365.047C150.617 364.536 151.414 364.281 152.445 364.281C152.893 364.281 153.297 364.333 153.656 364.438H156.617ZM149.789 374.438C149.789 374.901 149.984 375.253 150.375 375.492C150.766 375.732 151.326 375.852 152.055 375.852C153.143 375.852 153.948 375.688 154.469 375.359C154.995 375.036 155.258 374.596 155.258 374.039C155.258 373.576 155.115 373.253 154.828 373.07C154.542 372.893 154.003 372.805 153.211 372.805H151.656C151.068 372.805 150.609 372.945 150.281 373.227C149.953 373.508 149.789 373.911 149.789 374.438ZM150.492 367.18C150.492 367.779 150.661 368.232 151 368.539C151.339 368.846 151.81 369 152.414 369C153.68 369 154.312 368.385 154.312 367.156C154.312 365.87 153.672 365.227 152.391 365.227C151.781 365.227 151.312 365.391 150.984 365.719C150.656 366.047 150.492 366.534 150.492 367.18ZM159.672 373H158.375V364.438H159.672V373ZM158.266 362.117C158.266 361.82 158.339 361.604 158.484 361.469C158.63 361.328 158.812 361.258 159.031 361.258C159.24 361.258 159.419 361.328 159.57 361.469C159.721 361.609 159.797 361.826 159.797 362.117C159.797 362.409 159.721 362.628 159.57 362.773C159.419 362.914 159.24 362.984 159.031 362.984C158.812 362.984 158.63 362.914 158.484 362.773C158.339 362.628 158.266 362.409 158.266 362.117ZM167.945 370.664C167.945 371.461 167.648 372.076 167.055 372.508C166.461 372.94 165.628 373.156 164.555 373.156C163.419 373.156 162.534 372.977 161.898 372.617V371.414C162.31 371.622 162.75 371.786 163.219 371.906C163.693 372.026 164.148 372.086 164.586 372.086C165.263 372.086 165.784 371.979 166.148 371.766C166.513 371.547 166.695 371.216 166.695 370.773C166.695 370.44 166.549 370.156 166.258 369.922C165.971 369.682 165.409 369.401 164.57 369.078C163.773 368.781 163.206 368.523 162.867 368.305C162.534 368.081 162.284 367.828 162.117 367.547C161.956 367.266 161.875 366.93 161.875 366.539C161.875 365.841 162.159 365.292 162.727 364.891C163.294 364.484 164.073 364.281 165.062 364.281C165.984 364.281 166.885 364.469 167.766 364.844L167.305 365.898C166.445 365.544 165.667 365.367 164.969 365.367C164.354 365.367 163.891 365.464 163.578 365.656C163.266 365.849 163.109 366.115 163.109 366.453C163.109 366.682 163.167 366.878 163.281 367.039C163.401 367.201 163.591 367.354 163.852 367.5C164.112 367.646 164.612 367.857 165.352 368.133C166.367 368.503 167.052 368.875 167.406 369.25C167.766 369.625 167.945 370.096 167.945 370.664ZM172.828 372.086C173.057 372.086 173.279 372.07 173.492 372.039C173.706 372.003 173.875 371.966 174 371.93V372.922C173.859 372.99 173.651 373.044 173.375 373.086C173.104 373.133 172.859 373.156 172.641 373.156C170.984 373.156 170.156 372.284 170.156 370.539V365.445H168.93V364.82L170.156 364.281L170.703 362.453H171.453V364.438H173.938V365.445H171.453V370.484C171.453 371 171.576 371.396 171.82 371.672C172.065 371.948 172.401 372.086 172.828 372.086ZM179.625 364.281C180.005 364.281 180.346 364.312 180.648 364.375L180.469 365.578C180.115 365.5 179.802 365.461 179.531 365.461C178.839 365.461 178.245 365.742 177.75 366.305C177.26 366.867 177.016 367.568 177.016 368.406V373H175.719V364.438H176.789L176.938 366.023H177C177.318 365.466 177.701 365.036 178.148 364.734C178.596 364.432 179.089 364.281 179.625 364.281ZM187.516 373L187.258 371.781H187.195C186.768 372.318 186.341 372.682 185.914 372.875C185.492 373.062 184.964 373.156 184.328 373.156C183.479 373.156 182.812 372.938 182.328 372.5C181.849 372.062 181.609 371.44 181.609 370.633C181.609 368.904 182.992 367.997 185.758 367.914L187.211 367.867V367.336C187.211 366.664 187.065 366.169 186.773 365.852C186.487 365.529 186.026 365.367 185.391 365.367C184.677 365.367 183.87 365.586 182.969 366.023L182.57 365.031C182.992 364.802 183.453 364.622 183.953 364.492C184.458 364.362 184.964 364.297 185.469 364.297C186.49 364.297 187.245 364.523 187.734 364.977C188.229 365.43 188.477 366.156 188.477 367.156V373H187.516ZM184.586 372.086C185.393 372.086 186.026 371.865 186.484 371.422C186.948 370.979 187.18 370.359 187.18 369.562V368.789L185.883 368.844C184.852 368.88 184.107 369.042 183.648 369.328C183.195 369.609 182.969 370.049 182.969 370.648C182.969 371.117 183.109 371.474 183.391 371.719C183.677 371.964 184.076 372.086 184.586 372.086ZM197.016 373V367.461C197.016 366.763 196.857 366.242 196.539 365.898C196.221 365.555 195.724 365.383 195.047 365.383C194.151 365.383 193.495 365.625 193.078 366.109C192.661 366.594 192.453 367.393 192.453 368.508V373H191.156V364.438H192.211L192.422 365.609H192.484C192.75 365.188 193.122 364.862 193.602 364.633C194.081 364.398 194.615 364.281 195.203 364.281C196.234 364.281 197.01 364.531 197.531 365.031C198.052 365.526 198.312 366.32 198.312 367.414V373H197.016ZM206.812 371.852H206.742C206.143 372.721 205.247 373.156 204.055 373.156C202.935 373.156 202.062 372.773 201.438 372.008C200.818 371.242 200.508 370.154 200.508 368.742C200.508 367.331 200.82 366.234 201.445 365.453C202.07 364.672 202.94 364.281 204.055 364.281C205.216 364.281 206.107 364.703 206.727 365.547H206.828L206.773 364.93L206.742 364.328V360.844H208.039V373H206.984L206.812 371.852ZM204.219 372.07C205.104 372.07 205.745 371.831 206.141 371.352C206.542 370.867 206.742 370.089 206.742 369.016V368.742C206.742 367.529 206.539 366.664 206.133 366.148C205.732 365.628 205.089 365.367 204.203 365.367C203.443 365.367 202.859 365.664 202.453 366.258C202.052 366.846 201.852 367.68 201.852 368.758C201.852 369.852 202.052 370.677 202.453 371.234C202.854 371.792 203.443 372.07 204.219 372.07ZM218.188 368.711C218.188 370.107 217.836 371.198 217.133 371.984C216.43 372.766 215.458 373.156 214.219 373.156C213.453 373.156 212.773 372.977 212.18 372.617C211.586 372.258 211.128 371.742 210.805 371.07C210.482 370.398 210.32 369.612 210.32 368.711C210.32 367.315 210.669 366.229 211.367 365.453C212.065 364.672 213.034 364.281 214.273 364.281C215.471 364.281 216.422 364.68 217.125 365.477C217.833 366.273 218.188 367.352 218.188 368.711ZM211.664 368.711C211.664 369.805 211.883 370.638 212.32 371.211C212.758 371.784 213.401 372.07 214.25 372.07C215.099 372.07 215.742 371.786 216.18 371.219C216.622 370.646 216.844 369.81 216.844 368.711C216.844 367.622 216.622 366.797 216.18 366.234C215.742 365.667 215.094 365.383 214.234 365.383C213.385 365.383 212.745 365.661 212.312 366.219C211.88 366.776 211.664 367.607 211.664 368.711ZM220.281 372.172C220.281 371.823 220.359 371.56 220.516 371.383C220.677 371.201 220.906 371.109 221.203 371.109C221.505 371.109 221.74 371.201 221.906 371.383C222.078 371.56 222.164 371.823 222.164 372.172C222.164 372.51 222.078 372.771 221.906 372.953C221.734 373.135 221.5 373.227 221.203 373.227C220.938 373.227 220.716 373.146 220.539 372.984C220.367 372.818 220.281 372.547 220.281 372.172ZM224.422 372.172C224.422 371.823 224.5 371.56 224.656 371.383C224.818 371.201 225.047 371.109 225.344 371.109C225.646 371.109 225.88 371.201 226.047 371.383C226.219 371.56 226.305 371.823 226.305 372.172C226.305 372.51 226.219 372.771 226.047 372.953C225.875 373.135 225.641 373.227 225.344 373.227C225.078 373.227 224.857 373.146 224.68 372.984C224.508 372.818 224.422 372.547 224.422 372.172ZM228.57 372.172C228.57 371.823 228.648 371.56 228.805 371.383C228.966 371.201 229.195 371.109 229.492 371.109C229.794 371.109 230.029 371.201 230.195 371.383C230.367 371.56 230.453 371.823 230.453 372.172C230.453 372.51 230.367 372.771 230.195 372.953C230.023 373.135 229.789 373.227 229.492 373.227C229.227 373.227 229.005 373.146 228.828 372.984C228.656 372.818 228.57 372.547 228.57 372.172Z" fill="#4A4A4A"/>
</svg>
