<svg width="360" height="640" viewBox="0 0 360 640" fill="none" xmlns="http://www.w3.org/2000/svg">
<rect width="360" height="640" fill="#F2F2F2"/>
<path fill-rule="evenodd" clip-rule="evenodd" d="M0 0V24H360V0H0Z" fill="#757575"/>
<g opacity="0.9">
<path d="M321.696 17H320.042V9.00879L317.602 9.84277V8.44141L321.484 7.0127H321.696V17ZM331.848 17H325.155V15.8584L328.471 12.2422C328.949 11.709 329.289 11.2646 329.489 10.9092C329.694 10.5492 329.797 10.1891 329.797 9.8291C329.797 9.35514 329.662 8.97233 329.394 8.68066C329.129 8.389 328.771 8.24316 328.32 8.24316C327.783 8.24316 327.366 8.40723 327.069 8.73535C326.773 9.06348 326.625 9.51237 326.625 10.082H324.964C324.964 9.47591 325.101 8.93132 325.374 8.44824C325.652 7.96061 326.046 7.58236 326.557 7.31348C327.072 7.0446 327.664 6.91016 328.334 6.91016C329.3 6.91016 330.061 7.15397 330.617 7.6416C331.178 8.12467 331.458 8.7946 331.458 9.65137C331.458 10.1481 331.317 10.6699 331.034 11.2168C330.756 11.7591 330.298 12.3766 329.66 13.0693L327.227 15.6738H331.848V17ZM334.22 15.25C334.53 15.25 334.769 15.3389 334.938 15.5166C335.106 15.6898 335.19 15.9085 335.19 16.1729C335.19 16.4326 335.106 16.6491 334.938 16.8223C334.769 16.9909 334.53 17.0752 334.22 17.0752C333.924 17.0752 333.689 16.9909 333.516 16.8223C333.342 16.6536 333.256 16.4372 333.256 16.1729C333.256 15.9085 333.34 15.6898 333.509 15.5166C333.677 15.3389 333.914 15.25 334.22 15.25ZM334.22 9.44629C334.53 9.44629 334.769 9.53516 334.938 9.71289C335.106 9.88607 335.19 10.1048 335.19 10.3691C335.19 10.6289 335.106 10.8454 334.938 11.0186C334.769 11.1872 334.53 11.2715 334.22 11.2715C333.924 11.2715 333.689 11.1872 333.516 11.0186C333.342 10.8499 333.256 10.6335 333.256 10.3691C333.256 10.1048 333.34 9.88607 333.509 9.71289C333.677 9.53516 333.914 9.44629 334.22 9.44629ZM338.752 11.2646H339.764C340.274 11.2601 340.677 11.1279 340.974 10.8682C341.274 10.6084 341.425 10.2324 341.425 9.74023C341.425 9.26628 341.299 8.89941 341.049 8.63965C340.803 8.37533 340.424 8.24316 339.914 8.24316C339.467 8.24316 339.101 8.37305 338.813 8.63281C338.526 8.88802 338.383 9.22298 338.383 9.6377H336.722C336.722 9.12728 336.856 8.66243 337.125 8.24316C337.398 7.82389 337.777 7.49805 338.26 7.26562C338.747 7.02865 339.292 6.91016 339.894 6.91016C340.887 6.91016 341.666 7.16081 342.231 7.66211C342.801 8.15885 343.086 8.85156 343.086 9.74023C343.086 10.1868 342.942 10.6084 342.655 11.0049C342.373 11.3968 342.006 11.693 341.555 11.8936C342.102 12.0804 342.516 12.3743 342.799 12.7754C343.086 13.1764 343.229 13.6549 343.229 14.2109C343.229 15.1042 342.922 15.8151 342.307 16.3438C341.696 16.8724 340.892 17.1367 339.894 17.1367C338.937 17.1367 338.153 16.8815 337.542 16.3711C336.931 15.8607 336.626 15.1816 336.626 14.334H338.287C338.287 14.7715 338.433 15.127 338.725 15.4004C339.021 15.6738 339.417 15.8105 339.914 15.8105C340.429 15.8105 340.835 15.6738 341.131 15.4004C341.427 15.127 341.575 14.7305 341.575 14.2109C341.575 13.6868 341.42 13.2835 341.11 13.001C340.8 12.7184 340.34 12.5771 339.729 12.5771H338.752V11.2646ZM351.275 12.8096C351.275 14.2406 351.007 15.3206 350.469 16.0498C349.936 16.7744 349.122 17.1367 348.028 17.1367C346.953 17.1367 346.142 16.7835 345.595 16.0771C345.052 15.3662 344.774 14.3158 344.761 12.9258V11.2031C344.761 9.77214 345.027 8.69889 345.561 7.9834C346.098 7.2679 346.916 6.91016 348.015 6.91016C349.104 6.91016 349.915 7.25879 350.448 7.95605C350.986 8.65332 351.262 9.69694 351.275 11.0869V12.8096ZM349.614 10.9502C349.614 10.016 349.487 9.33236 349.231 8.89941C348.976 8.46191 348.571 8.24316 348.015 8.24316C347.472 8.24316 347.074 8.45052 346.818 8.86523C346.563 9.27539 346.429 9.91797 346.415 10.793V13.0488C346.415 13.9785 346.545 14.6712 346.805 15.127C347.064 15.5827 347.472 15.8105 348.028 15.8105C348.562 15.8105 348.956 15.6009 349.211 15.1816C349.466 14.7578 349.601 14.097 349.614 13.1992V10.9502Z" fill="white"/>
</g>
<path fill-rule="evenodd" clip-rule="evenodd" d="M306 5.875V5L303 5V5.875H300V19H309V5.875H306Z" fill="white"/>
<path fill-rule="evenodd" clip-rule="evenodd" d="M277 19H291V5L277 19Z" fill="white"/>
<path fill-rule="evenodd" clip-rule="evenodd" d="M256.977 8.01593C259.488 6.12256 262.613 5 266 5C269.387 5 272.512 6.12256 275.023 8.01593L266 19L256.977 8.01593Z" fill="white"/>
<path fill-rule="evenodd" clip-rule="evenodd" d="M0 592V640H360V592H0Z" fill="black"/>
<path d="M274 610C274 609.448 274.448 609 275 609H287C287.552 609 288 609.448 288 610V622C288 622.552 287.552 623 287 623H275C274.448 623 274 622.552 274 622V610Z" stroke="white" stroke-width="2"/>
<circle cx="180" cy="616" r="7" stroke="white" stroke-width="2"/>
<path d="M84.4995 608.849C85.1662 608.464 86 608.945 86 609.715V621.287C86 622.057 85.1662 622.538 84.4995 622.153L74.4904 616.367C73.8244 615.982 73.8244 615.02 74.4904 614.635L84.4995 608.849Z" stroke="white" stroke-width="2"/>
<rect y="24" width="360" height="60" fill="#4DD0E1"/>
<path d="M42.604 40.6785C42.2765 40.3333 41.7054 40.3326 41.3629 40.664L40.1485 41.8387C39.8236 42.153 39.8275 42.6503 40.1366 42.9792C43.0962 46.1297 44.5759 50.1252 44.5758 54.1207C44.5756 58.1157 43.0959 62.1106 40.1366 65.2607C39.8275 65.5897 39.8236 66.0869 40.1485 66.4012L41.3629 67.5759C41.7054 67.9073 42.2765 67.9066 42.6041 67.5614C46.2016 63.7701 48.0003 58.9445 48 54.1189C47.9998 49.2942 46.2011 44.4693 42.604 40.6785Z" fill="white"/>
<path d="M11.4242 54.1195C11.4243 50.1244 12.9041 46.1294 15.8635 42.9792C16.1725 42.6502 16.1764 42.153 15.8515 41.8387L14.6372 40.664C14.2946 40.3326 13.7236 40.3333 13.3959 40.6785C9.79856 44.4696 7.99992 49.295 8 54.1204C8.00008 58.9455 9.7988 63.7705 13.3959 67.5614C13.7235 67.9066 14.2946 67.9073 14.6372 67.5759L15.8515 66.4012C16.1764 66.0869 16.1725 65.5896 15.8635 65.2606C12.9039 62.1102 11.4242 58.1149 11.4242 54.1195Z" fill="white"/>
<path fill-rule="evenodd" clip-rule="evenodd" d="M13.238 53.8837C13.238 45.6764 19.9673 39 28.238 39C36.5087 39 43.238 45.6764 43.238 53.8837C43.238 62.0911 36.5087 68.7674 28.238 68.7674C19.9673 68.7674 13.238 62.0911 13.238 53.8837ZM26.5616 55.5374H29.0616C31.359 55.5374 33.2283 53.6835 33.2283 51.4031C33.2283 49.1227 31.359 47.2688 29.0616 47.2687H25.7283C25.2677 47.2687 24.8949 47.6385 24.8949 48.0956V59.6718C24.8949 60.1288 25.2677 60.4987 25.7283 60.4987C26.1889 60.4987 26.5616 60.1288 26.5616 59.6718V55.5374Z" fill="white"/>
<path d="M29.1906 48.9225H26.5715V53.6475H29.1906C30.6348 53.6475 31.8096 52.5877 31.8096 51.285C31.8096 49.9822 30.6348 48.9225 29.1906 48.9225Z" fill="white"/>
<path d="M350.546 53.0769H317.454C316.651 53.0769 316 53.6968 316 54.4615C316 55.2263 316.651 55.8462 317.454 55.8462H350.546C351.349 55.8462 352 55.2263 352 54.4615C352 53.6969 351.349 53.0769 350.546 53.0769Z" fill="white"/>
<path d="M350.546 42H317.454C316.651 42 316 42.6199 316 43.3846C316 44.1493 316.651 44.7692 317.454 44.7692H350.546C351.349 44.7692 352 44.1493 352 43.3846C352 42.6199 351.349 42 350.546 42Z" fill="white"/>
<path d="M350.546 64.1538H317.454C316.651 64.1538 316 64.7737 316 65.5385C316 66.3032 316.651 66.9231 317.454 66.9231H350.546C351.349 66.9231 352 66.3032 352 65.5385C352 64.7737 351.349 64.1538 350.546 64.1538Z" fill="white"/>
<path d="M8 172H352V455C352 457.209 350.209 459 348 459H12C9.79086 459 8 457.209 8 455V172Z" fill="white"/>
<path d="M8 129C8 126.791 9.79086 125 12 125H176C178.209 125 180 126.791 180 129V173H8V129Z" fill="white"/>
<rect x="8" y="170" width="172" height="3" fill="#4DD0E1"/>
<path d="M72.6641 155H66.2969V143.578H72.6641V144.758H67.625V148.438H72.3594V149.609H67.625V153.812H72.6641V155ZM80.8672 155V149.461C80.8672 148.763 80.7083 148.242 80.3906 147.898C80.0729 147.555 79.5755 147.383 78.8984 147.383C78.0026 147.383 77.3464 147.625 76.9297 148.109C76.513 148.594 76.3047 149.393 76.3047 150.508V155H75.0078V146.438H76.0625L76.2734 147.609H76.3359C76.6016 147.188 76.974 146.862 77.4531 146.633C77.9323 146.398 78.4661 146.281 79.0547 146.281C80.0859 146.281 80.862 146.531 81.3828 147.031C81.9036 147.526 82.1641 148.32 82.1641 149.414V155H80.8672ZM87.6016 154.086C87.8307 154.086 88.0521 154.07 88.2656 154.039C88.4792 154.003 88.6484 153.966 88.7734 153.93V154.922C88.6328 154.99 88.4245 155.044 88.1484 155.086C87.8776 155.133 87.6328 155.156 87.4141 155.156C85.7578 155.156 84.9297 154.284 84.9297 152.539V147.445H83.7031V146.82L84.9297 146.281L85.4766 144.453H86.2266V146.438H88.7109V147.445H86.2266V152.484C86.2266 153 86.349 153.396 86.5938 153.672C86.8385 153.948 87.1745 154.086 87.6016 154.086ZM94.3984 146.281C94.7786 146.281 95.1198 146.312 95.4219 146.375L95.2422 147.578C94.888 147.5 94.5755 147.461 94.3047 147.461C93.612 147.461 93.0182 147.742 92.5234 148.305C92.0339 148.867 91.7891 149.568 91.7891 150.406V155H90.4922V146.438H91.5625L91.7109 148.023H91.7734C92.0911 147.466 92.474 147.036 92.9219 146.734C93.3698 146.432 93.862 146.281 94.3984 146.281ZM102.289 155L102.031 153.781H101.969C101.542 154.318 101.115 154.682 100.688 154.875C100.266 155.062 99.737 155.156 99.1016 155.156C98.2526 155.156 97.5859 154.938 97.1016 154.5C96.6224 154.062 96.3828 153.44 96.3828 152.633C96.3828 150.904 97.7656 149.997 100.531 149.914L101.984 149.867V149.336C101.984 148.664 101.839 148.169 101.547 147.852C101.26 147.529 100.799 147.367 100.164 147.367C99.4505 147.367 98.6432 147.586 97.7422 148.023L97.3438 147.031C97.7656 146.802 98.2266 146.622 98.7266 146.492C99.2318 146.362 99.737 146.297 100.242 146.297C101.263 146.297 102.018 146.523 102.508 146.977C103.003 147.43 103.25 148.156 103.25 149.156V155H102.289ZM99.3594 154.086C100.167 154.086 100.799 153.865 101.258 153.422C101.721 152.979 101.953 152.359 101.953 151.562V150.789L100.656 150.844C99.625 150.88 98.8802 151.042 98.4219 151.328C97.9688 151.609 97.7422 152.049 97.7422 152.648C97.7422 153.117 97.8828 153.474 98.1641 153.719C98.4505 153.964 98.849 154.086 99.3594 154.086ZM111.758 153.852H111.688C111.089 154.721 110.193 155.156 109 155.156C107.88 155.156 107.008 154.773 106.383 154.008C105.763 153.242 105.453 152.154 105.453 150.742C105.453 149.331 105.766 148.234 106.391 147.453C107.016 146.672 107.885 146.281 109 146.281C110.161 146.281 111.052 146.703 111.672 147.547H111.773L111.719 146.93L111.688 146.328V142.844H112.984V155H111.93L111.758 153.852ZM109.164 154.07C110.049 154.07 110.69 153.831 111.086 153.352C111.487 152.867 111.688 152.089 111.688 151.016V150.742C111.688 149.529 111.484 148.664 111.078 148.148C110.677 147.628 110.034 147.367 109.148 147.367C108.388 147.367 107.805 147.664 107.398 148.258C106.997 148.846 106.797 149.68 106.797 150.758C106.797 151.852 106.997 152.677 107.398 153.234C107.799 153.792 108.388 154.07 109.164 154.07ZM121.008 155L120.75 153.781H120.688C120.26 154.318 119.833 154.682 119.406 154.875C118.984 155.062 118.456 155.156 117.82 155.156C116.971 155.156 116.305 154.938 115.82 154.5C115.341 154.062 115.102 153.44 115.102 152.633C115.102 150.904 116.484 149.997 119.25 149.914L120.703 149.867V149.336C120.703 148.664 120.557 148.169 120.266 147.852C119.979 147.529 119.518 147.367 118.883 147.367C118.169 147.367 117.362 147.586 116.461 148.023L116.062 147.031C116.484 146.802 116.945 146.622 117.445 146.492C117.951 146.362 118.456 146.297 118.961 146.297C119.982 146.297 120.737 146.523 121.227 146.977C121.721 147.43 121.969 148.156 121.969 149.156V155H121.008ZM118.078 154.086C118.885 154.086 119.518 153.865 119.977 153.422C120.44 152.979 120.672 152.359 120.672 151.562V150.789L119.375 150.844C118.344 150.88 117.599 151.042 117.141 151.328C116.688 151.609 116.461 152.049 116.461 152.648C116.461 153.117 116.602 153.474 116.883 153.719C117.169 153.964 117.568 154.086 118.078 154.086Z" fill="#4DD0E1"/>
<rect x="180" y="125" width="172" height="48" fill="#F2F2F2"/>
<path d="M254.289 152.961C254.289 153.966 253.924 154.75 253.195 155.312C252.466 155.875 251.477 156.156 250.227 156.156C248.872 156.156 247.831 155.982 247.102 155.633V154.352C247.57 154.549 248.081 154.706 248.633 154.82C249.185 154.935 249.732 154.992 250.273 154.992C251.159 154.992 251.826 154.826 252.273 154.492C252.721 154.154 252.945 153.685 252.945 153.086C252.945 152.69 252.865 152.367 252.703 152.117C252.547 151.862 252.281 151.628 251.906 151.414C251.536 151.201 250.971 150.958 250.211 150.688C249.148 150.307 248.388 149.857 247.93 149.336C247.477 148.815 247.25 148.135 247.25 147.297C247.25 146.417 247.581 145.716 248.242 145.195C248.904 144.674 249.779 144.414 250.867 144.414C252.003 144.414 253.047 144.622 254 145.039L253.586 146.195C252.643 145.799 251.727 145.602 250.836 145.602C250.133 145.602 249.583 145.753 249.188 146.055C248.792 146.357 248.594 146.776 248.594 147.312C248.594 147.708 248.667 148.034 248.812 148.289C248.958 148.539 249.203 148.771 249.547 148.984C249.896 149.193 250.427 149.424 251.141 149.68C252.339 150.107 253.161 150.565 253.609 151.055C254.062 151.544 254.289 152.18 254.289 152.961ZM261.695 156L261.438 154.781H261.375C260.948 155.318 260.521 155.682 260.094 155.875C259.672 156.062 259.143 156.156 258.508 156.156C257.659 156.156 256.992 155.938 256.508 155.5C256.029 155.062 255.789 154.44 255.789 153.633C255.789 151.904 257.172 150.997 259.938 150.914L261.391 150.867V150.336C261.391 149.664 261.245 149.169 260.953 148.852C260.667 148.529 260.206 148.367 259.57 148.367C258.857 148.367 258.049 148.586 257.148 149.023L256.75 148.031C257.172 147.802 257.633 147.622 258.133 147.492C258.638 147.362 259.143 147.297 259.648 147.297C260.669 147.297 261.424 147.523 261.914 147.977C262.409 148.43 262.656 149.156 262.656 150.156V156H261.695ZM258.766 155.086C259.573 155.086 260.206 154.865 260.664 154.422C261.128 153.979 261.359 153.359 261.359 152.562V151.789L260.062 151.844C259.031 151.88 258.286 152.042 257.828 152.328C257.375 152.609 257.148 153.049 257.148 153.648C257.148 154.117 257.289 154.474 257.57 154.719C257.857 154.964 258.255 155.086 258.766 155.086ZM266.633 156H265.336V147.438H266.633V156ZM265.281 146.109C265.531 145.786 265.799 145.396 266.086 144.938C266.378 144.479 266.607 144.081 266.773 143.742H268.352V143.906C268.122 144.245 267.781 144.661 267.328 145.156C266.875 145.651 266.482 146.034 266.148 146.305H265.281V146.109ZM275.211 154.852H275.141C274.542 155.721 273.646 156.156 272.453 156.156C271.333 156.156 270.461 155.773 269.836 155.008C269.216 154.242 268.906 153.154 268.906 151.742C268.906 150.331 269.219 149.234 269.844 148.453C270.469 147.672 271.339 147.281 272.453 147.281C273.615 147.281 274.505 147.703 275.125 148.547H275.227L275.172 147.93L275.141 147.328V143.844H276.438V156H275.383L275.211 154.852ZM272.617 155.07C273.503 155.07 274.143 154.831 274.539 154.352C274.94 153.867 275.141 153.089 275.141 152.016V151.742C275.141 150.529 274.938 149.664 274.531 149.148C274.13 148.628 273.487 148.367 272.602 148.367C271.841 148.367 271.258 148.664 270.852 149.258C270.451 149.846 270.25 150.68 270.25 151.758C270.25 152.852 270.451 153.677 270.852 154.234C271.253 154.792 271.841 155.07 272.617 155.07ZM284.461 156L284.203 154.781H284.141C283.714 155.318 283.286 155.682 282.859 155.875C282.438 156.062 281.909 156.156 281.273 156.156C280.424 156.156 279.758 155.938 279.273 155.5C278.794 155.062 278.555 154.44 278.555 153.633C278.555 151.904 279.938 150.997 282.703 150.914L284.156 150.867V150.336C284.156 149.664 284.01 149.169 283.719 148.852C283.432 148.529 282.971 148.367 282.336 148.367C281.622 148.367 280.815 148.586 279.914 149.023L279.516 148.031C279.938 147.802 280.398 147.622 280.898 147.492C281.404 147.362 281.909 147.297 282.414 147.297C283.435 147.297 284.19 147.523 284.68 147.977C285.174 148.43 285.422 149.156 285.422 150.156V156H284.461ZM281.531 155.086C282.339 155.086 282.971 154.865 283.43 154.422C283.893 153.979 284.125 153.359 284.125 152.562V151.789L282.828 151.844C281.797 151.88 281.052 152.042 280.594 152.328C280.141 152.609 279.914 153.049 279.914 153.648C279.914 154.117 280.055 154.474 280.336 154.719C280.622 154.964 281.021 155.086 281.531 155.086Z" fill="#9B9B9B"/>
<rect x="24.5" y="237.5" width="311" height="66" rx="3.5" fill="#FFFBE6" stroke="#CCCCCC"/>
<path d="M139.344 280L137.211 274.551H130.344L128.234 280H126.219L132.992 262.797H134.668L141.406 280H139.344ZM136.59 272.758L134.598 267.449C134.34 266.777 134.074 265.953 133.801 264.977C133.629 265.727 133.383 266.551 133.062 267.449L131.047 272.758H136.59ZM143.762 262.867H148.602C150.875 262.867 152.52 263.207 153.535 263.887C154.551 264.566 155.059 265.641 155.059 267.109C155.059 268.125 154.773 268.965 154.203 269.629C153.641 270.285 152.816 270.711 151.73 270.906V271.023C154.332 271.469 155.633 272.836 155.633 275.125C155.633 276.656 155.113 277.852 154.074 278.711C153.043 279.57 151.598 280 149.738 280H143.762V262.867ZM145.754 270.203H149.035C150.441 270.203 151.453 269.984 152.07 269.547C152.688 269.102 152.996 268.355 152.996 267.309C152.996 266.348 152.652 265.656 151.965 265.234C151.277 264.805 150.184 264.59 148.684 264.59H145.754V270.203ZM145.754 271.891V278.301H149.328C150.711 278.301 151.75 278.035 152.445 277.504C153.148 276.965 153.5 276.125 153.5 274.984C153.5 273.922 153.141 273.141 152.422 272.641C151.711 272.141 150.625 271.891 149.164 271.891H145.754ZM166.66 264.402C164.777 264.402 163.289 265.031 162.195 266.289C161.109 267.539 160.566 269.254 160.566 271.434C160.566 273.676 161.09 275.41 162.137 276.637C163.191 277.855 164.691 278.465 166.637 278.465C167.832 278.465 169.195 278.25 170.727 277.82V279.566C169.539 280.012 168.074 280.234 166.332 280.234C163.809 280.234 161.859 279.469 160.484 277.938C159.117 276.406 158.434 274.23 158.434 271.41C158.434 269.645 158.762 268.098 159.418 266.77C160.082 265.441 161.035 264.418 162.277 263.699C163.527 262.98 164.996 262.621 166.684 262.621C168.48 262.621 170.051 262.949 171.395 263.605L170.551 265.316C169.254 264.707 167.957 264.402 166.66 264.402ZM173.094 274.457V272.676H178.848V274.457H173.094ZM188.223 280H186.324V267.789C186.324 266.773 186.355 265.812 186.418 264.906C186.254 265.07 186.07 265.242 185.867 265.422C185.664 265.602 184.734 266.363 183.078 267.707L182.047 266.371L186.582 262.867H188.223V280ZM206.012 280H194.75V278.324L199.262 273.789C200.637 272.398 201.543 271.406 201.98 270.812C202.418 270.219 202.746 269.641 202.965 269.078C203.184 268.516 203.293 267.91 203.293 267.262C203.293 266.348 203.016 265.625 202.461 265.094C201.906 264.555 201.137 264.285 200.152 264.285C199.441 264.285 198.766 264.402 198.125 264.637C197.492 264.871 196.785 265.297 196.004 265.914L194.973 264.59C196.551 263.277 198.27 262.621 200.129 262.621C201.738 262.621 203 263.035 203.914 263.863C204.828 264.684 205.285 265.789 205.285 267.18C205.285 268.266 204.98 269.34 204.371 270.402C203.762 271.465 202.621 272.809 200.949 274.434L197.199 278.102V278.195H206.012V280ZM219.102 266.898C219.102 267.992 218.793 268.887 218.176 269.582C217.566 270.277 216.699 270.742 215.574 270.977V271.07C216.949 271.242 217.969 271.68 218.633 272.383C219.297 273.086 219.629 274.008 219.629 275.148C219.629 276.781 219.062 278.039 217.93 278.922C216.797 279.797 215.188 280.234 213.102 280.234C212.195 280.234 211.363 280.164 210.605 280.023C209.855 279.891 209.125 279.652 208.414 279.309V277.457C209.156 277.824 209.945 278.105 210.781 278.301C211.625 278.488 212.422 278.582 213.172 278.582C216.133 278.582 217.613 277.422 217.613 275.102C217.613 273.023 215.98 271.984 212.715 271.984H211.027V270.309H212.738C214.074 270.309 215.133 270.016 215.914 269.43C216.695 268.836 217.086 268.016 217.086 266.969C217.086 266.133 216.797 265.477 216.219 265C215.648 264.523 214.871 264.285 213.887 264.285C213.137 264.285 212.43 264.387 211.766 264.59C211.102 264.793 210.344 265.168 209.492 265.715L208.508 264.402C209.211 263.848 210.02 263.414 210.934 263.102C211.855 262.781 212.824 262.621 213.84 262.621C215.504 262.621 216.797 263.004 217.719 263.77C218.641 264.527 219.102 265.57 219.102 266.898ZM234.289 276.062H231.746V280H229.883V276.062H221.551V274.363L229.684 262.773H231.746V274.293H234.289V276.062ZM229.883 274.293V268.598C229.883 267.48 229.922 266.219 230 264.812H229.906C229.531 265.562 229.18 266.184 228.852 266.676L223.496 274.293H229.883Z" fill="#FF0068"/>
<rect x="24" y="360" width="312" height="67" rx="4" fill="#28DD91"/>
<path d="M105.198 390.64C104.192 390.64 103.401 390.996 102.825 391.709C102.249 392.422 101.96 393.406 101.96 394.661C101.96 395.974 102.236 396.968 102.788 397.642C103.345 398.315 104.148 398.652 105.198 398.652C105.652 398.652 106.091 398.608 106.516 398.521C106.941 398.428 107.383 398.311 107.842 398.169V399.67C107.002 399.988 106.05 400.146 104.985 400.146C103.418 400.146 102.214 399.673 101.375 398.726C100.535 397.773 100.115 396.414 100.115 394.646C100.115 393.533 100.317 392.559 100.723 391.724C101.133 390.889 101.724 390.249 102.495 389.805C103.267 389.36 104.172 389.138 105.212 389.138C106.306 389.138 107.317 389.368 108.245 389.827L107.615 391.284C107.253 391.113 106.87 390.964 106.465 390.837C106.064 390.706 105.642 390.64 105.198 390.64ZM119.656 394.631C119.656 396.375 119.219 397.729 118.345 398.696C117.476 399.663 116.243 400.146 114.646 400.146C113.03 400.146 111.787 399.668 110.918 398.711C110.054 397.749 109.622 396.384 109.622 394.617C109.622 392.849 110.056 391.492 110.925 390.544C111.799 389.597 113.044 389.124 114.661 389.124C116.252 389.124 117.483 389.604 118.352 390.566C119.221 391.528 119.656 392.883 119.656 394.631ZM111.482 394.631C111.482 395.95 111.748 396.951 112.28 397.634C112.812 398.313 113.601 398.652 114.646 398.652C115.686 398.652 116.47 398.315 116.997 397.642C117.529 396.968 117.795 395.964 117.795 394.631C117.795 393.318 117.532 392.322 117.004 391.643C116.482 390.964 115.701 390.625 114.661 390.625C113.611 390.625 112.817 390.964 112.28 391.643C111.748 392.322 111.482 393.318 111.482 394.631ZM130.876 400H128.73L123.464 391.467H123.406L123.442 391.943C123.511 392.852 123.545 393.682 123.545 394.434V400H121.956V389.292H124.08L129.331 397.781H129.375C129.365 397.668 129.346 397.261 129.316 396.558C129.287 395.85 129.272 395.298 129.272 394.902V389.292H130.876V400ZM135.439 400H133.704V389.292H139.746V390.771H135.439V394.119H139.475V395.605H135.439V400ZM141.687 400V389.292H143.438V400H141.687ZM148.022 394.272H149.238C150.054 394.272 150.645 394.121 151.011 393.818C151.377 393.516 151.56 393.066 151.56 392.471C151.56 391.865 151.362 391.431 150.967 391.167C150.571 390.903 149.976 390.771 149.18 390.771H148.022V394.272ZM148.022 395.723V400H146.272V389.292H149.297C150.679 389.292 151.702 389.551 152.366 390.068C153.03 390.586 153.362 391.367 153.362 392.412C153.362 393.745 152.668 394.695 151.282 395.261L154.307 400H152.314L149.751 395.723H148.022ZM160.496 400L157.39 391.057H157.332C157.415 392.385 157.456 393.63 157.456 394.792V400H155.867V389.292H158.335L161.309 397.81H161.353L164.414 389.292H166.89V400H165.205V394.705C165.205 394.172 165.217 393.479 165.242 392.625C165.271 391.77 165.295 391.252 165.315 391.072H165.256L162.041 400H160.496ZM176.353 400L175.283 397.026H171.189L170.142 400H168.296L172.302 389.248H174.207L178.213 400H176.353ZM174.822 395.518L173.818 392.603C173.745 392.407 173.643 392.1 173.511 391.68C173.384 391.26 173.296 390.952 173.247 390.757C173.115 391.357 172.922 392.014 172.668 392.727L171.702 395.518H174.822ZM181.377 394.272H182.593C183.408 394.272 183.999 394.121 184.365 393.818C184.731 393.516 184.915 393.066 184.915 392.471C184.915 391.865 184.717 391.431 184.321 391.167C183.926 390.903 183.33 390.771 182.534 390.771H181.377V394.272ZM181.377 395.723V400H179.626V389.292H182.651C184.033 389.292 185.056 389.551 185.72 390.068C186.384 390.586 186.716 391.367 186.716 392.412C186.716 393.745 186.023 394.695 184.636 395.261L187.661 400H185.669L183.105 395.723H181.377ZM199.175 400H193.118V389.292H199.175V390.771H194.868V393.687H198.904V395.151H194.868V398.513H199.175V400ZM210.417 400H208.271L203.005 391.467H202.947L202.983 391.943C203.052 392.852 203.086 393.682 203.086 394.434V400H201.497V389.292H203.621L208.872 397.781H208.916C208.906 397.668 208.887 397.261 208.857 396.558C208.828 395.85 208.813 395.298 208.813 394.902V389.292H210.417V400ZM216.943 400H215.193V390.793H212.043V389.292H220.093V390.793H216.943V400ZM223.491 394.272H224.707C225.522 394.272 226.113 394.121 226.479 393.818C226.846 393.516 227.029 393.066 227.029 392.471C227.029 391.865 226.831 391.431 226.436 391.167C226.04 390.903 225.444 390.771 224.648 390.771H223.491V394.272ZM223.491 395.723V400H221.741V389.292H224.766C226.147 389.292 227.17 389.551 227.834 390.068C228.499 390.586 228.831 391.367 228.831 392.412C228.831 393.745 228.137 394.695 226.75 395.261L229.775 400H227.783L225.22 395.723H223.491ZM237.979 400L236.909 397.026H232.815L231.768 400H229.922L233.928 389.248H235.833L239.839 400H237.979ZM236.448 395.518L235.444 392.603C235.371 392.407 235.269 392.1 235.137 391.68C235.01 391.26 234.922 390.952 234.873 390.757C234.741 391.357 234.548 392.014 234.294 392.727L233.328 395.518H236.448ZM249.961 394.543C249.961 396.311 249.47 397.664 248.489 398.601C247.507 399.534 246.094 400 244.248 400H241.252V389.292H244.563C246.267 389.292 247.593 389.751 248.54 390.669C249.487 391.587 249.961 392.878 249.961 394.543ZM248.115 394.602C248.115 392.039 246.917 390.757 244.519 390.757H243.003V398.528H244.248C246.826 398.528 248.115 397.219 248.115 394.602ZM258.911 400L257.842 397.026H253.748L252.7 400H250.854L254.861 389.248H256.765L260.771 400H258.911ZM257.38 395.518L256.377 392.603C256.304 392.407 256.201 392.1 256.069 391.68C255.942 391.26 255.854 390.952 255.806 390.757C255.674 391.357 255.481 392.014 255.227 392.727L254.26 395.518H257.38Z" fill="white"/>
<rect x="24" y="312" width="312" height="32" rx="4" fill="#FF1744" fill-opacity="0.15"/>
<path fill-rule="evenodd" clip-rule="evenodd" d="M36 327.967C36 322.463 40.4627 318 45.967 318C51.4719 318 55.9341 322.463 55.9341 327.967C55.9341 333.473 51.472 337.934 45.967 337.934C40.4627 337.934 36 333.472 36 327.967ZM37.8689 327.967C37.8689 332.44 41.4944 336.065 45.967 336.065C50.4397 336.065 54.0652 332.44 54.0652 327.967C54.0652 323.494 50.4397 319.869 45.967 319.869C41.4944 319.869 37.8689 323.494 37.8689 327.967ZM45.9677 322.371C45.2538 322.371 44.7137 322.744 44.7137 323.345V328.865C44.7137 329.467 45.2537 329.838 45.9677 329.838C46.6641 329.838 47.2217 329.451 47.2217 328.865V323.345C47.2216 322.758 46.6641 322.371 45.9677 322.371ZM44.7236 332.326C44.7236 331.64 45.2818 331.082 45.9677 331.082C46.6535 331.082 47.211 331.64 47.2111 332.326C47.2111 333.012 46.6535 333.57 45.9677 333.57C45.2818 333.57 44.7236 333.012 44.7236 332.326Z" fill="#FF1744"/>
</svg>
