<svg width="360" height="640" viewBox="0 0 360 640" fill="none" xmlns="http://www.w3.org/2000/svg">
<rect width="360" height="640" fill="#F2F2F2"/>
<path fill-rule="evenodd" clip-rule="evenodd" d="M0 0V24H360V0H0Z" fill="#757575"/>
<g opacity="0.9">
<path d="M321.696 17H320.042V9.00879L317.602 9.84277V8.44141L321.484 7.0127H321.696V17ZM331.848 17H325.155V15.8584L328.471 12.2422C328.949 11.709 329.289 11.2646 329.489 10.9092C329.694 10.5492 329.797 10.1891 329.797 9.8291C329.797 9.35514 329.662 8.97233 329.394 8.68066C329.129 8.389 328.771 8.24316 328.32 8.24316C327.783 8.24316 327.366 8.40723 327.069 8.73535C326.773 9.06348 326.625 9.51237 326.625 10.082H324.964C324.964 9.47591 325.101 8.93132 325.374 8.44824C325.652 7.96061 326.046 7.58236 326.557 7.31348C327.072 7.0446 327.664 6.91016 328.334 6.91016C329.3 6.91016 330.061 7.15397 330.617 7.6416C331.178 8.12467 331.458 8.7946 331.458 9.65137C331.458 10.1481 331.317 10.6699 331.034 11.2168C330.756 11.7591 330.298 12.3766 329.66 13.0693L327.227 15.6738H331.848V17ZM334.22 15.25C334.53 15.25 334.769 15.3389 334.938 15.5166C335.106 15.6898 335.19 15.9085 335.19 16.1729C335.19 16.4326 335.106 16.6491 334.938 16.8223C334.769 16.9909 334.53 17.0752 334.22 17.0752C333.924 17.0752 333.689 16.9909 333.516 16.8223C333.342 16.6536 333.256 16.4372 333.256 16.1729C333.256 15.9085 333.34 15.6898 333.509 15.5166C333.677 15.3389 333.914 15.25 334.22 15.25ZM334.22 9.44629C334.53 9.44629 334.769 9.53516 334.938 9.71289C335.106 9.88607 335.19 10.1048 335.19 10.3691C335.19 10.6289 335.106 10.8454 334.938 11.0186C334.769 11.1872 334.53 11.2715 334.22 11.2715C333.924 11.2715 333.689 11.1872 333.516 11.0186C333.342 10.8499 333.256 10.6335 333.256 10.3691C333.256 10.1048 333.34 9.88607 333.509 9.71289C333.677 9.53516 333.914 9.44629 334.22 9.44629ZM338.752 11.2646H339.764C340.274 11.2601 340.677 11.1279 340.974 10.8682C341.274 10.6084 341.425 10.2324 341.425 9.74023C341.425 9.26628 341.299 8.89941 341.049 8.63965C340.803 8.37533 340.424 8.24316 339.914 8.24316C339.467 8.24316 339.101 8.37305 338.813 8.63281C338.526 8.88802 338.383 9.22298 338.383 9.6377H336.722C336.722 9.12728 336.856 8.66243 337.125 8.24316C337.398 7.82389 337.777 7.49805 338.26 7.26562C338.747 7.02865 339.292 6.91016 339.894 6.91016C340.887 6.91016 341.666 7.16081 342.231 7.66211C342.801 8.15885 343.086 8.85156 343.086 9.74023C343.086 10.1868 342.942 10.6084 342.655 11.0049C342.373 11.3968 342.006 11.693 341.555 11.8936C342.102 12.0804 342.516 12.3743 342.799 12.7754C343.086 13.1764 343.229 13.6549 343.229 14.2109C343.229 15.1042 342.922 15.8151 342.307 16.3438C341.696 16.8724 340.892 17.1367 339.894 17.1367C338.937 17.1367 338.153 16.8815 337.542 16.3711C336.931 15.8607 336.626 15.1816 336.626 14.334H338.287C338.287 14.7715 338.433 15.127 338.725 15.4004C339.021 15.6738 339.417 15.8105 339.914 15.8105C340.429 15.8105 340.835 15.6738 341.131 15.4004C341.427 15.127 341.575 14.7305 341.575 14.2109C341.575 13.6868 341.42 13.2835 341.11 13.001C340.8 12.7184 340.34 12.5771 339.729 12.5771H338.752V11.2646ZM351.275 12.8096C351.275 14.2406 351.007 15.3206 350.469 16.0498C349.936 16.7744 349.122 17.1367 348.028 17.1367C346.953 17.1367 346.142 16.7835 345.595 16.0771C345.052 15.3662 344.774 14.3158 344.761 12.9258V11.2031C344.761 9.77214 345.027 8.69889 345.561 7.9834C346.098 7.2679 346.916 6.91016 348.015 6.91016C349.104 6.91016 349.915 7.25879 350.448 7.95605C350.986 8.65332 351.262 9.69694 351.275 11.0869V12.8096ZM349.614 10.9502C349.614 10.016 349.487 9.33236 349.231 8.89941C348.976 8.46191 348.571 8.24316 348.015 8.24316C347.472 8.24316 347.074 8.45052 346.818 8.86523C346.563 9.27539 346.429 9.91797 346.415 10.793V13.0488C346.415 13.9785 346.545 14.6712 346.805 15.127C347.064 15.5827 347.472 15.8105 348.028 15.8105C348.562 15.8105 348.956 15.6009 349.211 15.1816C349.466 14.7578 349.601 14.097 349.614 13.1992V10.9502Z" fill="white"/>
</g>
<path fill-rule="evenodd" clip-rule="evenodd" d="M306 5.875V5L303 5V5.875H300V19H309V5.875H306Z" fill="white"/>
<path fill-rule="evenodd" clip-rule="evenodd" d="M277 19H291V5L277 19Z" fill="white"/>
<path fill-rule="evenodd" clip-rule="evenodd" d="M256.977 8.01593C259.488 6.12256 262.613 5 266 5C269.387 5 272.512 6.12256 275.023 8.01593L266 19L256.977 8.01593Z" fill="white"/>
<path fill-rule="evenodd" clip-rule="evenodd" d="M0 592V640H360V592H0Z" fill="black"/>
<path d="M274 610C274 609.448 274.448 609 275 609H287C287.552 609 288 609.448 288 610V622C288 622.552 287.552 623 287 623H275C274.448 623 274 622.552 274 622V610Z" stroke="white" stroke-width="2"/>
<circle cx="180" cy="616" r="7" stroke="white" stroke-width="2"/>
<path d="M84.4995 608.849C85.1662 608.464 86 608.945 86 609.715V621.287C86 622.057 85.1662 622.538 84.4995 622.153L74.4904 616.367C73.8244 615.982 73.8244 615.02 74.4904 614.635L84.4995 608.849Z" stroke="white" stroke-width="2"/>
<rect y="24" width="360" height="60" fill="#4DD0E1"/>
<path d="M42.604 40.6785C42.2765 40.3333 41.7054 40.3326 41.3629 40.6639L40.1485 41.8387C39.8236 42.153 39.8275 42.6503 40.1366 42.9792C43.0962 46.1297 44.5759 50.1252 44.5758 54.1207C44.5756 58.1157 43.0959 62.1106 40.1366 65.2607C39.8275 65.5897 39.8236 66.0869 40.1485 66.4012L41.3629 67.5759C41.7054 67.9073 42.2765 67.9066 42.6041 67.5614C46.2016 63.7701 48.0003 58.9445 48 54.1189C47.9998 49.2942 46.2011 44.4693 42.604 40.6785Z" fill="white"/>
<path d="M11.4242 54.1195C11.4243 50.1244 12.9041 46.1294 15.8635 42.9792C16.1725 42.6502 16.1764 42.153 15.8515 41.8387L14.6372 40.664C14.2946 40.3326 13.7236 40.3333 13.3959 40.6785C9.79856 44.4696 7.99992 49.295 8 54.1204C8.00008 58.9454 9.7988 63.7704 13.3959 67.5614C13.7235 67.9066 14.2946 67.9073 14.6372 67.5759L15.8515 66.4011C16.1764 66.0868 16.1725 65.5896 15.8635 65.2606C12.9039 62.1102 11.4242 58.1149 11.4242 54.1195Z" fill="white"/>
<path fill-rule="evenodd" clip-rule="evenodd" d="M13.2381 53.8837C13.2381 45.6764 19.9674 39 28.2381 39C36.5088 39 43.2381 45.6764 43.2381 53.8837C43.2381 62.0911 36.5088 68.7674 28.2381 68.7674C19.9674 68.7674 13.2381 62.0911 13.2381 53.8837ZM26.5617 55.5374H29.0617C31.359 55.5374 33.2283 53.6835 33.2283 51.4031C33.2283 49.1227 31.359 47.2688 29.0617 47.2687H25.7283C25.2677 47.2687 24.895 47.6385 24.895 48.0956V59.6718C24.895 60.1288 25.2677 60.4987 25.7283 60.4987C26.189 60.4987 26.5617 60.1288 26.5617 59.6718V55.5374Z" fill="white"/>
<path d="M29.1905 48.9225H26.5714V53.6475H29.1905C30.6347 53.6475 31.8095 52.5877 31.8095 51.285C31.8095 49.9822 30.6347 48.9225 29.1905 48.9225Z" fill="white"/>
<path d="M350.546 53.0769H317.454C316.651 53.0769 316 53.6968 316 54.4615C316 55.2263 316.651 55.8461 317.454 55.8461H350.546C351.349 55.8461 352 55.2263 352 54.4615C352 53.6968 351.349 53.0769 350.546 53.0769Z" fill="white"/>
<path d="M350.546 42H317.454C316.651 42 316 42.6199 316 43.3846C316 44.1493 316.651 44.7692 317.454 44.7692H350.546C351.349 44.7692 352 44.1493 352 43.3846C352 42.6199 351.349 42 350.546 42Z" fill="white"/>
<path d="M350.546 64.1538H317.454C316.651 64.1538 316 64.7737 316 65.5384C316 66.3032 316.651 66.923 317.454 66.923H350.546C351.349 66.923 352 66.3032 352 65.5384C352 64.7737 351.349 64.1538 350.546 64.1538Z" fill="white"/>
<path d="M8 172H352V530C352 532.209 350.209 534 348 534H12C9.79086 534 8 532.209 8 530V172Z" fill="white"/>
<path d="M180 129C180 126.791 181.791 125 184 125H348C350.209 125 352 126.791 352 129V173H180V129Z" fill="white"/>
<rect x="180" y="170" width="172" height="3" fill="#4DD0E1"/>
<path d="M253.789 151.961C253.789 152.966 253.424 153.75 252.695 154.312C251.966 154.875 250.977 155.156 249.727 155.156C248.372 155.156 247.331 154.982 246.602 154.633V153.352C247.07 153.549 247.581 153.706 248.133 153.82C248.685 153.935 249.232 153.992 249.773 153.992C250.659 153.992 251.326 153.826 251.773 153.492C252.221 153.154 252.445 152.685 252.445 152.086C252.445 151.69 252.365 151.367 252.203 151.117C252.047 150.862 251.781 150.628 251.406 150.414C251.036 150.201 250.471 149.958 249.711 149.688C248.648 149.307 247.888 148.857 247.43 148.336C246.977 147.815 246.75 147.135 246.75 146.297C246.75 145.417 247.081 144.716 247.742 144.195C248.404 143.674 249.279 143.414 250.367 143.414C251.503 143.414 252.547 143.622 253.5 144.039L253.086 145.195C252.143 144.799 251.227 144.602 250.336 144.602C249.633 144.602 249.083 144.753 248.688 145.055C248.292 145.357 248.094 145.776 248.094 146.312C248.094 146.708 248.167 147.034 248.312 147.289C248.458 147.539 248.703 147.771 249.047 147.984C249.396 148.193 249.927 148.424 250.641 148.68C251.839 149.107 252.661 149.565 253.109 150.055C253.562 150.544 253.789 151.18 253.789 151.961ZM261.195 155L260.938 153.781H260.875C260.448 154.318 260.021 154.682 259.594 154.875C259.172 155.062 258.643 155.156 258.008 155.156C257.159 155.156 256.492 154.938 256.008 154.5C255.529 154.062 255.289 153.44 255.289 152.633C255.289 150.904 256.672 149.997 259.438 149.914L260.891 149.867V149.336C260.891 148.664 260.745 148.169 260.453 147.852C260.167 147.529 259.706 147.367 259.07 147.367C258.357 147.367 257.549 147.586 256.648 148.023L256.25 147.031C256.672 146.802 257.133 146.622 257.633 146.492C258.138 146.362 258.643 146.297 259.148 146.297C260.169 146.297 260.924 146.523 261.414 146.977C261.909 147.43 262.156 148.156 262.156 149.156V155H261.195ZM258.266 154.086C259.073 154.086 259.706 153.865 260.164 153.422C260.628 152.979 260.859 152.359 260.859 151.562V150.789L259.562 150.844C258.531 150.88 257.786 151.042 257.328 151.328C256.875 151.609 256.648 152.049 256.648 152.648C256.648 153.117 256.789 153.474 257.07 153.719C257.357 153.964 257.755 154.086 258.266 154.086ZM266.133 155H264.836V146.438H266.133V155ZM264.781 145.109C265.031 144.786 265.299 144.396 265.586 143.938C265.878 143.479 266.107 143.081 266.273 142.742H267.852V142.906C267.622 143.245 267.281 143.661 266.828 144.156C266.375 144.651 265.982 145.034 265.648 145.305H264.781V145.109ZM274.711 153.852H274.641C274.042 154.721 273.146 155.156 271.953 155.156C270.833 155.156 269.961 154.773 269.336 154.008C268.716 153.242 268.406 152.154 268.406 150.742C268.406 149.331 268.719 148.234 269.344 147.453C269.969 146.672 270.839 146.281 271.953 146.281C273.115 146.281 274.005 146.703 274.625 147.547H274.727L274.672 146.93L274.641 146.328V142.844H275.938V155H274.883L274.711 153.852ZM272.117 154.07C273.003 154.07 273.643 153.831 274.039 153.352C274.44 152.867 274.641 152.089 274.641 151.016V150.742C274.641 149.529 274.438 148.664 274.031 148.148C273.63 147.628 272.987 147.367 272.102 147.367C271.341 147.367 270.758 147.664 270.352 148.258C269.951 148.846 269.75 149.68 269.75 150.758C269.75 151.852 269.951 152.677 270.352 153.234C270.753 153.792 271.341 154.07 272.117 154.07ZM283.961 155L283.703 153.781H283.641C283.214 154.318 282.786 154.682 282.359 154.875C281.938 155.062 281.409 155.156 280.773 155.156C279.924 155.156 279.258 154.938 278.773 154.5C278.294 154.062 278.055 153.44 278.055 152.633C278.055 150.904 279.438 149.997 282.203 149.914L283.656 149.867V149.336C283.656 148.664 283.51 148.169 283.219 147.852C282.932 147.529 282.471 147.367 281.836 147.367C281.122 147.367 280.315 147.586 279.414 148.023L279.016 147.031C279.438 146.802 279.898 146.622 280.398 146.492C280.904 146.362 281.409 146.297 281.914 146.297C282.935 146.297 283.69 146.523 284.18 146.977C284.674 147.43 284.922 148.156 284.922 149.156V155H283.961ZM281.031 154.086C281.839 154.086 282.471 153.865 282.93 153.422C283.393 152.979 283.625 152.359 283.625 151.562V150.789L282.328 150.844C281.297 150.88 280.552 151.042 280.094 151.328C279.641 151.609 279.414 152.049 279.414 152.648C279.414 153.117 279.555 153.474 279.836 153.719C280.122 153.964 280.521 154.086 281.031 154.086Z" fill="#4DD0E1"/>
<rect x="8" y="125" width="172" height="48" fill="#F2F2F2"/>
<path d="M73.1641 156H66.7969V144.578H73.1641V145.758H68.125V149.438H72.8594V150.609H68.125V154.812H73.1641V156ZM81.3672 156V150.461C81.3672 149.763 81.2083 149.242 80.8906 148.898C80.5729 148.555 80.0755 148.383 79.3984 148.383C78.5026 148.383 77.8464 148.625 77.4297 149.109C77.013 149.594 76.8047 150.393 76.8047 151.508V156H75.5078V147.438H76.5625L76.7734 148.609H76.8359C77.1016 148.188 77.474 147.862 77.9531 147.633C78.4323 147.398 78.9661 147.281 79.5547 147.281C80.5859 147.281 81.362 147.531 81.8828 148.031C82.4036 148.526 82.6641 149.32 82.6641 150.414V156H81.3672ZM88.1016 155.086C88.3307 155.086 88.5521 155.07 88.7656 155.039C88.9792 155.003 89.1484 154.966 89.2734 154.93V155.922C89.1328 155.99 88.9245 156.044 88.6484 156.086C88.3776 156.133 88.1328 156.156 87.9141 156.156C86.2578 156.156 85.4297 155.284 85.4297 153.539V148.445H84.2031V147.82L85.4297 147.281L85.9766 145.453H86.7266V147.438H89.2109V148.445H86.7266V153.484C86.7266 154 86.849 154.396 87.0938 154.672C87.3385 154.948 87.6745 155.086 88.1016 155.086ZM94.8984 147.281C95.2786 147.281 95.6198 147.312 95.9219 147.375L95.7422 148.578C95.388 148.5 95.0755 148.461 94.8047 148.461C94.112 148.461 93.5182 148.742 93.0234 149.305C92.5339 149.867 92.2891 150.568 92.2891 151.406V156H90.9922V147.438H92.0625L92.2109 149.023H92.2734C92.5911 148.466 92.974 148.036 93.4219 147.734C93.8698 147.432 94.362 147.281 94.8984 147.281ZM102.789 156L102.531 154.781H102.469C102.042 155.318 101.615 155.682 101.188 155.875C100.766 156.062 100.237 156.156 99.6016 156.156C98.7526 156.156 98.0859 155.938 97.6016 155.5C97.1224 155.062 96.8828 154.44 96.8828 153.633C96.8828 151.904 98.2656 150.997 101.031 150.914L102.484 150.867V150.336C102.484 149.664 102.339 149.169 102.047 148.852C101.76 148.529 101.299 148.367 100.664 148.367C99.9505 148.367 99.1432 148.586 98.2422 149.023L97.8438 148.031C98.2656 147.802 98.7266 147.622 99.2266 147.492C99.7318 147.362 100.237 147.297 100.742 147.297C101.763 147.297 102.518 147.523 103.008 147.977C103.503 148.43 103.75 149.156 103.75 150.156V156H102.789ZM99.8594 155.086C100.667 155.086 101.299 154.865 101.758 154.422C102.221 153.979 102.453 153.359 102.453 152.562V151.789L101.156 151.844C100.125 151.88 99.3802 152.042 98.9219 152.328C98.4688 152.609 98.2422 153.049 98.2422 153.648C98.2422 154.117 98.3828 154.474 98.6641 154.719C98.9505 154.964 99.349 155.086 99.8594 155.086ZM112.258 154.852H112.188C111.589 155.721 110.693 156.156 109.5 156.156C108.38 156.156 107.508 155.773 106.883 155.008C106.263 154.242 105.953 153.154 105.953 151.742C105.953 150.331 106.266 149.234 106.891 148.453C107.516 147.672 108.385 147.281 109.5 147.281C110.661 147.281 111.552 147.703 112.172 148.547H112.273L112.219 147.93L112.188 147.328V143.844H113.484V156H112.43L112.258 154.852ZM109.664 155.07C110.549 155.07 111.19 154.831 111.586 154.352C111.987 153.867 112.188 153.089 112.188 152.016V151.742C112.188 150.529 111.984 149.664 111.578 149.148C111.177 148.628 110.534 148.367 109.648 148.367C108.888 148.367 108.305 148.664 107.898 149.258C107.497 149.846 107.297 150.68 107.297 151.758C107.297 152.852 107.497 153.677 107.898 154.234C108.299 154.792 108.888 155.07 109.664 155.07ZM121.508 156L121.25 154.781H121.188C120.76 155.318 120.333 155.682 119.906 155.875C119.484 156.062 118.956 156.156 118.32 156.156C117.471 156.156 116.805 155.938 116.32 155.5C115.841 155.062 115.602 154.44 115.602 153.633C115.602 151.904 116.984 150.997 119.75 150.914L121.203 150.867V150.336C121.203 149.664 121.057 149.169 120.766 148.852C120.479 148.529 120.018 148.367 119.383 148.367C118.669 148.367 117.862 148.586 116.961 149.023L116.562 148.031C116.984 147.802 117.445 147.622 117.945 147.492C118.451 147.362 118.956 147.297 119.461 147.297C120.482 147.297 121.237 147.523 121.727 147.977C122.221 148.43 122.469 149.156 122.469 150.156V156H121.508ZM118.578 155.086C119.385 155.086 120.018 154.865 120.477 154.422C120.94 153.979 121.172 153.359 121.172 152.562V151.789L119.875 151.844C118.844 151.88 118.099 152.042 117.641 152.328C117.188 152.609 116.961 153.049 116.961 153.648C116.961 154.117 117.102 154.474 117.383 154.719C117.669 154.964 118.068 155.086 118.578 155.086Z" fill="#9B9B9B"/>
<rect x="24.5" y="237.5" width="311" height="66" rx="3.5" fill="#FFFBE6" stroke="#CCCCCC"/>
<path d="M140.344 280L138.211 274.551H131.344L129.234 280H127.219L133.992 262.797H135.668L142.406 280H140.344ZM137.59 272.758L135.598 267.449C135.34 266.777 135.074 265.953 134.801 264.977C134.629 265.727 134.383 266.551 134.062 267.449L132.047 272.758H137.59ZM144.762 262.867H149.602C151.875 262.867 153.52 263.207 154.535 263.887C155.551 264.566 156.059 265.641 156.059 267.109C156.059 268.125 155.773 268.965 155.203 269.629C154.641 270.285 153.816 270.711 152.73 270.906V271.023C155.332 271.469 156.633 272.836 156.633 275.125C156.633 276.656 156.113 277.852 155.074 278.711C154.043 279.57 152.598 280 150.738 280H144.762V262.867ZM146.754 270.203H150.035C151.441 270.203 152.453 269.984 153.07 269.547C153.688 269.102 153.996 268.355 153.996 267.309C153.996 266.348 153.652 265.656 152.965 265.234C152.277 264.805 151.184 264.59 149.684 264.59H146.754V270.203ZM146.754 271.891V278.301H150.328C151.711 278.301 152.75 278.035 153.445 277.504C154.148 276.965 154.5 276.125 154.5 274.984C154.5 273.922 154.141 273.141 153.422 272.641C152.711 272.141 151.625 271.891 150.164 271.891H146.754ZM167.66 264.402C165.777 264.402 164.289 265.031 163.195 266.289C162.109 267.539 161.566 269.254 161.566 271.434C161.566 273.676 162.09 275.41 163.137 276.637C164.191 277.855 165.691 278.465 167.637 278.465C168.832 278.465 170.195 278.25 171.727 277.82V279.566C170.539 280.012 169.074 280.234 167.332 280.234C164.809 280.234 162.859 279.469 161.484 277.938C160.117 276.406 159.434 274.23 159.434 271.41C159.434 269.645 159.762 268.098 160.418 266.77C161.082 265.441 162.035 264.418 163.277 263.699C164.527 262.98 165.996 262.621 167.684 262.621C169.48 262.621 171.051 262.949 172.395 263.605L171.551 265.316C170.254 264.707 168.957 264.402 167.66 264.402ZM174.094 274.457V272.676H179.848V274.457H174.094ZM189.223 280H187.324V267.789C187.324 266.773 187.355 265.812 187.418 264.906C187.254 265.07 187.07 265.242 186.867 265.422C186.664 265.602 185.734 266.363 184.078 267.707L183.047 266.371L187.582 262.867H189.223V280ZM207.012 280H195.75V278.324L200.262 273.789C201.637 272.398 202.543 271.406 202.98 270.812C203.418 270.219 203.746 269.641 203.965 269.078C204.184 268.516 204.293 267.91 204.293 267.262C204.293 266.348 204.016 265.625 203.461 265.094C202.906 264.555 202.137 264.285 201.152 264.285C200.441 264.285 199.766 264.402 199.125 264.637C198.492 264.871 197.785 265.297 197.004 265.914L195.973 264.59C197.551 263.277 199.27 262.621 201.129 262.621C202.738 262.621 204 263.035 204.914 263.863C205.828 264.684 206.285 265.789 206.285 267.18C206.285 268.266 205.98 269.34 205.371 270.402C204.762 271.465 203.621 272.809 201.949 274.434L198.199 278.102V278.195H207.012V280ZM220.102 266.898C220.102 267.992 219.793 268.887 219.176 269.582C218.566 270.277 217.699 270.742 216.574 270.977V271.07C217.949 271.242 218.969 271.68 219.633 272.383C220.297 273.086 220.629 274.008 220.629 275.148C220.629 276.781 220.062 278.039 218.93 278.922C217.797 279.797 216.188 280.234 214.102 280.234C213.195 280.234 212.363 280.164 211.605 280.023C210.855 279.891 210.125 279.652 209.414 279.309V277.457C210.156 277.824 210.945 278.105 211.781 278.301C212.625 278.488 213.422 278.582 214.172 278.582C217.133 278.582 218.613 277.422 218.613 275.102C218.613 273.023 216.98 271.984 213.715 271.984H212.027V270.309H213.738C215.074 270.309 216.133 270.016 216.914 269.43C217.695 268.836 218.086 268.016 218.086 266.969C218.086 266.133 217.797 265.477 217.219 265C216.648 264.523 215.871 264.285 214.887 264.285C214.137 264.285 213.43 264.387 212.766 264.59C212.102 264.793 211.344 265.168 210.492 265.715L209.508 264.402C210.211 263.848 211.02 263.414 211.934 263.102C212.855 262.781 213.824 262.621 214.84 262.621C216.504 262.621 217.797 263.004 218.719 263.77C219.641 264.527 220.102 265.57 220.102 266.898ZM235.289 276.062H232.746V280H230.883V276.062H222.551V274.363L230.684 262.773H232.746V274.293H235.289V276.062ZM230.883 274.293V268.598C230.883 267.48 230.922 266.219 231 264.812H230.906C230.531 265.562 230.18 266.184 229.852 266.676L224.496 274.293H230.883Z" fill="#0A261D"/>
<path d="M34.7109 225H33.1953L26.9531 215.414H26.8906C26.974 216.539 27.0156 217.57 27.0156 218.508V225H25.7891V213.578H27.2891L33.5156 223.125H33.5781C33.5677 222.984 33.5443 222.534 33.5078 221.773C33.4714 221.008 33.4583 220.461 33.4688 220.133V213.578H34.7109V225ZM38.875 216.438V221.992C38.875 222.69 39.0339 223.211 39.3516 223.555C39.6693 223.898 40.1667 224.07 40.8438 224.07C41.7396 224.07 42.3932 223.826 42.8047 223.336C43.2214 222.846 43.4297 222.047 43.4297 220.938V216.438H44.7266V225H43.6562L43.4688 223.852H43.3984C43.1328 224.273 42.763 224.596 42.2891 224.82C41.8203 225.044 41.2839 225.156 40.6797 225.156C39.638 225.156 38.8568 224.909 38.3359 224.414C37.8203 223.919 37.5625 223.128 37.5625 222.039V216.438H38.875ZM40.2344 215.109C40.4844 214.786 40.7526 214.396 41.0391 213.938C41.3307 213.479 41.5599 213.081 41.7266 212.742H43.3047V212.906C43.0755 213.245 42.7344 213.661 42.2812 214.156C41.8281 214.651 41.4349 215.034 41.1016 215.305H40.2344V215.109ZM58.3984 225V219.43C58.3984 218.747 58.2526 218.237 57.9609 217.898C57.6693 217.555 57.2161 217.383 56.6016 217.383C55.7943 217.383 55.1979 217.615 54.8125 218.078C54.4271 218.542 54.2344 219.255 54.2344 220.219V225H52.9375V219.43C52.9375 218.747 52.7917 218.237 52.5 217.898C52.2083 217.555 51.7526 217.383 51.1328 217.383C50.3203 217.383 49.724 217.628 49.3438 218.117C48.9688 218.602 48.7812 219.398 48.7812 220.508V225H47.4844V216.438H48.5391L48.75 217.609H48.8125C49.0573 217.193 49.401 216.867 49.8438 216.633C50.2917 216.398 50.7917 216.281 51.3438 216.281C52.6823 216.281 53.5573 216.766 53.9688 217.734H54.0312C54.2865 217.286 54.6562 216.932 55.1406 216.672C55.625 216.411 56.1771 216.281 56.7969 216.281C57.7656 216.281 58.4896 216.531 58.9688 217.031C59.4531 217.526 59.6953 218.32 59.6953 219.414V225H58.3984ZM65.9922 225.156C64.7266 225.156 63.7266 224.771 62.9922 224C62.263 223.229 61.8984 222.159 61.8984 220.789C61.8984 219.409 62.237 218.312 62.9141 217.5C63.5964 216.688 64.5104 216.281 65.6562 216.281C66.7292 216.281 67.5781 216.635 68.2031 217.344C68.8281 218.047 69.1406 218.977 69.1406 220.133V220.953H63.2422C63.2682 221.958 63.5208 222.721 64 223.242C64.4844 223.763 65.1641 224.023 66.0391 224.023C66.9609 224.023 67.8724 223.831 68.7734 223.445V224.602C68.3151 224.799 67.8802 224.94 67.4688 225.023C67.0625 225.112 66.5703 225.156 65.9922 225.156ZM65.6406 217.367C64.9531 217.367 64.4036 217.591 63.9922 218.039C63.5859 218.487 63.3464 219.107 63.2734 219.898H67.75C67.75 219.081 67.5677 218.456 67.2031 218.023C66.8385 217.586 66.3177 217.367 65.6406 217.367ZM75.2656 216.281C75.6458 216.281 75.987 216.312 76.2891 216.375L76.1094 217.578C75.7552 217.5 75.4427 217.461 75.1719 217.461C74.4792 217.461 73.8854 217.742 73.3906 218.305C72.901 218.867 72.6562 219.568 72.6562 220.406V225H71.3594V216.438H72.4297L72.5781 218.023H72.6406C72.9583 217.466 73.3411 217.036 73.7891 216.734C74.237 216.432 74.7292 216.281 75.2656 216.281ZM85.2812 220.711C85.2812 222.107 84.9297 223.198 84.2266 223.984C83.5234 224.766 82.5521 225.156 81.3125 225.156C80.5469 225.156 79.8672 224.977 79.2734 224.617C78.6797 224.258 78.2214 223.742 77.8984 223.07C77.5755 222.398 77.4141 221.612 77.4141 220.711C77.4141 219.315 77.763 218.229 78.4609 217.453C79.1589 216.672 80.1276 216.281 81.3672 216.281C82.5651 216.281 83.5156 216.68 84.2188 217.477C84.9271 218.273 85.2812 219.352 85.2812 220.711ZM78.7578 220.711C78.7578 221.805 78.9766 222.638 79.4141 223.211C79.8516 223.784 80.4948 224.07 81.3438 224.07C82.1927 224.07 82.8359 223.786 83.2734 223.219C83.7161 222.646 83.9375 221.81 83.9375 220.711C83.9375 219.622 83.7161 218.797 83.2734 218.234C82.8359 217.667 82.1875 217.383 81.3281 217.383C80.4792 217.383 79.8385 217.661 79.4062 218.219C78.974 218.776 78.7578 219.607 78.7578 220.711ZM97.5469 223.852H97.4766C96.8776 224.721 95.9818 225.156 94.7891 225.156C93.6693 225.156 92.7969 224.773 92.1719 224.008C91.5521 223.242 91.2422 222.154 91.2422 220.742C91.2422 219.331 91.5547 218.234 92.1797 217.453C92.8047 216.672 93.6745 216.281 94.7891 216.281C95.9505 216.281 96.8411 216.703 97.4609 217.547H97.5625L97.5078 216.93L97.4766 216.328V212.844H98.7734V225H97.7188L97.5469 223.852ZM94.9531 224.07C95.8385 224.07 96.4792 223.831 96.875 223.352C97.276 222.867 97.4766 222.089 97.4766 221.016V220.742C97.4766 219.529 97.2734 218.664 96.8672 218.148C96.4661 217.628 95.8229 217.367 94.9375 217.367C94.1771 217.367 93.5938 217.664 93.1875 218.258C92.7865 218.846 92.5859 219.68 92.5859 220.758C92.5859 221.852 92.7865 222.677 93.1875 223.234C93.5885 223.792 94.1771 224.07 94.9531 224.07ZM106.797 225L106.539 223.781H106.477C106.049 224.318 105.622 224.682 105.195 224.875C104.773 225.062 104.245 225.156 103.609 225.156C102.76 225.156 102.094 224.938 101.609 224.5C101.13 224.062 100.891 223.44 100.891 222.633C100.891 220.904 102.273 219.997 105.039 219.914L106.492 219.867V219.336C106.492 218.664 106.346 218.169 106.055 217.852C105.768 217.529 105.307 217.367 104.672 217.367C103.958 217.367 103.151 217.586 102.25 218.023L101.852 217.031C102.273 216.802 102.734 216.622 103.234 216.492C103.74 216.362 104.245 216.297 104.75 216.297C105.771 216.297 106.526 216.523 107.016 216.977C107.51 217.43 107.758 218.156 107.758 219.156V225H106.797ZM103.867 224.086C104.674 224.086 105.307 223.865 105.766 223.422C106.229 222.979 106.461 222.359 106.461 221.562V220.789L105.164 220.844C104.133 220.88 103.388 221.042 102.93 221.328C102.477 221.609 102.25 222.049 102.25 222.648C102.25 223.117 102.391 223.474 102.672 223.719C102.958 223.964 103.357 224.086 103.867 224.086ZM118.578 225.156C118.021 225.156 117.51 225.055 117.047 224.852C116.589 224.643 116.203 224.326 115.891 223.898H115.797C115.859 224.398 115.891 224.872 115.891 225.32V228.844H114.594V216.438H115.648L115.828 217.609H115.891C116.224 217.141 116.612 216.802 117.055 216.594C117.497 216.385 118.005 216.281 118.578 216.281C119.714 216.281 120.589 216.669 121.203 217.445C121.823 218.221 122.133 219.31 122.133 220.711C122.133 222.117 121.818 223.211 121.188 223.992C120.562 224.768 119.693 225.156 118.578 225.156ZM118.391 217.383C117.516 217.383 116.883 217.625 116.492 218.109C116.102 218.594 115.901 219.365 115.891 220.422V220.711C115.891 221.914 116.091 222.776 116.492 223.297C116.893 223.812 117.536 224.07 118.422 224.07C119.161 224.07 119.74 223.771 120.156 223.172C120.578 222.573 120.789 221.747 120.789 220.695C120.789 219.628 120.578 218.81 120.156 218.242C119.74 217.669 119.151 217.383 118.391 217.383ZM125.703 225H124.406V212.844H125.703V225ZM133.719 225L133.461 223.781H133.398C132.971 224.318 132.544 224.682 132.117 224.875C131.695 225.062 131.167 225.156 130.531 225.156C129.682 225.156 129.016 224.938 128.531 224.5C128.052 224.062 127.812 223.44 127.812 222.633C127.812 220.904 129.195 219.997 131.961 219.914L133.414 219.867V219.336C133.414 218.664 133.268 218.169 132.977 217.852C132.69 217.529 132.229 217.367 131.594 217.367C130.88 217.367 130.073 217.586 129.172 218.023L128.773 217.031C129.195 216.802 129.656 216.622 130.156 216.492C130.661 216.362 131.167 216.297 131.672 216.297C132.693 216.297 133.448 216.523 133.938 216.977C134.432 217.43 134.68 218.156 134.68 219.156V225H133.719ZM130.789 224.086C131.596 224.086 132.229 223.865 132.688 223.422C133.151 222.979 133.383 222.359 133.383 221.562V220.789L132.086 220.844C131.055 220.88 130.31 221.042 129.852 221.328C129.398 221.609 129.172 222.049 129.172 222.648C129.172 223.117 129.312 223.474 129.594 223.719C129.88 223.964 130.279 224.086 130.789 224.086ZM140.781 225.156C139.542 225.156 138.581 224.776 137.898 224.016C137.221 223.25 136.883 222.169 136.883 220.773C136.883 219.341 137.227 218.234 137.914 217.453C138.607 216.672 139.591 216.281 140.867 216.281C141.279 216.281 141.69 216.326 142.102 216.414C142.513 216.503 142.836 216.607 143.07 216.727L142.672 217.828C142.385 217.714 142.073 217.62 141.734 217.547C141.396 217.469 141.096 217.43 140.836 217.43C139.096 217.43 138.227 218.539 138.227 220.758C138.227 221.81 138.438 222.617 138.859 223.18C139.286 223.742 139.917 224.023 140.75 224.023C141.464 224.023 142.195 223.87 142.945 223.562V224.711C142.372 225.008 141.651 225.156 140.781 225.156ZM150.25 225L149.992 223.781H149.93C149.503 224.318 149.076 224.682 148.648 224.875C148.227 225.062 147.698 225.156 147.062 225.156C146.214 225.156 145.547 224.938 145.062 224.5C144.583 224.062 144.344 223.44 144.344 222.633C144.344 220.904 145.727 219.997 148.492 219.914L149.945 219.867V219.336C149.945 218.664 149.799 218.169 149.508 217.852C149.221 217.529 148.76 217.367 148.125 217.367C147.411 217.367 146.604 217.586 145.703 218.023L145.305 217.031C145.727 216.802 146.188 216.622 146.688 216.492C147.193 216.362 147.698 216.297 148.203 216.297C149.224 216.297 149.979 216.523 150.469 216.977C150.964 217.43 151.211 218.156 151.211 219.156V225H150.25ZM147.32 224.086C148.128 224.086 148.76 223.865 149.219 223.422C149.682 222.979 149.914 222.359 149.914 221.562V220.789L148.617 220.844C147.586 220.88 146.841 221.042 146.383 221.328C145.93 221.609 145.703 222.049 145.703 222.648C145.703 223.117 145.844 223.474 146.125 223.719C146.411 223.964 146.81 224.086 147.32 224.086ZM153.703 224.172C153.703 223.823 153.781 223.56 153.938 223.383C154.099 223.201 154.328 223.109 154.625 223.109C154.927 223.109 155.161 223.201 155.328 223.383C155.5 223.56 155.586 223.823 155.586 224.172C155.586 224.51 155.5 224.771 155.328 224.953C155.156 225.135 154.922 225.227 154.625 225.227C154.359 225.227 154.138 225.146 153.961 224.984C153.789 224.818 153.703 224.547 153.703 224.172ZM153.703 217.273C153.703 216.57 154.01 216.219 154.625 216.219C155.266 216.219 155.586 216.57 155.586 217.273C155.586 217.612 155.5 217.872 155.328 218.055C155.156 218.237 154.922 218.328 154.625 218.328C154.359 218.328 154.138 218.247 153.961 218.086C153.789 217.919 153.703 217.648 153.703 217.273Z" fill="#9B9B9B"/>
<rect x="24" y="320" width="312" height="67" rx="4" fill="#A769B2"/>
<path d="M141.887 352.529C141.887 353.647 141.521 354.504 140.788 355.1C140.056 355.696 139.013 355.994 137.661 355.994H136.547V360H134.797V349.292H137.88C139.218 349.292 140.219 349.565 140.883 350.112C141.552 350.659 141.887 351.465 141.887 352.529ZM136.547 354.521H137.478C138.376 354.521 139.035 354.365 139.455 354.053C139.875 353.74 140.085 353.252 140.085 352.588C140.085 351.973 139.897 351.514 139.521 351.211C139.145 350.908 138.559 350.757 137.763 350.757H136.547V354.521ZM150.668 360L149.599 357.026H145.505L144.458 360H142.612L146.618 349.248H148.522L152.529 360H150.668ZM149.138 355.518L148.134 352.603C148.061 352.407 147.958 352.1 147.827 351.68C147.7 351.26 147.612 350.952 147.563 350.757C147.431 351.357 147.238 352.014 146.984 352.727L146.018 355.518H149.138ZM158.322 354.192H162.263V359.568C161.618 359.778 160.998 359.927 160.402 360.015C159.812 360.103 159.172 360.146 158.483 360.146C156.862 360.146 155.612 359.668 154.733 358.711C153.854 357.749 153.415 356.394 153.415 354.646C153.415 352.922 153.911 351.575 154.902 350.603C155.893 349.626 157.258 349.138 158.996 349.138C160.114 349.138 161.174 349.353 162.175 349.783L161.56 351.24C160.69 350.84 159.821 350.64 158.952 350.64C157.81 350.64 156.906 350.999 156.242 351.716C155.578 352.434 155.246 353.416 155.246 354.661C155.246 355.969 155.544 356.965 156.14 357.649C156.74 358.328 157.602 358.667 158.725 358.667C159.292 358.667 159.897 358.596 160.542 358.455V355.693H158.322V354.192ZM171.484 360L170.415 357.026H166.32L165.273 360H163.427L167.434 349.248H169.338L173.344 360H171.484ZM169.953 355.518L168.95 352.603C168.876 352.407 168.774 352.1 168.642 351.68C168.515 351.26 168.427 350.952 168.378 350.757C168.247 351.357 168.054 352.014 167.8 352.727L166.833 355.518H169.953ZM179.387 360L176.281 351.057H176.223C176.306 352.385 176.347 353.63 176.347 354.792V360H174.758V349.292H177.226L180.2 357.81H180.244L183.305 349.292H185.781V360H184.096V354.705C184.096 354.172 184.108 353.479 184.133 352.625C184.162 351.77 184.187 351.252 184.206 351.072H184.147L180.932 360H179.387ZM194.658 360H188.601V349.292H194.658V350.771H190.351V353.687H194.387V355.151H190.351V358.513H194.658V360ZM205.9 360H203.754L198.488 351.467H198.43L198.466 351.943C198.535 352.852 198.569 353.682 198.569 354.434V360H196.979V349.292H199.104L204.355 357.781H204.399C204.389 357.668 204.37 357.261 204.34 356.558C204.311 355.85 204.296 355.298 204.296 354.902V349.292H205.9V360ZM212.426 360H210.676V350.793H207.526V349.292H215.576V350.793H212.426V360ZM226.73 354.631C226.73 356.375 226.293 357.729 225.419 358.696C224.55 359.663 223.317 360.146 221.721 360.146C220.104 360.146 218.862 359.668 217.993 358.711C217.128 357.749 216.696 356.384 216.696 354.617C216.696 352.849 217.131 351.492 218 350.544C218.874 349.597 220.119 349.124 221.735 349.124C223.327 349.124 224.558 349.604 225.427 350.566C226.296 351.528 226.73 352.883 226.73 354.631ZM218.557 354.631C218.557 355.95 218.823 356.951 219.355 357.634C219.887 358.313 220.676 358.652 221.721 358.652C222.761 358.652 223.544 358.315 224.072 357.642C224.604 356.968 224.87 355.964 224.87 354.631C224.87 353.318 224.606 352.322 224.079 351.643C223.557 350.964 222.775 350.625 221.735 350.625C220.686 350.625 219.892 350.964 219.355 351.643C218.823 352.322 218.557 353.318 218.557 354.631Z" fill="white"/>
<rect x="25" y="404" width="310" height="65" rx="3" stroke="#A769B2" stroke-width="2"/>
<path d="M165.747 440.092C165.747 441.044 165.403 441.792 164.714 442.333C164.026 442.875 163.076 443.146 161.865 443.146C160.654 443.146 159.663 442.958 158.892 442.583V440.927C159.38 441.157 159.897 441.337 160.444 441.469C160.996 441.601 161.509 441.667 161.982 441.667C162.676 441.667 163.186 441.535 163.513 441.271C163.845 441.008 164.011 440.654 164.011 440.209C164.011 439.809 163.86 439.47 163.557 439.191C163.254 438.913 162.629 438.583 161.682 438.203C160.706 437.807 160.017 437.355 159.617 436.848C159.216 436.34 159.016 435.729 159.016 435.017C159.016 434.123 159.333 433.42 159.968 432.907C160.603 432.395 161.455 432.138 162.524 432.138C163.55 432.138 164.57 432.363 165.586 432.812L165.029 434.24C164.077 433.84 163.228 433.64 162.48 433.64C161.914 433.64 161.484 433.764 161.191 434.013C160.898 434.257 160.752 434.582 160.752 434.987C160.752 435.266 160.811 435.505 160.928 435.705C161.045 435.9 161.238 436.086 161.506 436.262C161.775 436.438 162.258 436.669 162.957 436.958C163.743 437.285 164.319 437.59 164.685 437.873C165.051 438.156 165.32 438.476 165.491 438.833C165.662 439.189 165.747 439.609 165.747 440.092ZM174.463 443L173.394 440.026H169.299L168.252 443H166.406L170.413 432.248H172.317L176.323 443H174.463ZM172.932 438.518L171.929 435.603C171.855 435.407 171.753 435.1 171.621 434.68C171.494 434.26 171.406 433.952 171.357 433.757C171.226 434.357 171.033 435.014 170.779 435.727L169.812 438.518H172.932ZM177.737 443V432.292H179.487V443H177.737ZM177.634 431.435V431.252C177.913 430.91 178.198 430.529 178.491 430.109C178.789 429.689 179.023 429.331 179.194 429.033H181.194V429.187C180.94 429.484 180.559 429.87 180.051 430.344C179.548 430.812 179.124 431.176 178.777 431.435H177.634ZM191.03 437.543C191.03 439.311 190.54 440.664 189.558 441.601C188.577 442.534 187.163 443 185.317 443H182.322V432.292H185.632C187.336 432.292 188.662 432.751 189.609 433.669C190.557 434.587 191.03 435.878 191.03 437.543ZM189.185 437.602C189.185 435.039 187.986 433.757 185.588 433.757H184.072V441.528H185.317C187.896 441.528 189.185 440.219 189.185 437.602ZM199.98 443L198.911 440.026H194.817L193.77 443H191.924L195.93 432.248H197.834L201.841 443H199.98ZM198.45 438.518L197.446 435.603C197.373 435.407 197.271 435.1 197.139 434.68C197.012 434.26 196.924 433.952 196.875 433.757C196.743 434.357 196.55 435.014 196.296 435.727L195.33 438.518H198.45Z" fill="#A769B2"/>
<path d="M131.968 499.292H133.784L130.034 510H128.188L124.453 499.292H126.255L128.489 505.95C128.606 506.267 128.73 506.677 128.862 507.18C128.994 507.678 129.08 508.049 129.119 508.293C129.182 507.922 129.28 507.493 129.412 507.004C129.543 506.516 129.651 506.155 129.734 505.92L131.968 499.292ZM141.255 510H135.198V499.292H141.255V500.771H136.948V503.687H140.984V505.151H136.948V508.513H141.255V510ZM145.327 504.272H146.543C147.358 504.272 147.949 504.121 148.315 503.818C148.682 503.516 148.865 503.066 148.865 502.471C148.865 501.865 148.667 501.431 148.271 501.167C147.876 500.903 147.28 500.771 146.484 500.771H145.327V504.272ZM145.327 505.723V510H143.577V499.292H146.602C147.983 499.292 149.006 499.551 149.67 500.068C150.334 500.586 150.667 501.367 150.667 502.412C150.667 503.745 149.973 504.695 148.586 505.261L151.611 510H149.619L147.056 505.723H145.327ZM165.513 510H163.755V505.173H158.818V510H157.068V499.292H158.818V503.672H163.755V499.292H165.513V510ZM168.333 510V499.292H170.083V510H168.333ZM179.092 507.092C179.092 508.044 178.748 508.792 178.059 509.333C177.371 509.875 176.421 510.146 175.21 510.146C173.999 510.146 173.008 509.958 172.236 509.583V507.927C172.725 508.157 173.242 508.337 173.789 508.469C174.341 508.601 174.854 508.667 175.327 508.667C176.021 508.667 176.531 508.535 176.858 508.271C177.19 508.008 177.356 507.654 177.356 507.209C177.356 506.809 177.205 506.47 176.902 506.191C176.599 505.913 175.974 505.583 175.027 505.203C174.05 504.807 173.362 504.355 172.961 503.848C172.561 503.34 172.361 502.729 172.361 502.017C172.361 501.123 172.678 500.42 173.313 499.907C173.948 499.395 174.8 499.138 175.869 499.138C176.895 499.138 177.915 499.363 178.931 499.812L178.374 501.24C177.422 500.84 176.572 500.64 175.825 500.64C175.259 500.64 174.829 500.764 174.536 501.013C174.243 501.257 174.097 501.582 174.097 501.987C174.097 502.266 174.155 502.505 174.272 502.705C174.39 502.9 174.583 503.086 174.851 503.262C175.12 503.438 175.603 503.669 176.301 503.958C177.087 504.285 177.664 504.59 178.03 504.873C178.396 505.156 178.665 505.476 178.835 505.833C179.006 506.189 179.092 506.609 179.092 507.092ZM184.863 510H183.113V500.793H179.963V499.292H188.013V500.793H184.863V510ZM199.167 504.631C199.167 506.375 198.73 507.729 197.856 508.696C196.987 509.663 195.754 510.146 194.158 510.146C192.542 510.146 191.299 509.668 190.43 508.711C189.565 507.749 189.133 506.384 189.133 504.617C189.133 502.849 189.568 501.492 190.437 500.544C191.311 499.597 192.556 499.124 194.172 499.124C195.764 499.124 196.995 499.604 197.864 500.566C198.733 501.528 199.167 502.883 199.167 504.631ZM190.994 504.631C190.994 505.95 191.26 506.951 191.792 507.634C192.324 508.313 193.113 508.652 194.158 508.652C195.198 508.652 195.981 508.315 196.509 507.642C197.041 506.968 197.307 505.964 197.307 504.631C197.307 503.318 197.043 502.322 196.516 501.643C195.994 500.964 195.212 500.625 194.172 500.625C193.123 500.625 192.329 500.964 191.792 501.643C191.26 502.322 190.994 503.318 190.994 504.631ZM193.059 498.435V498.252C193.337 497.91 193.623 497.529 193.916 497.109C194.214 496.689 194.448 496.331 194.619 496.033H196.619V496.187C196.365 496.484 195.984 496.87 195.476 497.344C194.973 497.812 194.548 498.176 194.202 498.435H193.059ZM203.218 504.272H204.434C205.249 504.272 205.84 504.121 206.206 503.818C206.572 503.516 206.755 503.066 206.755 502.471C206.755 501.865 206.558 501.431 206.162 501.167C205.767 500.903 205.171 500.771 204.375 500.771H203.218V504.272ZM203.218 505.723V510H201.467V499.292H204.492C205.874 499.292 206.897 499.551 207.561 500.068C208.225 500.586 208.557 501.367 208.557 502.412C208.557 503.745 207.864 504.695 206.477 505.261L209.502 510H207.51L204.946 505.723H203.218ZM211.062 510V499.292H212.812V510H211.062ZM220.203 500.64C219.197 500.64 218.406 500.996 217.83 501.709C217.253 502.422 216.965 503.406 216.965 504.661C216.965 505.974 217.241 506.968 217.793 507.642C218.35 508.315 219.153 508.652 220.203 508.652C220.657 508.652 221.096 508.608 221.521 508.521C221.946 508.428 222.388 508.311 222.847 508.169V509.67C222.007 509.988 221.055 510.146 219.99 510.146C218.423 510.146 217.219 509.673 216.379 508.726C215.54 507.773 215.12 506.414 215.12 504.646C215.12 503.533 215.322 502.559 215.728 501.724C216.138 500.889 216.729 500.249 217.5 499.805C218.271 499.36 219.177 499.138 220.217 499.138C221.311 499.138 222.322 499.368 223.25 499.827L222.62 501.284C222.258 501.113 221.875 500.964 221.47 500.837C221.069 500.706 220.647 500.64 220.203 500.64ZM234.661 504.631C234.661 506.375 234.224 507.729 233.35 508.696C232.48 509.663 231.248 510.146 229.651 510.146C228.035 510.146 226.792 509.668 225.923 508.711C225.059 507.749 224.626 506.384 224.626 504.617C224.626 502.849 225.061 501.492 225.93 500.544C226.804 499.597 228.049 499.124 229.666 499.124C231.257 499.124 232.488 499.604 233.357 500.566C234.226 501.528 234.661 502.883 234.661 504.631ZM226.487 504.631C226.487 505.95 226.753 506.951 227.285 507.634C227.817 508.313 228.606 508.652 229.651 508.652C230.691 508.652 231.475 508.315 232.002 507.642C232.534 506.968 232.8 505.964 232.8 504.631C232.8 503.318 232.537 502.322 232.009 501.643C231.487 500.964 230.706 500.625 229.666 500.625C228.616 500.625 227.822 500.964 227.285 501.643C226.753 502.322 226.487 503.318 226.487 504.631Z" fill="#00BCD4"/>
</svg>
