<svg width="360" height="640" viewBox="0 0 360 640" fill="none" xmlns="http://www.w3.org/2000/svg">
<rect width="360" height="640" fill="#F2F2F2"/>
<path fill-rule="evenodd" clip-rule="evenodd" d="M0 0V24H360V0H0Z" fill="#757575"/>
<g opacity="0.9">
<path d="M321.696 17H320.042V9.00879L317.602 9.84277V8.44141L321.484 7.0127H321.696V17ZM331.848 17H325.155V15.8584L328.471 12.2422C328.949 11.709 329.289 11.2646 329.489 10.9092C329.694 10.5492 329.797 10.1891 329.797 9.8291C329.797 9.35514 329.662 8.97233 329.394 8.68066C329.129 8.389 328.771 8.24316 328.32 8.24316C327.783 8.24316 327.366 8.40723 327.069 8.73535C326.773 9.06348 326.625 9.51237 326.625 10.082H324.964C324.964 9.47591 325.101 8.93132 325.374 8.44824C325.652 7.96061 326.046 7.58236 326.557 7.31348C327.072 7.0446 327.664 6.91016 328.334 6.91016C329.3 6.91016 330.061 7.15397 330.617 7.6416C331.178 8.12467 331.458 8.7946 331.458 9.65137C331.458 10.1481 331.317 10.6699 331.034 11.2168C330.756 11.7591 330.298 12.3766 329.66 13.0693L327.227 15.6738H331.848V17ZM334.22 15.25C334.53 15.25 334.769 15.3389 334.938 15.5166C335.106 15.6898 335.19 15.9085 335.19 16.1729C335.19 16.4326 335.106 16.6491 334.938 16.8223C334.769 16.9909 334.53 17.0752 334.22 17.0752C333.924 17.0752 333.689 16.9909 333.516 16.8223C333.342 16.6536 333.256 16.4372 333.256 16.1729C333.256 15.9085 333.34 15.6898 333.509 15.5166C333.677 15.3389 333.914 15.25 334.22 15.25ZM334.22 9.44629C334.53 9.44629 334.769 9.53516 334.938 9.71289C335.106 9.88607 335.19 10.1048 335.19 10.3691C335.19 10.6289 335.106 10.8454 334.938 11.0186C334.769 11.1872 334.53 11.2715 334.22 11.2715C333.924 11.2715 333.689 11.1872 333.516 11.0186C333.342 10.8499 333.256 10.6335 333.256 10.3691C333.256 10.1048 333.34 9.88607 333.509 9.71289C333.677 9.53516 333.914 9.44629 334.22 9.44629ZM338.752 11.2646H339.764C340.274 11.2601 340.677 11.1279 340.974 10.8682C341.274 10.6084 341.425 10.2324 341.425 9.74023C341.425 9.26628 341.299 8.89941 341.049 8.63965C340.803 8.37533 340.424 8.24316 339.914 8.24316C339.467 8.24316 339.101 8.37305 338.813 8.63281C338.526 8.88802 338.383 9.22298 338.383 9.6377H336.722C336.722 9.12728 336.856 8.66243 337.125 8.24316C337.398 7.82389 337.777 7.49805 338.26 7.26562C338.747 7.02865 339.292 6.91016 339.894 6.91016C340.887 6.91016 341.666 7.16081 342.231 7.66211C342.801 8.15885 343.086 8.85156 343.086 9.74023C343.086 10.1868 342.942 10.6084 342.655 11.0049C342.373 11.3968 342.006 11.693 341.555 11.8936C342.102 12.0804 342.516 12.3743 342.799 12.7754C343.086 13.1764 343.229 13.6549 343.229 14.2109C343.229 15.1042 342.922 15.8151 342.307 16.3438C341.696 16.8724 340.892 17.1367 339.894 17.1367C338.937 17.1367 338.153 16.8815 337.542 16.3711C336.931 15.8607 336.626 15.1816 336.626 14.334H338.287C338.287 14.7715 338.433 15.127 338.725 15.4004C339.021 15.6738 339.417 15.8105 339.914 15.8105C340.429 15.8105 340.835 15.6738 341.131 15.4004C341.427 15.127 341.575 14.7305 341.575 14.2109C341.575 13.6868 341.42 13.2835 341.11 13.001C340.8 12.7184 340.34 12.5771 339.729 12.5771H338.752V11.2646ZM351.275 12.8096C351.275 14.2406 351.007 15.3206 350.469 16.0498C349.936 16.7744 349.122 17.1367 348.028 17.1367C346.953 17.1367 346.142 16.7835 345.595 16.0771C345.052 15.3662 344.774 14.3158 344.761 12.9258V11.2031C344.761 9.77214 345.027 8.69889 345.561 7.9834C346.098 7.2679 346.916 6.91016 348.015 6.91016C349.104 6.91016 349.915 7.25879 350.448 7.95605C350.986 8.65332 351.262 9.69694 351.275 11.0869V12.8096ZM349.614 10.9502C349.614 10.016 349.487 9.33236 349.231 8.89941C348.976 8.46191 348.571 8.24316 348.015 8.24316C347.472 8.24316 347.074 8.45052 346.818 8.86523C346.563 9.27539 346.429 9.91797 346.415 10.793V13.0488C346.415 13.9785 346.545 14.6712 346.805 15.127C347.064 15.5827 347.472 15.8105 348.028 15.8105C348.562 15.8105 348.956 15.6009 349.211 15.1816C349.466 14.7578 349.601 14.097 349.614 13.1992V10.9502Z" fill="white"/>
</g>
<path fill-rule="evenodd" clip-rule="evenodd" d="M306 5.875V5L303 5V5.875H300V19H309V5.875H306Z" fill="white"/>
<path fill-rule="evenodd" clip-rule="evenodd" d="M277 19H291V5L277 19Z" fill="white"/>
<path fill-rule="evenodd" clip-rule="evenodd" d="M256.977 8.01593C259.488 6.12256 262.613 5 266 5C269.387 5 272.512 6.12256 275.023 8.01593L266 19L256.977 8.01593Z" fill="white"/>
<path fill-rule="evenodd" clip-rule="evenodd" d="M0 592V640H360V592H0Z" fill="black"/>
<path d="M274 610C274 609.448 274.448 609 275 609H287C287.552 609 288 609.448 288 610V622C288 622.552 287.552 623 287 623H275C274.448 623 274 622.552 274 622V610Z" stroke="white" stroke-width="2"/>
<circle cx="180" cy="616" r="7" stroke="white" stroke-width="2"/>
<path d="M84.4995 608.849C85.1662 608.464 86 608.945 86 609.715V621.287C86 622.057 85.1662 622.538 84.4995 622.153L74.4904 616.367C73.8244 615.982 73.8244 615.02 74.4904 614.635L84.4995 608.849Z" stroke="white" stroke-width="2"/>
<rect y="24" width="360" height="60" fill="#4DD0E1"/>
<path d="M42.604 40.6785C42.2765 40.3333 41.7054 40.3326 41.3629 40.6639L40.1485 41.8387C39.8236 42.153 39.8275 42.6503 40.1366 42.9792C43.0962 46.1297 44.5759 50.1252 44.5758 54.1207C44.5756 58.1157 43.0959 62.1106 40.1366 65.2607C39.8275 65.5897 39.8236 66.0869 40.1485 66.4012L41.3629 67.5759C41.7054 67.9073 42.2765 67.9066 42.6041 67.5614C46.2016 63.7701 48.0003 58.9445 48 54.1189C47.9998 49.2942 46.2011 44.4693 42.604 40.6785Z" fill="white"/>
<path d="M11.4242 54.1195C11.4243 50.1244 12.9041 46.1294 15.8635 42.9792C16.1725 42.6502 16.1764 42.153 15.8515 41.8387L14.6372 40.664C14.2946 40.3326 13.7236 40.3333 13.3959 40.6785C9.79856 44.4696 7.99992 49.295 8 54.1204C8.00008 58.9454 9.7988 63.7704 13.3959 67.5614C13.7235 67.9066 14.2946 67.9073 14.6372 67.5759L15.8515 66.4011C16.1764 66.0868 16.1725 65.5896 15.8635 65.2606C12.9039 62.1102 11.4242 58.1149 11.4242 54.1195Z" fill="white"/>
<path fill-rule="evenodd" clip-rule="evenodd" d="M13.238 53.8837C13.238 45.6764 19.9673 39 28.238 39C36.5087 39 43.238 45.6764 43.238 53.8837C43.238 62.0911 36.5087 68.7674 28.238 68.7674C19.9673 68.7674 13.238 62.0911 13.238 53.8837ZM26.5616 55.5374H29.0616C31.359 55.5374 33.2283 53.6835 33.2283 51.4031C33.2283 49.1227 31.359 47.2688 29.0616 47.2687H25.7283C25.2677 47.2687 24.8949 47.6385 24.8949 48.0956V59.6718C24.8949 60.1288 25.2677 60.4987 25.7283 60.4987C26.1889 60.4987 26.5616 60.1288 26.5616 59.6718V55.5374Z" fill="white"/>
<path d="M29.1905 48.9225H26.5714V53.6475H29.1905C30.6347 53.6475 31.8095 52.5877 31.8095 51.285C31.8095 49.9822 30.6347 48.9225 29.1905 48.9225Z" fill="white"/>
<path d="M350.546 53.0769H317.454C316.651 53.0769 316 53.6968 316 54.4615C316 55.2263 316.651 55.8461 317.454 55.8461H350.546C351.349 55.8461 352 55.2263 352 54.4615C352 53.6968 351.349 53.0769 350.546 53.0769Z" fill="white"/>
<path d="M350.546 42H317.454C316.651 42 316 42.6199 316 43.3846C316 44.1493 316.651 44.7692 317.454 44.7692H350.546C351.349 44.7692 352 44.1493 352 43.3846C352 42.6199 351.349 42 350.546 42Z" fill="white"/>
<path d="M350.546 64.1538H317.454C316.651 64.1538 316 64.7737 316 65.5384C316 66.3032 316.651 66.923 317.454 66.923H350.546C351.349 66.923 352 66.3032 352 65.5384C352 64.7737 351.349 64.1538 350.546 64.1538Z" fill="white"/>
<path d="M8 172H352V530C352 532.209 350.209 534 348 534H12C9.79086 534 8 532.209 8 530V172Z" fill="white"/>
<path d="M180 129C180 126.791 181.791 125 184 125H348C350.209 125 352 126.791 352 129V173H180V129Z" fill="white"/>
<rect x="180" y="170" width="172" height="3" fill="#4DD0E1"/>
<path d="M253.789 151.961C253.789 152.966 253.424 153.75 252.695 154.312C251.966 154.875 250.977 155.156 249.727 155.156C248.372 155.156 247.331 154.982 246.602 154.633V153.352C247.07 153.549 247.581 153.706 248.133 153.82C248.685 153.935 249.232 153.992 249.773 153.992C250.659 153.992 251.326 153.826 251.773 153.492C252.221 153.154 252.445 152.685 252.445 152.086C252.445 151.69 252.365 151.367 252.203 151.117C252.047 150.862 251.781 150.628 251.406 150.414C251.036 150.201 250.471 149.958 249.711 149.688C248.648 149.307 247.888 148.857 247.43 148.336C246.977 147.815 246.75 147.135 246.75 146.297C246.75 145.417 247.081 144.716 247.742 144.195C248.404 143.674 249.279 143.414 250.367 143.414C251.503 143.414 252.547 143.622 253.5 144.039L253.086 145.195C252.143 144.799 251.227 144.602 250.336 144.602C249.633 144.602 249.083 144.753 248.688 145.055C248.292 145.357 248.094 145.776 248.094 146.312C248.094 146.708 248.167 147.034 248.312 147.289C248.458 147.539 248.703 147.771 249.047 147.984C249.396 148.193 249.927 148.424 250.641 148.68C251.839 149.107 252.661 149.565 253.109 150.055C253.562 150.544 253.789 151.18 253.789 151.961ZM261.195 155L260.938 153.781H260.875C260.448 154.318 260.021 154.682 259.594 154.875C259.172 155.062 258.643 155.156 258.008 155.156C257.159 155.156 256.492 154.938 256.008 154.5C255.529 154.062 255.289 153.44 255.289 152.633C255.289 150.904 256.672 149.997 259.438 149.914L260.891 149.867V149.336C260.891 148.664 260.745 148.169 260.453 147.852C260.167 147.529 259.706 147.367 259.07 147.367C258.357 147.367 257.549 147.586 256.648 148.023L256.25 147.031C256.672 146.802 257.133 146.622 257.633 146.492C258.138 146.362 258.643 146.297 259.148 146.297C260.169 146.297 260.924 146.523 261.414 146.977C261.909 147.43 262.156 148.156 262.156 149.156V155H261.195ZM258.266 154.086C259.073 154.086 259.706 153.865 260.164 153.422C260.628 152.979 260.859 152.359 260.859 151.562V150.789L259.562 150.844C258.531 150.88 257.786 151.042 257.328 151.328C256.875 151.609 256.648 152.049 256.648 152.648C256.648 153.117 256.789 153.474 257.07 153.719C257.357 153.964 257.755 154.086 258.266 154.086ZM266.133 155H264.836V146.438H266.133V155ZM264.781 145.109C265.031 144.786 265.299 144.396 265.586 143.938C265.878 143.479 266.107 143.081 266.273 142.742H267.852V142.906C267.622 143.245 267.281 143.661 266.828 144.156C266.375 144.651 265.982 145.034 265.648 145.305H264.781V145.109ZM274.711 153.852H274.641C274.042 154.721 273.146 155.156 271.953 155.156C270.833 155.156 269.961 154.773 269.336 154.008C268.716 153.242 268.406 152.154 268.406 150.742C268.406 149.331 268.719 148.234 269.344 147.453C269.969 146.672 270.839 146.281 271.953 146.281C273.115 146.281 274.005 146.703 274.625 147.547H274.727L274.672 146.93L274.641 146.328V142.844H275.938V155H274.883L274.711 153.852ZM272.117 154.07C273.003 154.07 273.643 153.831 274.039 153.352C274.44 152.867 274.641 152.089 274.641 151.016V150.742C274.641 149.529 274.438 148.664 274.031 148.148C273.63 147.628 272.987 147.367 272.102 147.367C271.341 147.367 270.758 147.664 270.352 148.258C269.951 148.846 269.75 149.68 269.75 150.758C269.75 151.852 269.951 152.677 270.352 153.234C270.753 153.792 271.341 154.07 272.117 154.07ZM283.961 155L283.703 153.781H283.641C283.214 154.318 282.786 154.682 282.359 154.875C281.938 155.062 281.409 155.156 280.773 155.156C279.924 155.156 279.258 154.938 278.773 154.5C278.294 154.062 278.055 153.44 278.055 152.633C278.055 150.904 279.438 149.997 282.203 149.914L283.656 149.867V149.336C283.656 148.664 283.51 148.169 283.219 147.852C282.932 147.529 282.471 147.367 281.836 147.367C281.122 147.367 280.315 147.586 279.414 148.023L279.016 147.031C279.438 146.802 279.898 146.622 280.398 146.492C280.904 146.362 281.409 146.297 281.914 146.297C282.935 146.297 283.69 146.523 284.18 146.977C284.674 147.43 284.922 148.156 284.922 149.156V155H283.961ZM281.031 154.086C281.839 154.086 282.471 153.865 282.93 153.422C283.393 152.979 283.625 152.359 283.625 151.562V150.789L282.328 150.844C281.297 150.88 280.552 151.042 280.094 151.328C279.641 151.609 279.414 152.049 279.414 152.648C279.414 153.117 279.555 153.474 279.836 153.719C280.122 153.964 280.521 154.086 281.031 154.086Z" fill="#4DD0E1"/>
<rect x="8" y="125" width="172" height="48" fill="#F2F2F2"/>
<path d="M73.1641 156H66.7969V144.578H73.1641V145.758H68.125V149.438H72.8594V150.609H68.125V154.812H73.1641V156ZM81.3672 156V150.461C81.3672 149.763 81.2083 149.242 80.8906 148.898C80.5729 148.555 80.0755 148.383 79.3984 148.383C78.5026 148.383 77.8464 148.625 77.4297 149.109C77.013 149.594 76.8047 150.393 76.8047 151.508V156H75.5078V147.438H76.5625L76.7734 148.609H76.8359C77.1016 148.188 77.474 147.862 77.9531 147.633C78.4323 147.398 78.9661 147.281 79.5547 147.281C80.5859 147.281 81.362 147.531 81.8828 148.031C82.4036 148.526 82.6641 149.32 82.6641 150.414V156H81.3672ZM88.1016 155.086C88.3307 155.086 88.5521 155.07 88.7656 155.039C88.9792 155.003 89.1484 154.966 89.2734 154.93V155.922C89.1328 155.99 88.9245 156.044 88.6484 156.086C88.3776 156.133 88.1328 156.156 87.9141 156.156C86.2578 156.156 85.4297 155.284 85.4297 153.539V148.445H84.2031V147.82L85.4297 147.281L85.9766 145.453H86.7266V147.438H89.2109V148.445H86.7266V153.484C86.7266 154 86.849 154.396 87.0938 154.672C87.3385 154.948 87.6745 155.086 88.1016 155.086ZM94.8984 147.281C95.2786 147.281 95.6198 147.312 95.9219 147.375L95.7422 148.578C95.388 148.5 95.0755 148.461 94.8047 148.461C94.112 148.461 93.5182 148.742 93.0234 149.305C92.5339 149.867 92.2891 150.568 92.2891 151.406V156H90.9922V147.438H92.0625L92.2109 149.023H92.2734C92.5911 148.466 92.974 148.036 93.4219 147.734C93.8698 147.432 94.362 147.281 94.8984 147.281ZM102.789 156L102.531 154.781H102.469C102.042 155.318 101.615 155.682 101.188 155.875C100.766 156.062 100.237 156.156 99.6016 156.156C98.7526 156.156 98.0859 155.938 97.6016 155.5C97.1224 155.062 96.8828 154.44 96.8828 153.633C96.8828 151.904 98.2656 150.997 101.031 150.914L102.484 150.867V150.336C102.484 149.664 102.339 149.169 102.047 148.852C101.76 148.529 101.299 148.367 100.664 148.367C99.9505 148.367 99.1432 148.586 98.2422 149.023L97.8438 148.031C98.2656 147.802 98.7266 147.622 99.2266 147.492C99.7318 147.362 100.237 147.297 100.742 147.297C101.763 147.297 102.518 147.523 103.008 147.977C103.503 148.43 103.75 149.156 103.75 150.156V156H102.789ZM99.8594 155.086C100.667 155.086 101.299 154.865 101.758 154.422C102.221 153.979 102.453 153.359 102.453 152.562V151.789L101.156 151.844C100.125 151.88 99.3802 152.042 98.9219 152.328C98.4688 152.609 98.2422 153.049 98.2422 153.648C98.2422 154.117 98.3828 154.474 98.6641 154.719C98.9505 154.964 99.349 155.086 99.8594 155.086ZM112.258 154.852H112.188C111.589 155.721 110.693 156.156 109.5 156.156C108.38 156.156 107.508 155.773 106.883 155.008C106.263 154.242 105.953 153.154 105.953 151.742C105.953 150.331 106.266 149.234 106.891 148.453C107.516 147.672 108.385 147.281 109.5 147.281C110.661 147.281 111.552 147.703 112.172 148.547H112.273L112.219 147.93L112.188 147.328V143.844H113.484V156H112.43L112.258 154.852ZM109.664 155.07C110.549 155.07 111.19 154.831 111.586 154.352C111.987 153.867 112.188 153.089 112.188 152.016V151.742C112.188 150.529 111.984 149.664 111.578 149.148C111.177 148.628 110.534 148.367 109.648 148.367C108.888 148.367 108.305 148.664 107.898 149.258C107.497 149.846 107.297 150.68 107.297 151.758C107.297 152.852 107.497 153.677 107.898 154.234C108.299 154.792 108.888 155.07 109.664 155.07ZM121.508 156L121.25 154.781H121.188C120.76 155.318 120.333 155.682 119.906 155.875C119.484 156.062 118.956 156.156 118.32 156.156C117.471 156.156 116.805 155.938 116.32 155.5C115.841 155.062 115.602 154.44 115.602 153.633C115.602 151.904 116.984 150.997 119.75 150.914L121.203 150.867V150.336C121.203 149.664 121.057 149.169 120.766 148.852C120.479 148.529 120.018 148.367 119.383 148.367C118.669 148.367 117.862 148.586 116.961 149.023L116.562 148.031C116.984 147.802 117.445 147.622 117.945 147.492C118.451 147.362 118.956 147.297 119.461 147.297C120.482 147.297 121.237 147.523 121.727 147.977C122.221 148.43 122.469 149.156 122.469 150.156V156H121.508ZM118.578 155.086C119.385 155.086 120.018 154.865 120.477 154.422C120.94 153.979 121.172 153.359 121.172 152.562V151.789L119.875 151.844C118.844 151.88 118.099 152.042 117.641 152.328C117.188 152.609 116.961 153.049 116.961 153.648C116.961 154.117 117.102 154.474 117.383 154.719C117.669 154.964 118.068 155.086 118.578 155.086Z" fill="#9B9B9B"/>
<rect x="24.5" y="269.5" width="311" height="66" rx="3.5" fill="#FFFBE6" stroke="#CCCCCC"/>
<path d="M150.012 312H147.75L143.145 304.465L138.457 312H136.348L142.043 303.047L136.734 294.867H138.938L143.191 301.652L147.48 294.867H149.602L144.293 302.977L150.012 312ZM163.863 312H161.602L156.996 304.465L152.309 312H150.199L155.895 303.047L150.586 294.867H152.789L157.043 301.652L161.332 294.867H163.453L158.145 302.977L163.863 312ZM177.715 312H175.453L170.848 304.465L166.16 312H164.051L169.746 303.047L164.438 294.867H166.641L170.895 301.652L175.184 294.867H177.305L171.996 302.977L177.715 312ZM178.793 306.457V304.676H184.547V306.457H178.793ZM197.977 302.18C197.977 308.883 195.383 312.234 190.195 312.234C189.289 312.234 188.57 312.156 188.039 312V310.324C188.664 310.527 189.375 310.629 190.172 310.629C192.047 310.629 193.461 310.051 194.414 308.895C195.375 307.73 195.898 305.949 195.984 303.551H195.844C195.414 304.199 194.844 304.695 194.133 305.039C193.422 305.375 192.621 305.543 191.73 305.543C190.215 305.543 189.012 305.09 188.121 304.184C187.23 303.277 186.785 302.012 186.785 300.387C186.785 298.605 187.281 297.199 188.273 296.168C189.273 295.137 190.586 294.621 192.211 294.621C193.375 294.621 194.391 294.922 195.258 295.523C196.133 296.117 196.805 296.988 197.273 298.137C197.742 299.277 197.977 300.625 197.977 302.18ZM192.211 296.285C191.094 296.285 190.23 296.645 189.621 297.363C189.012 298.082 188.707 299.082 188.707 300.363C188.707 301.488 188.988 302.375 189.551 303.023C190.113 303.664 190.969 303.984 192.117 303.984C192.828 303.984 193.48 303.84 194.074 303.551C194.676 303.262 195.148 302.867 195.492 302.367C195.836 301.867 196.008 301.344 196.008 300.797C196.008 299.977 195.848 299.219 195.527 298.523C195.207 297.828 194.758 297.281 194.18 296.883C193.609 296.484 192.953 296.285 192.211 296.285ZM211.711 302.18C211.711 308.883 209.117 312.234 203.93 312.234C203.023 312.234 202.305 312.156 201.773 312V310.324C202.398 310.527 203.109 310.629 203.906 310.629C205.781 310.629 207.195 310.051 208.148 308.895C209.109 307.73 209.633 305.949 209.719 303.551H209.578C209.148 304.199 208.578 304.695 207.867 305.039C207.156 305.375 206.355 305.543 205.465 305.543C203.949 305.543 202.746 305.09 201.855 304.184C200.965 303.277 200.52 302.012 200.52 300.387C200.52 298.605 201.016 297.199 202.008 296.168C203.008 295.137 204.32 294.621 205.945 294.621C207.109 294.621 208.125 294.922 208.992 295.523C209.867 296.117 210.539 296.988 211.008 298.137C211.477 299.277 211.711 300.625 211.711 302.18ZM205.945 296.285C204.828 296.285 203.965 296.645 203.355 297.363C202.746 298.082 202.441 299.082 202.441 300.363C202.441 301.488 202.723 302.375 203.285 303.023C203.848 303.664 204.703 303.984 205.852 303.984C206.562 303.984 207.215 303.84 207.809 303.551C208.41 303.262 208.883 302.867 209.227 302.367C209.57 301.867 209.742 301.344 209.742 300.797C209.742 299.977 209.582 299.219 209.262 298.523C208.941 297.828 208.492 297.281 207.914 296.883C207.344 296.484 206.688 296.285 205.945 296.285ZM225.445 302.18C225.445 308.883 222.852 312.234 217.664 312.234C216.758 312.234 216.039 312.156 215.508 312V310.324C216.133 310.527 216.844 310.629 217.641 310.629C219.516 310.629 220.93 310.051 221.883 308.895C222.844 307.73 223.367 305.949 223.453 303.551H223.312C222.883 304.199 222.312 304.695 221.602 305.039C220.891 305.375 220.09 305.543 219.199 305.543C217.684 305.543 216.48 305.09 215.59 304.184C214.699 303.277 214.254 302.012 214.254 300.387C214.254 298.605 214.75 297.199 215.742 296.168C216.742 295.137 218.055 294.621 219.68 294.621C220.844 294.621 221.859 294.922 222.727 295.523C223.602 296.117 224.273 296.988 224.742 298.137C225.211 299.277 225.445 300.625 225.445 302.18ZM219.68 296.285C218.562 296.285 217.699 296.645 217.09 297.363C216.48 298.082 216.176 299.082 216.176 300.363C216.176 301.488 216.457 302.375 217.02 303.023C217.582 303.664 218.438 303.984 219.586 303.984C220.297 303.984 220.949 303.84 221.543 303.551C222.145 303.262 222.617 302.867 222.961 302.367C223.305 301.867 223.477 301.344 223.477 300.797C223.477 299.977 223.316 299.219 222.996 298.523C222.676 297.828 222.227 297.281 221.648 296.883C221.078 296.484 220.422 296.285 219.68 296.285Z" fill="#9B9B9B"/>
<path d="M34.7109 257H33.1953L26.9531 247.414H26.8906C26.974 248.539 27.0156 249.57 27.0156 250.508V257H25.7891V245.578H27.2891L33.5156 255.125H33.5781C33.5677 254.984 33.5443 254.534 33.5078 253.773C33.4714 253.008 33.4583 252.461 33.4688 252.133V245.578H34.7109V257ZM38.875 248.438V253.992C38.875 254.69 39.0339 255.211 39.3516 255.555C39.6693 255.898 40.1667 256.07 40.8438 256.07C41.7396 256.07 42.3932 255.826 42.8047 255.336C43.2214 254.846 43.4297 254.047 43.4297 252.938V248.438H44.7266V257H43.6562L43.4688 255.852H43.3984C43.1328 256.273 42.763 256.596 42.2891 256.82C41.8203 257.044 41.2839 257.156 40.6797 257.156C39.638 257.156 38.8568 256.909 38.3359 256.414C37.8203 255.919 37.5625 255.128 37.5625 254.039V248.438H38.875ZM40.2344 247.109C40.4844 246.786 40.7526 246.396 41.0391 245.938C41.3307 245.479 41.5599 245.081 41.7266 244.742H43.3047V244.906C43.0755 245.245 42.7344 245.661 42.2812 246.156C41.8281 246.651 41.4349 247.034 41.1016 247.305H40.2344V247.109ZM58.3984 257V251.43C58.3984 250.747 58.2526 250.237 57.9609 249.898C57.6693 249.555 57.2161 249.383 56.6016 249.383C55.7943 249.383 55.1979 249.615 54.8125 250.078C54.4271 250.542 54.2344 251.255 54.2344 252.219V257H52.9375V251.43C52.9375 250.747 52.7917 250.237 52.5 249.898C52.2083 249.555 51.7526 249.383 51.1328 249.383C50.3203 249.383 49.724 249.628 49.3438 250.117C48.9688 250.602 48.7812 251.398 48.7812 252.508V257H47.4844V248.438H48.5391L48.75 249.609H48.8125C49.0573 249.193 49.401 248.867 49.8438 248.633C50.2917 248.398 50.7917 248.281 51.3438 248.281C52.6823 248.281 53.5573 248.766 53.9688 249.734H54.0312C54.2865 249.286 54.6562 248.932 55.1406 248.672C55.625 248.411 56.1771 248.281 56.7969 248.281C57.7656 248.281 58.4896 248.531 58.9688 249.031C59.4531 249.526 59.6953 250.32 59.6953 251.414V257H58.3984ZM65.9922 257.156C64.7266 257.156 63.7266 256.771 62.9922 256C62.263 255.229 61.8984 254.159 61.8984 252.789C61.8984 251.409 62.237 250.312 62.9141 249.5C63.5964 248.688 64.5104 248.281 65.6562 248.281C66.7292 248.281 67.5781 248.635 68.2031 249.344C68.8281 250.047 69.1406 250.977 69.1406 252.133V252.953H63.2422C63.2682 253.958 63.5208 254.721 64 255.242C64.4844 255.763 65.1641 256.023 66.0391 256.023C66.9609 256.023 67.8724 255.831 68.7734 255.445V256.602C68.3151 256.799 67.8802 256.94 67.4688 257.023C67.0625 257.112 66.5703 257.156 65.9922 257.156ZM65.6406 249.367C64.9531 249.367 64.4036 249.591 63.9922 250.039C63.5859 250.487 63.3464 251.107 63.2734 251.898H67.75C67.75 251.081 67.5677 250.456 67.2031 250.023C66.8385 249.586 66.3177 249.367 65.6406 249.367ZM75.2656 248.281C75.6458 248.281 75.987 248.312 76.2891 248.375L76.1094 249.578C75.7552 249.5 75.4427 249.461 75.1719 249.461C74.4792 249.461 73.8854 249.742 73.3906 250.305C72.901 250.867 72.6562 251.568 72.6562 252.406V257H71.3594V248.438H72.4297L72.5781 250.023H72.6406C72.9583 249.466 73.3411 249.036 73.7891 248.734C74.237 248.432 74.7292 248.281 75.2656 248.281ZM85.2812 252.711C85.2812 254.107 84.9297 255.198 84.2266 255.984C83.5234 256.766 82.5521 257.156 81.3125 257.156C80.5469 257.156 79.8672 256.977 79.2734 256.617C78.6797 256.258 78.2214 255.742 77.8984 255.07C77.5755 254.398 77.4141 253.612 77.4141 252.711C77.4141 251.315 77.763 250.229 78.4609 249.453C79.1589 248.672 80.1276 248.281 81.3672 248.281C82.5651 248.281 83.5156 248.68 84.2188 249.477C84.9271 250.273 85.2812 251.352 85.2812 252.711ZM78.7578 252.711C78.7578 253.805 78.9766 254.638 79.4141 255.211C79.8516 255.784 80.4948 256.07 81.3438 256.07C82.1927 256.07 82.8359 255.786 83.2734 255.219C83.7161 254.646 83.9375 253.81 83.9375 252.711C83.9375 251.622 83.7161 250.797 83.2734 250.234C82.8359 249.667 82.1875 249.383 81.3281 249.383C80.4792 249.383 79.8385 249.661 79.4062 250.219C78.974 250.776 78.7578 251.607 78.7578 252.711ZM97.5469 255.852H97.4766C96.8776 256.721 95.9818 257.156 94.7891 257.156C93.6693 257.156 92.7969 256.773 92.1719 256.008C91.5521 255.242 91.2422 254.154 91.2422 252.742C91.2422 251.331 91.5547 250.234 92.1797 249.453C92.8047 248.672 93.6745 248.281 94.7891 248.281C95.9505 248.281 96.8411 248.703 97.4609 249.547H97.5625L97.5078 248.93L97.4766 248.328V244.844H98.7734V257H97.7188L97.5469 255.852ZM94.9531 256.07C95.8385 256.07 96.4792 255.831 96.875 255.352C97.276 254.867 97.4766 254.089 97.4766 253.016V252.742C97.4766 251.529 97.2734 250.664 96.8672 250.148C96.4661 249.628 95.8229 249.367 94.9375 249.367C94.1771 249.367 93.5938 249.664 93.1875 250.258C92.7865 250.846 92.5859 251.68 92.5859 252.758C92.5859 253.852 92.7865 254.677 93.1875 255.234C93.5885 255.792 94.1771 256.07 94.9531 256.07ZM106.797 257L106.539 255.781H106.477C106.049 256.318 105.622 256.682 105.195 256.875C104.773 257.062 104.245 257.156 103.609 257.156C102.76 257.156 102.094 256.938 101.609 256.5C101.13 256.062 100.891 255.44 100.891 254.633C100.891 252.904 102.273 251.997 105.039 251.914L106.492 251.867V251.336C106.492 250.664 106.346 250.169 106.055 249.852C105.768 249.529 105.307 249.367 104.672 249.367C103.958 249.367 103.151 249.586 102.25 250.023L101.852 249.031C102.273 248.802 102.734 248.622 103.234 248.492C103.74 248.362 104.245 248.297 104.75 248.297C105.771 248.297 106.526 248.523 107.016 248.977C107.51 249.43 107.758 250.156 107.758 251.156V257H106.797ZM103.867 256.086C104.674 256.086 105.307 255.865 105.766 255.422C106.229 254.979 106.461 254.359 106.461 253.562V252.789L105.164 252.844C104.133 252.88 103.388 253.042 102.93 253.328C102.477 253.609 102.25 254.049 102.25 254.648C102.25 255.117 102.391 255.474 102.672 255.719C102.958 255.964 103.357 256.086 103.867 256.086ZM118.578 257.156C118.021 257.156 117.51 257.055 117.047 256.852C116.589 256.643 116.203 256.326 115.891 255.898H115.797C115.859 256.398 115.891 256.872 115.891 257.32V260.844H114.594V248.438H115.648L115.828 249.609H115.891C116.224 249.141 116.612 248.802 117.055 248.594C117.497 248.385 118.005 248.281 118.578 248.281C119.714 248.281 120.589 248.669 121.203 249.445C121.823 250.221 122.133 251.31 122.133 252.711C122.133 254.117 121.818 255.211 121.188 255.992C120.562 256.768 119.693 257.156 118.578 257.156ZM118.391 249.383C117.516 249.383 116.883 249.625 116.492 250.109C116.102 250.594 115.901 251.365 115.891 252.422V252.711C115.891 253.914 116.091 254.776 116.492 255.297C116.893 255.812 117.536 256.07 118.422 256.07C119.161 256.07 119.74 255.771 120.156 255.172C120.578 254.573 120.789 253.747 120.789 252.695C120.789 251.628 120.578 250.81 120.156 250.242C119.74 249.669 119.151 249.383 118.391 249.383ZM125.703 257H124.406V244.844H125.703V257ZM133.719 257L133.461 255.781H133.398C132.971 256.318 132.544 256.682 132.117 256.875C131.695 257.062 131.167 257.156 130.531 257.156C129.682 257.156 129.016 256.938 128.531 256.5C128.052 256.062 127.812 255.44 127.812 254.633C127.812 252.904 129.195 251.997 131.961 251.914L133.414 251.867V251.336C133.414 250.664 133.268 250.169 132.977 249.852C132.69 249.529 132.229 249.367 131.594 249.367C130.88 249.367 130.073 249.586 129.172 250.023L128.773 249.031C129.195 248.802 129.656 248.622 130.156 248.492C130.661 248.362 131.167 248.297 131.672 248.297C132.693 248.297 133.448 248.523 133.938 248.977C134.432 249.43 134.68 250.156 134.68 251.156V257H133.719ZM130.789 256.086C131.596 256.086 132.229 255.865 132.688 255.422C133.151 254.979 133.383 254.359 133.383 253.562V252.789L132.086 252.844C131.055 252.88 130.31 253.042 129.852 253.328C129.398 253.609 129.172 254.049 129.172 254.648C129.172 255.117 129.312 255.474 129.594 255.719C129.88 255.964 130.279 256.086 130.789 256.086ZM140.781 257.156C139.542 257.156 138.581 256.776 137.898 256.016C137.221 255.25 136.883 254.169 136.883 252.773C136.883 251.341 137.227 250.234 137.914 249.453C138.607 248.672 139.591 248.281 140.867 248.281C141.279 248.281 141.69 248.326 142.102 248.414C142.513 248.503 142.836 248.607 143.07 248.727L142.672 249.828C142.385 249.714 142.073 249.62 141.734 249.547C141.396 249.469 141.096 249.43 140.836 249.43C139.096 249.43 138.227 250.539 138.227 252.758C138.227 253.81 138.438 254.617 138.859 255.18C139.286 255.742 139.917 256.023 140.75 256.023C141.464 256.023 142.195 255.87 142.945 255.562V256.711C142.372 257.008 141.651 257.156 140.781 257.156ZM150.25 257L149.992 255.781H149.93C149.503 256.318 149.076 256.682 148.648 256.875C148.227 257.062 147.698 257.156 147.062 257.156C146.214 257.156 145.547 256.938 145.062 256.5C144.583 256.062 144.344 255.44 144.344 254.633C144.344 252.904 145.727 251.997 148.492 251.914L149.945 251.867V251.336C149.945 250.664 149.799 250.169 149.508 249.852C149.221 249.529 148.76 249.367 148.125 249.367C147.411 249.367 146.604 249.586 145.703 250.023L145.305 249.031C145.727 248.802 146.188 248.622 146.688 248.492C147.193 248.362 147.698 248.297 148.203 248.297C149.224 248.297 149.979 248.523 150.469 248.977C150.964 249.43 151.211 250.156 151.211 251.156V257H150.25ZM147.32 256.086C148.128 256.086 148.76 255.865 149.219 255.422C149.682 254.979 149.914 254.359 149.914 253.562V252.789L148.617 252.844C147.586 252.88 146.841 253.042 146.383 253.328C145.93 253.609 145.703 254.049 145.703 254.648C145.703 255.117 145.844 255.474 146.125 255.719C146.411 255.964 146.81 256.086 147.32 256.086ZM153.703 256.172C153.703 255.823 153.781 255.56 153.938 255.383C154.099 255.201 154.328 255.109 154.625 255.109C154.927 255.109 155.161 255.201 155.328 255.383C155.5 255.56 155.586 255.823 155.586 256.172C155.586 256.51 155.5 256.771 155.328 256.953C155.156 257.135 154.922 257.227 154.625 257.227C154.359 257.227 154.138 257.146 153.961 256.984C153.789 256.818 153.703 256.547 153.703 256.172ZM153.703 249.273C153.703 248.57 154.01 248.219 154.625 248.219C155.266 248.219 155.586 248.57 155.586 249.273C155.586 249.612 155.5 249.872 155.328 250.055C155.156 250.237 154.922 250.328 154.625 250.328C154.359 250.328 154.138 250.247 153.961 250.086C153.789 249.919 153.703 249.648 153.703 249.273Z" fill="#9B9B9B"/>
<rect x="24" y="320" width="312" height="67" rx="4" fill="#A769B2"/>
<path d="M141.887 352.529C141.887 353.647 141.521 354.504 140.788 355.1C140.056 355.696 139.013 355.994 137.661 355.994H136.547V360H134.797V349.292H137.88C139.218 349.292 140.219 349.565 140.883 350.112C141.552 350.659 141.887 351.465 141.887 352.529ZM136.547 354.521H137.478C138.376 354.521 139.035 354.365 139.455 354.053C139.875 353.74 140.085 353.252 140.085 352.588C140.085 351.973 139.897 351.514 139.521 351.211C139.145 350.908 138.559 350.757 137.763 350.757H136.547V354.521ZM150.668 360L149.599 357.026H145.505L144.458 360H142.612L146.618 349.248H148.522L152.529 360H150.668ZM149.138 355.518L148.134 352.603C148.061 352.407 147.958 352.1 147.827 351.68C147.7 351.26 147.612 350.952 147.563 350.757C147.431 351.357 147.238 352.014 146.984 352.727L146.018 355.518H149.138ZM158.322 354.192H162.263V359.568C161.618 359.778 160.998 359.927 160.402 360.015C159.812 360.103 159.172 360.146 158.483 360.146C156.862 360.146 155.612 359.668 154.733 358.711C153.854 357.749 153.415 356.394 153.415 354.646C153.415 352.922 153.911 351.575 154.902 350.603C155.893 349.626 157.258 349.138 158.996 349.138C160.114 349.138 161.174 349.353 162.175 349.783L161.56 351.24C160.69 350.84 159.821 350.64 158.952 350.64C157.81 350.64 156.906 350.999 156.242 351.716C155.578 352.434 155.246 353.416 155.246 354.661C155.246 355.969 155.544 356.965 156.14 357.649C156.74 358.328 157.602 358.667 158.725 358.667C159.292 358.667 159.897 358.596 160.542 358.455V355.693H158.322V354.192ZM171.484 360L170.415 357.026H166.32L165.273 360H163.427L167.434 349.248H169.338L173.344 360H171.484ZM169.953 355.518L168.95 352.603C168.876 352.407 168.774 352.1 168.642 351.68C168.515 351.26 168.427 350.952 168.378 350.757C168.247 351.357 168.054 352.014 167.8 352.727L166.833 355.518H169.953ZM179.387 360L176.281 351.057H176.223C176.306 352.385 176.347 353.63 176.347 354.792V360H174.758V349.292H177.226L180.2 357.81H180.244L183.305 349.292H185.781V360H184.096V354.705C184.096 354.172 184.108 353.479 184.133 352.625C184.162 351.77 184.187 351.252 184.206 351.072H184.147L180.932 360H179.387ZM194.658 360H188.601V349.292H194.658V350.771H190.351V353.687H194.387V355.151H190.351V358.513H194.658V360ZM205.9 360H203.754L198.488 351.467H198.43L198.466 351.943C198.535 352.852 198.569 353.682 198.569 354.434V360H196.979V349.292H199.104L204.355 357.781H204.399C204.389 357.668 204.37 357.261 204.34 356.558C204.311 355.85 204.296 355.298 204.296 354.902V349.292H205.9V360ZM212.426 360H210.676V350.793H207.526V349.292H215.576V350.793H212.426V360ZM226.73 354.631C226.73 356.375 226.293 357.729 225.419 358.696C224.55 359.663 223.317 360.146 221.721 360.146C220.104 360.146 218.862 359.668 217.993 358.711C217.128 357.749 216.696 356.384 216.696 354.617C216.696 352.849 217.131 351.492 218 350.544C218.874 349.597 220.119 349.124 221.735 349.124C223.327 349.124 224.558 349.604 225.427 350.566C226.296 351.528 226.73 352.883 226.73 354.631ZM218.557 354.631C218.557 355.95 218.823 356.951 219.355 357.634C219.887 358.313 220.676 358.652 221.721 358.652C222.761 358.652 223.544 358.315 224.072 357.642C224.604 356.968 224.87 355.964 224.87 354.631C224.87 353.318 224.606 352.322 224.079 351.643C223.557 350.964 222.775 350.625 221.735 350.625C220.686 350.625 219.892 350.964 219.355 351.643C218.823 352.322 218.557 353.318 218.557 354.631Z" fill="white"/>
<rect x="25" y="404" width="310" height="65" rx="3" stroke="#A769B2" stroke-width="2"/>
<path d="M131.968 432.292H133.784L130.034 443H128.188L124.453 432.292H126.255L128.489 438.95C128.606 439.267 128.73 439.677 128.862 440.18C128.994 440.678 129.08 441.049 129.119 441.293C129.182 440.922 129.28 440.493 129.412 440.004C129.543 439.516 129.651 439.155 129.734 438.92L131.968 432.292ZM141.255 443H135.198V432.292H141.255V433.771H136.948V436.687H140.984V438.151H136.948V441.513H141.255V443ZM145.327 437.272H146.543C147.358 437.272 147.949 437.121 148.315 436.818C148.682 436.516 148.865 436.066 148.865 435.471C148.865 434.865 148.667 434.431 148.271 434.167C147.876 433.903 147.28 433.771 146.484 433.771H145.327V437.272ZM145.327 438.723V443H143.577V432.292H146.602C147.983 432.292 149.006 432.551 149.67 433.068C150.334 433.586 150.667 434.367 150.667 435.412C150.667 436.745 149.973 437.695 148.586 438.261L151.611 443H149.619L147.056 438.723H145.327ZM165.513 443H163.755V438.173H158.818V443H157.068V432.292H158.818V436.672H163.755V432.292H165.513V443ZM168.333 443V432.292H170.083V443H168.333ZM179.092 440.092C179.092 441.044 178.748 441.792 178.059 442.333C177.371 442.875 176.421 443.146 175.21 443.146C173.999 443.146 173.008 442.958 172.236 442.583V440.927C172.725 441.157 173.242 441.337 173.789 441.469C174.341 441.601 174.854 441.667 175.327 441.667C176.021 441.667 176.531 441.535 176.858 441.271C177.19 441.008 177.356 440.654 177.356 440.209C177.356 439.809 177.205 439.47 176.902 439.191C176.599 438.913 175.974 438.583 175.027 438.203C174.05 437.807 173.362 437.355 172.961 436.848C172.561 436.34 172.361 435.729 172.361 435.017C172.361 434.123 172.678 433.42 173.313 432.907C173.948 432.395 174.8 432.138 175.869 432.138C176.895 432.138 177.915 432.363 178.931 432.812L178.374 434.24C177.422 433.84 176.572 433.64 175.825 433.64C175.259 433.64 174.829 433.764 174.536 434.013C174.243 434.257 174.097 434.582 174.097 434.987C174.097 435.266 174.155 435.505 174.272 435.705C174.39 435.9 174.583 436.086 174.851 436.262C175.12 436.438 175.603 436.669 176.301 436.958C177.087 437.285 177.664 437.59 178.03 437.873C178.396 438.156 178.665 438.476 178.835 438.833C179.006 439.189 179.092 439.609 179.092 440.092ZM184.863 443H183.113V433.793H179.963V432.292H188.013V433.793H184.863V443ZM199.167 437.631C199.167 439.375 198.73 440.729 197.856 441.696C196.987 442.663 195.754 443.146 194.158 443.146C192.542 443.146 191.299 442.668 190.43 441.711C189.565 440.749 189.133 439.384 189.133 437.617C189.133 435.849 189.568 434.492 190.437 433.544C191.311 432.597 192.556 432.124 194.172 432.124C195.764 432.124 196.995 432.604 197.864 433.566C198.733 434.528 199.167 435.883 199.167 437.631ZM190.994 437.631C190.994 438.95 191.26 439.951 191.792 440.634C192.324 441.313 193.113 441.652 194.158 441.652C195.198 441.652 195.981 441.315 196.509 440.642C197.041 439.968 197.307 438.964 197.307 437.631C197.307 436.318 197.043 435.322 196.516 434.643C195.994 433.964 195.212 433.625 194.172 433.625C193.123 433.625 192.329 433.964 191.792 434.643C191.26 435.322 190.994 436.318 190.994 437.631ZM193.059 431.435V431.252C193.337 430.91 193.623 430.529 193.916 430.109C194.214 429.689 194.448 429.331 194.619 429.033H196.619V429.187C196.365 429.484 195.984 429.87 195.476 430.344C194.973 430.812 194.548 431.176 194.202 431.435H193.059ZM203.218 437.272H204.434C205.249 437.272 205.84 437.121 206.206 436.818C206.572 436.516 206.755 436.066 206.755 435.471C206.755 434.865 206.558 434.431 206.162 434.167C205.767 433.903 205.171 433.771 204.375 433.771H203.218V437.272ZM203.218 438.723V443H201.467V432.292H204.492C205.874 432.292 206.897 432.551 207.561 433.068C208.225 433.586 208.557 434.367 208.557 435.412C208.557 436.745 207.864 437.695 206.477 438.261L209.502 443H207.51L204.946 438.723H203.218ZM211.062 443V432.292H212.812V443H211.062ZM220.203 433.64C219.197 433.64 218.406 433.996 217.83 434.709C217.253 435.422 216.965 436.406 216.965 437.661C216.965 438.974 217.241 439.968 217.793 440.642C218.35 441.315 219.153 441.652 220.203 441.652C220.657 441.652 221.096 441.608 221.521 441.521C221.946 441.428 222.388 441.311 222.847 441.169V442.67C222.007 442.988 221.055 443.146 219.99 443.146C218.423 443.146 217.219 442.673 216.379 441.726C215.54 440.773 215.12 439.414 215.12 437.646C215.12 436.533 215.322 435.559 215.728 434.724C216.138 433.889 216.729 433.249 217.5 432.805C218.271 432.36 219.177 432.138 220.217 432.138C221.311 432.138 222.322 432.368 223.25 432.827L222.62 434.284C222.258 434.113 221.875 433.964 221.47 433.837C221.069 433.706 220.647 433.64 220.203 433.64ZM234.661 437.631C234.661 439.375 234.224 440.729 233.35 441.696C232.48 442.663 231.248 443.146 229.651 443.146C228.035 443.146 226.792 442.668 225.923 441.711C225.059 440.749 224.626 439.384 224.626 437.617C224.626 435.849 225.061 434.492 225.93 433.544C226.804 432.597 228.049 432.124 229.666 432.124C231.257 432.124 232.488 432.604 233.357 433.566C234.226 434.528 234.661 435.883 234.661 437.631ZM226.487 437.631C226.487 438.95 226.753 439.951 227.285 440.634C227.817 441.313 228.606 441.652 229.651 441.652C230.691 441.652 231.475 441.315 232.002 440.642C232.534 439.968 232.8 438.964 232.8 437.631C232.8 436.318 232.537 435.322 232.009 434.643C231.487 433.964 230.706 433.625 229.666 433.625C228.616 433.625 227.822 433.964 227.285 434.643C226.753 435.322 226.487 436.318 226.487 437.631Z" fill="#A769B2"/>
<rect opacity="0.507404" y="23" width="360" height="568" fill="black"/>
<rect opacity="0.95" x="11" y="184" width="339" height="294" rx="4" fill="white"/>
<path d="M158.877 435.292H160.693L156.943 446H155.098L151.362 435.292H153.164L155.398 441.95C155.515 442.267 155.64 442.677 155.771 443.18C155.903 443.678 155.989 444.049 156.028 444.293C156.091 443.922 156.189 443.493 156.321 443.004C156.453 442.516 156.56 442.155 156.643 441.92L158.877 435.292ZM171.614 440.631C171.614 442.375 171.177 443.729 170.303 444.696C169.434 445.663 168.201 446.146 166.604 446.146C164.988 446.146 163.745 445.668 162.876 444.711C162.012 443.749 161.58 442.384 161.58 440.617C161.58 438.849 162.014 437.492 162.883 436.544C163.757 435.597 165.002 435.124 166.619 435.124C168.21 435.124 169.441 435.604 170.31 436.566C171.179 437.528 171.614 438.883 171.614 440.631ZM163.44 440.631C163.44 441.95 163.706 442.951 164.238 443.634C164.771 444.313 165.559 444.652 166.604 444.652C167.644 444.652 168.428 444.315 168.955 443.642C169.487 442.968 169.753 441.964 169.753 440.631C169.753 439.318 169.49 438.322 168.962 437.643C168.44 436.964 167.659 436.625 166.619 436.625C165.569 436.625 164.775 436.964 164.238 437.643C163.706 438.322 163.44 439.318 163.44 440.631ZM173.914 446V435.292H175.664V444.499H180.198V446H173.914ZM185.742 446H183.992V436.793H180.842V435.292H188.892V436.793H185.742V446ZM197.183 446L196.113 443.026H192.019L190.972 446H189.126L193.132 435.248H195.037L199.043 446H197.183ZM195.652 441.518L194.648 438.603C194.575 438.407 194.473 438.1 194.341 437.68C194.214 437.26 194.126 436.952 194.077 436.757C193.945 437.357 193.752 438.014 193.499 438.727L192.532 441.518H195.652ZM202.207 440.272H203.423C204.238 440.272 204.829 440.121 205.195 439.818C205.562 439.516 205.745 439.066 205.745 438.471C205.745 437.865 205.547 437.431 205.151 437.167C204.756 436.903 204.16 436.771 203.364 436.771H202.207V440.272ZM202.207 441.723V446H200.457V435.292H203.481C204.863 435.292 205.886 435.551 206.55 436.068C207.214 436.586 207.546 437.367 207.546 438.412C207.546 439.745 206.853 440.695 205.466 441.261L208.491 446H206.499L203.936 441.723H202.207Z" fill="#00BCD4"/>
<rect x="24" y="339" width="312" height="67" rx="4" fill="#A769B2"/>
<path d="M142.18 369.64C141.174 369.64 140.383 369.996 139.807 370.709C139.23 371.422 138.942 372.406 138.942 373.661C138.942 374.974 139.218 375.968 139.77 376.642C140.327 377.315 141.13 377.652 142.18 377.652C142.634 377.652 143.073 377.608 143.498 377.521C143.923 377.428 144.365 377.311 144.824 377.169V378.67C143.984 378.988 143.032 379.146 141.967 379.146C140.4 379.146 139.196 378.673 138.356 377.726C137.517 376.773 137.097 375.414 137.097 373.646C137.097 372.533 137.299 371.559 137.705 370.724C138.115 369.889 138.706 369.249 139.477 368.805C140.249 368.36 141.154 368.138 142.194 368.138C143.288 368.138 144.299 368.368 145.227 368.827L144.597 370.284C144.235 370.113 143.852 369.964 143.447 369.837C143.046 369.706 142.624 369.64 142.18 369.64ZM156.638 373.631C156.638 375.375 156.201 376.729 155.327 377.696C154.458 378.663 153.225 379.146 151.628 379.146C150.012 379.146 148.769 378.668 147.9 377.711C147.036 376.749 146.604 375.384 146.604 373.617C146.604 371.849 147.038 370.492 147.907 369.544C148.781 368.597 150.026 368.124 151.643 368.124C153.234 368.124 154.465 368.604 155.334 369.566C156.203 370.528 156.638 371.883 156.638 373.631ZM148.464 373.631C148.464 374.95 148.73 375.951 149.262 376.634C149.794 377.313 150.583 377.652 151.628 377.652C152.668 377.652 153.452 377.315 153.979 376.642C154.511 375.968 154.777 374.964 154.777 373.631C154.777 372.318 154.514 371.322 153.986 370.643C153.464 369.964 152.683 369.625 151.643 369.625C150.593 369.625 149.799 369.964 149.262 370.643C148.73 371.322 148.464 372.318 148.464 373.631ZM167.858 379H165.712L160.446 370.467H160.388L160.424 370.943C160.493 371.852 160.527 372.682 160.527 373.434V379H158.938V368.292H161.062L166.313 376.781H166.357C166.347 376.668 166.328 376.261 166.298 375.558C166.269 374.85 166.254 374.298 166.254 373.902V368.292H167.858V379ZM172.421 379H170.686V368.292H176.728V369.771H172.421V373.119H176.457V374.605H172.421V379ZM178.669 379V368.292H180.419V379H178.669ZM185.004 373.272H186.22C187.036 373.272 187.626 373.121 187.993 372.818C188.359 372.516 188.542 372.066 188.542 371.471C188.542 370.865 188.344 370.431 187.949 370.167C187.553 369.903 186.958 369.771 186.162 369.771H185.004V373.272ZM185.004 374.723V379H183.254V368.292H186.279C187.661 368.292 188.684 368.551 189.348 369.068C190.012 369.586 190.344 370.367 190.344 371.412C190.344 372.745 189.65 373.695 188.264 374.261L191.289 379H189.296L186.733 374.723H185.004ZM197.478 379L194.372 370.057H194.313C194.396 371.385 194.438 372.63 194.438 373.792V379H192.849V368.292H195.317L198.291 376.81H198.334L201.396 368.292H203.872V379H202.187V373.705C202.187 373.172 202.199 372.479 202.224 371.625C202.253 370.77 202.277 370.252 202.297 370.072H202.238L199.023 379H197.478ZM213.334 379L212.265 376.026H208.171L207.124 379H205.278L209.284 368.248H211.188L215.195 379H213.334ZM211.804 374.518L210.8 371.603C210.727 371.407 210.625 371.1 210.493 370.68C210.366 370.26 210.278 369.952 210.229 369.757C210.097 370.357 209.904 371.014 209.65 371.727L208.684 374.518H211.804ZM218.359 373.272H219.575C220.39 373.272 220.981 373.121 221.347 372.818C221.713 372.516 221.896 372.066 221.896 371.471C221.896 370.865 221.699 370.431 221.303 370.167C220.908 369.903 220.312 369.771 219.516 369.771H218.359V373.272ZM218.359 374.723V379H216.608V368.292H219.633C221.015 368.292 222.038 368.551 222.702 369.068C223.366 369.586 223.698 370.367 223.698 371.412C223.698 372.745 223.005 373.695 221.618 374.261L224.643 379H222.651L220.087 374.723H218.359Z" fill="white"/>
<path d="M115.781 304L112.404 295.372H101.531L98.1914 304H95L105.725 276.762H108.378L119.047 304H115.781ZM111.421 292.533L108.267 284.128C107.858 283.064 107.438 281.759 107.005 280.213C106.733 281.4 106.343 282.705 105.836 284.128L102.645 292.533H111.421ZM122.776 276.873H130.439C134.039 276.873 136.643 277.411 138.251 278.487C139.859 279.563 140.663 281.264 140.663 283.59C140.663 285.198 140.212 286.528 139.309 287.579C138.418 288.618 137.113 289.292 135.394 289.602V289.787C139.513 290.492 141.572 292.657 141.572 296.281C141.572 298.706 140.75 300.598 139.104 301.959C137.472 303.32 135.183 304 132.239 304H122.776V276.873ZM125.931 288.488H131.126C133.353 288.488 134.954 288.142 135.932 287.449C136.909 286.744 137.397 285.563 137.397 283.905C137.397 282.384 136.853 281.289 135.765 280.621C134.676 279.941 132.944 279.601 130.569 279.601H125.931V288.488ZM125.931 291.16V301.31H131.59C133.779 301.31 135.424 300.889 136.525 300.048C137.639 299.194 138.195 297.865 138.195 296.059C138.195 294.376 137.626 293.139 136.488 292.348C135.363 291.556 133.643 291.16 131.33 291.16H125.931ZM159.032 279.304C156.051 279.304 153.695 280.299 151.963 282.291C150.243 284.27 149.384 286.985 149.384 290.437C149.384 293.987 150.213 296.733 151.87 298.675C153.54 300.604 155.915 301.569 158.995 301.569C160.888 301.569 163.046 301.229 165.471 300.549V303.313C163.59 304.019 161.271 304.371 158.513 304.371C154.517 304.371 151.431 303.159 149.254 300.734C147.089 298.31 146.007 294.865 146.007 290.399C146.007 287.604 146.526 285.155 147.565 283.052C148.617 280.949 150.126 279.328 152.093 278.19C154.072 277.052 156.397 276.483 159.069 276.483C161.914 276.483 164.401 277.003 166.528 278.042L165.192 280.751C163.139 279.786 161.086 279.304 159.032 279.304ZM169.219 295.224V292.403H178.329V295.224H169.219ZM193.173 304H190.167V284.666C190.167 283.058 190.216 281.536 190.315 280.102C190.056 280.361 189.765 280.633 189.443 280.918C189.122 281.202 187.65 282.409 185.027 284.536L183.395 282.421L190.575 276.873H193.173V304ZM221.339 304H203.508V301.347L210.651 294.166C212.828 291.964 214.263 290.393 214.956 289.453C215.649 288.513 216.168 287.598 216.515 286.707C216.861 285.816 217.034 284.858 217.034 283.831C217.034 282.384 216.595 281.24 215.717 280.398C214.839 279.545 213.62 279.118 212.062 279.118C210.936 279.118 209.866 279.304 208.852 279.675C207.85 280.046 206.73 280.72 205.493 281.697L203.86 279.601C206.359 277.522 209.08 276.483 212.024 276.483C214.573 276.483 216.57 277.139 218.018 278.45C219.465 279.749 220.188 281.499 220.188 283.701C220.188 285.421 219.706 287.121 218.741 288.804C217.776 290.486 215.97 292.614 213.323 295.187L207.386 300.994V301.143H221.339V304ZM242.064 283.256C242.064 284.988 241.576 286.404 240.599 287.505C239.634 288.606 238.261 289.342 236.479 289.713V289.861C238.657 290.133 240.271 290.826 241.322 291.939C242.374 293.053 242.899 294.512 242.899 296.318C242.899 298.904 242.003 300.895 240.209 302.293C238.415 303.678 235.867 304.371 232.564 304.371C231.13 304.371 229.812 304.26 228.612 304.037C227.425 303.827 226.268 303.45 225.143 302.905V299.974C226.318 300.555 227.567 301 228.891 301.31C230.227 301.606 231.488 301.755 232.676 301.755C237.364 301.755 239.708 299.918 239.708 296.244C239.708 292.954 237.123 291.309 231.952 291.309H229.28V288.655H231.989C234.104 288.655 235.781 288.191 237.018 287.264C238.255 286.324 238.873 285.025 238.873 283.367C238.873 282.044 238.415 281.005 237.5 280.25C236.597 279.495 235.366 279.118 233.808 279.118C232.62 279.118 231.501 279.279 230.449 279.601C229.398 279.922 228.198 280.516 226.85 281.382L225.291 279.304C226.404 278.425 227.685 277.739 229.132 277.244C230.591 276.737 232.125 276.483 233.733 276.483C236.368 276.483 238.415 277.09 239.875 278.302C241.335 279.502 242.064 281.153 242.064 283.256ZM266.111 297.766H262.085V304H259.135V297.766H245.942V295.075L258.819 276.725H262.085V294.964H266.111V297.766ZM259.135 294.964V285.946C259.135 284.177 259.197 282.18 259.32 279.953H259.172C258.578 281.141 258.021 282.124 257.502 282.903L249.022 294.964H259.135Z" fill="#00BCD4"/>
<path d="M103.828 222.602C102.573 222.602 101.581 223.021 100.852 223.859C100.128 224.693 99.7656 225.836 99.7656 227.289C99.7656 228.784 100.115 229.94 100.812 230.758C101.516 231.57 102.516 231.977 103.812 231.977C104.609 231.977 105.518 231.833 106.539 231.547V232.711C105.747 233.008 104.771 233.156 103.609 233.156C101.927 233.156 100.628 232.646 99.7109 231.625C98.7995 230.604 98.3438 229.154 98.3438 227.273C98.3438 226.096 98.5625 225.065 99 224.18C99.4427 223.294 100.078 222.612 100.906 222.133C101.74 221.654 102.719 221.414 103.844 221.414C105.042 221.414 106.089 221.633 106.984 222.07L106.422 223.211C105.557 222.805 104.693 222.602 103.828 222.602ZM116.227 228.711C116.227 230.107 115.875 231.198 115.172 231.984C114.469 232.766 113.497 233.156 112.258 233.156C111.492 233.156 110.812 232.977 110.219 232.617C109.625 232.258 109.167 231.742 108.844 231.07C108.521 230.398 108.359 229.612 108.359 228.711C108.359 227.315 108.708 226.229 109.406 225.453C110.104 224.672 111.073 224.281 112.312 224.281C113.51 224.281 114.461 224.68 115.164 225.477C115.872 226.273 116.227 227.352 116.227 228.711ZM109.703 228.711C109.703 229.805 109.922 230.638 110.359 231.211C110.797 231.784 111.44 232.07 112.289 232.07C113.138 232.07 113.781 231.786 114.219 231.219C114.661 230.646 114.883 229.81 114.883 228.711C114.883 227.622 114.661 226.797 114.219 226.234C113.781 225.667 113.133 225.383 112.273 225.383C111.424 225.383 110.784 225.661 110.352 226.219C109.919 226.776 109.703 227.607 109.703 228.711ZM124.367 233V227.461C124.367 226.763 124.208 226.242 123.891 225.898C123.573 225.555 123.076 225.383 122.398 225.383C121.503 225.383 120.846 225.625 120.43 226.109C120.013 226.594 119.805 227.393 119.805 228.508V233H118.508V224.438H119.562L119.773 225.609H119.836C120.102 225.188 120.474 224.862 120.953 224.633C121.432 224.398 121.966 224.281 122.555 224.281C123.586 224.281 124.362 224.531 124.883 225.031C125.404 225.526 125.664 226.32 125.664 227.414V233H124.367ZM132.195 225.445H130.016V233H128.719V225.445H127.188V224.859L128.719 224.391V223.914C128.719 221.81 129.638 220.758 131.477 220.758C131.93 220.758 132.461 220.849 133.07 221.031L132.734 222.07C132.234 221.909 131.807 221.828 131.453 221.828C130.964 221.828 130.602 221.992 130.367 222.32C130.133 222.643 130.016 223.164 130.016 223.883V224.438H132.195V225.445ZM135.055 233H133.758V224.438H135.055V233ZM133.648 222.117C133.648 221.82 133.721 221.604 133.867 221.469C134.013 221.328 134.195 221.258 134.414 221.258C134.622 221.258 134.802 221.328 134.953 221.469C135.104 221.609 135.18 221.826 135.18 222.117C135.18 222.409 135.104 222.628 134.953 222.773C134.802 222.914 134.622 222.984 134.414 222.984C134.195 222.984 134.013 222.914 133.867 222.773C133.721 222.628 133.648 222.409 133.648 222.117ZM148.719 233V227.43C148.719 226.747 148.573 226.237 148.281 225.898C147.99 225.555 147.536 225.383 146.922 225.383C146.115 225.383 145.518 225.615 145.133 226.078C144.747 226.542 144.555 227.255 144.555 228.219V233H143.258V227.43C143.258 226.747 143.112 226.237 142.82 225.898C142.529 225.555 142.073 225.383 141.453 225.383C140.641 225.383 140.044 225.628 139.664 226.117C139.289 226.602 139.102 227.398 139.102 228.508V233H137.805V224.438H138.859L139.07 225.609H139.133C139.378 225.193 139.721 224.867 140.164 224.633C140.612 224.398 141.112 224.281 141.664 224.281C143.003 224.281 143.878 224.766 144.289 225.734H144.352C144.607 225.286 144.977 224.932 145.461 224.672C145.945 224.411 146.497 224.281 147.117 224.281C148.086 224.281 148.81 224.531 149.289 225.031C149.773 225.526 150.016 226.32 150.016 227.414V233H148.719ZM157.961 233L157.703 231.781H157.641C157.214 232.318 156.786 232.682 156.359 232.875C155.938 233.062 155.409 233.156 154.773 233.156C153.924 233.156 153.258 232.938 152.773 232.5C152.294 232.062 152.055 231.44 152.055 230.633C152.055 228.904 153.438 227.997 156.203 227.914L157.656 227.867V227.336C157.656 226.664 157.51 226.169 157.219 225.852C156.932 225.529 156.471 225.367 155.836 225.367C155.122 225.367 154.315 225.586 153.414 226.023L153.016 225.031C153.438 224.802 153.898 224.622 154.398 224.492C154.904 224.362 155.409 224.297 155.914 224.297C156.935 224.297 157.69 224.523 158.18 224.977C158.674 225.43 158.922 226.156 158.922 227.156V233H157.961ZM155.031 232.086C155.839 232.086 156.471 231.865 156.93 231.422C157.393 230.979 157.625 230.359 157.625 229.562V228.789L156.328 228.844C155.297 228.88 154.552 229.042 154.094 229.328C153.641 229.609 153.414 230.049 153.414 230.648C153.414 231.117 153.555 231.474 153.836 231.719C154.122 231.964 154.521 232.086 155.031 232.086ZM173.148 228.711C173.148 230.107 172.797 231.198 172.094 231.984C171.391 232.766 170.419 233.156 169.18 233.156C168.414 233.156 167.734 232.977 167.141 232.617C166.547 232.258 166.089 231.742 165.766 231.07C165.443 230.398 165.281 229.612 165.281 228.711C165.281 227.315 165.63 226.229 166.328 225.453C167.026 224.672 167.995 224.281 169.234 224.281C170.432 224.281 171.383 224.68 172.086 225.477C172.794 226.273 173.148 227.352 173.148 228.711ZM166.625 228.711C166.625 229.805 166.844 230.638 167.281 231.211C167.719 231.784 168.362 232.07 169.211 232.07C170.06 232.07 170.703 231.786 171.141 231.219C171.583 230.646 171.805 229.81 171.805 228.711C171.805 227.622 171.583 226.797 171.141 226.234C170.703 225.667 170.055 225.383 169.195 225.383C168.346 225.383 167.706 225.661 167.273 226.219C166.841 226.776 166.625 227.607 166.625 228.711ZM183.57 233.156C183.013 233.156 182.503 233.055 182.039 232.852C181.581 232.643 181.195 232.326 180.883 231.898H180.789C180.852 232.398 180.883 232.872 180.883 233.32V236.844H179.586V224.438H180.641L180.82 225.609H180.883C181.216 225.141 181.604 224.802 182.047 224.594C182.49 224.385 182.997 224.281 183.57 224.281C184.706 224.281 185.581 224.669 186.195 225.445C186.815 226.221 187.125 227.31 187.125 228.711C187.125 230.117 186.81 231.211 186.18 231.992C185.555 232.768 184.685 233.156 183.57 233.156ZM183.383 225.383C182.508 225.383 181.875 225.625 181.484 226.109C181.094 226.594 180.893 227.365 180.883 228.422V228.711C180.883 229.914 181.083 230.776 181.484 231.297C181.885 231.812 182.529 232.07 183.414 232.07C184.154 232.07 184.732 231.771 185.148 231.172C185.57 230.573 185.781 229.747 185.781 228.695C185.781 227.628 185.57 226.81 185.148 226.242C184.732 225.669 184.143 225.383 183.383 225.383ZM194.664 233L194.406 231.781H194.344C193.917 232.318 193.49 232.682 193.062 232.875C192.641 233.062 192.112 233.156 191.477 233.156C190.628 233.156 189.961 232.938 189.477 232.5C188.997 232.062 188.758 231.44 188.758 230.633C188.758 228.904 190.141 227.997 192.906 227.914L194.359 227.867V227.336C194.359 226.664 194.214 226.169 193.922 225.852C193.635 225.529 193.174 225.367 192.539 225.367C191.826 225.367 191.018 225.586 190.117 226.023L189.719 225.031C190.141 224.802 190.602 224.622 191.102 224.492C191.607 224.362 192.112 224.297 192.617 224.297C193.638 224.297 194.393 224.523 194.883 224.977C195.378 225.43 195.625 226.156 195.625 227.156V233H194.664ZM191.734 232.086C192.542 232.086 193.174 231.865 193.633 231.422C194.096 230.979 194.328 230.359 194.328 229.562V228.789L193.031 228.844C192 228.88 191.255 229.042 190.797 229.328C190.344 229.609 190.117 230.049 190.117 230.648C190.117 231.117 190.258 231.474 190.539 231.719C190.826 231.964 191.224 232.086 191.734 232.086ZM205.312 224.438V225.258L203.727 225.445C203.872 225.628 204.003 225.867 204.117 226.164C204.232 226.456 204.289 226.786 204.289 227.156C204.289 227.995 204.003 228.664 203.43 229.164C202.857 229.664 202.07 229.914 201.07 229.914C200.815 229.914 200.576 229.893 200.352 229.852C199.799 230.143 199.523 230.51 199.523 230.953C199.523 231.188 199.62 231.362 199.812 231.477C200.005 231.586 200.336 231.641 200.805 231.641H202.32C203.247 231.641 203.958 231.836 204.453 232.227C204.953 232.617 205.203 233.185 205.203 233.93C205.203 234.878 204.823 235.599 204.062 236.094C203.302 236.594 202.193 236.844 200.734 236.844C199.615 236.844 198.75 236.635 198.141 236.219C197.536 235.802 197.234 235.214 197.234 234.453C197.234 233.932 197.401 233.482 197.734 233.102C198.068 232.721 198.536 232.464 199.141 232.328C198.922 232.229 198.737 232.076 198.586 231.867C198.44 231.659 198.367 231.417 198.367 231.141C198.367 230.828 198.451 230.555 198.617 230.32C198.784 230.086 199.047 229.859 199.406 229.641C198.964 229.458 198.602 229.148 198.32 228.711C198.044 228.273 197.906 227.773 197.906 227.211C197.906 226.273 198.188 225.552 198.75 225.047C199.312 224.536 200.109 224.281 201.141 224.281C201.589 224.281 201.992 224.333 202.352 224.438H205.312ZM198.484 234.438C198.484 234.901 198.68 235.253 199.07 235.492C199.461 235.732 200.021 235.852 200.75 235.852C201.839 235.852 202.643 235.688 203.164 235.359C203.69 235.036 203.953 234.596 203.953 234.039C203.953 233.576 203.81 233.253 203.523 233.07C203.237 232.893 202.698 232.805 201.906 232.805H200.352C199.763 232.805 199.305 232.945 198.977 233.227C198.648 233.508 198.484 233.911 198.484 234.438ZM199.188 227.18C199.188 227.779 199.357 228.232 199.695 228.539C200.034 228.846 200.505 229 201.109 229C202.375 229 203.008 228.385 203.008 227.156C203.008 225.87 202.367 225.227 201.086 225.227C200.477 225.227 200.008 225.391 199.68 225.719C199.352 226.047 199.188 226.534 199.188 227.18ZM212.336 233L212.078 231.781H212.016C211.589 232.318 211.161 232.682 210.734 232.875C210.312 233.062 209.784 233.156 209.148 233.156C208.299 233.156 207.633 232.938 207.148 232.5C206.669 232.062 206.43 231.44 206.43 230.633C206.43 228.904 207.812 227.997 210.578 227.914L212.031 227.867V227.336C212.031 226.664 211.885 226.169 211.594 225.852C211.307 225.529 210.846 225.367 210.211 225.367C209.497 225.367 208.69 225.586 207.789 226.023L207.391 225.031C207.812 224.802 208.273 224.622 208.773 224.492C209.279 224.362 209.784 224.297 210.289 224.297C211.31 224.297 212.065 224.523 212.555 224.977C213.049 225.43 213.297 226.156 213.297 227.156V233H212.336ZM209.406 232.086C210.214 232.086 210.846 231.865 211.305 231.422C211.768 230.979 212 230.359 212 229.562V228.789L210.703 228.844C209.672 228.88 208.927 229.042 208.469 229.328C208.016 229.609 207.789 230.049 207.789 230.648C207.789 231.117 207.93 231.474 208.211 231.719C208.497 231.964 208.896 232.086 209.406 232.086ZM226.891 233V227.43C226.891 226.747 226.745 226.237 226.453 225.898C226.161 225.555 225.708 225.383 225.094 225.383C224.286 225.383 223.69 225.615 223.305 226.078C222.919 226.542 222.727 227.255 222.727 228.219V233H221.43V227.43C221.43 226.747 221.284 226.237 220.992 225.898C220.701 225.555 220.245 225.383 219.625 225.383C218.812 225.383 218.216 225.628 217.836 226.117C217.461 226.602 217.273 227.398 217.273 228.508V233H215.977V224.438H217.031L217.242 225.609H217.305C217.549 225.193 217.893 224.867 218.336 224.633C218.784 224.398 219.284 224.281 219.836 224.281C221.174 224.281 222.049 224.766 222.461 225.734H222.523C222.779 225.286 223.148 224.932 223.633 224.672C224.117 224.411 224.669 224.281 225.289 224.281C226.258 224.281 226.982 224.531 227.461 225.031C227.945 225.526 228.188 226.32 228.188 227.414V233H226.891ZM234.484 233.156C233.219 233.156 232.219 232.771 231.484 232C230.755 231.229 230.391 230.159 230.391 228.789C230.391 227.409 230.729 226.312 231.406 225.5C232.089 224.688 233.003 224.281 234.148 224.281C235.221 224.281 236.07 224.635 236.695 225.344C237.32 226.047 237.633 226.977 237.633 228.133V228.953H231.734C231.76 229.958 232.013 230.721 232.492 231.242C232.977 231.763 233.656 232.023 234.531 232.023C235.453 232.023 236.365 231.831 237.266 231.445V232.602C236.807 232.799 236.372 232.94 235.961 233.023C235.555 233.112 235.062 233.156 234.484 233.156ZM234.133 225.367C233.445 225.367 232.896 225.591 232.484 226.039C232.078 226.487 231.839 227.107 231.766 227.898H236.242C236.242 227.081 236.06 226.456 235.695 226.023C235.331 225.586 234.81 225.367 234.133 225.367ZM245.711 233V227.461C245.711 226.763 245.552 226.242 245.234 225.898C244.917 225.555 244.419 225.383 243.742 225.383C242.846 225.383 242.19 225.625 241.773 226.109C241.357 226.594 241.148 227.393 241.148 228.508V233H239.852V224.438H240.906L241.117 225.609H241.18C241.445 225.188 241.818 224.862 242.297 224.633C242.776 224.398 243.31 224.281 243.898 224.281C244.93 224.281 245.706 224.531 246.227 225.031C246.747 225.526 247.008 226.32 247.008 227.414V233H245.711ZM252.445 232.086C252.674 232.086 252.896 232.07 253.109 232.039C253.323 232.003 253.492 231.966 253.617 231.93V232.922C253.477 232.99 253.268 233.044 252.992 233.086C252.721 233.133 252.477 233.156 252.258 233.156C250.602 233.156 249.773 232.284 249.773 230.539V225.445H248.547V224.82L249.773 224.281L250.32 222.453H251.07V224.438H253.555V225.445H251.07V230.484C251.07 231 251.193 231.396 251.438 231.672C251.682 231.948 252.018 232.086 252.445 232.086ZM262.727 228.711C262.727 230.107 262.375 231.198 261.672 231.984C260.969 232.766 259.997 233.156 258.758 233.156C257.992 233.156 257.312 232.977 256.719 232.617C256.125 232.258 255.667 231.742 255.344 231.07C255.021 230.398 254.859 229.612 254.859 228.711C254.859 227.315 255.208 226.229 255.906 225.453C256.604 224.672 257.573 224.281 258.812 224.281C260.01 224.281 260.961 224.68 261.664 225.477C262.372 226.273 262.727 227.352 262.727 228.711ZM256.203 228.711C256.203 229.805 256.422 230.638 256.859 231.211C257.297 231.784 257.94 232.07 258.789 232.07C259.638 232.07 260.281 231.786 260.719 231.219C261.161 230.646 261.383 229.81 261.383 228.711C261.383 227.622 261.161 226.797 260.719 226.234C260.281 225.667 259.633 225.383 258.773 225.383C257.924 225.383 257.284 225.661 256.852 226.219C256.419 226.776 256.203 227.607 256.203 228.711ZM126.234 253.852H126.164C125.565 254.721 124.669 255.156 123.477 255.156C122.357 255.156 121.484 254.773 120.859 254.008C120.24 253.242 119.93 252.154 119.93 250.742C119.93 249.331 120.242 248.234 120.867 247.453C121.492 246.672 122.362 246.281 123.477 246.281C124.638 246.281 125.529 246.703 126.148 247.547H126.25L126.195 246.93L126.164 246.328V242.844H127.461V255H126.406L126.234 253.852ZM123.641 254.07C124.526 254.07 125.167 253.831 125.562 253.352C125.964 252.867 126.164 252.089 126.164 251.016V250.742C126.164 249.529 125.961 248.664 125.555 248.148C125.154 247.628 124.51 247.367 123.625 247.367C122.865 247.367 122.281 247.664 121.875 248.258C121.474 248.846 121.273 249.68 121.273 250.758C121.273 251.852 121.474 252.677 121.875 253.234C122.276 253.792 122.865 254.07 123.641 254.07ZM135.484 255L135.227 253.781H135.164C134.737 254.318 134.31 254.682 133.883 254.875C133.461 255.062 132.932 255.156 132.297 255.156C131.448 255.156 130.781 254.938 130.297 254.5C129.818 254.062 129.578 253.44 129.578 252.633C129.578 250.904 130.961 249.997 133.727 249.914L135.18 249.867V249.336C135.18 248.664 135.034 248.169 134.742 247.852C134.456 247.529 133.995 247.367 133.359 247.367C132.646 247.367 131.839 247.586 130.938 248.023L130.539 247.031C130.961 246.802 131.422 246.622 131.922 246.492C132.427 246.362 132.932 246.297 133.438 246.297C134.458 246.297 135.214 246.523 135.703 246.977C136.198 247.43 136.445 248.156 136.445 249.156V255H135.484ZM132.555 254.086C133.362 254.086 133.995 253.865 134.453 253.422C134.917 252.979 135.148 252.359 135.148 251.562V250.789L133.852 250.844C132.82 250.88 132.076 251.042 131.617 251.328C131.164 251.609 130.938 252.049 130.938 252.648C130.938 253.117 131.078 253.474 131.359 253.719C131.646 253.964 132.044 254.086 132.555 254.086ZM147.266 255.156C146.708 255.156 146.198 255.055 145.734 254.852C145.276 254.643 144.891 254.326 144.578 253.898H144.484C144.547 254.398 144.578 254.872 144.578 255.32V258.844H143.281V246.438H144.336L144.516 247.609H144.578C144.911 247.141 145.299 246.802 145.742 246.594C146.185 246.385 146.693 246.281 147.266 246.281C148.401 246.281 149.276 246.669 149.891 247.445C150.51 248.221 150.82 249.31 150.82 250.711C150.82 252.117 150.505 253.211 149.875 253.992C149.25 254.768 148.38 255.156 147.266 255.156ZM147.078 247.383C146.203 247.383 145.57 247.625 145.18 248.109C144.789 248.594 144.589 249.365 144.578 250.422V250.711C144.578 251.914 144.779 252.776 145.18 253.297C145.581 253.812 146.224 254.07 147.109 254.07C147.849 254.07 148.427 253.771 148.844 253.172C149.266 252.573 149.477 251.747 149.477 250.695C149.477 249.628 149.266 248.81 148.844 248.242C148.427 247.669 147.839 247.383 147.078 247.383ZM154.391 255H153.094V242.844H154.391V255ZM162.406 255L162.148 253.781H162.086C161.659 254.318 161.232 254.682 160.805 254.875C160.383 255.062 159.854 255.156 159.219 255.156C158.37 255.156 157.703 254.938 157.219 254.5C156.74 254.062 156.5 253.44 156.5 252.633C156.5 250.904 157.883 249.997 160.648 249.914L162.102 249.867V249.336C162.102 248.664 161.956 248.169 161.664 247.852C161.378 247.529 160.917 247.367 160.281 247.367C159.568 247.367 158.76 247.586 157.859 248.023L157.461 247.031C157.883 246.802 158.344 246.622 158.844 246.492C159.349 246.362 159.854 246.297 160.359 246.297C161.38 246.297 162.135 246.523 162.625 246.977C163.12 247.43 163.367 248.156 163.367 249.156V255H162.406ZM159.477 254.086C160.284 254.086 160.917 253.865 161.375 253.422C161.839 252.979 162.07 252.359 162.07 251.562V250.789L160.773 250.844C159.742 250.88 158.997 251.042 158.539 251.328C158.086 251.609 157.859 252.049 157.859 252.648C157.859 253.117 158 253.474 158.281 253.719C158.568 253.964 158.966 254.086 159.477 254.086ZM169.469 255.156C168.229 255.156 167.268 254.776 166.586 254.016C165.909 253.25 165.57 252.169 165.57 250.773C165.57 249.341 165.914 248.234 166.602 247.453C167.294 246.672 168.279 246.281 169.555 246.281C169.966 246.281 170.378 246.326 170.789 246.414C171.201 246.503 171.523 246.607 171.758 246.727L171.359 247.828C171.073 247.714 170.76 247.62 170.422 247.547C170.083 247.469 169.784 247.43 169.523 247.43C167.784 247.43 166.914 248.539 166.914 250.758C166.914 251.81 167.125 252.617 167.547 253.18C167.974 253.742 168.604 254.023 169.438 254.023C170.151 254.023 170.883 253.87 171.633 253.562V254.711C171.06 255.008 170.339 255.156 169.469 255.156ZM178.938 255L178.68 253.781H178.617C178.19 254.318 177.763 254.682 177.336 254.875C176.914 255.062 176.385 255.156 175.75 255.156C174.901 255.156 174.234 254.938 173.75 254.5C173.271 254.062 173.031 253.44 173.031 252.633C173.031 250.904 174.414 249.997 177.18 249.914L178.633 249.867V249.336C178.633 248.664 178.487 248.169 178.195 247.852C177.909 247.529 177.448 247.367 176.812 247.367C176.099 247.367 175.292 247.586 174.391 248.023L173.992 247.031C174.414 246.802 174.875 246.622 175.375 246.492C175.88 246.362 176.385 246.297 176.891 246.297C177.911 246.297 178.667 246.523 179.156 246.977C179.651 247.43 179.898 248.156 179.898 249.156V255H178.938ZM176.008 254.086C176.815 254.086 177.448 253.865 177.906 253.422C178.37 252.979 178.602 252.359 178.602 251.562V250.789L177.305 250.844C176.273 250.88 175.529 251.042 175.07 251.328C174.617 251.609 174.391 252.049 174.391 252.648C174.391 253.117 174.531 253.474 174.812 253.719C175.099 253.964 175.497 254.086 176.008 254.086ZM192 255L191.742 253.781H191.68C191.253 254.318 190.826 254.682 190.398 254.875C189.977 255.062 189.448 255.156 188.812 255.156C187.964 255.156 187.297 254.938 186.812 254.5C186.333 254.062 186.094 253.44 186.094 252.633C186.094 250.904 187.477 249.997 190.242 249.914L191.695 249.867V249.336C191.695 248.664 191.549 248.169 191.258 247.852C190.971 247.529 190.51 247.367 189.875 247.367C189.161 247.367 188.354 247.586 187.453 248.023L187.055 247.031C187.477 246.802 187.938 246.622 188.438 246.492C188.943 246.362 189.448 246.297 189.953 246.297C190.974 246.297 191.729 246.523 192.219 246.977C192.714 247.43 192.961 248.156 192.961 249.156V255H192ZM189.07 254.086C189.878 254.086 190.51 253.865 190.969 253.422C191.432 252.979 191.664 252.359 191.664 251.562V250.789L190.367 250.844C189.336 250.88 188.591 251.042 188.133 251.328C187.68 251.609 187.453 252.049 187.453 252.648C187.453 253.117 187.594 253.474 187.875 253.719C188.161 253.964 188.56 254.086 189.07 254.086ZM199.625 246.297C200.75 246.297 201.622 246.682 202.242 247.453C202.867 248.219 203.18 249.305 203.18 250.711C203.18 252.117 202.865 253.211 202.234 253.992C201.609 254.768 200.74 255.156 199.625 255.156C199.068 255.156 198.557 255.055 198.094 254.852C197.635 254.643 197.25 254.326 196.938 253.898H196.844L196.57 255H195.641V242.844H196.938V245.797C196.938 246.458 196.917 247.052 196.875 247.578H196.938C197.542 246.724 198.438 246.297 199.625 246.297ZM199.438 247.383C198.552 247.383 197.914 247.638 197.523 248.148C197.133 248.654 196.938 249.508 196.938 250.711C196.938 251.914 197.138 252.776 197.539 253.297C197.94 253.812 198.583 254.07 199.469 254.07C200.266 254.07 200.859 253.781 201.25 253.203C201.641 252.62 201.836 251.784 201.836 250.695C201.836 249.581 201.641 248.75 201.25 248.203C200.859 247.656 200.255 247.383 199.438 247.383ZM210.719 255L210.461 253.781H210.398C209.971 254.318 209.544 254.682 209.117 254.875C208.695 255.062 208.167 255.156 207.531 255.156C206.682 255.156 206.016 254.938 205.531 254.5C205.052 254.062 204.812 253.44 204.812 252.633C204.812 250.904 206.195 249.997 208.961 249.914L210.414 249.867V249.336C210.414 248.664 210.268 248.169 209.977 247.852C209.69 247.529 209.229 247.367 208.594 247.367C207.88 247.367 207.073 247.586 206.172 248.023L205.773 247.031C206.195 246.802 206.656 246.622 207.156 246.492C207.661 246.362 208.167 246.297 208.672 246.297C209.693 246.297 210.448 246.523 210.938 246.977C211.432 247.43 211.68 248.156 211.68 249.156V255H210.719ZM207.789 254.086C208.596 254.086 209.229 253.865 209.688 253.422C210.151 252.979 210.383 252.359 210.383 251.562V250.789L209.086 250.844C208.055 250.88 207.31 251.042 206.852 251.328C206.398 251.609 206.172 252.049 206.172 252.648C206.172 253.117 206.312 253.474 206.594 253.719C206.88 253.964 207.279 254.086 207.789 254.086ZM215.656 255H214.359V246.438H215.656V255ZM214.25 244.117C214.25 243.82 214.323 243.604 214.469 243.469C214.615 243.328 214.797 243.258 215.016 243.258C215.224 243.258 215.404 243.328 215.555 243.469C215.706 243.609 215.781 243.826 215.781 244.117C215.781 244.409 215.706 244.628 215.555 244.773C215.404 244.914 215.224 244.984 215.016 244.984C214.797 244.984 214.615 244.914 214.469 244.773C214.323 244.628 214.25 244.409 214.25 244.117ZM220.469 250.617L217.492 246.438H218.969L221.227 249.719L223.477 246.438H224.938L221.961 250.617L225.094 255H223.625L221.227 251.531L218.805 255H217.336L220.469 250.617ZM234.188 250.711C234.188 252.107 233.836 253.198 233.133 253.984C232.43 254.766 231.458 255.156 230.219 255.156C229.453 255.156 228.773 254.977 228.18 254.617C227.586 254.258 227.128 253.742 226.805 253.07C226.482 252.398 226.32 251.612 226.32 250.711C226.32 249.315 226.669 248.229 227.367 247.453C228.065 246.672 229.034 246.281 230.273 246.281C231.471 246.281 232.422 246.68 233.125 247.477C233.833 248.273 234.188 249.352 234.188 250.711ZM227.664 250.711C227.664 251.805 227.883 252.638 228.32 253.211C228.758 253.784 229.401 254.07 230.25 254.07C231.099 254.07 231.742 253.786 232.18 253.219C232.622 252.646 232.844 251.81 232.844 250.711C232.844 249.622 232.622 248.797 232.18 248.234C231.742 247.667 231.094 247.383 230.234 247.383C229.385 247.383 228.745 247.661 228.312 248.219C227.88 248.776 227.664 249.607 227.664 250.711ZM237.352 251.852V251.43C237.352 250.82 237.445 250.32 237.633 249.93C237.82 249.534 238.169 249.117 238.68 248.68C239.388 248.081 239.833 247.63 240.016 247.328C240.203 247.026 240.297 246.661 240.297 246.234C240.297 245.703 240.125 245.294 239.781 245.008C239.443 244.716 238.953 244.57 238.312 244.57C237.901 244.57 237.5 244.62 237.109 244.719C236.719 244.812 236.271 244.987 235.766 245.242L235.305 244.188C236.289 243.672 237.318 243.414 238.391 243.414C239.385 243.414 240.159 243.659 240.711 244.148C241.263 244.638 241.539 245.328 241.539 246.219C241.539 246.599 241.487 246.935 241.383 247.227C241.284 247.513 241.135 247.786 240.938 248.047C240.74 248.302 240.312 248.716 239.656 249.289C239.13 249.737 238.781 250.109 238.609 250.406C238.443 250.703 238.359 251.099 238.359 251.594V251.852H237.352ZM236.969 254.172C236.969 253.464 237.281 253.109 237.906 253.109C238.208 253.109 238.44 253.201 238.602 253.383C238.768 253.565 238.852 253.828 238.852 254.172C238.852 254.505 238.768 254.766 238.602 254.953C238.435 255.135 238.203 255.227 237.906 255.227C237.635 255.227 237.411 255.146 237.234 254.984C237.057 254.818 236.969 254.547 236.969 254.172Z" fill="#4A4A4A"/>
</svg>
