<svg width="360" height="640" viewBox="0 0 360 640" fill="none" xmlns="http://www.w3.org/2000/svg">
<rect width="360" height="640" fill="#F2F2F2"/>
<path fill-rule="evenodd" clip-rule="evenodd" d="M0 0V24H360V0H0Z" fill="#757575"/>
<g opacity="0.9">
<path d="M321.696 17H320.042V9.00879L317.602 9.84277V8.44141L321.484 7.0127H321.696V17ZM331.848 17H325.155V15.8584L328.471 12.2422C328.949 11.709 329.289 11.2646 329.489 10.9092C329.694 10.5492 329.797 10.1891 329.797 9.8291C329.797 9.35514 329.662 8.97233 329.394 8.68066C329.129 8.389 328.771 8.24316 328.32 8.24316C327.783 8.24316 327.366 8.40723 327.069 8.73535C326.773 9.06348 326.625 9.51237 326.625 10.082H324.964C324.964 9.47591 325.101 8.93132 325.374 8.44824C325.652 7.96061 326.046 7.58236 326.557 7.31348C327.072 7.0446 327.664 6.91016 328.334 6.91016C329.3 6.91016 330.061 7.15397 330.617 7.6416C331.178 8.12467 331.458 8.7946 331.458 9.65137C331.458 10.1481 331.317 10.6699 331.034 11.2168C330.756 11.7591 330.298 12.3766 329.66 13.0693L327.227 15.6738H331.848V17ZM334.22 15.25C334.53 15.25 334.769 15.3389 334.938 15.5166C335.106 15.6898 335.19 15.9085 335.19 16.1729C335.19 16.4326 335.106 16.6491 334.938 16.8223C334.769 16.9909 334.53 17.0752 334.22 17.0752C333.924 17.0752 333.689 16.9909 333.516 16.8223C333.342 16.6536 333.256 16.4372 333.256 16.1729C333.256 15.9085 333.34 15.6898 333.509 15.5166C333.677 15.3389 333.914 15.25 334.22 15.25ZM334.22 9.44629C334.53 9.44629 334.769 9.53516 334.938 9.71289C335.106 9.88607 335.19 10.1048 335.19 10.3691C335.19 10.6289 335.106 10.8454 334.938 11.0186C334.769 11.1872 334.53 11.2715 334.22 11.2715C333.924 11.2715 333.689 11.1872 333.516 11.0186C333.342 10.8499 333.256 10.6335 333.256 10.3691C333.256 10.1048 333.34 9.88607 333.509 9.71289C333.677 9.53516 333.914 9.44629 334.22 9.44629ZM338.752 11.2646H339.764C340.274 11.2601 340.677 11.1279 340.974 10.8682C341.274 10.6084 341.425 10.2324 341.425 9.74023C341.425 9.26628 341.299 8.89941 341.049 8.63965C340.803 8.37533 340.424 8.24316 339.914 8.24316C339.467 8.24316 339.101 8.37305 338.813 8.63281C338.526 8.88802 338.383 9.22298 338.383 9.6377H336.722C336.722 9.12728 336.856 8.66243 337.125 8.24316C337.398 7.82389 337.777 7.49805 338.26 7.26562C338.747 7.02865 339.292 6.91016 339.894 6.91016C340.887 6.91016 341.666 7.16081 342.231 7.66211C342.801 8.15885 343.086 8.85156 343.086 9.74023C343.086 10.1868 342.942 10.6084 342.655 11.0049C342.373 11.3968 342.006 11.693 341.555 11.8936C342.102 12.0804 342.516 12.3743 342.799 12.7754C343.086 13.1764 343.229 13.6549 343.229 14.2109C343.229 15.1042 342.922 15.8151 342.307 16.3438C341.696 16.8724 340.892 17.1367 339.894 17.1367C338.937 17.1367 338.153 16.8815 337.542 16.3711C336.931 15.8607 336.626 15.1816 336.626 14.334H338.287C338.287 14.7715 338.433 15.127 338.725 15.4004C339.021 15.6738 339.417 15.8105 339.914 15.8105C340.429 15.8105 340.835 15.6738 341.131 15.4004C341.427 15.127 341.575 14.7305 341.575 14.2109C341.575 13.6868 341.42 13.2835 341.11 13.001C340.8 12.7184 340.34 12.5771 339.729 12.5771H338.752V11.2646ZM351.275 12.8096C351.275 14.2406 351.007 15.3206 350.469 16.0498C349.936 16.7744 349.122 17.1367 348.028 17.1367C346.953 17.1367 346.142 16.7835 345.595 16.0771C345.052 15.3662 344.774 14.3158 344.761 12.9258V11.2031C344.761 9.77214 345.027 8.69889 345.561 7.9834C346.098 7.2679 346.916 6.91016 348.015 6.91016C349.104 6.91016 349.915 7.25879 350.448 7.95605C350.986 8.65332 351.262 9.69694 351.275 11.0869V12.8096ZM349.614 10.9502C349.614 10.016 349.487 9.33236 349.231 8.89941C348.976 8.46191 348.571 8.24316 348.015 8.24316C347.472 8.24316 347.074 8.45052 346.818 8.86523C346.563 9.27539 346.429 9.91797 346.415 10.793V13.0488C346.415 13.9785 346.545 14.6712 346.805 15.127C347.064 15.5827 347.472 15.8105 348.028 15.8105C348.562 15.8105 348.956 15.6009 349.211 15.1816C349.466 14.7578 349.601 14.097 349.614 13.1992V10.9502Z" fill="white"/>
</g>
<path fill-rule="evenodd" clip-rule="evenodd" d="M306 5.875V5L303 5V5.875H300V19H309V5.875H306Z" fill="white"/>
<path fill-rule="evenodd" clip-rule="evenodd" d="M277 19H291V5L277 19Z" fill="white"/>
<path fill-rule="evenodd" clip-rule="evenodd" d="M256.977 8.01593C259.488 6.12256 262.613 5 266 5C269.387 5 272.512 6.12256 275.023 8.01593L266 19L256.977 8.01593Z" fill="white"/>
<path fill-rule="evenodd" clip-rule="evenodd" d="M0 592V640H360V592H0Z" fill="black"/>
<path d="M274 610C274 609.448 274.448 609 275 609H287C287.552 609 288 609.448 288 610V622C288 622.552 287.552 623 287 623H275C274.448 623 274 622.552 274 622V610Z" stroke="white" stroke-width="2"/>
<circle cx="180" cy="616" r="7" stroke="white" stroke-width="2"/>
<path d="M84.4995 608.849C85.1662 608.464 86 608.945 86 609.715V621.287C86 622.057 85.1662 622.538 84.4995 622.153L74.4904 616.367C73.8244 615.982 73.8244 615.02 74.4904 614.635L84.4995 608.849Z" stroke="white" stroke-width="2"/>
<rect y="24" width="360" height="60" fill="#4DD0E1"/>
<path d="M42.604 40.6785C42.2765 40.3333 41.7054 40.3326 41.3629 40.6639L40.1485 41.8387C39.8236 42.153 39.8275 42.6503 40.1366 42.9792C43.0962 46.1297 44.5759 50.1252 44.5758 54.1207C44.5756 58.1157 43.0959 62.1106 40.1366 65.2607C39.8275 65.5897 39.8236 66.0869 40.1485 66.4012L41.3629 67.5759C41.7054 67.9073 42.2765 67.9066 42.6041 67.5614C46.2016 63.7701 48.0003 58.9445 48 54.1189C47.9998 49.2942 46.2011 44.4693 42.604 40.6785Z" fill="white"/>
<path d="M11.4242 54.1195C11.4243 50.1244 12.9041 46.1294 15.8635 42.9792C16.1725 42.6502 16.1764 42.153 15.8515 41.8387L14.6372 40.664C14.2946 40.3326 13.7236 40.3333 13.3959 40.6785C9.79856 44.4696 7.99992 49.295 8 54.1204C8.00008 58.9454 9.7988 63.7704 13.3959 67.5614C13.7235 67.9066 14.2946 67.9073 14.6372 67.5759L15.8515 66.4011C16.1764 66.0868 16.1725 65.5896 15.8635 65.2606C12.9039 62.1102 11.4242 58.1149 11.4242 54.1195Z" fill="white"/>
<path fill-rule="evenodd" clip-rule="evenodd" d="M13.238 53.8837C13.238 45.6764 19.9673 39 28.238 39C36.5087 39 43.238 45.6764 43.238 53.8837C43.238 62.0911 36.5087 68.7674 28.238 68.7674C19.9673 68.7674 13.238 62.0911 13.238 53.8837ZM26.5616 55.5374H29.0616C31.359 55.5374 33.2283 53.6835 33.2283 51.4031C33.2283 49.1227 31.359 47.2688 29.0616 47.2687H25.7283C25.2677 47.2687 24.8949 47.6385 24.8949 48.0956V59.6718C24.8949 60.1288 25.2677 60.4987 25.7283 60.4987C26.1889 60.4987 26.5616 60.1288 26.5616 59.6718V55.5374Z" fill="white"/>
<path d="M29.1906 48.9225H26.5715V53.6475H29.1906C30.6348 53.6475 31.8096 52.5877 31.8096 51.285C31.8096 49.9822 30.6348 48.9225 29.1906 48.9225Z" fill="white"/>
<path d="M350.546 53.0769H317.454C316.651 53.0769 316 53.6968 316 54.4615C316 55.2263 316.651 55.8461 317.454 55.8461H350.546C351.349 55.8461 352 55.2263 352 54.4615C352 53.6968 351.349 53.0769 350.546 53.0769Z" fill="white"/>
<path d="M350.546 42H317.454C316.651 42 316 42.6199 316 43.3846C316 44.1493 316.651 44.7692 317.454 44.7692H350.546C351.349 44.7692 352 44.1493 352 43.3846C352 42.6199 351.349 42 350.546 42Z" fill="white"/>
<path d="M350.546 64.1538H317.454C316.651 64.1538 316 64.7737 316 65.5384C316 66.3032 316.651 66.923 317.454 66.923H350.546C351.349 66.923 352 66.3032 352 65.5384C352 64.7737 351.349 64.1538 350.546 64.1538Z" fill="white"/>
<path d="M8 172H352V530C352 532.209 350.209 534 348 534H12C9.79086 534 8 532.209 8 530V172Z" fill="white"/>
<path d="M180 129C180 126.791 181.791 125 184 125H348C350.209 125 352 126.791 352 129V173H180V129Z" fill="white"/>
<rect x="180" y="170" width="172" height="3" fill="#4DD0E1"/>
<path d="M253.789 151.961C253.789 152.966 253.424 153.75 252.695 154.312C251.966 154.875 250.977 155.156 249.727 155.156C248.372 155.156 247.331 154.982 246.602 154.633V153.352C247.07 153.549 247.581 153.706 248.133 153.82C248.685 153.935 249.232 153.992 249.773 153.992C250.659 153.992 251.326 153.826 251.773 153.492C252.221 153.154 252.445 152.685 252.445 152.086C252.445 151.69 252.365 151.367 252.203 151.117C252.047 150.862 251.781 150.628 251.406 150.414C251.036 150.201 250.471 149.958 249.711 149.688C248.648 149.307 247.888 148.857 247.43 148.336C246.977 147.815 246.75 147.135 246.75 146.297C246.75 145.417 247.081 144.716 247.742 144.195C248.404 143.674 249.279 143.414 250.367 143.414C251.503 143.414 252.547 143.622 253.5 144.039L253.086 145.195C252.143 144.799 251.227 144.602 250.336 144.602C249.633 144.602 249.083 144.753 248.688 145.055C248.292 145.357 248.094 145.776 248.094 146.312C248.094 146.708 248.167 147.034 248.312 147.289C248.458 147.539 248.703 147.771 249.047 147.984C249.396 148.193 249.927 148.424 250.641 148.68C251.839 149.107 252.661 149.565 253.109 150.055C253.562 150.544 253.789 151.18 253.789 151.961ZM261.195 155L260.938 153.781H260.875C260.448 154.318 260.021 154.682 259.594 154.875C259.172 155.062 258.643 155.156 258.008 155.156C257.159 155.156 256.492 154.938 256.008 154.5C255.529 154.062 255.289 153.44 255.289 152.633C255.289 150.904 256.672 149.997 259.438 149.914L260.891 149.867V149.336C260.891 148.664 260.745 148.169 260.453 147.852C260.167 147.529 259.706 147.367 259.07 147.367C258.357 147.367 257.549 147.586 256.648 148.023L256.25 147.031C256.672 146.802 257.133 146.622 257.633 146.492C258.138 146.362 258.643 146.297 259.148 146.297C260.169 146.297 260.924 146.523 261.414 146.977C261.909 147.43 262.156 148.156 262.156 149.156V155H261.195ZM258.266 154.086C259.073 154.086 259.706 153.865 260.164 153.422C260.628 152.979 260.859 152.359 260.859 151.562V150.789L259.562 150.844C258.531 150.88 257.786 151.042 257.328 151.328C256.875 151.609 256.648 152.049 256.648 152.648C256.648 153.117 256.789 153.474 257.07 153.719C257.357 153.964 257.755 154.086 258.266 154.086ZM266.133 155H264.836V146.438H266.133V155ZM264.781 145.109C265.031 144.786 265.299 144.396 265.586 143.938C265.878 143.479 266.107 143.081 266.273 142.742H267.852V142.906C267.622 143.245 267.281 143.661 266.828 144.156C266.375 144.651 265.982 145.034 265.648 145.305H264.781V145.109ZM274.711 153.852H274.641C274.042 154.721 273.146 155.156 271.953 155.156C270.833 155.156 269.961 154.773 269.336 154.008C268.716 153.242 268.406 152.154 268.406 150.742C268.406 149.331 268.719 148.234 269.344 147.453C269.969 146.672 270.839 146.281 271.953 146.281C273.115 146.281 274.005 146.703 274.625 147.547H274.727L274.672 146.93L274.641 146.328V142.844H275.938V155H274.883L274.711 153.852ZM272.117 154.07C273.003 154.07 273.643 153.831 274.039 153.352C274.44 152.867 274.641 152.089 274.641 151.016V150.742C274.641 149.529 274.438 148.664 274.031 148.148C273.63 147.628 272.987 147.367 272.102 147.367C271.341 147.367 270.758 147.664 270.352 148.258C269.951 148.846 269.75 149.68 269.75 150.758C269.75 151.852 269.951 152.677 270.352 153.234C270.753 153.792 271.341 154.07 272.117 154.07ZM283.961 155L283.703 153.781H283.641C283.214 154.318 282.786 154.682 282.359 154.875C281.938 155.062 281.409 155.156 280.773 155.156C279.924 155.156 279.258 154.938 278.773 154.5C278.294 154.062 278.055 153.44 278.055 152.633C278.055 150.904 279.438 149.997 282.203 149.914L283.656 149.867V149.336C283.656 148.664 283.51 148.169 283.219 147.852C282.932 147.529 282.471 147.367 281.836 147.367C281.122 147.367 280.315 147.586 279.414 148.023L279.016 147.031C279.438 146.802 279.898 146.622 280.398 146.492C280.904 146.362 281.409 146.297 281.914 146.297C282.935 146.297 283.69 146.523 284.18 146.977C284.674 147.43 284.922 148.156 284.922 149.156V155H283.961ZM281.031 154.086C281.839 154.086 282.471 153.865 282.93 153.422C283.393 152.979 283.625 152.359 283.625 151.562V150.789L282.328 150.844C281.297 150.88 280.552 151.042 280.094 151.328C279.641 151.609 279.414 152.049 279.414 152.648C279.414 153.117 279.555 153.474 279.836 153.719C280.122 153.964 280.521 154.086 281.031 154.086Z" fill="#4DD0E1"/>
<rect x="8" y="125" width="172" height="48" fill="#F2F2F2"/>
<path d="M73.1641 156H66.7969V144.578H73.1641V145.758H68.125V149.438H72.8594V150.609H68.125V154.812H73.1641V156ZM81.3672 156V150.461C81.3672 149.763 81.2083 149.242 80.8906 148.898C80.5729 148.555 80.0755 148.383 79.3984 148.383C78.5026 148.383 77.8464 148.625 77.4297 149.109C77.013 149.594 76.8047 150.393 76.8047 151.508V156H75.5078V147.438H76.5625L76.7734 148.609H76.8359C77.1016 148.188 77.474 147.862 77.9531 147.633C78.4323 147.398 78.9661 147.281 79.5547 147.281C80.5859 147.281 81.362 147.531 81.8828 148.031C82.4036 148.526 82.6641 149.32 82.6641 150.414V156H81.3672ZM88.1016 155.086C88.3307 155.086 88.5521 155.07 88.7656 155.039C88.9792 155.003 89.1484 154.966 89.2734 154.93V155.922C89.1328 155.99 88.9245 156.044 88.6484 156.086C88.3776 156.133 88.1328 156.156 87.9141 156.156C86.2578 156.156 85.4297 155.284 85.4297 153.539V148.445H84.2031V147.82L85.4297 147.281L85.9766 145.453H86.7266V147.438H89.2109V148.445H86.7266V153.484C86.7266 154 86.849 154.396 87.0938 154.672C87.3385 154.948 87.6745 155.086 88.1016 155.086ZM94.8984 147.281C95.2786 147.281 95.6198 147.312 95.9219 147.375L95.7422 148.578C95.388 148.5 95.0755 148.461 94.8047 148.461C94.112 148.461 93.5182 148.742 93.0234 149.305C92.5339 149.867 92.2891 150.568 92.2891 151.406V156H90.9922V147.438H92.0625L92.2109 149.023H92.2734C92.5911 148.466 92.974 148.036 93.4219 147.734C93.8698 147.432 94.362 147.281 94.8984 147.281ZM102.789 156L102.531 154.781H102.469C102.042 155.318 101.615 155.682 101.188 155.875C100.766 156.062 100.237 156.156 99.6016 156.156C98.7526 156.156 98.0859 155.938 97.6016 155.5C97.1224 155.062 96.8828 154.44 96.8828 153.633C96.8828 151.904 98.2656 150.997 101.031 150.914L102.484 150.867V150.336C102.484 149.664 102.339 149.169 102.047 148.852C101.76 148.529 101.299 148.367 100.664 148.367C99.9505 148.367 99.1432 148.586 98.2422 149.023L97.8438 148.031C98.2656 147.802 98.7266 147.622 99.2266 147.492C99.7318 147.362 100.237 147.297 100.742 147.297C101.763 147.297 102.518 147.523 103.008 147.977C103.503 148.43 103.75 149.156 103.75 150.156V156H102.789ZM99.8594 155.086C100.667 155.086 101.299 154.865 101.758 154.422C102.221 153.979 102.453 153.359 102.453 152.562V151.789L101.156 151.844C100.125 151.88 99.3802 152.042 98.9219 152.328C98.4688 152.609 98.2422 153.049 98.2422 153.648C98.2422 154.117 98.3828 154.474 98.6641 154.719C98.9505 154.964 99.349 155.086 99.8594 155.086ZM112.258 154.852H112.188C111.589 155.721 110.693 156.156 109.5 156.156C108.38 156.156 107.508 155.773 106.883 155.008C106.263 154.242 105.953 153.154 105.953 151.742C105.953 150.331 106.266 149.234 106.891 148.453C107.516 147.672 108.385 147.281 109.5 147.281C110.661 147.281 111.552 147.703 112.172 148.547H112.273L112.219 147.93L112.188 147.328V143.844H113.484V156H112.43L112.258 154.852ZM109.664 155.07C110.549 155.07 111.19 154.831 111.586 154.352C111.987 153.867 112.188 153.089 112.188 152.016V151.742C112.188 150.529 111.984 149.664 111.578 149.148C111.177 148.628 110.534 148.367 109.648 148.367C108.888 148.367 108.305 148.664 107.898 149.258C107.497 149.846 107.297 150.68 107.297 151.758C107.297 152.852 107.497 153.677 107.898 154.234C108.299 154.792 108.888 155.07 109.664 155.07ZM121.508 156L121.25 154.781H121.188C120.76 155.318 120.333 155.682 119.906 155.875C119.484 156.062 118.956 156.156 118.32 156.156C117.471 156.156 116.805 155.938 116.32 155.5C115.841 155.062 115.602 154.44 115.602 153.633C115.602 151.904 116.984 150.997 119.75 150.914L121.203 150.867V150.336C121.203 149.664 121.057 149.169 120.766 148.852C120.479 148.529 120.018 148.367 119.383 148.367C118.669 148.367 117.862 148.586 116.961 149.023L116.562 148.031C116.984 147.802 117.445 147.622 117.945 147.492C118.451 147.362 118.956 147.297 119.461 147.297C120.482 147.297 121.237 147.523 121.727 147.977C122.221 148.43 122.469 149.156 122.469 150.156V156H121.508ZM118.578 155.086C119.385 155.086 120.018 154.865 120.477 154.422C120.94 153.979 121.172 153.359 121.172 152.562V151.789L119.875 151.844C118.844 151.88 118.099 152.042 117.641 152.328C117.188 152.609 116.961 153.049 116.961 153.648C116.961 154.117 117.102 154.474 117.383 154.719C117.669 154.964 118.068 155.086 118.578 155.086Z" fill="#9B9B9B"/>
<rect x="24.5" y="269.5" width="311" height="66" rx="3.5" fill="#FFFBE6" stroke="#CCCCCC"/>
<path d="M150.012 312H147.75L143.145 304.465L138.457 312H136.348L142.043 303.047L136.734 294.867H138.938L143.191 301.652L147.48 294.867H149.602L144.293 302.977L150.012 312ZM163.863 312H161.602L156.996 304.465L152.309 312H150.199L155.895 303.047L150.586 294.867H152.789L157.043 301.652L161.332 294.867H163.453L158.145 302.977L163.863 312ZM177.715 312H175.453L170.848 304.465L166.16 312H164.051L169.746 303.047L164.438 294.867H166.641L170.895 301.652L175.184 294.867H177.305L171.996 302.977L177.715 312ZM178.793 306.457V304.676H184.547V306.457H178.793ZM197.977 302.18C197.977 308.883 195.383 312.234 190.195 312.234C189.289 312.234 188.57 312.156 188.039 312V310.324C188.664 310.527 189.375 310.629 190.172 310.629C192.047 310.629 193.461 310.051 194.414 308.895C195.375 307.73 195.898 305.949 195.984 303.551H195.844C195.414 304.199 194.844 304.695 194.133 305.039C193.422 305.375 192.621 305.543 191.73 305.543C190.215 305.543 189.012 305.09 188.121 304.184C187.23 303.277 186.785 302.012 186.785 300.387C186.785 298.605 187.281 297.199 188.273 296.168C189.273 295.137 190.586 294.621 192.211 294.621C193.375 294.621 194.391 294.922 195.258 295.523C196.133 296.117 196.805 296.988 197.273 298.137C197.742 299.277 197.977 300.625 197.977 302.18ZM192.211 296.285C191.094 296.285 190.23 296.645 189.621 297.363C189.012 298.082 188.707 299.082 188.707 300.363C188.707 301.488 188.988 302.375 189.551 303.023C190.113 303.664 190.969 303.984 192.117 303.984C192.828 303.984 193.48 303.84 194.074 303.551C194.676 303.262 195.148 302.867 195.492 302.367C195.836 301.867 196.008 301.344 196.008 300.797C196.008 299.977 195.848 299.219 195.527 298.523C195.207 297.828 194.758 297.281 194.18 296.883C193.609 296.484 192.953 296.285 192.211 296.285ZM211.711 302.18C211.711 308.883 209.117 312.234 203.93 312.234C203.023 312.234 202.305 312.156 201.773 312V310.324C202.398 310.527 203.109 310.629 203.906 310.629C205.781 310.629 207.195 310.051 208.148 308.895C209.109 307.73 209.633 305.949 209.719 303.551H209.578C209.148 304.199 208.578 304.695 207.867 305.039C207.156 305.375 206.355 305.543 205.465 305.543C203.949 305.543 202.746 305.09 201.855 304.184C200.965 303.277 200.52 302.012 200.52 300.387C200.52 298.605 201.016 297.199 202.008 296.168C203.008 295.137 204.32 294.621 205.945 294.621C207.109 294.621 208.125 294.922 208.992 295.523C209.867 296.117 210.539 296.988 211.008 298.137C211.477 299.277 211.711 300.625 211.711 302.18ZM205.945 296.285C204.828 296.285 203.965 296.645 203.355 297.363C202.746 298.082 202.441 299.082 202.441 300.363C202.441 301.488 202.723 302.375 203.285 303.023C203.848 303.664 204.703 303.984 205.852 303.984C206.562 303.984 207.215 303.84 207.809 303.551C208.41 303.262 208.883 302.867 209.227 302.367C209.57 301.867 209.742 301.344 209.742 300.797C209.742 299.977 209.582 299.219 209.262 298.523C208.941 297.828 208.492 297.281 207.914 296.883C207.344 296.484 206.688 296.285 205.945 296.285ZM225.445 302.18C225.445 308.883 222.852 312.234 217.664 312.234C216.758 312.234 216.039 312.156 215.508 312V310.324C216.133 310.527 216.844 310.629 217.641 310.629C219.516 310.629 220.93 310.051 221.883 308.895C222.844 307.73 223.367 305.949 223.453 303.551H223.312C222.883 304.199 222.312 304.695 221.602 305.039C220.891 305.375 220.09 305.543 219.199 305.543C217.684 305.543 216.48 305.09 215.59 304.184C214.699 303.277 214.254 302.012 214.254 300.387C214.254 298.605 214.75 297.199 215.742 296.168C216.742 295.137 218.055 294.621 219.68 294.621C220.844 294.621 221.859 294.922 222.727 295.523C223.602 296.117 224.273 296.988 224.742 298.137C225.211 299.277 225.445 300.625 225.445 302.18ZM219.68 296.285C218.562 296.285 217.699 296.645 217.09 297.363C216.48 298.082 216.176 299.082 216.176 300.363C216.176 301.488 216.457 302.375 217.02 303.023C217.582 303.664 218.438 303.984 219.586 303.984C220.297 303.984 220.949 303.84 221.543 303.551C222.145 303.262 222.617 302.867 222.961 302.367C223.305 301.867 223.477 301.344 223.477 300.797C223.477 299.977 223.316 299.219 222.996 298.523C222.676 297.828 222.227 297.281 221.648 296.883C221.078 296.484 220.422 296.285 219.68 296.285Z" fill="#9B9B9B"/>
<path d="M34.7109 257H33.1953L26.9531 247.414H26.8906C26.974 248.539 27.0156 249.57 27.0156 250.508V257H25.7891V245.578H27.2891L33.5156 255.125H33.5781C33.5677 254.984 33.5443 254.534 33.5078 253.773C33.4714 253.008 33.4583 252.461 33.4688 252.133V245.578H34.7109V257ZM38.875 248.438V253.992C38.875 254.69 39.0339 255.211 39.3516 255.555C39.6693 255.898 40.1667 256.07 40.8438 256.07C41.7396 256.07 42.3932 255.826 42.8047 255.336C43.2214 254.846 43.4297 254.047 43.4297 252.938V248.438H44.7266V257H43.6562L43.4688 255.852H43.3984C43.1328 256.273 42.763 256.596 42.2891 256.82C41.8203 257.044 41.2839 257.156 40.6797 257.156C39.638 257.156 38.8568 256.909 38.3359 256.414C37.8203 255.919 37.5625 255.128 37.5625 254.039V248.438H38.875ZM40.2344 247.109C40.4844 246.786 40.7526 246.396 41.0391 245.938C41.3307 245.479 41.5599 245.081 41.7266 244.742H43.3047V244.906C43.0755 245.245 42.7344 245.661 42.2812 246.156C41.8281 246.651 41.4349 247.034 41.1016 247.305H40.2344V247.109ZM58.3984 257V251.43C58.3984 250.747 58.2526 250.237 57.9609 249.898C57.6693 249.555 57.2161 249.383 56.6016 249.383C55.7943 249.383 55.1979 249.615 54.8125 250.078C54.4271 250.542 54.2344 251.255 54.2344 252.219V257H52.9375V251.43C52.9375 250.747 52.7917 250.237 52.5 249.898C52.2083 249.555 51.7526 249.383 51.1328 249.383C50.3203 249.383 49.724 249.628 49.3438 250.117C48.9688 250.602 48.7812 251.398 48.7812 252.508V257H47.4844V248.438H48.5391L48.75 249.609H48.8125C49.0573 249.193 49.401 248.867 49.8438 248.633C50.2917 248.398 50.7917 248.281 51.3438 248.281C52.6823 248.281 53.5573 248.766 53.9688 249.734H54.0312C54.2865 249.286 54.6562 248.932 55.1406 248.672C55.625 248.411 56.1771 248.281 56.7969 248.281C57.7656 248.281 58.4896 248.531 58.9688 249.031C59.4531 249.526 59.6953 250.32 59.6953 251.414V257H58.3984ZM65.9922 257.156C64.7266 257.156 63.7266 256.771 62.9922 256C62.263 255.229 61.8984 254.159 61.8984 252.789C61.8984 251.409 62.237 250.312 62.9141 249.5C63.5964 248.688 64.5104 248.281 65.6562 248.281C66.7292 248.281 67.5781 248.635 68.2031 249.344C68.8281 250.047 69.1406 250.977 69.1406 252.133V252.953H63.2422C63.2682 253.958 63.5208 254.721 64 255.242C64.4844 255.763 65.1641 256.023 66.0391 256.023C66.9609 256.023 67.8724 255.831 68.7734 255.445V256.602C68.3151 256.799 67.8802 256.94 67.4688 257.023C67.0625 257.112 66.5703 257.156 65.9922 257.156ZM65.6406 249.367C64.9531 249.367 64.4036 249.591 63.9922 250.039C63.5859 250.487 63.3464 251.107 63.2734 251.898H67.75C67.75 251.081 67.5677 250.456 67.2031 250.023C66.8385 249.586 66.3177 249.367 65.6406 249.367ZM75.2656 248.281C75.6458 248.281 75.987 248.312 76.2891 248.375L76.1094 249.578C75.7552 249.5 75.4427 249.461 75.1719 249.461C74.4792 249.461 73.8854 249.742 73.3906 250.305C72.901 250.867 72.6562 251.568 72.6562 252.406V257H71.3594V248.438H72.4297L72.5781 250.023H72.6406C72.9583 249.466 73.3411 249.036 73.7891 248.734C74.237 248.432 74.7292 248.281 75.2656 248.281ZM85.2812 252.711C85.2812 254.107 84.9297 255.198 84.2266 255.984C83.5234 256.766 82.5521 257.156 81.3125 257.156C80.5469 257.156 79.8672 256.977 79.2734 256.617C78.6797 256.258 78.2214 255.742 77.8984 255.07C77.5755 254.398 77.4141 253.612 77.4141 252.711C77.4141 251.315 77.763 250.229 78.4609 249.453C79.1589 248.672 80.1276 248.281 81.3672 248.281C82.5651 248.281 83.5156 248.68 84.2188 249.477C84.9271 250.273 85.2812 251.352 85.2812 252.711ZM78.7578 252.711C78.7578 253.805 78.9766 254.638 79.4141 255.211C79.8516 255.784 80.4948 256.07 81.3438 256.07C82.1927 256.07 82.8359 255.786 83.2734 255.219C83.7161 254.646 83.9375 253.81 83.9375 252.711C83.9375 251.622 83.7161 250.797 83.2734 250.234C82.8359 249.667 82.1875 249.383 81.3281 249.383C80.4792 249.383 79.8385 249.661 79.4062 250.219C78.974 250.776 78.7578 251.607 78.7578 252.711ZM97.5469 255.852H97.4766C96.8776 256.721 95.9818 257.156 94.7891 257.156C93.6693 257.156 92.7969 256.773 92.1719 256.008C91.5521 255.242 91.2422 254.154 91.2422 252.742C91.2422 251.331 91.5547 250.234 92.1797 249.453C92.8047 248.672 93.6745 248.281 94.7891 248.281C95.9505 248.281 96.8411 248.703 97.4609 249.547H97.5625L97.5078 248.93L97.4766 248.328V244.844H98.7734V257H97.7188L97.5469 255.852ZM94.9531 256.07C95.8385 256.07 96.4792 255.831 96.875 255.352C97.276 254.867 97.4766 254.089 97.4766 253.016V252.742C97.4766 251.529 97.2734 250.664 96.8672 250.148C96.4661 249.628 95.8229 249.367 94.9375 249.367C94.1771 249.367 93.5938 249.664 93.1875 250.258C92.7865 250.846 92.5859 251.68 92.5859 252.758C92.5859 253.852 92.7865 254.677 93.1875 255.234C93.5885 255.792 94.1771 256.07 94.9531 256.07ZM106.797 257L106.539 255.781H106.477C106.049 256.318 105.622 256.682 105.195 256.875C104.773 257.062 104.245 257.156 103.609 257.156C102.76 257.156 102.094 256.938 101.609 256.5C101.13 256.062 100.891 255.44 100.891 254.633C100.891 252.904 102.273 251.997 105.039 251.914L106.492 251.867V251.336C106.492 250.664 106.346 250.169 106.055 249.852C105.768 249.529 105.307 249.367 104.672 249.367C103.958 249.367 103.151 249.586 102.25 250.023L101.852 249.031C102.273 248.802 102.734 248.622 103.234 248.492C103.74 248.362 104.245 248.297 104.75 248.297C105.771 248.297 106.526 248.523 107.016 248.977C107.51 249.43 107.758 250.156 107.758 251.156V257H106.797ZM103.867 256.086C104.674 256.086 105.307 255.865 105.766 255.422C106.229 254.979 106.461 254.359 106.461 253.562V252.789L105.164 252.844C104.133 252.88 103.388 253.042 102.93 253.328C102.477 253.609 102.25 254.049 102.25 254.648C102.25 255.117 102.391 255.474 102.672 255.719C102.958 255.964 103.357 256.086 103.867 256.086ZM118.578 257.156C118.021 257.156 117.51 257.055 117.047 256.852C116.589 256.643 116.203 256.326 115.891 255.898H115.797C115.859 256.398 115.891 256.872 115.891 257.32V260.844H114.594V248.438H115.648L115.828 249.609H115.891C116.224 249.141 116.612 248.802 117.055 248.594C117.497 248.385 118.005 248.281 118.578 248.281C119.714 248.281 120.589 248.669 121.203 249.445C121.823 250.221 122.133 251.31 122.133 252.711C122.133 254.117 121.818 255.211 121.188 255.992C120.562 256.768 119.693 257.156 118.578 257.156ZM118.391 249.383C117.516 249.383 116.883 249.625 116.492 250.109C116.102 250.594 115.901 251.365 115.891 252.422V252.711C115.891 253.914 116.091 254.776 116.492 255.297C116.893 255.812 117.536 256.07 118.422 256.07C119.161 256.07 119.74 255.771 120.156 255.172C120.578 254.573 120.789 253.747 120.789 252.695C120.789 251.628 120.578 250.81 120.156 250.242C119.74 249.669 119.151 249.383 118.391 249.383ZM125.703 257H124.406V244.844H125.703V257ZM133.719 257L133.461 255.781H133.398C132.971 256.318 132.544 256.682 132.117 256.875C131.695 257.062 131.167 257.156 130.531 257.156C129.682 257.156 129.016 256.938 128.531 256.5C128.052 256.062 127.812 255.44 127.812 254.633C127.812 252.904 129.195 251.997 131.961 251.914L133.414 251.867V251.336C133.414 250.664 133.268 250.169 132.977 249.852C132.69 249.529 132.229 249.367 131.594 249.367C130.88 249.367 130.073 249.586 129.172 250.023L128.773 249.031C129.195 248.802 129.656 248.622 130.156 248.492C130.661 248.362 131.167 248.297 131.672 248.297C132.693 248.297 133.448 248.523 133.938 248.977C134.432 249.43 134.68 250.156 134.68 251.156V257H133.719ZM130.789 256.086C131.596 256.086 132.229 255.865 132.688 255.422C133.151 254.979 133.383 254.359 133.383 253.562V252.789L132.086 252.844C131.055 252.88 130.31 253.042 129.852 253.328C129.398 253.609 129.172 254.049 129.172 254.648C129.172 255.117 129.312 255.474 129.594 255.719C129.88 255.964 130.279 256.086 130.789 256.086ZM140.781 257.156C139.542 257.156 138.581 256.776 137.898 256.016C137.221 255.25 136.883 254.169 136.883 252.773C136.883 251.341 137.227 250.234 137.914 249.453C138.607 248.672 139.591 248.281 140.867 248.281C141.279 248.281 141.69 248.326 142.102 248.414C142.513 248.503 142.836 248.607 143.07 248.727L142.672 249.828C142.385 249.714 142.073 249.62 141.734 249.547C141.396 249.469 141.096 249.43 140.836 249.43C139.096 249.43 138.227 250.539 138.227 252.758C138.227 253.81 138.438 254.617 138.859 255.18C139.286 255.742 139.917 256.023 140.75 256.023C141.464 256.023 142.195 255.87 142.945 255.562V256.711C142.372 257.008 141.651 257.156 140.781 257.156ZM150.25 257L149.992 255.781H149.93C149.503 256.318 149.076 256.682 148.648 256.875C148.227 257.062 147.698 257.156 147.062 257.156C146.214 257.156 145.547 256.938 145.062 256.5C144.583 256.062 144.344 255.44 144.344 254.633C144.344 252.904 145.727 251.997 148.492 251.914L149.945 251.867V251.336C149.945 250.664 149.799 250.169 149.508 249.852C149.221 249.529 148.76 249.367 148.125 249.367C147.411 249.367 146.604 249.586 145.703 250.023L145.305 249.031C145.727 248.802 146.188 248.622 146.688 248.492C147.193 248.362 147.698 248.297 148.203 248.297C149.224 248.297 149.979 248.523 150.469 248.977C150.964 249.43 151.211 250.156 151.211 251.156V257H150.25ZM147.32 256.086C148.128 256.086 148.76 255.865 149.219 255.422C149.682 254.979 149.914 254.359 149.914 253.562V252.789L148.617 252.844C147.586 252.88 146.841 253.042 146.383 253.328C145.93 253.609 145.703 254.049 145.703 254.648C145.703 255.117 145.844 255.474 146.125 255.719C146.411 255.964 146.81 256.086 147.32 256.086ZM153.703 256.172C153.703 255.823 153.781 255.56 153.938 255.383C154.099 255.201 154.328 255.109 154.625 255.109C154.927 255.109 155.161 255.201 155.328 255.383C155.5 255.56 155.586 255.823 155.586 256.172C155.586 256.51 155.5 256.771 155.328 256.953C155.156 257.135 154.922 257.227 154.625 257.227C154.359 257.227 154.138 257.146 153.961 256.984C153.789 256.818 153.703 256.547 153.703 256.172ZM153.703 249.273C153.703 248.57 154.01 248.219 154.625 248.219C155.266 248.219 155.586 248.57 155.586 249.273C155.586 249.612 155.5 249.872 155.328 250.055C155.156 250.237 154.922 250.328 154.625 250.328C154.359 250.328 154.138 250.247 153.961 250.086C153.789 249.919 153.703 249.648 153.703 249.273Z" fill="#9B9B9B"/>
<rect x="24" y="320" width="312" height="67" rx="4" fill="#A769B2"/>
<path d="M141.887 352.529C141.887 353.647 141.521 354.504 140.788 355.1C140.056 355.696 139.013 355.994 137.661 355.994H136.547V360H134.797V349.292H137.88C139.218 349.292 140.219 349.565 140.883 350.112C141.552 350.659 141.887 351.465 141.887 352.529ZM136.547 354.521H137.478C138.376 354.521 139.035 354.365 139.455 354.053C139.875 353.74 140.085 353.252 140.085 352.588C140.085 351.973 139.897 351.514 139.521 351.211C139.145 350.908 138.559 350.757 137.763 350.757H136.547V354.521ZM150.668 360L149.599 357.026H145.505L144.458 360H142.612L146.618 349.248H148.522L152.529 360H150.668ZM149.138 355.518L148.134 352.603C148.061 352.407 147.958 352.1 147.827 351.68C147.7 351.26 147.612 350.952 147.563 350.757C147.431 351.357 147.238 352.014 146.984 352.727L146.018 355.518H149.138ZM158.322 354.192H162.263V359.568C161.618 359.778 160.998 359.927 160.402 360.015C159.812 360.103 159.172 360.146 158.483 360.146C156.862 360.146 155.612 359.668 154.733 358.711C153.854 357.749 153.415 356.394 153.415 354.646C153.415 352.922 153.911 351.575 154.902 350.603C155.893 349.626 157.258 349.138 158.996 349.138C160.114 349.138 161.174 349.353 162.175 349.783L161.56 351.24C160.69 350.84 159.821 350.64 158.952 350.64C157.81 350.64 156.906 350.999 156.242 351.716C155.578 352.434 155.246 353.416 155.246 354.661C155.246 355.969 155.544 356.965 156.14 357.649C156.74 358.328 157.602 358.667 158.725 358.667C159.292 358.667 159.897 358.596 160.542 358.455V355.693H158.322V354.192ZM171.484 360L170.415 357.026H166.32L165.273 360H163.427L167.434 349.248H169.338L173.344 360H171.484ZM169.953 355.518L168.95 352.603C168.876 352.407 168.774 352.1 168.642 351.68C168.515 351.26 168.427 350.952 168.378 350.757C168.247 351.357 168.054 352.014 167.8 352.727L166.833 355.518H169.953ZM179.387 360L176.281 351.057H176.223C176.306 352.385 176.347 353.63 176.347 354.792V360H174.758V349.292H177.226L180.2 357.81H180.244L183.305 349.292H185.781V360H184.096V354.705C184.096 354.172 184.108 353.479 184.133 352.625C184.162 351.77 184.187 351.252 184.206 351.072H184.147L180.932 360H179.387ZM194.658 360H188.601V349.292H194.658V350.771H190.351V353.687H194.387V355.151H190.351V358.513H194.658V360ZM205.9 360H203.754L198.488 351.467H198.43L198.466 351.943C198.535 352.852 198.569 353.682 198.569 354.434V360H196.979V349.292H199.104L204.355 357.781H204.399C204.389 357.668 204.37 357.261 204.34 356.558C204.311 355.85 204.296 355.298 204.296 354.902V349.292H205.9V360ZM212.426 360H210.676V350.793H207.526V349.292H215.576V350.793H212.426V360ZM226.73 354.631C226.73 356.375 226.293 357.729 225.419 358.696C224.55 359.663 223.317 360.146 221.721 360.146C220.104 360.146 218.862 359.668 217.993 358.711C217.128 357.749 216.696 356.384 216.696 354.617C216.696 352.849 217.131 351.492 218 350.544C218.874 349.597 220.119 349.124 221.735 349.124C223.327 349.124 224.558 349.604 225.427 350.566C226.296 351.528 226.73 352.883 226.73 354.631ZM218.557 354.631C218.557 355.95 218.823 356.951 219.355 357.634C219.887 358.313 220.676 358.652 221.721 358.652C222.761 358.652 223.544 358.315 224.072 357.642C224.604 356.968 224.87 355.964 224.87 354.631C224.87 353.318 224.606 352.322 224.079 351.643C223.557 350.964 222.775 350.625 221.735 350.625C220.686 350.625 219.892 350.964 219.355 351.643C218.823 352.322 218.557 353.318 218.557 354.631Z" fill="white"/>
<rect x="25" y="404" width="310" height="65" rx="3" stroke="#A769B2" stroke-width="2"/>
<path d="M131.968 432.292H133.784L130.034 443H128.188L124.453 432.292H126.255L128.489 438.95C128.606 439.267 128.73 439.677 128.862 440.18C128.994 440.678 129.08 441.049 129.119 441.293C129.182 440.922 129.28 440.493 129.412 440.004C129.543 439.516 129.651 439.155 129.734 438.92L131.968 432.292ZM141.255 443H135.198V432.292H141.255V433.771H136.948V436.687H140.984V438.151H136.948V441.513H141.255V443ZM145.327 437.272H146.543C147.358 437.272 147.949 437.121 148.315 436.818C148.682 436.516 148.865 436.066 148.865 435.471C148.865 434.865 148.667 434.431 148.271 434.167C147.876 433.903 147.28 433.771 146.484 433.771H145.327V437.272ZM145.327 438.723V443H143.577V432.292H146.602C147.983 432.292 149.006 432.551 149.67 433.068C150.334 433.586 150.667 434.367 150.667 435.412C150.667 436.745 149.973 437.695 148.586 438.261L151.611 443H149.619L147.056 438.723H145.327ZM165.513 443H163.755V438.173H158.818V443H157.068V432.292H158.818V436.672H163.755V432.292H165.513V443ZM168.333 443V432.292H170.083V443H168.333ZM179.092 440.092C179.092 441.044 178.748 441.792 178.059 442.333C177.371 442.875 176.421 443.146 175.21 443.146C173.999 443.146 173.008 442.958 172.236 442.583V440.927C172.725 441.157 173.242 441.337 173.789 441.469C174.341 441.601 174.854 441.667 175.327 441.667C176.021 441.667 176.531 441.535 176.858 441.271C177.19 441.008 177.356 440.654 177.356 440.209C177.356 439.809 177.205 439.47 176.902 439.191C176.599 438.913 175.974 438.583 175.027 438.203C174.05 437.807 173.362 437.355 172.961 436.848C172.561 436.34 172.361 435.729 172.361 435.017C172.361 434.123 172.678 433.42 173.313 432.907C173.948 432.395 174.8 432.138 175.869 432.138C176.895 432.138 177.915 432.363 178.931 432.812L178.374 434.24C177.422 433.84 176.572 433.64 175.825 433.64C175.259 433.64 174.829 433.764 174.536 434.013C174.243 434.257 174.097 434.582 174.097 434.987C174.097 435.266 174.155 435.505 174.272 435.705C174.39 435.9 174.583 436.086 174.851 436.262C175.12 436.438 175.603 436.669 176.301 436.958C177.087 437.285 177.664 437.59 178.03 437.873C178.396 438.156 178.665 438.476 178.835 438.833C179.006 439.189 179.092 439.609 179.092 440.092ZM184.863 443H183.113V433.793H179.963V432.292H188.013V433.793H184.863V443ZM199.167 437.631C199.167 439.375 198.73 440.729 197.856 441.696C196.987 442.663 195.754 443.146 194.158 443.146C192.542 443.146 191.299 442.668 190.43 441.711C189.565 440.749 189.133 439.384 189.133 437.617C189.133 435.849 189.568 434.492 190.437 433.544C191.311 432.597 192.556 432.124 194.172 432.124C195.764 432.124 196.995 432.604 197.864 433.566C198.733 434.528 199.167 435.883 199.167 437.631ZM190.994 437.631C190.994 438.95 191.26 439.951 191.792 440.634C192.324 441.313 193.113 441.652 194.158 441.652C195.198 441.652 195.981 441.315 196.509 440.642C197.041 439.968 197.307 438.964 197.307 437.631C197.307 436.318 197.043 435.322 196.516 434.643C195.994 433.964 195.212 433.625 194.172 433.625C193.123 433.625 192.329 433.964 191.792 434.643C191.26 435.322 190.994 436.318 190.994 437.631ZM193.059 431.435V431.252C193.337 430.91 193.623 430.529 193.916 430.109C194.214 429.689 194.448 429.331 194.619 429.033H196.619V429.187C196.365 429.484 195.984 429.87 195.476 430.344C194.973 430.812 194.548 431.176 194.202 431.435H193.059ZM203.218 437.272H204.434C205.249 437.272 205.84 437.121 206.206 436.818C206.572 436.516 206.755 436.066 206.755 435.471C206.755 434.865 206.558 434.431 206.162 434.167C205.767 433.903 205.171 433.771 204.375 433.771H203.218V437.272ZM203.218 438.723V443H201.467V432.292H204.492C205.874 432.292 206.897 432.551 207.561 433.068C208.225 433.586 208.557 434.367 208.557 435.412C208.557 436.745 207.864 437.695 206.477 438.261L209.502 443H207.51L204.946 438.723H203.218ZM211.062 443V432.292H212.812V443H211.062ZM220.203 433.64C219.197 433.64 218.406 433.996 217.83 434.709C217.253 435.422 216.965 436.406 216.965 437.661C216.965 438.974 217.241 439.968 217.793 440.642C218.35 441.315 219.153 441.652 220.203 441.652C220.657 441.652 221.096 441.608 221.521 441.521C221.946 441.428 222.388 441.311 222.847 441.169V442.67C222.007 442.988 221.055 443.146 219.99 443.146C218.423 443.146 217.219 442.673 216.379 441.726C215.54 440.773 215.12 439.414 215.12 437.646C215.12 436.533 215.322 435.559 215.728 434.724C216.138 433.889 216.729 433.249 217.5 432.805C218.271 432.36 219.177 432.138 220.217 432.138C221.311 432.138 222.322 432.368 223.25 432.827L222.62 434.284C222.258 434.113 221.875 433.964 221.47 433.837C221.069 433.706 220.647 433.64 220.203 433.64ZM234.661 437.631C234.661 439.375 234.224 440.729 233.35 441.696C232.48 442.663 231.248 443.146 229.651 443.146C228.035 443.146 226.792 442.668 225.923 441.711C225.059 440.749 224.626 439.384 224.626 437.617C224.626 435.849 225.061 434.492 225.93 433.544C226.804 432.597 228.049 432.124 229.666 432.124C231.257 432.124 232.488 432.604 233.357 433.566C234.226 434.528 234.661 435.883 234.661 437.631ZM226.487 437.631C226.487 438.95 226.753 439.951 227.285 440.634C227.817 441.313 228.606 441.652 229.651 441.652C230.691 441.652 231.475 441.315 232.002 440.642C232.534 439.968 232.8 438.964 232.8 437.631C232.8 436.318 232.537 435.322 232.009 434.643C231.487 433.964 230.706 433.625 229.666 433.625C228.616 433.625 227.822 433.964 227.285 434.643C226.753 435.322 226.487 436.318 226.487 437.631Z" fill="#A769B2"/>
<rect opacity="0.507404" y="23" width="360" height="568" fill="black"/>
<rect opacity="0.95" x="11" y="184" width="339" height="294" rx="4" fill="white"/>
<path d="M158.877 435.292H160.693L156.943 446H155.098L151.362 435.292H153.164L155.398 441.95C155.515 442.267 155.64 442.677 155.771 443.18C155.903 443.678 155.989 444.049 156.028 444.293C156.091 443.922 156.189 443.493 156.321 443.004C156.453 442.516 156.56 442.155 156.643 441.92L158.877 435.292ZM171.614 440.631C171.614 442.375 171.177 443.729 170.303 444.696C169.434 445.663 168.201 446.146 166.604 446.146C164.988 446.146 163.745 445.668 162.876 444.711C162.012 443.749 161.58 442.384 161.58 440.617C161.58 438.849 162.014 437.492 162.883 436.544C163.757 435.597 165.002 435.124 166.619 435.124C168.21 435.124 169.441 435.604 170.31 436.566C171.179 437.528 171.614 438.883 171.614 440.631ZM163.44 440.631C163.44 441.95 163.706 442.951 164.238 443.634C164.771 444.313 165.559 444.652 166.604 444.652C167.644 444.652 168.428 444.315 168.955 443.642C169.487 442.968 169.753 441.964 169.753 440.631C169.753 439.318 169.49 438.322 168.962 437.643C168.44 436.964 167.659 436.625 166.619 436.625C165.569 436.625 164.775 436.964 164.238 437.643C163.706 438.322 163.44 439.318 163.44 440.631ZM173.914 446V435.292H175.664V444.499H180.198V446H173.914ZM185.742 446H183.992V436.793H180.842V435.292H188.892V436.793H185.742V446ZM197.183 446L196.113 443.026H192.019L190.972 446H189.126L193.132 435.248H195.037L199.043 446H197.183ZM195.652 441.518L194.648 438.603C194.575 438.407 194.473 438.1 194.341 437.68C194.214 437.26 194.126 436.952 194.077 436.757C193.945 437.357 193.752 438.014 193.499 438.727L192.532 441.518H195.652ZM202.207 440.272H203.423C204.238 440.272 204.829 440.121 205.195 439.818C205.562 439.516 205.745 439.066 205.745 438.471C205.745 437.865 205.547 437.431 205.151 437.167C204.756 436.903 204.16 436.771 203.364 436.771H202.207V440.272ZM202.207 441.723V446H200.457V435.292H203.481C204.863 435.292 205.886 435.551 206.55 436.068C207.214 436.586 207.546 437.367 207.546 438.412C207.546 439.745 206.853 440.695 205.466 441.261L208.491 446H206.499L203.936 441.723H202.207Z" fill="#00BCD4"/>
<rect x="24" y="339" width="312" height="67" rx="4" fill="#A769B2"/>
<path d="M127.573 379V368.292H129.324V377.499H133.857V379H127.573ZM135.703 379V368.292H137.454V379H135.703ZM140.288 368.292H143.467C144.941 368.292 146.006 368.507 146.66 368.937C147.319 369.366 147.649 370.045 147.649 370.973C147.649 371.598 147.488 372.118 147.166 372.533C146.843 372.948 146.379 373.209 145.774 373.316V373.39C146.526 373.531 147.078 373.812 147.429 374.232C147.786 374.647 147.964 375.211 147.964 375.924C147.964 376.886 147.627 377.64 146.953 378.187C146.284 378.729 145.352 379 144.155 379H140.288V368.292ZM142.039 372.716H143.723C144.456 372.716 144.99 372.601 145.327 372.372C145.664 372.137 145.833 371.742 145.833 371.185C145.833 370.682 145.649 370.318 145.283 370.094C144.922 369.869 144.346 369.757 143.555 369.757H142.039V372.716ZM142.039 374.137V377.528H143.899C144.631 377.528 145.183 377.389 145.554 377.11C145.93 376.827 146.118 376.383 146.118 375.777C146.118 375.221 145.928 374.808 145.547 374.54C145.166 374.271 144.587 374.137 143.811 374.137H142.039ZM156.248 379H150.19V368.292H156.248V369.771H151.941V372.687H155.977V374.151H151.941V377.513H156.248V379ZM160.32 373.272H161.536C162.351 373.272 162.942 373.121 163.308 372.818C163.674 372.516 163.857 372.066 163.857 371.471C163.857 370.865 163.66 370.431 163.264 370.167C162.869 369.903 162.273 369.771 161.477 369.771H160.32V373.272ZM160.32 374.723V379H158.569V368.292H161.594C162.976 368.292 163.999 368.551 164.663 369.068C165.327 369.586 165.659 370.367 165.659 371.412C165.659 372.745 164.966 373.695 163.579 374.261L166.604 379H164.612L162.048 374.723H160.32ZM174.807 379L173.738 376.026H169.644L168.596 379H166.75L170.757 368.248H172.661L176.667 379H174.807ZM173.276 374.518L172.273 371.603C172.2 371.407 172.097 371.1 171.965 370.68C171.838 370.26 171.75 369.952 171.702 369.757C171.57 370.357 171.377 371.014 171.123 371.727L170.156 374.518H173.276ZM179.832 373.272H181.047C181.863 373.272 182.454 373.121 182.82 372.818C183.186 372.516 183.369 372.066 183.369 371.471C183.369 370.865 183.171 370.431 182.776 370.167C182.38 369.903 181.785 369.771 180.989 369.771H179.832V373.272ZM179.832 374.723V379H178.081V368.292H181.106C182.488 368.292 183.511 368.551 184.175 369.068C184.839 369.586 185.171 370.367 185.171 371.412C185.171 372.745 184.478 373.695 183.091 374.261L186.116 379H184.124L181.56 374.723H179.832ZM197.747 376.092C197.747 377.044 197.402 377.792 196.714 378.333C196.025 378.875 195.076 379.146 193.865 379.146C192.654 379.146 191.663 378.958 190.891 378.583V376.927C191.379 377.157 191.897 377.337 192.444 377.469C192.996 377.601 193.508 377.667 193.982 377.667C194.675 377.667 195.186 377.535 195.513 377.271C195.845 377.008 196.011 376.654 196.011 376.209C196.011 375.809 195.859 375.47 195.557 375.191C195.254 374.913 194.629 374.583 193.682 374.203C192.705 373.807 192.017 373.355 191.616 372.848C191.216 372.34 191.016 371.729 191.016 371.017C191.016 370.123 191.333 369.42 191.968 368.907C192.603 368.395 193.455 368.138 194.524 368.138C195.549 368.138 196.57 368.363 197.585 368.812L197.029 370.24C196.077 369.84 195.227 369.64 194.48 369.64C193.914 369.64 193.484 369.764 193.191 370.013C192.898 370.257 192.751 370.582 192.751 370.987C192.751 371.266 192.81 371.505 192.927 371.705C193.044 371.9 193.237 372.086 193.506 372.262C193.774 372.438 194.258 372.669 194.956 372.958C195.742 373.285 196.318 373.59 196.685 373.873C197.051 374.156 197.319 374.476 197.49 374.833C197.661 375.189 197.747 375.609 197.747 376.092ZM206.462 379L205.393 376.026H201.299L200.251 379H198.406L202.412 368.248H204.316L208.323 379H206.462ZM204.932 374.518L203.928 371.603C203.855 371.407 203.752 371.1 203.621 370.68C203.494 370.26 203.406 369.952 203.357 369.757C203.225 370.357 203.032 371.014 202.778 371.727L201.812 374.518H204.932ZM209.736 379V368.292H211.487V379H209.736ZM209.634 367.435V367.252C209.912 366.91 210.198 366.529 210.491 366.109C210.789 365.689 211.023 365.331 211.194 365.033H213.193V365.187C212.939 365.484 212.559 365.87 212.051 366.344C211.548 366.812 211.123 367.176 210.776 367.435H209.634ZM223.03 373.543C223.03 375.311 222.539 376.664 221.558 377.601C220.576 378.534 219.163 379 217.317 379H214.321V368.292H217.632C219.336 368.292 220.662 368.751 221.609 369.669C222.556 370.587 223.03 371.878 223.03 373.543ZM221.184 373.602C221.184 371.039 219.985 369.757 217.588 369.757H216.072V377.528H217.317C219.895 377.528 221.184 376.219 221.184 373.602ZM231.98 379L230.911 376.026H226.816L225.769 379H223.923L227.93 368.248H229.834L233.84 379H231.98ZM230.449 374.518L229.446 371.603C229.373 371.407 229.27 371.1 229.138 370.68C229.011 370.26 228.923 369.952 228.875 369.757C228.743 370.357 228.55 371.014 228.296 371.727L227.329 374.518H230.449Z" fill="white"/>
<path d="M115.781 304L112.404 295.372H101.531L98.1914 304H95L105.725 276.762H108.378L119.047 304H115.781ZM111.421 292.533L108.267 284.128C107.858 283.064 107.438 281.759 107.005 280.213C106.733 281.4 106.343 282.705 105.836 284.128L102.645 292.533H111.421ZM122.776 276.873H130.439C134.039 276.873 136.643 277.411 138.251 278.487C139.859 279.563 140.663 281.264 140.663 283.59C140.663 285.198 140.212 286.528 139.309 287.579C138.418 288.618 137.113 289.292 135.394 289.602V289.787C139.513 290.492 141.572 292.657 141.572 296.281C141.572 298.706 140.75 300.598 139.104 301.959C137.472 303.32 135.183 304 132.239 304H122.776V276.873ZM125.931 288.488H131.126C133.353 288.488 134.954 288.142 135.932 287.449C136.909 286.744 137.397 285.563 137.397 283.905C137.397 282.384 136.853 281.289 135.765 280.621C134.676 279.941 132.944 279.601 130.569 279.601H125.931V288.488ZM125.931 291.16V301.31H131.59C133.779 301.31 135.424 300.889 136.525 300.048C137.639 299.194 138.195 297.865 138.195 296.059C138.195 294.376 137.626 293.139 136.488 292.348C135.363 291.556 133.643 291.16 131.33 291.16H125.931ZM159.032 279.304C156.051 279.304 153.695 280.299 151.963 282.291C150.243 284.27 149.384 286.985 149.384 290.437C149.384 293.987 150.213 296.733 151.87 298.675C153.54 300.604 155.915 301.569 158.995 301.569C160.888 301.569 163.046 301.229 165.471 300.549V303.313C163.59 304.019 161.271 304.371 158.513 304.371C154.517 304.371 151.431 303.159 149.254 300.734C147.089 298.31 146.007 294.865 146.007 290.399C146.007 287.604 146.526 285.155 147.565 283.052C148.617 280.949 150.126 279.328 152.093 278.19C154.072 277.052 156.397 276.483 159.069 276.483C161.914 276.483 164.401 277.003 166.528 278.042L165.192 280.751C163.139 279.786 161.086 279.304 159.032 279.304ZM169.219 295.224V292.403H178.329V295.224H169.219ZM193.173 304H190.167V284.666C190.167 283.058 190.216 281.536 190.315 280.102C190.056 280.361 189.765 280.633 189.443 280.918C189.122 281.202 187.65 282.409 185.027 284.536L183.395 282.421L190.575 276.873H193.173V304ZM221.339 304H203.508V301.347L210.651 294.166C212.828 291.964 214.263 290.393 214.956 289.453C215.649 288.513 216.168 287.598 216.515 286.707C216.861 285.816 217.034 284.858 217.034 283.831C217.034 282.384 216.595 281.24 215.717 280.398C214.839 279.545 213.62 279.118 212.062 279.118C210.936 279.118 209.866 279.304 208.852 279.675C207.85 280.046 206.73 280.72 205.493 281.697L203.86 279.601C206.359 277.522 209.08 276.483 212.024 276.483C214.573 276.483 216.57 277.139 218.018 278.45C219.465 279.749 220.188 281.499 220.188 283.701C220.188 285.421 219.706 287.121 218.741 288.804C217.776 290.486 215.97 292.614 213.323 295.187L207.386 300.994V301.143H221.339V304ZM242.064 283.256C242.064 284.988 241.576 286.404 240.599 287.505C239.634 288.606 238.261 289.342 236.479 289.713V289.861C238.657 290.133 240.271 290.826 241.322 291.939C242.374 293.053 242.899 294.512 242.899 296.318C242.899 298.904 242.003 300.895 240.209 302.293C238.415 303.678 235.867 304.371 232.564 304.371C231.13 304.371 229.812 304.26 228.612 304.037C227.425 303.827 226.268 303.45 225.143 302.905V299.974C226.318 300.555 227.567 301 228.891 301.31C230.227 301.606 231.488 301.755 232.676 301.755C237.364 301.755 239.708 299.918 239.708 296.244C239.708 292.954 237.123 291.309 231.952 291.309H229.28V288.655H231.989C234.104 288.655 235.781 288.191 237.018 287.264C238.255 286.324 238.873 285.025 238.873 283.367C238.873 282.044 238.415 281.005 237.5 280.25C236.597 279.495 235.366 279.118 233.808 279.118C232.62 279.118 231.501 279.279 230.449 279.601C229.398 279.922 228.198 280.516 226.85 281.382L225.291 279.304C226.404 278.425 227.685 277.739 229.132 277.244C230.591 276.737 232.125 276.483 233.733 276.483C236.368 276.483 238.415 277.09 239.875 278.302C241.335 279.502 242.064 281.153 242.064 283.256ZM266.111 297.766H262.085V304H259.135V297.766H245.942V295.075L258.819 276.725H262.085V294.964H266.111V297.766ZM259.135 294.964V285.946C259.135 284.177 259.197 282.18 259.32 279.953H259.172C258.578 281.141 258.021 282.124 257.502 282.903L249.022 294.964H259.135Z" fill="#00BCD4"/>
<path d="M112.68 221.602C111.424 221.602 110.432 222.021 109.703 222.859C108.979 223.693 108.617 224.836 108.617 226.289C108.617 227.784 108.966 228.94 109.664 229.758C110.367 230.57 111.367 230.977 112.664 230.977C113.461 230.977 114.37 230.833 115.391 230.547V231.711C114.599 232.008 113.622 232.156 112.461 232.156C110.779 232.156 109.479 231.646 108.562 230.625C107.651 229.604 107.195 228.154 107.195 226.273C107.195 225.096 107.414 224.065 107.852 223.18C108.294 222.294 108.93 221.612 109.758 221.133C110.591 220.654 111.57 220.414 112.695 220.414C113.893 220.414 114.94 220.633 115.836 221.07L115.273 222.211C114.409 221.805 113.544 221.602 112.68 221.602ZM125.078 227.711C125.078 229.107 124.727 230.198 124.023 230.984C123.32 231.766 122.349 232.156 121.109 232.156C120.344 232.156 119.664 231.977 119.07 231.617C118.477 231.258 118.018 230.742 117.695 230.07C117.372 229.398 117.211 228.612 117.211 227.711C117.211 226.315 117.56 225.229 118.258 224.453C118.956 223.672 119.924 223.281 121.164 223.281C122.362 223.281 123.312 223.68 124.016 224.477C124.724 225.273 125.078 226.352 125.078 227.711ZM118.555 227.711C118.555 228.805 118.773 229.638 119.211 230.211C119.648 230.784 120.292 231.07 121.141 231.07C121.99 231.07 122.633 230.786 123.07 230.219C123.513 229.646 123.734 228.81 123.734 227.711C123.734 226.622 123.513 225.797 123.07 225.234C122.633 224.667 121.984 224.383 121.125 224.383C120.276 224.383 119.635 224.661 119.203 225.219C118.771 225.776 118.555 226.607 118.555 227.711ZM133.219 232V226.461C133.219 225.763 133.06 225.242 132.742 224.898C132.424 224.555 131.927 224.383 131.25 224.383C130.354 224.383 129.698 224.625 129.281 225.109C128.865 225.594 128.656 226.393 128.656 227.508V232H127.359V223.438H128.414L128.625 224.609H128.688C128.953 224.188 129.326 223.862 129.805 223.633C130.284 223.398 130.818 223.281 131.406 223.281C132.438 223.281 133.214 223.531 133.734 224.031C134.255 224.526 134.516 225.32 134.516 226.414V232H133.219ZM141.047 224.445H138.867V232H137.57V224.445H136.039V223.859L137.57 223.391V222.914C137.57 220.81 138.49 219.758 140.328 219.758C140.781 219.758 141.312 219.849 141.922 220.031L141.586 221.07C141.086 220.909 140.659 220.828 140.305 220.828C139.815 220.828 139.453 220.992 139.219 221.32C138.984 221.643 138.867 222.164 138.867 222.883V223.438H141.047V224.445ZM143.906 232H142.609V223.438H143.906V232ZM142.5 221.117C142.5 220.82 142.573 220.604 142.719 220.469C142.865 220.328 143.047 220.258 143.266 220.258C143.474 220.258 143.654 220.328 143.805 220.469C143.956 220.609 144.031 220.826 144.031 221.117C144.031 221.409 143.956 221.628 143.805 221.773C143.654 221.914 143.474 221.984 143.266 221.984C143.047 221.984 142.865 221.914 142.719 221.773C142.573 221.628 142.5 221.409 142.5 221.117ZM150.562 223.281C150.943 223.281 151.284 223.312 151.586 223.375L151.406 224.578C151.052 224.5 150.74 224.461 150.469 224.461C149.776 224.461 149.182 224.742 148.688 225.305C148.198 225.867 147.953 226.568 147.953 227.406V232H146.656V223.438H147.727L147.875 225.023H147.938C148.255 224.466 148.638 224.036 149.086 223.734C149.534 223.432 150.026 223.281 150.562 223.281ZM164.102 232V226.43C164.102 225.747 163.956 225.237 163.664 224.898C163.372 224.555 162.919 224.383 162.305 224.383C161.497 224.383 160.901 224.615 160.516 225.078C160.13 225.542 159.938 226.255 159.938 227.219V232H158.641V226.43C158.641 225.747 158.495 225.237 158.203 224.898C157.911 224.555 157.456 224.383 156.836 224.383C156.023 224.383 155.427 224.628 155.047 225.117C154.672 225.602 154.484 226.398 154.484 227.508V232H153.188V223.438H154.242L154.453 224.609H154.516C154.76 224.193 155.104 223.867 155.547 223.633C155.995 223.398 156.495 223.281 157.047 223.281C158.385 223.281 159.26 223.766 159.672 224.734H159.734C159.99 224.286 160.359 223.932 160.844 223.672C161.328 223.411 161.88 223.281 162.5 223.281C163.469 223.281 164.193 223.531 164.672 224.031C165.156 224.526 165.398 225.32 165.398 226.414V232H164.102ZM173.344 232L173.086 230.781H173.023C172.596 231.318 172.169 231.682 171.742 231.875C171.32 232.062 170.792 232.156 170.156 232.156C169.307 232.156 168.641 231.938 168.156 231.5C167.677 231.062 167.438 230.44 167.438 229.633C167.438 227.904 168.82 226.997 171.586 226.914L173.039 226.867V226.336C173.039 225.664 172.893 225.169 172.602 224.852C172.315 224.529 171.854 224.367 171.219 224.367C170.505 224.367 169.698 224.586 168.797 225.023L168.398 224.031C168.82 223.802 169.281 223.622 169.781 223.492C170.286 223.362 170.792 223.297 171.297 223.297C172.318 223.297 173.073 223.523 173.562 223.977C174.057 224.43 174.305 225.156 174.305 226.156V232H173.344ZM170.414 231.086C171.221 231.086 171.854 230.865 172.312 230.422C172.776 229.979 173.008 229.359 173.008 228.562V227.789L171.711 227.844C170.68 227.88 169.935 228.042 169.477 228.328C169.023 228.609 168.797 229.049 168.797 229.648C168.797 230.117 168.938 230.474 169.219 230.719C169.505 230.964 169.904 231.086 170.414 231.086ZM186.406 232L186.148 230.781H186.086C185.659 231.318 185.232 231.682 184.805 231.875C184.383 232.062 183.854 232.156 183.219 232.156C182.37 232.156 181.703 231.938 181.219 231.5C180.74 231.062 180.5 230.44 180.5 229.633C180.5 227.904 181.883 226.997 184.648 226.914L186.102 226.867V226.336C186.102 225.664 185.956 225.169 185.664 224.852C185.378 224.529 184.917 224.367 184.281 224.367C183.568 224.367 182.76 224.586 181.859 225.023L181.461 224.031C181.883 223.802 182.344 223.622 182.844 223.492C183.349 223.362 183.854 223.297 184.359 223.297C185.38 223.297 186.135 223.523 186.625 223.977C187.12 224.43 187.367 225.156 187.367 226.156V232H186.406ZM183.477 231.086C184.284 231.086 184.917 230.865 185.375 230.422C185.839 229.979 186.07 229.359 186.07 228.562V227.789L184.773 227.844C183.742 227.88 182.997 228.042 182.539 228.328C182.086 228.609 181.859 229.049 181.859 229.648C181.859 230.117 182 230.474 182.281 230.719C182.568 230.964 182.966 231.086 183.477 231.086ZM199.727 229.664C199.727 230.461 199.43 231.076 198.836 231.508C198.242 231.94 197.409 232.156 196.336 232.156C195.201 232.156 194.315 231.977 193.68 231.617V230.414C194.091 230.622 194.531 230.786 195 230.906C195.474 231.026 195.93 231.086 196.367 231.086C197.044 231.086 197.565 230.979 197.93 230.766C198.294 230.547 198.477 230.216 198.477 229.773C198.477 229.44 198.331 229.156 198.039 228.922C197.753 228.682 197.19 228.401 196.352 228.078C195.555 227.781 194.987 227.523 194.648 227.305C194.315 227.081 194.065 226.828 193.898 226.547C193.737 226.266 193.656 225.93 193.656 225.539C193.656 224.841 193.94 224.292 194.508 223.891C195.076 223.484 195.854 223.281 196.844 223.281C197.766 223.281 198.667 223.469 199.547 223.844L199.086 224.898C198.227 224.544 197.448 224.367 196.75 224.367C196.135 224.367 195.672 224.464 195.359 224.656C195.047 224.849 194.891 225.115 194.891 225.453C194.891 225.682 194.948 225.878 195.062 226.039C195.182 226.201 195.372 226.354 195.633 226.5C195.893 226.646 196.393 226.857 197.133 227.133C198.148 227.503 198.833 227.875 199.188 228.25C199.547 228.625 199.727 229.096 199.727 229.664ZM207.109 232L206.852 230.781H206.789C206.362 231.318 205.935 231.682 205.508 231.875C205.086 232.062 204.557 232.156 203.922 232.156C203.073 232.156 202.406 231.938 201.922 231.5C201.443 231.062 201.203 230.44 201.203 229.633C201.203 227.904 202.586 226.997 205.352 226.914L206.805 226.867V226.336C206.805 225.664 206.659 225.169 206.367 224.852C206.081 224.529 205.62 224.367 204.984 224.367C204.271 224.367 203.464 224.586 202.562 225.023L202.164 224.031C202.586 223.802 203.047 223.622 203.547 223.492C204.052 223.362 204.557 223.297 205.062 223.297C206.083 223.297 206.839 223.523 207.328 223.977C207.823 224.43 208.07 225.156 208.07 226.156V232H207.109ZM204.18 231.086C204.987 231.086 205.62 230.865 206.078 230.422C206.542 229.979 206.773 229.359 206.773 228.562V227.789L205.477 227.844C204.445 227.88 203.701 228.042 203.242 228.328C202.789 228.609 202.562 229.049 202.562 229.648C202.562 230.117 202.703 230.474 202.984 230.719C203.271 230.964 203.669 231.086 204.18 231.086ZM212.047 232H210.75V223.438H212.047V232ZM210.695 222.109C210.945 221.786 211.214 221.396 211.5 220.938C211.792 220.479 212.021 220.081 212.188 219.742H213.766V219.906C213.536 220.245 213.195 220.661 212.742 221.156C212.289 221.651 211.896 222.034 211.562 222.305H210.695V222.109ZM220.625 230.852H220.555C219.956 231.721 219.06 232.156 217.867 232.156C216.747 232.156 215.875 231.773 215.25 231.008C214.63 230.242 214.32 229.154 214.32 227.742C214.32 226.331 214.633 225.234 215.258 224.453C215.883 223.672 216.753 223.281 217.867 223.281C219.029 223.281 219.919 223.703 220.539 224.547H220.641L220.586 223.93L220.555 223.328V219.844H221.852V232H220.797L220.625 230.852ZM218.031 231.07C218.917 231.07 219.557 230.831 219.953 230.352C220.354 229.867 220.555 229.089 220.555 228.016V227.742C220.555 226.529 220.352 225.664 219.945 225.148C219.544 224.628 218.901 224.367 218.016 224.367C217.255 224.367 216.672 224.664 216.266 225.258C215.865 225.846 215.664 226.68 215.664 227.758C215.664 228.852 215.865 229.677 216.266 230.234C216.667 230.792 217.255 231.07 218.031 231.07ZM229.875 232L229.617 230.781H229.555C229.128 231.318 228.701 231.682 228.273 231.875C227.852 232.062 227.323 232.156 226.688 232.156C225.839 232.156 225.172 231.938 224.688 231.5C224.208 231.062 223.969 230.44 223.969 229.633C223.969 227.904 225.352 226.997 228.117 226.914L229.57 226.867V226.336C229.57 225.664 229.424 225.169 229.133 224.852C228.846 224.529 228.385 224.367 227.75 224.367C227.036 224.367 226.229 224.586 225.328 225.023L224.93 224.031C225.352 223.802 225.812 223.622 226.312 223.492C226.818 223.362 227.323 223.297 227.828 223.297C228.849 223.297 229.604 223.523 230.094 223.977C230.589 224.43 230.836 225.156 230.836 226.156V232H229.875ZM226.945 231.086C227.753 231.086 228.385 230.865 228.844 230.422C229.307 229.979 229.539 229.359 229.539 228.562V227.789L228.242 227.844C227.211 227.88 226.466 228.042 226.008 228.328C225.555 228.609 225.328 229.049 225.328 229.648C225.328 230.117 225.469 230.474 225.75 230.719C226.036 230.964 226.435 231.086 226.945 231.086ZM243.5 230.852H243.43C242.831 231.721 241.935 232.156 240.742 232.156C239.622 232.156 238.75 231.773 238.125 231.008C237.505 230.242 237.195 229.154 237.195 227.742C237.195 226.331 237.508 225.234 238.133 224.453C238.758 223.672 239.628 223.281 240.742 223.281C241.904 223.281 242.794 223.703 243.414 224.547H243.516L243.461 223.93L243.43 223.328V219.844H244.727V232H243.672L243.5 230.852ZM240.906 231.07C241.792 231.07 242.432 230.831 242.828 230.352C243.229 229.867 243.43 229.089 243.43 228.016V227.742C243.43 226.529 243.227 225.664 242.82 225.148C242.419 224.628 241.776 224.367 240.891 224.367C240.13 224.367 239.547 224.664 239.141 225.258C238.74 225.846 238.539 226.68 238.539 227.758C238.539 228.852 238.74 229.677 239.141 230.234C239.542 230.792 240.13 231.07 240.906 231.07ZM254.875 227.711C254.875 229.107 254.523 230.198 253.82 230.984C253.117 231.766 252.146 232.156 250.906 232.156C250.141 232.156 249.461 231.977 248.867 231.617C248.273 231.258 247.815 230.742 247.492 230.07C247.169 229.398 247.008 228.612 247.008 227.711C247.008 226.315 247.357 225.229 248.055 224.453C248.753 223.672 249.721 223.281 250.961 223.281C252.159 223.281 253.109 223.68 253.812 224.477C254.521 225.273 254.875 226.352 254.875 227.711ZM248.352 227.711C248.352 228.805 248.57 229.638 249.008 230.211C249.445 230.784 250.089 231.07 250.938 231.07C251.786 231.07 252.43 230.786 252.867 230.219C253.31 229.646 253.531 228.81 253.531 227.711C253.531 226.622 253.31 225.797 252.867 225.234C252.43 224.667 251.781 224.383 250.922 224.383C250.073 224.383 249.432 224.661 249 225.219C248.568 225.776 248.352 226.607 248.352 227.711ZM94.5938 254L91.3438 245.438H92.7344L94.5781 250.516C94.9948 251.703 95.2396 252.474 95.3125 252.828H95.375C95.4323 252.552 95.612 251.982 95.9141 251.117C96.2214 250.247 96.9062 248.354 97.9688 245.438H99.3594L96.1094 254H94.5938ZM104.352 254.156C103.086 254.156 102.086 253.771 101.352 253C100.622 252.229 100.258 251.159 100.258 249.789C100.258 248.409 100.596 247.312 101.273 246.5C101.956 245.688 102.87 245.281 104.016 245.281C105.089 245.281 105.938 245.635 106.562 246.344C107.188 247.047 107.5 247.977 107.5 249.133V249.953H101.602C101.628 250.958 101.88 251.721 102.359 252.242C102.844 252.763 103.523 253.023 104.398 253.023C105.32 253.023 106.232 252.831 107.133 252.445V253.602C106.674 253.799 106.24 253.94 105.828 254.023C105.422 254.112 104.93 254.156 104.352 254.156ZM104 246.367C103.312 246.367 102.763 246.591 102.352 247.039C101.945 247.487 101.706 248.107 101.633 248.898H106.109C106.109 248.081 105.927 247.456 105.562 247.023C105.198 246.586 104.677 246.367 104 246.367ZM111.016 254H109.719V245.438H111.016V254ZM109.609 243.117C109.609 242.82 109.682 242.604 109.828 242.469C109.974 242.328 110.156 242.258 110.375 242.258C110.583 242.258 110.763 242.328 110.914 242.469C111.065 242.609 111.141 242.826 111.141 243.117C111.141 243.409 111.065 243.628 110.914 243.773C110.763 243.914 110.583 243.984 110.375 243.984C110.156 243.984 109.974 243.914 109.828 243.773C109.682 243.628 109.609 243.409 109.609 243.117ZM117.188 254.156C115.948 254.156 114.987 253.776 114.305 253.016C113.628 252.25 113.289 251.169 113.289 249.773C113.289 248.341 113.633 247.234 114.32 246.453C115.013 245.672 115.997 245.281 117.273 245.281C117.685 245.281 118.096 245.326 118.508 245.414C118.919 245.503 119.242 245.607 119.477 245.727L119.078 246.828C118.792 246.714 118.479 246.62 118.141 246.547C117.802 246.469 117.503 246.43 117.242 246.43C115.503 246.43 114.633 247.539 114.633 249.758C114.633 250.81 114.844 251.617 115.266 252.18C115.693 252.742 116.323 253.023 117.156 253.023C117.87 253.023 118.602 252.87 119.352 252.562V253.711C118.779 254.008 118.057 254.156 117.188 254.156ZM122.609 245.438V250.992C122.609 251.69 122.768 252.211 123.086 252.555C123.404 252.898 123.901 253.07 124.578 253.07C125.474 253.07 126.128 252.826 126.539 252.336C126.956 251.846 127.164 251.047 127.164 249.938V245.438H128.461V254H127.391L127.203 252.852H127.133C126.867 253.273 126.497 253.596 126.023 253.82C125.555 254.044 125.018 254.156 124.414 254.156C123.372 254.156 122.591 253.909 122.07 253.414C121.555 252.919 121.297 252.128 121.297 251.039V245.438H122.609ZM132.516 254H131.219V241.844H132.516V254ZM142.656 249.711C142.656 251.107 142.305 252.198 141.602 252.984C140.898 253.766 139.927 254.156 138.688 254.156C137.922 254.156 137.242 253.977 136.648 253.617C136.055 253.258 135.596 252.742 135.273 252.07C134.951 251.398 134.789 250.612 134.789 249.711C134.789 248.315 135.138 247.229 135.836 246.453C136.534 245.672 137.503 245.281 138.742 245.281C139.94 245.281 140.891 245.68 141.594 246.477C142.302 247.273 142.656 248.352 142.656 249.711ZM136.133 249.711C136.133 250.805 136.352 251.638 136.789 252.211C137.227 252.784 137.87 253.07 138.719 253.07C139.568 253.07 140.211 252.786 140.648 252.219C141.091 251.646 141.312 250.81 141.312 249.711C141.312 248.622 141.091 247.797 140.648 247.234C140.211 246.667 139.562 246.383 138.703 246.383C137.854 246.383 137.214 246.661 136.781 247.219C136.349 247.776 136.133 248.607 136.133 249.711ZM154.922 252.852H154.852C154.253 253.721 153.357 254.156 152.164 254.156C151.044 254.156 150.172 253.773 149.547 253.008C148.927 252.242 148.617 251.154 148.617 249.742C148.617 248.331 148.93 247.234 149.555 246.453C150.18 245.672 151.049 245.281 152.164 245.281C153.326 245.281 154.216 245.703 154.836 246.547H154.938L154.883 245.93L154.852 245.328V241.844H156.148V254H155.094L154.922 252.852ZM152.328 253.07C153.214 253.07 153.854 252.831 154.25 252.352C154.651 251.867 154.852 251.089 154.852 250.016V249.742C154.852 248.529 154.648 247.664 154.242 247.148C153.841 246.628 153.198 246.367 152.312 246.367C151.552 246.367 150.969 246.664 150.562 247.258C150.161 247.846 149.961 248.68 149.961 249.758C149.961 250.852 150.161 251.677 150.562 252.234C150.964 252.792 151.552 253.07 152.328 253.07ZM164.172 254L163.914 252.781H163.852C163.424 253.318 162.997 253.682 162.57 253.875C162.148 254.062 161.62 254.156 160.984 254.156C160.135 254.156 159.469 253.938 158.984 253.5C158.505 253.062 158.266 252.44 158.266 251.633C158.266 249.904 159.648 248.997 162.414 248.914L163.867 248.867V248.336C163.867 247.664 163.721 247.169 163.43 246.852C163.143 246.529 162.682 246.367 162.047 246.367C161.333 246.367 160.526 246.586 159.625 247.023L159.227 246.031C159.648 245.802 160.109 245.622 160.609 245.492C161.115 245.362 161.62 245.297 162.125 245.297C163.146 245.297 163.901 245.523 164.391 245.977C164.885 246.43 165.133 247.156 165.133 248.156V254H164.172ZM161.242 253.086C162.049 253.086 162.682 252.865 163.141 252.422C163.604 251.979 163.836 251.359 163.836 250.562V249.789L162.539 249.844C161.508 249.88 160.763 250.042 160.305 250.328C159.852 250.609 159.625 251.049 159.625 251.648C159.625 252.117 159.766 252.474 160.047 252.719C160.333 252.964 160.732 253.086 161.242 253.086ZM175.953 254.156C175.396 254.156 174.885 254.055 174.422 253.852C173.964 253.643 173.578 253.326 173.266 252.898H173.172C173.234 253.398 173.266 253.872 173.266 254.32V257.844H171.969V245.438H173.023L173.203 246.609H173.266C173.599 246.141 173.987 245.802 174.43 245.594C174.872 245.385 175.38 245.281 175.953 245.281C177.089 245.281 177.964 245.669 178.578 246.445C179.198 247.221 179.508 248.31 179.508 249.711C179.508 251.117 179.193 252.211 178.562 252.992C177.938 253.768 177.068 254.156 175.953 254.156ZM175.766 246.383C174.891 246.383 174.258 246.625 173.867 247.109C173.477 247.594 173.276 248.365 173.266 249.422V249.711C173.266 250.914 173.466 251.776 173.867 252.297C174.268 252.812 174.911 253.07 175.797 253.07C176.536 253.07 177.115 252.771 177.531 252.172C177.953 251.573 178.164 250.747 178.164 249.695C178.164 248.628 177.953 247.81 177.531 247.242C177.115 246.669 176.526 246.383 175.766 246.383ZM183.078 254H181.781V241.844H183.078V254ZM191.094 254L190.836 252.781H190.773C190.346 253.318 189.919 253.682 189.492 253.875C189.07 254.062 188.542 254.156 187.906 254.156C187.057 254.156 186.391 253.938 185.906 253.5C185.427 253.062 185.188 252.44 185.188 251.633C185.188 249.904 186.57 248.997 189.336 248.914L190.789 248.867V248.336C190.789 247.664 190.643 247.169 190.352 246.852C190.065 246.529 189.604 246.367 188.969 246.367C188.255 246.367 187.448 246.586 186.547 247.023L186.148 246.031C186.57 245.802 187.031 245.622 187.531 245.492C188.036 245.362 188.542 245.297 189.047 245.297C190.068 245.297 190.823 245.523 191.312 245.977C191.807 246.43 192.055 247.156 192.055 248.156V254H191.094ZM188.164 253.086C188.971 253.086 189.604 252.865 190.062 252.422C190.526 251.979 190.758 251.359 190.758 250.562V249.789L189.461 249.844C188.43 249.88 187.685 250.042 187.227 250.328C186.773 250.609 186.547 251.049 186.547 251.648C186.547 252.117 186.688 252.474 186.969 252.719C187.255 252.964 187.654 253.086 188.164 253.086ZM198.156 254.156C196.917 254.156 195.956 253.776 195.273 253.016C194.596 252.25 194.258 251.169 194.258 249.773C194.258 248.341 194.602 247.234 195.289 246.453C195.982 245.672 196.966 245.281 198.242 245.281C198.654 245.281 199.065 245.326 199.477 245.414C199.888 245.503 200.211 245.607 200.445 245.727L200.047 246.828C199.76 246.714 199.448 246.62 199.109 246.547C198.771 246.469 198.471 246.43 198.211 246.43C196.471 246.43 195.602 247.539 195.602 249.758C195.602 250.81 195.812 251.617 196.234 252.18C196.661 252.742 197.292 253.023 198.125 253.023C198.839 253.023 199.57 252.87 200.32 252.562V253.711C199.747 254.008 199.026 254.156 198.156 254.156ZM207.625 254L207.367 252.781H207.305C206.878 253.318 206.451 253.682 206.023 253.875C205.602 254.062 205.073 254.156 204.438 254.156C203.589 254.156 202.922 253.938 202.438 253.5C201.958 253.062 201.719 252.44 201.719 251.633C201.719 249.904 203.102 248.997 205.867 248.914L207.32 248.867V248.336C207.32 247.664 207.174 247.169 206.883 246.852C206.596 246.529 206.135 246.367 205.5 246.367C204.786 246.367 203.979 246.586 203.078 247.023L202.68 246.031C203.102 245.802 203.562 245.622 204.062 245.492C204.568 245.362 205.073 245.297 205.578 245.297C206.599 245.297 207.354 245.523 207.844 245.977C208.339 246.43 208.586 247.156 208.586 248.156V254H207.625ZM204.695 253.086C205.503 253.086 206.135 252.865 206.594 252.422C207.057 251.979 207.289 251.359 207.289 250.562V249.789L205.992 249.844C204.961 249.88 204.216 250.042 203.758 250.328C203.305 250.609 203.078 251.049 203.078 251.648C203.078 252.117 203.219 252.474 203.5 252.719C203.786 252.964 204.185 253.086 204.695 253.086ZM220.688 254L220.43 252.781H220.367C219.94 253.318 219.513 253.682 219.086 253.875C218.664 254.062 218.135 254.156 217.5 254.156C216.651 254.156 215.984 253.938 215.5 253.5C215.021 253.062 214.781 252.44 214.781 251.633C214.781 249.904 216.164 248.997 218.93 248.914L220.383 248.867V248.336C220.383 247.664 220.237 247.169 219.945 246.852C219.659 246.529 219.198 246.367 218.562 246.367C217.849 246.367 217.042 246.586 216.141 247.023L215.742 246.031C216.164 245.802 216.625 245.622 217.125 245.492C217.63 245.362 218.135 245.297 218.641 245.297C219.661 245.297 220.417 245.523 220.906 245.977C221.401 246.43 221.648 247.156 221.648 248.156V254H220.688ZM217.758 253.086C218.565 253.086 219.198 252.865 219.656 252.422C220.12 251.979 220.352 251.359 220.352 250.562V249.789L219.055 249.844C218.023 249.88 217.279 250.042 216.82 250.328C216.367 250.609 216.141 251.049 216.141 251.648C216.141 252.117 216.281 252.474 216.562 252.719C216.849 252.964 217.247 253.086 217.758 253.086ZM228.312 245.297C229.438 245.297 230.31 245.682 230.93 246.453C231.555 247.219 231.867 248.305 231.867 249.711C231.867 251.117 231.552 252.211 230.922 252.992C230.297 253.768 229.427 254.156 228.312 254.156C227.755 254.156 227.245 254.055 226.781 253.852C226.323 253.643 225.938 253.326 225.625 252.898H225.531L225.258 254H224.328V241.844H225.625V244.797C225.625 245.458 225.604 246.052 225.562 246.578H225.625C226.229 245.724 227.125 245.297 228.312 245.297ZM228.125 246.383C227.24 246.383 226.602 246.638 226.211 247.148C225.82 247.654 225.625 248.508 225.625 249.711C225.625 250.914 225.826 251.776 226.227 252.297C226.628 252.812 227.271 253.07 228.156 253.07C228.953 253.07 229.547 252.781 229.938 252.203C230.328 251.62 230.523 250.784 230.523 249.695C230.523 248.581 230.328 247.75 229.938 247.203C229.547 246.656 228.943 246.383 228.125 246.383ZM239.406 254L239.148 252.781H239.086C238.659 253.318 238.232 253.682 237.805 253.875C237.383 254.062 236.854 254.156 236.219 254.156C235.37 254.156 234.703 253.938 234.219 253.5C233.74 253.062 233.5 252.44 233.5 251.633C233.5 249.904 234.883 248.997 237.648 248.914L239.102 248.867V248.336C239.102 247.664 238.956 247.169 238.664 246.852C238.378 246.529 237.917 246.367 237.281 246.367C236.568 246.367 235.76 246.586 234.859 247.023L234.461 246.031C234.883 245.802 235.344 245.622 235.844 245.492C236.349 245.362 236.854 245.297 237.359 245.297C238.38 245.297 239.135 245.523 239.625 245.977C240.12 246.43 240.367 247.156 240.367 248.156V254H239.406ZM236.477 253.086C237.284 253.086 237.917 252.865 238.375 252.422C238.839 251.979 239.07 251.359 239.07 250.562V249.789L237.773 249.844C236.742 249.88 235.997 250.042 235.539 250.328C235.086 250.609 234.859 251.049 234.859 251.648C234.859 252.117 235 252.474 235.281 252.719C235.568 252.964 235.966 253.086 236.477 253.086ZM244.344 254H243.047V245.438H244.344V254ZM242.938 243.117C242.938 242.82 243.01 242.604 243.156 242.469C243.302 242.328 243.484 242.258 243.703 242.258C243.911 242.258 244.091 242.328 244.242 242.469C244.393 242.609 244.469 242.826 244.469 243.117C244.469 243.409 244.393 243.628 244.242 243.773C244.091 243.914 243.911 243.984 243.703 243.984C243.484 243.984 243.302 243.914 243.156 243.773C243.01 243.628 242.938 243.409 242.938 243.117ZM249.156 249.617L246.18 245.438H247.656L249.914 248.719L252.164 245.438H253.625L250.648 249.617L253.781 254H252.312L249.914 250.531L247.492 254H246.023L249.156 249.617ZM262.875 249.711C262.875 251.107 262.523 252.198 261.82 252.984C261.117 253.766 260.146 254.156 258.906 254.156C258.141 254.156 257.461 253.977 256.867 253.617C256.273 253.258 255.815 252.742 255.492 252.07C255.169 251.398 255.008 250.612 255.008 249.711C255.008 248.315 255.357 247.229 256.055 246.453C256.753 245.672 257.721 245.281 258.961 245.281C260.159 245.281 261.109 245.68 261.812 246.477C262.521 247.273 262.875 248.352 262.875 249.711ZM256.352 249.711C256.352 250.805 256.57 251.638 257.008 252.211C257.445 252.784 258.089 253.07 258.938 253.07C259.786 253.07 260.43 252.786 260.867 252.219C261.31 251.646 261.531 250.81 261.531 249.711C261.531 248.622 261.31 247.797 260.867 247.234C260.43 246.667 259.781 246.383 258.922 246.383C258.073 246.383 257.432 246.661 257 247.219C256.568 247.776 256.352 248.607 256.352 249.711ZM266.039 250.852V250.43C266.039 249.82 266.133 249.32 266.32 248.93C266.508 248.534 266.857 248.117 267.367 247.68C268.076 247.081 268.521 246.63 268.703 246.328C268.891 246.026 268.984 245.661 268.984 245.234C268.984 244.703 268.812 244.294 268.469 244.008C268.13 243.716 267.641 243.57 267 243.57C266.589 243.57 266.188 243.62 265.797 243.719C265.406 243.812 264.958 243.987 264.453 244.242L263.992 243.188C264.977 242.672 266.005 242.414 267.078 242.414C268.073 242.414 268.846 242.659 269.398 243.148C269.951 243.638 270.227 244.328 270.227 245.219C270.227 245.599 270.174 245.935 270.07 246.227C269.971 246.513 269.823 246.786 269.625 247.047C269.427 247.302 269 247.716 268.344 248.289C267.818 248.737 267.469 249.109 267.297 249.406C267.13 249.703 267.047 250.099 267.047 250.594V250.852H266.039ZM265.656 253.172C265.656 252.464 265.969 252.109 266.594 252.109C266.896 252.109 267.128 252.201 267.289 252.383C267.456 252.565 267.539 252.828 267.539 253.172C267.539 253.505 267.456 253.766 267.289 253.953C267.122 254.135 266.891 254.227 266.594 254.227C266.323 254.227 266.099 254.146 265.922 253.984C265.745 253.818 265.656 253.547 265.656 253.172Z" fill="#4A4A4A"/>
</svg>
