<svg width="360" height="640" viewBox="0 0 360 640" fill="none" xmlns="http://www.w3.org/2000/svg">
<rect width="360" height="640" fill="#F2F2F2"/>
<path fill-rule="evenodd" clip-rule="evenodd" d="M0 0V24H360V0H0Z" fill="#757575"/>
<g opacity="0.9">
<path d="M321.696 17H320.042V9.00879L317.602 9.84277V8.44141L321.484 7.0127H321.696V17ZM331.848 17H325.155V15.8584L328.471 12.2422C328.949 11.709 329.289 11.2646 329.489 10.9092C329.694 10.5492 329.797 10.1891 329.797 9.8291C329.797 9.35514 329.662 8.97233 329.394 8.68066C329.129 8.389 328.771 8.24316 328.32 8.24316C327.783 8.24316 327.366 8.40723 327.069 8.73535C326.773 9.06348 326.625 9.51237 326.625 10.082H324.964C324.964 9.47591 325.101 8.93132 325.374 8.44824C325.652 7.96061 326.046 7.58236 326.557 7.31348C327.072 7.0446 327.664 6.91016 328.334 6.91016C329.3 6.91016 330.061 7.15397 330.617 7.6416C331.178 8.12467 331.458 8.7946 331.458 9.65137C331.458 10.1481 331.317 10.6699 331.034 11.2168C330.756 11.7591 330.298 12.3766 329.66 13.0693L327.227 15.6738H331.848V17ZM334.22 15.25C334.53 15.25 334.769 15.3389 334.938 15.5166C335.106 15.6898 335.19 15.9085 335.19 16.1729C335.19 16.4326 335.106 16.6491 334.938 16.8223C334.769 16.9909 334.53 17.0752 334.22 17.0752C333.924 17.0752 333.689 16.9909 333.516 16.8223C333.342 16.6536 333.256 16.4372 333.256 16.1729C333.256 15.9085 333.34 15.6898 333.509 15.5166C333.677 15.3389 333.914 15.25 334.22 15.25ZM334.22 9.44629C334.53 9.44629 334.769 9.53516 334.938 9.71289C335.106 9.88607 335.19 10.1048 335.19 10.3691C335.19 10.6289 335.106 10.8454 334.938 11.0186C334.769 11.1872 334.53 11.2715 334.22 11.2715C333.924 11.2715 333.689 11.1872 333.516 11.0186C333.342 10.8499 333.256 10.6335 333.256 10.3691C333.256 10.1048 333.34 9.88607 333.509 9.71289C333.677 9.53516 333.914 9.44629 334.22 9.44629ZM338.752 11.2646H339.764C340.274 11.2601 340.677 11.1279 340.974 10.8682C341.274 10.6084 341.425 10.2324 341.425 9.74023C341.425 9.26628 341.299 8.89941 341.049 8.63965C340.803 8.37533 340.424 8.24316 339.914 8.24316C339.467 8.24316 339.101 8.37305 338.813 8.63281C338.526 8.88802 338.383 9.22298 338.383 9.6377H336.722C336.722 9.12728 336.856 8.66243 337.125 8.24316C337.398 7.82389 337.777 7.49805 338.26 7.26562C338.747 7.02865 339.292 6.91016 339.894 6.91016C340.887 6.91016 341.666 7.16081 342.231 7.66211C342.801 8.15885 343.086 8.85156 343.086 9.74023C343.086 10.1868 342.942 10.6084 342.655 11.0049C342.373 11.3968 342.006 11.693 341.555 11.8936C342.102 12.0804 342.516 12.3743 342.799 12.7754C343.086 13.1764 343.229 13.6549 343.229 14.2109C343.229 15.1042 342.922 15.8151 342.307 16.3438C341.696 16.8724 340.892 17.1367 339.894 17.1367C338.937 17.1367 338.153 16.8815 337.542 16.3711C336.931 15.8607 336.626 15.1816 336.626 14.334H338.287C338.287 14.7715 338.433 15.127 338.725 15.4004C339.021 15.6738 339.417 15.8105 339.914 15.8105C340.429 15.8105 340.835 15.6738 341.131 15.4004C341.427 15.127 341.575 14.7305 341.575 14.2109C341.575 13.6868 341.42 13.2835 341.11 13.001C340.8 12.7184 340.34 12.5771 339.729 12.5771H338.752V11.2646ZM351.275 12.8096C351.275 14.2406 351.007 15.3206 350.469 16.0498C349.936 16.7744 349.122 17.1367 348.028 17.1367C346.953 17.1367 346.142 16.7835 345.595 16.0771C345.052 15.3662 344.774 14.3158 344.761 12.9258V11.2031C344.761 9.77214 345.027 8.69889 345.561 7.9834C346.098 7.2679 346.916 6.91016 348.015 6.91016C349.104 6.91016 349.915 7.25879 350.448 7.95605C350.986 8.65332 351.262 9.69694 351.275 11.0869V12.8096ZM349.614 10.9502C349.614 10.016 349.487 9.33236 349.231 8.89941C348.976 8.46191 348.571 8.24316 348.015 8.24316C347.472 8.24316 347.074 8.45052 346.818 8.86523C346.563 9.27539 346.429 9.91797 346.415 10.793V13.0488C346.415 13.9785 346.545 14.6712 346.805 15.127C347.064 15.5827 347.472 15.8105 348.028 15.8105C348.562 15.8105 348.956 15.6009 349.211 15.1816C349.466 14.7578 349.601 14.097 349.614 13.1992V10.9502Z" fill="white"/>
</g>
<path fill-rule="evenodd" clip-rule="evenodd" d="M306 5.875V5L303 5V5.875H300V19H309V5.875H306Z" fill="white"/>
<path fill-rule="evenodd" clip-rule="evenodd" d="M277 19H291V5L277 19Z" fill="white"/>
<path fill-rule="evenodd" clip-rule="evenodd" d="M256.977 8.01593C259.488 6.12256 262.613 5 266 5C269.387 5 272.512 6.12256 275.023 8.01593L266 19L256.977 8.01593Z" fill="white"/>
<path fill-rule="evenodd" clip-rule="evenodd" d="M0 592V640H360V592H0Z" fill="black"/>
<path d="M274 610C274 609.448 274.448 609 275 609H287C287.552 609 288 609.448 288 610V622C288 622.552 287.552 623 287 623H275C274.448 623 274 622.552 274 622V610Z" stroke="white" stroke-width="2"/>
<circle cx="180" cy="616" r="7" stroke="white" stroke-width="2"/>
<path d="M84.4995 608.849C85.1662 608.464 86 608.945 86 609.715V621.287C86 622.057 85.1662 622.538 84.4995 622.153L74.4904 616.367C73.8244 615.982 73.8244 615.02 74.4904 614.635L84.4995 608.849Z" stroke="white" stroke-width="2"/>
<rect y="24" width="360" height="60" fill="#4DD0E1"/>
<path d="M42.604 40.6785C42.2765 40.3333 41.7054 40.3326 41.3629 40.6639L40.1485 41.8387C39.8236 42.153 39.8275 42.6503 40.1366 42.9792C43.0962 46.1297 44.5759 50.1252 44.5758 54.1207C44.5756 58.1157 43.0959 62.1106 40.1366 65.2607C39.8275 65.5897 39.8236 66.0869 40.1485 66.4012L41.3629 67.5759C41.7054 67.9073 42.2765 67.9066 42.6041 67.5614C46.2016 63.7701 48.0003 58.9445 48 54.1189C47.9998 49.2942 46.2011 44.4693 42.604 40.6785Z" fill="white"/>
<path d="M11.4242 54.1195C11.4243 50.1244 12.9041 46.1294 15.8635 42.9792C16.1725 42.6502 16.1764 42.153 15.8515 41.8387L14.6372 40.664C14.2946 40.3326 13.7236 40.3333 13.3959 40.6785C9.79856 44.4696 7.99992 49.295 8 54.1204C8.00008 58.9454 9.7988 63.7704 13.3959 67.5614C13.7235 67.9066 14.2946 67.9073 14.6372 67.5759L15.8515 66.4011C16.1764 66.0868 16.1725 65.5896 15.8635 65.2606C12.9039 62.1102 11.4242 58.1149 11.4242 54.1195Z" fill="white"/>
<path fill-rule="evenodd" clip-rule="evenodd" d="M13.238 53.8837C13.238 45.6764 19.9673 39 28.238 39C36.5087 39 43.238 45.6764 43.238 53.8837C43.238 62.0911 36.5087 68.7674 28.238 68.7674C19.9673 68.7674 13.238 62.0911 13.238 53.8837ZM26.5616 55.5374H29.0616C31.359 55.5374 33.2283 53.6835 33.2283 51.4031C33.2283 49.1227 31.359 47.2688 29.0616 47.2687H25.7283C25.2677 47.2687 24.8949 47.6385 24.8949 48.0956V59.6718C24.8949 60.1288 25.2677 60.4987 25.7283 60.4987C26.1889 60.4987 26.5616 60.1288 26.5616 59.6718V55.5374Z" fill="white"/>
<path d="M29.1906 48.9225H26.5715V53.6475H29.1906C30.6348 53.6475 31.8096 52.5877 31.8096 51.285C31.8096 49.9822 30.6348 48.9225 29.1906 48.9225Z" fill="white"/>
<path d="M350.546 53.0769H317.454C316.651 53.0769 316 53.6968 316 54.4615C316 55.2263 316.651 55.8461 317.454 55.8461H350.546C351.349 55.8461 352 55.2263 352 54.4615C352 53.6968 351.349 53.0769 350.546 53.0769Z" fill="white"/>
<path d="M350.546 42H317.454C316.651 42 316 42.6199 316 43.3846C316 44.1493 316.651 44.7692 317.454 44.7692H350.546C351.349 44.7692 352 44.1493 352 43.3846C352 42.6199 351.349 42 350.546 42Z" fill="white"/>
<path d="M350.546 64.1538H317.454C316.651 64.1538 316 64.7737 316 65.5384C316 66.3032 316.651 66.923 317.454 66.923H350.546C351.349 66.923 352 66.3032 352 65.5384C352 64.7737 351.349 64.1538 350.546 64.1538Z" fill="white"/>
<path d="M8 172H352V530C352 532.209 350.209 534 348 534H12C9.79086 534 8 532.209 8 530V172Z" fill="white"/>
<path d="M180 129C180 126.791 181.791 125 184 125H348C350.209 125 352 126.791 352 129V173H180V129Z" fill="white"/>
<rect x="180" y="170" width="172" height="3" fill="#4DD0E1"/>
<path d="M253.789 151.961C253.789 152.966 253.424 153.75 252.695 154.312C251.966 154.875 250.977 155.156 249.727 155.156C248.372 155.156 247.331 154.982 246.602 154.633V153.352C247.07 153.549 247.581 153.706 248.133 153.82C248.685 153.935 249.232 153.992 249.773 153.992C250.659 153.992 251.326 153.826 251.773 153.492C252.221 153.154 252.445 152.685 252.445 152.086C252.445 151.69 252.365 151.367 252.203 151.117C252.047 150.862 251.781 150.628 251.406 150.414C251.036 150.201 250.471 149.958 249.711 149.688C248.648 149.307 247.888 148.857 247.43 148.336C246.977 147.815 246.75 147.135 246.75 146.297C246.75 145.417 247.081 144.716 247.742 144.195C248.404 143.674 249.279 143.414 250.367 143.414C251.503 143.414 252.547 143.622 253.5 144.039L253.086 145.195C252.143 144.799 251.227 144.602 250.336 144.602C249.633 144.602 249.083 144.753 248.688 145.055C248.292 145.357 248.094 145.776 248.094 146.312C248.094 146.708 248.167 147.034 248.312 147.289C248.458 147.539 248.703 147.771 249.047 147.984C249.396 148.193 249.927 148.424 250.641 148.68C251.839 149.107 252.661 149.565 253.109 150.055C253.562 150.544 253.789 151.18 253.789 151.961ZM261.195 155L260.938 153.781H260.875C260.448 154.318 260.021 154.682 259.594 154.875C259.172 155.062 258.643 155.156 258.008 155.156C257.159 155.156 256.492 154.938 256.008 154.5C255.529 154.062 255.289 153.44 255.289 152.633C255.289 150.904 256.672 149.997 259.438 149.914L260.891 149.867V149.336C260.891 148.664 260.745 148.169 260.453 147.852C260.167 147.529 259.706 147.367 259.07 147.367C258.357 147.367 257.549 147.586 256.648 148.023L256.25 147.031C256.672 146.802 257.133 146.622 257.633 146.492C258.138 146.362 258.643 146.297 259.148 146.297C260.169 146.297 260.924 146.523 261.414 146.977C261.909 147.43 262.156 148.156 262.156 149.156V155H261.195ZM258.266 154.086C259.073 154.086 259.706 153.865 260.164 153.422C260.628 152.979 260.859 152.359 260.859 151.562V150.789L259.562 150.844C258.531 150.88 257.786 151.042 257.328 151.328C256.875 151.609 256.648 152.049 256.648 152.648C256.648 153.117 256.789 153.474 257.07 153.719C257.357 153.964 257.755 154.086 258.266 154.086ZM266.133 155H264.836V146.438H266.133V155ZM264.781 145.109C265.031 144.786 265.299 144.396 265.586 143.938C265.878 143.479 266.107 143.081 266.273 142.742H267.852V142.906C267.622 143.245 267.281 143.661 266.828 144.156C266.375 144.651 265.982 145.034 265.648 145.305H264.781V145.109ZM274.711 153.852H274.641C274.042 154.721 273.146 155.156 271.953 155.156C270.833 155.156 269.961 154.773 269.336 154.008C268.716 153.242 268.406 152.154 268.406 150.742C268.406 149.331 268.719 148.234 269.344 147.453C269.969 146.672 270.839 146.281 271.953 146.281C273.115 146.281 274.005 146.703 274.625 147.547H274.727L274.672 146.93L274.641 146.328V142.844H275.938V155H274.883L274.711 153.852ZM272.117 154.07C273.003 154.07 273.643 153.831 274.039 153.352C274.44 152.867 274.641 152.089 274.641 151.016V150.742C274.641 149.529 274.438 148.664 274.031 148.148C273.63 147.628 272.987 147.367 272.102 147.367C271.341 147.367 270.758 147.664 270.352 148.258C269.951 148.846 269.75 149.68 269.75 150.758C269.75 151.852 269.951 152.677 270.352 153.234C270.753 153.792 271.341 154.07 272.117 154.07ZM283.961 155L283.703 153.781H283.641C283.214 154.318 282.786 154.682 282.359 154.875C281.938 155.062 281.409 155.156 280.773 155.156C279.924 155.156 279.258 154.938 278.773 154.5C278.294 154.062 278.055 153.44 278.055 152.633C278.055 150.904 279.438 149.997 282.203 149.914L283.656 149.867V149.336C283.656 148.664 283.51 148.169 283.219 147.852C282.932 147.529 282.471 147.367 281.836 147.367C281.122 147.367 280.315 147.586 279.414 148.023L279.016 147.031C279.438 146.802 279.898 146.622 280.398 146.492C280.904 146.362 281.409 146.297 281.914 146.297C282.935 146.297 283.69 146.523 284.18 146.977C284.674 147.43 284.922 148.156 284.922 149.156V155H283.961ZM281.031 154.086C281.839 154.086 282.471 153.865 282.93 153.422C283.393 152.979 283.625 152.359 283.625 151.562V150.789L282.328 150.844C281.297 150.88 280.552 151.042 280.094 151.328C279.641 151.609 279.414 152.049 279.414 152.648C279.414 153.117 279.555 153.474 279.836 153.719C280.122 153.964 280.521 154.086 281.031 154.086Z" fill="#4DD0E1"/>
<rect x="8" y="125" width="172" height="48" fill="#F2F2F2"/>
<path d="M73.1641 156H66.7969V144.578H73.1641V145.758H68.125V149.438H72.8594V150.609H68.125V154.812H73.1641V156ZM81.3672 156V150.461C81.3672 149.763 81.2083 149.242 80.8906 148.898C80.5729 148.555 80.0755 148.383 79.3984 148.383C78.5026 148.383 77.8464 148.625 77.4297 149.109C77.013 149.594 76.8047 150.393 76.8047 151.508V156H75.5078V147.438H76.5625L76.7734 148.609H76.8359C77.1016 148.188 77.474 147.862 77.9531 147.633C78.4323 147.398 78.9661 147.281 79.5547 147.281C80.5859 147.281 81.362 147.531 81.8828 148.031C82.4036 148.526 82.6641 149.32 82.6641 150.414V156H81.3672ZM88.1016 155.086C88.3307 155.086 88.5521 155.07 88.7656 155.039C88.9792 155.003 89.1484 154.966 89.2734 154.93V155.922C89.1328 155.99 88.9245 156.044 88.6484 156.086C88.3776 156.133 88.1328 156.156 87.9141 156.156C86.2578 156.156 85.4297 155.284 85.4297 153.539V148.445H84.2031V147.82L85.4297 147.281L85.9766 145.453H86.7266V147.438H89.2109V148.445H86.7266V153.484C86.7266 154 86.849 154.396 87.0938 154.672C87.3385 154.948 87.6745 155.086 88.1016 155.086ZM94.8984 147.281C95.2786 147.281 95.6198 147.312 95.9219 147.375L95.7422 148.578C95.388 148.5 95.0755 148.461 94.8047 148.461C94.112 148.461 93.5182 148.742 93.0234 149.305C92.5339 149.867 92.2891 150.568 92.2891 151.406V156H90.9922V147.438H92.0625L92.2109 149.023H92.2734C92.5911 148.466 92.974 148.036 93.4219 147.734C93.8698 147.432 94.362 147.281 94.8984 147.281ZM102.789 156L102.531 154.781H102.469C102.042 155.318 101.615 155.682 101.188 155.875C100.766 156.062 100.237 156.156 99.6016 156.156C98.7526 156.156 98.0859 155.938 97.6016 155.5C97.1224 155.062 96.8828 154.44 96.8828 153.633C96.8828 151.904 98.2656 150.997 101.031 150.914L102.484 150.867V150.336C102.484 149.664 102.339 149.169 102.047 148.852C101.76 148.529 101.299 148.367 100.664 148.367C99.9505 148.367 99.1432 148.586 98.2422 149.023L97.8438 148.031C98.2656 147.802 98.7266 147.622 99.2266 147.492C99.7318 147.362 100.237 147.297 100.742 147.297C101.763 147.297 102.518 147.523 103.008 147.977C103.503 148.43 103.75 149.156 103.75 150.156V156H102.789ZM99.8594 155.086C100.667 155.086 101.299 154.865 101.758 154.422C102.221 153.979 102.453 153.359 102.453 152.562V151.789L101.156 151.844C100.125 151.88 99.3802 152.042 98.9219 152.328C98.4688 152.609 98.2422 153.049 98.2422 153.648C98.2422 154.117 98.3828 154.474 98.6641 154.719C98.9505 154.964 99.349 155.086 99.8594 155.086ZM112.258 154.852H112.188C111.589 155.721 110.693 156.156 109.5 156.156C108.38 156.156 107.508 155.773 106.883 155.008C106.263 154.242 105.953 153.154 105.953 151.742C105.953 150.331 106.266 149.234 106.891 148.453C107.516 147.672 108.385 147.281 109.5 147.281C110.661 147.281 111.552 147.703 112.172 148.547H112.273L112.219 147.93L112.188 147.328V143.844H113.484V156H112.43L112.258 154.852ZM109.664 155.07C110.549 155.07 111.19 154.831 111.586 154.352C111.987 153.867 112.188 153.089 112.188 152.016V151.742C112.188 150.529 111.984 149.664 111.578 149.148C111.177 148.628 110.534 148.367 109.648 148.367C108.888 148.367 108.305 148.664 107.898 149.258C107.497 149.846 107.297 150.68 107.297 151.758C107.297 152.852 107.497 153.677 107.898 154.234C108.299 154.792 108.888 155.07 109.664 155.07ZM121.508 156L121.25 154.781H121.188C120.76 155.318 120.333 155.682 119.906 155.875C119.484 156.062 118.956 156.156 118.32 156.156C117.471 156.156 116.805 155.938 116.32 155.5C115.841 155.062 115.602 154.44 115.602 153.633C115.602 151.904 116.984 150.997 119.75 150.914L121.203 150.867V150.336C121.203 149.664 121.057 149.169 120.766 148.852C120.479 148.529 120.018 148.367 119.383 148.367C118.669 148.367 117.862 148.586 116.961 149.023L116.562 148.031C116.984 147.802 117.445 147.622 117.945 147.492C118.451 147.362 118.956 147.297 119.461 147.297C120.482 147.297 121.237 147.523 121.727 147.977C122.221 148.43 122.469 149.156 122.469 150.156V156H121.508ZM118.578 155.086C119.385 155.086 120.018 154.865 120.477 154.422C120.94 153.979 121.172 153.359 121.172 152.562V151.789L119.875 151.844C118.844 151.88 118.099 152.042 117.641 152.328C117.188 152.609 116.961 153.049 116.961 153.648C116.961 154.117 117.102 154.474 117.383 154.719C117.669 154.964 118.068 155.086 118.578 155.086Z" fill="#9B9B9B"/>
<rect x="24.5" y="269.5" width="311" height="66" rx="3.5" fill="#FFFBE6" stroke="#CCCCCC"/>
<path d="M150.012 312H147.75L143.145 304.465L138.457 312H136.348L142.043 303.047L136.734 294.867H138.938L143.191 301.652L147.48 294.867H149.602L144.293 302.977L150.012 312ZM163.863 312H161.602L156.996 304.465L152.309 312H150.199L155.895 303.047L150.586 294.867H152.789L157.043 301.652L161.332 294.867H163.453L158.145 302.977L163.863 312ZM177.715 312H175.453L170.848 304.465L166.16 312H164.051L169.746 303.047L164.438 294.867H166.641L170.895 301.652L175.184 294.867H177.305L171.996 302.977L177.715 312ZM178.793 306.457V304.676H184.547V306.457H178.793ZM197.977 302.18C197.977 308.883 195.383 312.234 190.195 312.234C189.289 312.234 188.57 312.156 188.039 312V310.324C188.664 310.527 189.375 310.629 190.172 310.629C192.047 310.629 193.461 310.051 194.414 308.895C195.375 307.73 195.898 305.949 195.984 303.551H195.844C195.414 304.199 194.844 304.695 194.133 305.039C193.422 305.375 192.621 305.543 191.73 305.543C190.215 305.543 189.012 305.09 188.121 304.184C187.23 303.277 186.785 302.012 186.785 300.387C186.785 298.605 187.281 297.199 188.273 296.168C189.273 295.137 190.586 294.621 192.211 294.621C193.375 294.621 194.391 294.922 195.258 295.523C196.133 296.117 196.805 296.988 197.273 298.137C197.742 299.277 197.977 300.625 197.977 302.18ZM192.211 296.285C191.094 296.285 190.23 296.645 189.621 297.363C189.012 298.082 188.707 299.082 188.707 300.363C188.707 301.488 188.988 302.375 189.551 303.023C190.113 303.664 190.969 303.984 192.117 303.984C192.828 303.984 193.48 303.84 194.074 303.551C194.676 303.262 195.148 302.867 195.492 302.367C195.836 301.867 196.008 301.344 196.008 300.797C196.008 299.977 195.848 299.219 195.527 298.523C195.207 297.828 194.758 297.281 194.18 296.883C193.609 296.484 192.953 296.285 192.211 296.285ZM211.711 302.18C211.711 308.883 209.117 312.234 203.93 312.234C203.023 312.234 202.305 312.156 201.773 312V310.324C202.398 310.527 203.109 310.629 203.906 310.629C205.781 310.629 207.195 310.051 208.148 308.895C209.109 307.73 209.633 305.949 209.719 303.551H209.578C209.148 304.199 208.578 304.695 207.867 305.039C207.156 305.375 206.355 305.543 205.465 305.543C203.949 305.543 202.746 305.09 201.855 304.184C200.965 303.277 200.52 302.012 200.52 300.387C200.52 298.605 201.016 297.199 202.008 296.168C203.008 295.137 204.32 294.621 205.945 294.621C207.109 294.621 208.125 294.922 208.992 295.523C209.867 296.117 210.539 296.988 211.008 298.137C211.477 299.277 211.711 300.625 211.711 302.18ZM205.945 296.285C204.828 296.285 203.965 296.645 203.355 297.363C202.746 298.082 202.441 299.082 202.441 300.363C202.441 301.488 202.723 302.375 203.285 303.023C203.848 303.664 204.703 303.984 205.852 303.984C206.562 303.984 207.215 303.84 207.809 303.551C208.41 303.262 208.883 302.867 209.227 302.367C209.57 301.867 209.742 301.344 209.742 300.797C209.742 299.977 209.582 299.219 209.262 298.523C208.941 297.828 208.492 297.281 207.914 296.883C207.344 296.484 206.688 296.285 205.945 296.285ZM225.445 302.18C225.445 308.883 222.852 312.234 217.664 312.234C216.758 312.234 216.039 312.156 215.508 312V310.324C216.133 310.527 216.844 310.629 217.641 310.629C219.516 310.629 220.93 310.051 221.883 308.895C222.844 307.73 223.367 305.949 223.453 303.551H223.312C222.883 304.199 222.312 304.695 221.602 305.039C220.891 305.375 220.09 305.543 219.199 305.543C217.684 305.543 216.48 305.09 215.59 304.184C214.699 303.277 214.254 302.012 214.254 300.387C214.254 298.605 214.75 297.199 215.742 296.168C216.742 295.137 218.055 294.621 219.68 294.621C220.844 294.621 221.859 294.922 222.727 295.523C223.602 296.117 224.273 296.988 224.742 298.137C225.211 299.277 225.445 300.625 225.445 302.18ZM219.68 296.285C218.562 296.285 217.699 296.645 217.09 297.363C216.48 298.082 216.176 299.082 216.176 300.363C216.176 301.488 216.457 302.375 217.02 303.023C217.582 303.664 218.438 303.984 219.586 303.984C220.297 303.984 220.949 303.84 221.543 303.551C222.145 303.262 222.617 302.867 222.961 302.367C223.305 301.867 223.477 301.344 223.477 300.797C223.477 299.977 223.316 299.219 222.996 298.523C222.676 297.828 222.227 297.281 221.648 296.883C221.078 296.484 220.422 296.285 219.68 296.285Z" fill="#9B9B9B"/>
<path d="M34.7109 257H33.1953L26.9531 247.414H26.8906C26.974 248.539 27.0156 249.57 27.0156 250.508V257H25.7891V245.578H27.2891L33.5156 255.125H33.5781C33.5677 254.984 33.5443 254.534 33.5078 253.773C33.4714 253.008 33.4583 252.461 33.4688 252.133V245.578H34.7109V257ZM38.875 248.438V253.992C38.875 254.69 39.0339 255.211 39.3516 255.555C39.6693 255.898 40.1667 256.07 40.8438 256.07C41.7396 256.07 42.3932 255.826 42.8047 255.336C43.2214 254.846 43.4297 254.047 43.4297 252.938V248.438H44.7266V257H43.6562L43.4688 255.852H43.3984C43.1328 256.273 42.763 256.596 42.2891 256.82C41.8203 257.044 41.2839 257.156 40.6797 257.156C39.638 257.156 38.8568 256.909 38.3359 256.414C37.8203 255.919 37.5625 255.128 37.5625 254.039V248.438H38.875ZM40.2344 247.109C40.4844 246.786 40.7526 246.396 41.0391 245.938C41.3307 245.479 41.5599 245.081 41.7266 244.742H43.3047V244.906C43.0755 245.245 42.7344 245.661 42.2812 246.156C41.8281 246.651 41.4349 247.034 41.1016 247.305H40.2344V247.109ZM58.3984 257V251.43C58.3984 250.747 58.2526 250.237 57.9609 249.898C57.6693 249.555 57.2161 249.383 56.6016 249.383C55.7943 249.383 55.1979 249.615 54.8125 250.078C54.4271 250.542 54.2344 251.255 54.2344 252.219V257H52.9375V251.43C52.9375 250.747 52.7917 250.237 52.5 249.898C52.2083 249.555 51.7526 249.383 51.1328 249.383C50.3203 249.383 49.724 249.628 49.3438 250.117C48.9688 250.602 48.7812 251.398 48.7812 252.508V257H47.4844V248.438H48.5391L48.75 249.609H48.8125C49.0573 249.193 49.401 248.867 49.8438 248.633C50.2917 248.398 50.7917 248.281 51.3438 248.281C52.6823 248.281 53.5573 248.766 53.9688 249.734H54.0312C54.2865 249.286 54.6562 248.932 55.1406 248.672C55.625 248.411 56.1771 248.281 56.7969 248.281C57.7656 248.281 58.4896 248.531 58.9688 249.031C59.4531 249.526 59.6953 250.32 59.6953 251.414V257H58.3984ZM65.9922 257.156C64.7266 257.156 63.7266 256.771 62.9922 256C62.263 255.229 61.8984 254.159 61.8984 252.789C61.8984 251.409 62.237 250.312 62.9141 249.5C63.5964 248.688 64.5104 248.281 65.6562 248.281C66.7292 248.281 67.5781 248.635 68.2031 249.344C68.8281 250.047 69.1406 250.977 69.1406 252.133V252.953H63.2422C63.2682 253.958 63.5208 254.721 64 255.242C64.4844 255.763 65.1641 256.023 66.0391 256.023C66.9609 256.023 67.8724 255.831 68.7734 255.445V256.602C68.3151 256.799 67.8802 256.94 67.4688 257.023C67.0625 257.112 66.5703 257.156 65.9922 257.156ZM65.6406 249.367C64.9531 249.367 64.4036 249.591 63.9922 250.039C63.5859 250.487 63.3464 251.107 63.2734 251.898H67.75C67.75 251.081 67.5677 250.456 67.2031 250.023C66.8385 249.586 66.3177 249.367 65.6406 249.367ZM75.2656 248.281C75.6458 248.281 75.987 248.312 76.2891 248.375L76.1094 249.578C75.7552 249.5 75.4427 249.461 75.1719 249.461C74.4792 249.461 73.8854 249.742 73.3906 250.305C72.901 250.867 72.6562 251.568 72.6562 252.406V257H71.3594V248.438H72.4297L72.5781 250.023H72.6406C72.9583 249.466 73.3411 249.036 73.7891 248.734C74.237 248.432 74.7292 248.281 75.2656 248.281ZM85.2812 252.711C85.2812 254.107 84.9297 255.198 84.2266 255.984C83.5234 256.766 82.5521 257.156 81.3125 257.156C80.5469 257.156 79.8672 256.977 79.2734 256.617C78.6797 256.258 78.2214 255.742 77.8984 255.07C77.5755 254.398 77.4141 253.612 77.4141 252.711C77.4141 251.315 77.763 250.229 78.4609 249.453C79.1589 248.672 80.1276 248.281 81.3672 248.281C82.5651 248.281 83.5156 248.68 84.2188 249.477C84.9271 250.273 85.2812 251.352 85.2812 252.711ZM78.7578 252.711C78.7578 253.805 78.9766 254.638 79.4141 255.211C79.8516 255.784 80.4948 256.07 81.3438 256.07C82.1927 256.07 82.8359 255.786 83.2734 255.219C83.7161 254.646 83.9375 253.81 83.9375 252.711C83.9375 251.622 83.7161 250.797 83.2734 250.234C82.8359 249.667 82.1875 249.383 81.3281 249.383C80.4792 249.383 79.8385 249.661 79.4062 250.219C78.974 250.776 78.7578 251.607 78.7578 252.711ZM97.5469 255.852H97.4766C96.8776 256.721 95.9818 257.156 94.7891 257.156C93.6693 257.156 92.7969 256.773 92.1719 256.008C91.5521 255.242 91.2422 254.154 91.2422 252.742C91.2422 251.331 91.5547 250.234 92.1797 249.453C92.8047 248.672 93.6745 248.281 94.7891 248.281C95.9505 248.281 96.8411 248.703 97.4609 249.547H97.5625L97.5078 248.93L97.4766 248.328V244.844H98.7734V257H97.7188L97.5469 255.852ZM94.9531 256.07C95.8385 256.07 96.4792 255.831 96.875 255.352C97.276 254.867 97.4766 254.089 97.4766 253.016V252.742C97.4766 251.529 97.2734 250.664 96.8672 250.148C96.4661 249.628 95.8229 249.367 94.9375 249.367C94.1771 249.367 93.5938 249.664 93.1875 250.258C92.7865 250.846 92.5859 251.68 92.5859 252.758C92.5859 253.852 92.7865 254.677 93.1875 255.234C93.5885 255.792 94.1771 256.07 94.9531 256.07ZM106.797 257L106.539 255.781H106.477C106.049 256.318 105.622 256.682 105.195 256.875C104.773 257.062 104.245 257.156 103.609 257.156C102.76 257.156 102.094 256.938 101.609 256.5C101.13 256.062 100.891 255.44 100.891 254.633C100.891 252.904 102.273 251.997 105.039 251.914L106.492 251.867V251.336C106.492 250.664 106.346 250.169 106.055 249.852C105.768 249.529 105.307 249.367 104.672 249.367C103.958 249.367 103.151 249.586 102.25 250.023L101.852 249.031C102.273 248.802 102.734 248.622 103.234 248.492C103.74 248.362 104.245 248.297 104.75 248.297C105.771 248.297 106.526 248.523 107.016 248.977C107.51 249.43 107.758 250.156 107.758 251.156V257H106.797ZM103.867 256.086C104.674 256.086 105.307 255.865 105.766 255.422C106.229 254.979 106.461 254.359 106.461 253.562V252.789L105.164 252.844C104.133 252.88 103.388 253.042 102.93 253.328C102.477 253.609 102.25 254.049 102.25 254.648C102.25 255.117 102.391 255.474 102.672 255.719C102.958 255.964 103.357 256.086 103.867 256.086ZM118.578 257.156C118.021 257.156 117.51 257.055 117.047 256.852C116.589 256.643 116.203 256.326 115.891 255.898H115.797C115.859 256.398 115.891 256.872 115.891 257.32V260.844H114.594V248.438H115.648L115.828 249.609H115.891C116.224 249.141 116.612 248.802 117.055 248.594C117.497 248.385 118.005 248.281 118.578 248.281C119.714 248.281 120.589 248.669 121.203 249.445C121.823 250.221 122.133 251.31 122.133 252.711C122.133 254.117 121.818 255.211 121.188 255.992C120.562 256.768 119.693 257.156 118.578 257.156ZM118.391 249.383C117.516 249.383 116.883 249.625 116.492 250.109C116.102 250.594 115.901 251.365 115.891 252.422V252.711C115.891 253.914 116.091 254.776 116.492 255.297C116.893 255.812 117.536 256.07 118.422 256.07C119.161 256.07 119.74 255.771 120.156 255.172C120.578 254.573 120.789 253.747 120.789 252.695C120.789 251.628 120.578 250.81 120.156 250.242C119.74 249.669 119.151 249.383 118.391 249.383ZM125.703 257H124.406V244.844H125.703V257ZM133.719 257L133.461 255.781H133.398C132.971 256.318 132.544 256.682 132.117 256.875C131.695 257.062 131.167 257.156 130.531 257.156C129.682 257.156 129.016 256.938 128.531 256.5C128.052 256.062 127.812 255.44 127.812 254.633C127.812 252.904 129.195 251.997 131.961 251.914L133.414 251.867V251.336C133.414 250.664 133.268 250.169 132.977 249.852C132.69 249.529 132.229 249.367 131.594 249.367C130.88 249.367 130.073 249.586 129.172 250.023L128.773 249.031C129.195 248.802 129.656 248.622 130.156 248.492C130.661 248.362 131.167 248.297 131.672 248.297C132.693 248.297 133.448 248.523 133.938 248.977C134.432 249.43 134.68 250.156 134.68 251.156V257H133.719ZM130.789 256.086C131.596 256.086 132.229 255.865 132.688 255.422C133.151 254.979 133.383 254.359 133.383 253.562V252.789L132.086 252.844C131.055 252.88 130.31 253.042 129.852 253.328C129.398 253.609 129.172 254.049 129.172 254.648C129.172 255.117 129.312 255.474 129.594 255.719C129.88 255.964 130.279 256.086 130.789 256.086ZM140.781 257.156C139.542 257.156 138.581 256.776 137.898 256.016C137.221 255.25 136.883 254.169 136.883 252.773C136.883 251.341 137.227 250.234 137.914 249.453C138.607 248.672 139.591 248.281 140.867 248.281C141.279 248.281 141.69 248.326 142.102 248.414C142.513 248.503 142.836 248.607 143.07 248.727L142.672 249.828C142.385 249.714 142.073 249.62 141.734 249.547C141.396 249.469 141.096 249.43 140.836 249.43C139.096 249.43 138.227 250.539 138.227 252.758C138.227 253.81 138.438 254.617 138.859 255.18C139.286 255.742 139.917 256.023 140.75 256.023C141.464 256.023 142.195 255.87 142.945 255.562V256.711C142.372 257.008 141.651 257.156 140.781 257.156ZM150.25 257L149.992 255.781H149.93C149.503 256.318 149.076 256.682 148.648 256.875C148.227 257.062 147.698 257.156 147.062 257.156C146.214 257.156 145.547 256.938 145.062 256.5C144.583 256.062 144.344 255.44 144.344 254.633C144.344 252.904 145.727 251.997 148.492 251.914L149.945 251.867V251.336C149.945 250.664 149.799 250.169 149.508 249.852C149.221 249.529 148.76 249.367 148.125 249.367C147.411 249.367 146.604 249.586 145.703 250.023L145.305 249.031C145.727 248.802 146.188 248.622 146.688 248.492C147.193 248.362 147.698 248.297 148.203 248.297C149.224 248.297 149.979 248.523 150.469 248.977C150.964 249.43 151.211 250.156 151.211 251.156V257H150.25ZM147.32 256.086C148.128 256.086 148.76 255.865 149.219 255.422C149.682 254.979 149.914 254.359 149.914 253.562V252.789L148.617 252.844C147.586 252.88 146.841 253.042 146.383 253.328C145.93 253.609 145.703 254.049 145.703 254.648C145.703 255.117 145.844 255.474 146.125 255.719C146.411 255.964 146.81 256.086 147.32 256.086ZM153.703 256.172C153.703 255.823 153.781 255.56 153.938 255.383C154.099 255.201 154.328 255.109 154.625 255.109C154.927 255.109 155.161 255.201 155.328 255.383C155.5 255.56 155.586 255.823 155.586 256.172C155.586 256.51 155.5 256.771 155.328 256.953C155.156 257.135 154.922 257.227 154.625 257.227C154.359 257.227 154.138 257.146 153.961 256.984C153.789 256.818 153.703 256.547 153.703 256.172ZM153.703 249.273C153.703 248.57 154.01 248.219 154.625 248.219C155.266 248.219 155.586 248.57 155.586 249.273C155.586 249.612 155.5 249.872 155.328 250.055C155.156 250.237 154.922 250.328 154.625 250.328C154.359 250.328 154.138 250.247 153.961 250.086C153.789 249.919 153.703 249.648 153.703 249.273Z" fill="#9B9B9B"/>
<rect x="24" y="320" width="312" height="67" rx="4" fill="#A769B2"/>
<path d="M141.887 352.529C141.887 353.647 141.521 354.504 140.788 355.1C140.056 355.696 139.013 355.994 137.661 355.994H136.547V360H134.797V349.292H137.88C139.218 349.292 140.219 349.565 140.883 350.112C141.552 350.659 141.887 351.465 141.887 352.529ZM136.547 354.521H137.478C138.376 354.521 139.035 354.365 139.455 354.053C139.875 353.74 140.085 353.252 140.085 352.588C140.085 351.973 139.897 351.514 139.521 351.211C139.145 350.908 138.559 350.757 137.763 350.757H136.547V354.521ZM150.668 360L149.599 357.026H145.505L144.458 360H142.612L146.618 349.248H148.522L152.529 360H150.668ZM149.138 355.518L148.134 352.603C148.061 352.407 147.958 352.1 147.827 351.68C147.7 351.26 147.612 350.952 147.563 350.757C147.431 351.357 147.238 352.014 146.984 352.727L146.018 355.518H149.138ZM158.322 354.192H162.263V359.568C161.618 359.778 160.998 359.927 160.402 360.015C159.812 360.103 159.172 360.146 158.483 360.146C156.862 360.146 155.612 359.668 154.733 358.711C153.854 357.749 153.415 356.394 153.415 354.646C153.415 352.922 153.911 351.575 154.902 350.603C155.893 349.626 157.258 349.138 158.996 349.138C160.114 349.138 161.174 349.353 162.175 349.783L161.56 351.24C160.69 350.84 159.821 350.64 158.952 350.64C157.81 350.64 156.906 350.999 156.242 351.716C155.578 352.434 155.246 353.416 155.246 354.661C155.246 355.969 155.544 356.965 156.14 357.649C156.74 358.328 157.602 358.667 158.725 358.667C159.292 358.667 159.897 358.596 160.542 358.455V355.693H158.322V354.192ZM171.484 360L170.415 357.026H166.32L165.273 360H163.427L167.434 349.248H169.338L173.344 360H171.484ZM169.953 355.518L168.95 352.603C168.876 352.407 168.774 352.1 168.642 351.68C168.515 351.26 168.427 350.952 168.378 350.757C168.247 351.357 168.054 352.014 167.8 352.727L166.833 355.518H169.953ZM179.387 360L176.281 351.057H176.223C176.306 352.385 176.347 353.63 176.347 354.792V360H174.758V349.292H177.226L180.2 357.81H180.244L183.305 349.292H185.781V360H184.096V354.705C184.096 354.172 184.108 353.479 184.133 352.625C184.162 351.77 184.187 351.252 184.206 351.072H184.147L180.932 360H179.387ZM194.658 360H188.601V349.292H194.658V350.771H190.351V353.687H194.387V355.151H190.351V358.513H194.658V360ZM205.9 360H203.754L198.488 351.467H198.43L198.466 351.943C198.535 352.852 198.569 353.682 198.569 354.434V360H196.979V349.292H199.104L204.355 357.781H204.399C204.389 357.668 204.37 357.261 204.34 356.558C204.311 355.85 204.296 355.298 204.296 354.902V349.292H205.9V360ZM212.426 360H210.676V350.793H207.526V349.292H215.576V350.793H212.426V360ZM226.73 354.631C226.73 356.375 226.293 357.729 225.419 358.696C224.55 359.663 223.317 360.146 221.721 360.146C220.104 360.146 218.862 359.668 217.993 358.711C217.128 357.749 216.696 356.384 216.696 354.617C216.696 352.849 217.131 351.492 218 350.544C218.874 349.597 220.119 349.124 221.735 349.124C223.327 349.124 224.558 349.604 225.427 350.566C226.296 351.528 226.73 352.883 226.73 354.631ZM218.557 354.631C218.557 355.95 218.823 356.951 219.355 357.634C219.887 358.313 220.676 358.652 221.721 358.652C222.761 358.652 223.544 358.315 224.072 357.642C224.604 356.968 224.87 355.964 224.87 354.631C224.87 353.318 224.606 352.322 224.079 351.643C223.557 350.964 222.775 350.625 221.735 350.625C220.686 350.625 219.892 350.964 219.355 351.643C218.823 352.322 218.557 353.318 218.557 354.631Z" fill="white"/>
<rect x="25" y="404" width="310" height="65" rx="3" stroke="#A769B2" stroke-width="2"/>
<path d="M131.968 432.292H133.784L130.034 443H128.188L124.453 432.292H126.255L128.489 438.95C128.606 439.267 128.73 439.677 128.862 440.18C128.994 440.678 129.08 441.049 129.119 441.293C129.182 440.922 129.28 440.493 129.412 440.004C129.543 439.516 129.651 439.155 129.734 438.92L131.968 432.292ZM141.255 443H135.198V432.292H141.255V433.771H136.948V436.687H140.984V438.151H136.948V441.513H141.255V443ZM145.327 437.272H146.543C147.358 437.272 147.949 437.121 148.315 436.818C148.682 436.516 148.865 436.066 148.865 435.471C148.865 434.865 148.667 434.431 148.271 434.167C147.876 433.903 147.28 433.771 146.484 433.771H145.327V437.272ZM145.327 438.723V443H143.577V432.292H146.602C147.983 432.292 149.006 432.551 149.67 433.068C150.334 433.586 150.667 434.367 150.667 435.412C150.667 436.745 149.973 437.695 148.586 438.261L151.611 443H149.619L147.056 438.723H145.327ZM165.513 443H163.755V438.173H158.818V443H157.068V432.292H158.818V436.672H163.755V432.292H165.513V443ZM168.333 443V432.292H170.083V443H168.333ZM179.092 440.092C179.092 441.044 178.748 441.792 178.059 442.333C177.371 442.875 176.421 443.146 175.21 443.146C173.999 443.146 173.008 442.958 172.236 442.583V440.927C172.725 441.157 173.242 441.337 173.789 441.469C174.341 441.601 174.854 441.667 175.327 441.667C176.021 441.667 176.531 441.535 176.858 441.271C177.19 441.008 177.356 440.654 177.356 440.209C177.356 439.809 177.205 439.47 176.902 439.191C176.599 438.913 175.974 438.583 175.027 438.203C174.05 437.807 173.362 437.355 172.961 436.848C172.561 436.34 172.361 435.729 172.361 435.017C172.361 434.123 172.678 433.42 173.313 432.907C173.948 432.395 174.8 432.138 175.869 432.138C176.895 432.138 177.915 432.363 178.931 432.812L178.374 434.24C177.422 433.84 176.572 433.64 175.825 433.64C175.259 433.64 174.829 433.764 174.536 434.013C174.243 434.257 174.097 434.582 174.097 434.987C174.097 435.266 174.155 435.505 174.272 435.705C174.39 435.9 174.583 436.086 174.851 436.262C175.12 436.438 175.603 436.669 176.301 436.958C177.087 437.285 177.664 437.59 178.03 437.873C178.396 438.156 178.665 438.476 178.835 438.833C179.006 439.189 179.092 439.609 179.092 440.092ZM184.863 443H183.113V433.793H179.963V432.292H188.013V433.793H184.863V443ZM199.167 437.631C199.167 439.375 198.73 440.729 197.856 441.696C196.987 442.663 195.754 443.146 194.158 443.146C192.542 443.146 191.299 442.668 190.43 441.711C189.565 440.749 189.133 439.384 189.133 437.617C189.133 435.849 189.568 434.492 190.437 433.544C191.311 432.597 192.556 432.124 194.172 432.124C195.764 432.124 196.995 432.604 197.864 433.566C198.733 434.528 199.167 435.883 199.167 437.631ZM190.994 437.631C190.994 438.95 191.26 439.951 191.792 440.634C192.324 441.313 193.113 441.652 194.158 441.652C195.198 441.652 195.981 441.315 196.509 440.642C197.041 439.968 197.307 438.964 197.307 437.631C197.307 436.318 197.043 435.322 196.516 434.643C195.994 433.964 195.212 433.625 194.172 433.625C193.123 433.625 192.329 433.964 191.792 434.643C191.26 435.322 190.994 436.318 190.994 437.631ZM193.059 431.435V431.252C193.337 430.91 193.623 430.529 193.916 430.109C194.214 429.689 194.448 429.331 194.619 429.033H196.619V429.187C196.365 429.484 195.984 429.87 195.476 430.344C194.973 430.812 194.548 431.176 194.202 431.435H193.059ZM203.218 437.272H204.434C205.249 437.272 205.84 437.121 206.206 436.818C206.572 436.516 206.755 436.066 206.755 435.471C206.755 434.865 206.558 434.431 206.162 434.167C205.767 433.903 205.171 433.771 204.375 433.771H203.218V437.272ZM203.218 438.723V443H201.467V432.292H204.492C205.874 432.292 206.897 432.551 207.561 433.068C208.225 433.586 208.557 434.367 208.557 435.412C208.557 436.745 207.864 437.695 206.477 438.261L209.502 443H207.51L204.946 438.723H203.218ZM211.062 443V432.292H212.812V443H211.062ZM220.203 433.64C219.197 433.64 218.406 433.996 217.83 434.709C217.253 435.422 216.965 436.406 216.965 437.661C216.965 438.974 217.241 439.968 217.793 440.642C218.35 441.315 219.153 441.652 220.203 441.652C220.657 441.652 221.096 441.608 221.521 441.521C221.946 441.428 222.388 441.311 222.847 441.169V442.67C222.007 442.988 221.055 443.146 219.99 443.146C218.423 443.146 217.219 442.673 216.379 441.726C215.54 440.773 215.12 439.414 215.12 437.646C215.12 436.533 215.322 435.559 215.728 434.724C216.138 433.889 216.729 433.249 217.5 432.805C218.271 432.36 219.177 432.138 220.217 432.138C221.311 432.138 222.322 432.368 223.25 432.827L222.62 434.284C222.258 434.113 221.875 433.964 221.47 433.837C221.069 433.706 220.647 433.64 220.203 433.64ZM234.661 437.631C234.661 439.375 234.224 440.729 233.35 441.696C232.48 442.663 231.248 443.146 229.651 443.146C228.035 443.146 226.792 442.668 225.923 441.711C225.059 440.749 224.626 439.384 224.626 437.617C224.626 435.849 225.061 434.492 225.93 433.544C226.804 432.597 228.049 432.124 229.666 432.124C231.257 432.124 232.488 432.604 233.357 433.566C234.226 434.528 234.661 435.883 234.661 437.631ZM226.487 437.631C226.487 438.95 226.753 439.951 227.285 440.634C227.817 441.313 228.606 441.652 229.651 441.652C230.691 441.652 231.475 441.315 232.002 440.642C232.534 439.968 232.8 438.964 232.8 437.631C232.8 436.318 232.537 435.322 232.009 434.643C231.487 433.964 230.706 433.625 229.666 433.625C228.616 433.625 227.822 433.964 227.285 434.643C226.753 435.322 226.487 436.318 226.487 437.631Z" fill="#A769B2"/>
<rect opacity="0.507404" y="23" width="360" height="568" fill="black"/>
<rect opacity="0.95" x="11" y="184" width="339" height="294" rx="4" fill="white"/>
<path d="M126.914 380.961C126.914 381.966 126.549 382.75 125.82 383.312C125.091 383.875 124.102 384.156 122.852 384.156C121.497 384.156 120.456 383.982 119.727 383.633V382.352C120.195 382.549 120.706 382.706 121.258 382.82C121.81 382.935 122.357 382.992 122.898 382.992C123.784 382.992 124.451 382.826 124.898 382.492C125.346 382.154 125.57 381.685 125.57 381.086C125.57 380.69 125.49 380.367 125.328 380.117C125.172 379.862 124.906 379.628 124.531 379.414C124.161 379.201 123.596 378.958 122.836 378.688C121.773 378.307 121.013 377.857 120.555 377.336C120.102 376.815 119.875 376.135 119.875 375.297C119.875 374.417 120.206 373.716 120.867 373.195C121.529 372.674 122.404 372.414 123.492 372.414C124.628 372.414 125.672 372.622 126.625 373.039L126.211 374.195C125.268 373.799 124.352 373.602 123.461 373.602C122.758 373.602 122.208 373.753 121.812 374.055C121.417 374.357 121.219 374.776 121.219 375.312C121.219 375.708 121.292 376.034 121.438 376.289C121.583 376.539 121.828 376.771 122.172 376.984C122.521 377.193 123.052 377.424 123.766 377.68C124.964 378.107 125.786 378.565 126.234 379.055C126.688 379.544 126.914 380.18 126.914 380.961ZM136.43 384L135.008 380.367H130.43L129.023 384H127.68L132.195 372.531H133.312L137.805 384H136.43ZM134.594 379.172L133.266 375.633C133.094 375.185 132.917 374.635 132.734 373.984C132.62 374.484 132.456 375.034 132.242 375.633L130.898 379.172H134.594ZM139.375 384V372.578H140.703V384H139.375ZM139.203 371.469C139.453 371.146 139.721 370.755 140.008 370.297C140.299 369.839 140.529 369.44 140.695 369.102H142.273V369.266C142.044 369.604 141.703 370.021 141.25 370.516C140.797 371.01 140.404 371.393 140.07 371.664H139.203V371.469ZM152.961 378.18C152.961 380.065 152.448 381.508 151.422 382.508C150.401 383.503 148.93 384 147.008 384H143.844V372.578H147.344C149.12 372.578 150.5 373.07 151.484 374.055C152.469 375.039 152.961 376.414 152.961 378.18ZM151.555 378.227C151.555 376.737 151.18 375.615 150.43 374.859C149.685 374.104 148.576 373.727 147.102 373.727H145.172V382.852H146.789C148.372 382.852 149.562 382.464 150.359 381.688C151.156 380.906 151.555 379.753 151.555 378.227ZM162.695 384L161.273 380.367H156.695L155.289 384H153.945L158.461 372.531H159.578L164.07 384H162.695ZM160.859 379.172L159.531 375.633C159.359 375.185 159.182 374.635 159 373.984C158.885 374.484 158.721 375.034 158.508 375.633L157.164 379.172H160.859ZM169.797 384V372.578H171.125V382.797H176.164V384H169.797ZM178.109 384V372.578H179.438V384H178.109ZM182.578 372.578H185.805C187.32 372.578 188.417 372.805 189.094 373.258C189.771 373.711 190.109 374.427 190.109 375.406C190.109 376.083 189.919 376.643 189.539 377.086C189.164 377.523 188.615 377.807 187.891 377.938V378.016C189.625 378.312 190.492 379.224 190.492 380.75C190.492 381.771 190.146 382.568 189.453 383.141C188.766 383.714 187.802 384 186.562 384H182.578V372.578ZM183.906 377.469H186.094C187.031 377.469 187.706 377.323 188.117 377.031C188.529 376.734 188.734 376.237 188.734 375.539C188.734 374.898 188.505 374.438 188.047 374.156C187.589 373.87 186.859 373.727 185.859 373.727H183.906V377.469ZM183.906 378.594V382.867H186.289C187.211 382.867 187.904 382.69 188.367 382.336C188.836 381.977 189.07 381.417 189.07 380.656C189.07 379.948 188.831 379.427 188.352 379.094C187.878 378.76 187.154 378.594 186.18 378.594H183.906ZM199.32 384H192.953V372.578H199.32V373.758H194.281V377.438H199.016V378.609H194.281V382.812H199.32V384ZM203.188 379.25V384H201.859V372.578H204.992C206.393 372.578 207.427 372.846 208.094 373.383C208.766 373.919 209.102 374.727 209.102 375.805C209.102 377.315 208.336 378.336 206.805 378.867L209.906 384H208.336L205.57 379.25H203.188ZM203.188 378.109H205.008C205.945 378.109 206.633 377.924 207.07 377.555C207.508 377.18 207.727 376.62 207.727 375.875C207.727 375.12 207.503 374.576 207.055 374.242C206.612 373.909 205.898 373.742 204.914 373.742H203.188V378.109ZM218.93 384L217.508 380.367H212.93L211.523 384H210.18L214.695 372.531H215.812L220.305 384H218.93ZM217.094 379.172L215.766 375.633C215.594 375.185 215.417 374.635 215.234 373.984C215.12 374.484 214.956 375.034 214.742 375.633L213.398 379.172H217.094ZM230.992 378.18C230.992 380.065 230.479 381.508 229.453 382.508C228.432 383.503 226.961 384 225.039 384H221.875V372.578H225.375C227.151 372.578 228.531 373.07 229.516 374.055C230.5 375.039 230.992 376.414 230.992 378.18ZM229.586 378.227C229.586 376.737 229.211 375.615 228.461 374.859C227.716 374.104 226.607 373.727 225.133 373.727H223.203V382.852H224.82C226.404 382.852 227.594 382.464 228.391 381.688C229.188 380.906 229.586 379.753 229.586 378.227ZM240.727 384L239.305 380.367H234.727L233.32 384H231.977L236.492 372.531H237.609L242.102 384H240.727ZM238.891 379.172L237.562 375.633C237.391 375.185 237.214 374.635 237.031 373.984C236.917 374.484 236.753 375.034 236.539 375.633L235.195 379.172H238.891Z" fill="#4A4A4A"/>
<path fill-rule="evenodd" clip-rule="evenodd" d="M145 309C145 289.701 160.7 274 179.999 274C199.299 274 215 289.701 215 309C215 328.299 199.299 344 179.999 344C160.7 344 145 328.299 145 309ZM149.59 309C149.59 325.768 163.232 339.41 179.999 339.41C196.767 339.41 210.409 325.768 210.409 309C210.409 292.232 196.767 278.59 179.999 278.59C163.231 278.59 149.59 292.232 149.59 309Z" fill="#26C6DA"/>
<path d="M193.142 297.711L175.032 315.492L167.712 308.306C166.812 307.423 165.355 307.423 164.455 308.306C163.556 309.19 163.556 310.621 164.455 311.504L173.404 320.29C173.854 320.731 174.443 320.951 175.032 320.951C175.622 320.951 176.212 320.731 176.662 320.289C176.663 320.287 176.664 320.285 176.667 320.283L196.398 300.909C197.298 300.026 197.298 298.594 196.398 297.711C195.499 296.828 194.04 296.828 193.142 297.711Z" fill="#26C6DA"/>
</svg>
