<svg width="360" height="640" viewBox="0 0 360 640" fill="none" xmlns="http://www.w3.org/2000/svg">
<rect width="360" height="640" fill="#F2F2F2"/>
<path fill-rule="evenodd" clip-rule="evenodd" d="M0 0V24H360V0H0Z" fill="#757575"/>
<g opacity="0.9">
<path d="M321.696 17H320.042V9.00879L317.602 9.84277V8.44141L321.484 7.0127H321.696V17ZM331.848 17H325.155V15.8584L328.471 12.2422C328.949 11.709 329.289 11.2646 329.489 10.9092C329.694 10.5492 329.797 10.1891 329.797 9.8291C329.797 9.35514 329.662 8.97233 329.394 8.68066C329.129 8.389 328.771 8.24316 328.32 8.24316C327.783 8.24316 327.366 8.40723 327.069 8.73535C326.773 9.06348 326.625 9.51237 326.625 10.082H324.964C324.964 9.47591 325.101 8.93132 325.374 8.44824C325.652 7.96061 326.046 7.58236 326.557 7.31348C327.072 7.0446 327.664 6.91016 328.334 6.91016C329.3 6.91016 330.061 7.15397 330.617 7.6416C331.178 8.12467 331.458 8.7946 331.458 9.65137C331.458 10.1481 331.317 10.6699 331.034 11.2168C330.756 11.7591 330.298 12.3766 329.66 13.0693L327.227 15.6738H331.848V17ZM334.22 15.25C334.53 15.25 334.769 15.3389 334.938 15.5166C335.106 15.6898 335.19 15.9085 335.19 16.1729C335.19 16.4326 335.106 16.6491 334.938 16.8223C334.769 16.9909 334.53 17.0752 334.22 17.0752C333.924 17.0752 333.689 16.9909 333.516 16.8223C333.342 16.6536 333.256 16.4372 333.256 16.1729C333.256 15.9085 333.34 15.6898 333.509 15.5166C333.677 15.3389 333.914 15.25 334.22 15.25ZM334.22 9.44629C334.53 9.44629 334.769 9.53516 334.938 9.71289C335.106 9.88607 335.19 10.1048 335.19 10.3691C335.19 10.6289 335.106 10.8454 334.938 11.0186C334.769 11.1872 334.53 11.2715 334.22 11.2715C333.924 11.2715 333.689 11.1872 333.516 11.0186C333.342 10.8499 333.256 10.6335 333.256 10.3691C333.256 10.1048 333.34 9.88607 333.509 9.71289C333.677 9.53516 333.914 9.44629 334.22 9.44629ZM338.752 11.2646H339.764C340.274 11.2601 340.677 11.1279 340.974 10.8682C341.274 10.6084 341.425 10.2324 341.425 9.74023C341.425 9.26628 341.299 8.89941 341.049 8.63965C340.803 8.37533 340.424 8.24316 339.914 8.24316C339.467 8.24316 339.101 8.37305 338.813 8.63281C338.526 8.88802 338.383 9.22298 338.383 9.6377H336.722C336.722 9.12728 336.856 8.66243 337.125 8.24316C337.398 7.82389 337.777 7.49805 338.26 7.26562C338.747 7.02865 339.292 6.91016 339.894 6.91016C340.887 6.91016 341.666 7.16081 342.231 7.66211C342.801 8.15885 343.086 8.85156 343.086 9.74023C343.086 10.1868 342.942 10.6084 342.655 11.0049C342.373 11.3968 342.006 11.693 341.555 11.8936C342.102 12.0804 342.516 12.3743 342.799 12.7754C343.086 13.1764 343.229 13.6549 343.229 14.2109C343.229 15.1042 342.922 15.8151 342.307 16.3438C341.696 16.8724 340.892 17.1367 339.894 17.1367C338.937 17.1367 338.153 16.8815 337.542 16.3711C336.931 15.8607 336.626 15.1816 336.626 14.334H338.287C338.287 14.7715 338.433 15.127 338.725 15.4004C339.021 15.6738 339.417 15.8105 339.914 15.8105C340.429 15.8105 340.835 15.6738 341.131 15.4004C341.427 15.127 341.575 14.7305 341.575 14.2109C341.575 13.6868 341.42 13.2835 341.11 13.001C340.8 12.7184 340.34 12.5771 339.729 12.5771H338.752V11.2646ZM351.275 12.8096C351.275 14.2406 351.007 15.3206 350.469 16.0498C349.936 16.7744 349.122 17.1367 348.028 17.1367C346.953 17.1367 346.142 16.7835 345.595 16.0771C345.052 15.3662 344.774 14.3158 344.761 12.9258V11.2031C344.761 9.77214 345.027 8.69889 345.561 7.9834C346.098 7.2679 346.916 6.91016 348.015 6.91016C349.104 6.91016 349.915 7.25879 350.448 7.95605C350.986 8.65332 351.262 9.69694 351.275 11.0869V12.8096ZM349.614 10.9502C349.614 10.016 349.487 9.33236 349.231 8.89941C348.976 8.46191 348.571 8.24316 348.015 8.24316C347.472 8.24316 347.074 8.45052 346.818 8.86523C346.563 9.27539 346.429 9.91797 346.415 10.793V13.0488C346.415 13.9785 346.545 14.6712 346.805 15.127C347.064 15.5827 347.472 15.8105 348.028 15.8105C348.562 15.8105 348.956 15.6009 349.211 15.1816C349.466 14.7578 349.601 14.097 349.614 13.1992V10.9502Z" fill="white"/>
</g>
<path fill-rule="evenodd" clip-rule="evenodd" d="M306 5.875V5L303 5V5.875H300V19H309V5.875H306Z" fill="white"/>
<path fill-rule="evenodd" clip-rule="evenodd" d="M277 19H291V5L277 19Z" fill="white"/>
<path fill-rule="evenodd" clip-rule="evenodd" d="M256.977 8.01593C259.488 6.12256 262.613 5 266 5C269.387 5 272.512 6.12256 275.023 8.01593L266 19L256.977 8.01593Z" fill="white"/>
<path fill-rule="evenodd" clip-rule="evenodd" d="M0 592V640H360V592H0Z" fill="black"/>
<path d="M274 610C274 609.448 274.448 609 275 609H287C287.552 609 288 609.448 288 610V622C288 622.552 287.552 623 287 623H275C274.448 623 274 622.552 274 622V610Z" stroke="white" stroke-width="2"/>
<circle cx="180" cy="616" r="7" stroke="white" stroke-width="2"/>
<path d="M84.4995 608.849C85.1662 608.464 86 608.945 86 609.715V621.287C86 622.057 85.1662 622.538 84.4995 622.153L74.4904 616.367C73.8244 615.982 73.8244 615.02 74.4904 614.635L84.4995 608.849Z" stroke="white" stroke-width="2"/>
<rect y="24" width="360" height="60" fill="#4DD0E1"/>
<path d="M42.604 40.6785C42.2765 40.3333 41.7054 40.3326 41.3629 40.6639L40.1485 41.8387C39.8236 42.153 39.8275 42.6503 40.1366 42.9792C43.0962 46.1297 44.5759 50.1252 44.5758 54.1207C44.5756 58.1157 43.0959 62.1106 40.1366 65.2607C39.8275 65.5897 39.8236 66.0869 40.1485 66.4012L41.3629 67.5759C41.7054 67.9073 42.2765 67.9066 42.6041 67.5614C46.2016 63.7701 48.0003 58.9445 48 54.1189C47.9998 49.2942 46.2011 44.4693 42.604 40.6785Z" fill="white"/>
<path d="M11.4242 54.1195C11.4243 50.1244 12.9041 46.1294 15.8635 42.9792C16.1725 42.6502 16.1764 42.153 15.8515 41.8387L14.6372 40.664C14.2946 40.3326 13.7236 40.3333 13.3959 40.6785C9.79856 44.4696 7.99992 49.295 8 54.1204C8.00008 58.9454 9.7988 63.7704 13.3959 67.5614C13.7235 67.9066 14.2946 67.9073 14.6372 67.5759L15.8515 66.4011C16.1764 66.0868 16.1725 65.5896 15.8635 65.2606C12.9039 62.1102 11.4242 58.1149 11.4242 54.1195Z" fill="white"/>
<path fill-rule="evenodd" clip-rule="evenodd" d="M13.238 53.8837C13.238 45.6764 19.9673 39 28.238 39C36.5087 39 43.238 45.6764 43.238 53.8837C43.238 62.0911 36.5087 68.7674 28.238 68.7674C19.9673 68.7674 13.238 62.0911 13.238 53.8837ZM26.5616 55.5374H29.0616C31.359 55.5374 33.2283 53.6835 33.2283 51.4031C33.2283 49.1227 31.359 47.2688 29.0616 47.2687H25.7283C25.2677 47.2687 24.8949 47.6385 24.8949 48.0956V59.6718C24.8949 60.1288 25.2677 60.4987 25.7283 60.4987C26.1889 60.4987 26.5616 60.1288 26.5616 59.6718V55.5374Z" fill="white"/>
<path d="M29.1905 48.9225H26.5714V53.6475H29.1905C30.6347 53.6475 31.8095 52.5877 31.8095 51.285C31.8095 49.9822 30.6347 48.9225 29.1905 48.9225Z" fill="white"/>
<path d="M350.546 53.0769H317.454C316.651 53.0769 316 53.6968 316 54.4615C316 55.2263 316.651 55.8461 317.454 55.8461H350.546C351.349 55.8461 352 55.2263 352 54.4615C352 53.6968 351.349 53.0769 350.546 53.0769Z" fill="white"/>
<path d="M350.546 42H317.454C316.651 42 316 42.6199 316 43.3846C316 44.1493 316.651 44.7692 317.454 44.7692H350.546C351.349 44.7692 352 44.1493 352 43.3846C352 42.6199 351.349 42 350.546 42Z" fill="white"/>
<path d="M350.546 64.1538H317.454C316.651 64.1538 316 64.7737 316 65.5384C316 66.3032 316.651 66.923 317.454 66.923H350.546C351.349 66.923 352 66.3032 352 65.5384C352 64.7737 351.349 64.1538 350.546 64.1538Z" fill="white"/>
<rect x="8" y="109" width="344" height="421" rx="4" fill="white"/>
<path d="M25.9609 474.457V472.676H48.0391V474.457H25.9609Z" fill="#0A261D"/>
<path d="M28.6094 443.93C28.6094 444.797 28.3125 445.465 27.7188 445.934C27.1289 446.398 26.2832 446.631 25.1816 446.631H24.1738V450H23.1777V441.434H25.3984C27.5391 441.434 28.6094 442.266 28.6094 443.93ZM24.1738 445.775H25.0703C25.9531 445.775 26.5918 445.633 26.9863 445.348C27.3809 445.062 27.5781 444.605 27.5781 443.977C27.5781 443.41 27.3926 442.988 27.0215 442.711C26.6504 442.434 26.0723 442.295 25.2871 442.295H24.1738V445.775ZM35.793 450L34.7266 447.275H31.293L30.2383 450H29.2305L32.6172 441.398H33.4551L36.8242 450H35.793ZM34.416 446.379L33.4199 443.725C33.291 443.389 33.1582 442.977 33.0215 442.488C32.9355 442.863 32.8125 443.275 32.6523 443.725L31.6445 446.379H34.416ZM41.7695 445.512H44.6816V449.678C44.2285 449.822 43.7676 449.932 43.2988 450.006C42.8301 450.08 42.2871 450.117 41.6699 450.117C40.373 450.117 39.3633 449.732 38.6406 448.963C37.918 448.189 37.5566 447.107 37.5566 445.717C37.5566 444.826 37.7344 444.047 38.0898 443.379C38.4492 442.707 38.9648 442.195 39.6367 441.844C40.3086 441.488 41.0957 441.311 41.998 441.311C42.9121 441.311 43.7637 441.479 44.5527 441.814L44.166 442.693C43.3926 442.365 42.6484 442.201 41.9336 442.201C40.8906 442.201 40.0762 442.512 39.4902 443.133C38.9043 443.754 38.6113 444.615 38.6113 445.717C38.6113 446.873 38.8926 447.75 39.4551 448.348C40.0215 448.945 40.8516 449.244 41.9453 449.244C42.5391 449.244 43.1191 449.176 43.6855 449.039V446.402H41.7695V445.512ZM52.1289 450L51.0625 447.275H47.6289L46.5742 450H45.5664L48.9531 441.398H49.791L53.1602 450H52.1289ZM50.752 446.379L49.7559 443.725C49.627 443.389 49.4941 442.977 49.3574 442.488C49.2715 442.863 49.1484 443.275 48.9883 443.725L47.9805 446.379H50.752ZM58.1289 450L55.2227 442.406H55.1758C55.2305 443.008 55.2578 443.723 55.2578 444.551V450H54.3379V441.434H55.8379L58.5508 448.5H58.5977L61.334 441.434H62.8223V450H61.8262V444.48C61.8262 443.848 61.8535 443.16 61.9082 442.418H61.8613L58.9316 450H58.1289ZM69.9531 450H65.1777V441.434H69.9531V442.318H66.1738V445.078H69.7246V445.957H66.1738V449.109H69.9531V450ZM78.5488 450H77.4121L72.7305 442.811H72.6836C72.7461 443.654 72.7773 444.428 72.7773 445.131V450H71.8574V441.434H72.9824L77.6523 448.594H77.6992C77.6914 448.488 77.6738 448.15 77.6465 447.58C77.6191 447.006 77.6094 446.596 77.6172 446.35V441.434H78.5488V450ZM83.541 450H82.5449V442.318H79.832V441.434H86.2539V442.318H83.541V450ZM94.9844 445.705C94.9844 447.076 94.6367 448.154 93.9414 448.939C93.25 449.725 92.2871 450.117 91.0527 450.117C89.791 450.117 88.8164 449.732 88.1289 448.963C87.4453 448.189 87.1035 447.1 87.1035 445.693C87.1035 444.299 87.4473 443.219 88.1348 442.453C88.8223 441.684 89.7988 441.299 91.0645 441.299C92.2949 441.299 93.2559 441.689 93.9473 442.471C94.6387 443.252 94.9844 444.33 94.9844 445.705ZM88.1582 445.705C88.1582 446.865 88.4043 447.746 88.8965 448.348C89.3926 448.945 90.1113 449.244 91.0527 449.244C92.002 449.244 92.7188 448.945 93.2031 448.348C93.6875 447.75 93.9297 446.869 93.9297 445.705C93.9297 444.553 93.6875 443.68 93.2031 443.086C92.7227 442.488 92.0098 442.189 91.0645 442.189C90.1152 442.189 89.3926 442.49 88.8965 443.092C88.4043 443.689 88.1582 444.561 88.1582 445.705Z" fill="#9B9B9B"/>
<path d="M33.3789 389H31.4805V376.789C31.4805 375.773 31.5117 374.812 31.5742 373.906C31.4102 374.07 31.2266 374.242 31.0234 374.422C30.8203 374.602 29.8906 375.363 28.2344 376.707L27.2031 375.371L31.7383 371.867H33.3789V389ZM49.5859 389V380.691C49.5859 379.645 49.3477 378.863 48.8711 378.348C48.3945 377.832 47.6484 377.574 46.6328 377.574C45.2812 377.574 44.293 377.941 43.668 378.676C43.0508 379.41 42.7422 380.613 42.7422 382.285V389H40.7969V370.766H42.7422V376.285C42.7422 376.949 42.7109 377.5 42.6484 377.938H42.7656C43.1484 377.32 43.6914 376.836 44.3945 376.484C45.1055 376.125 45.9141 375.945 46.8203 375.945C48.3906 375.945 49.5664 376.32 50.3477 377.07C51.1367 377.812 51.5312 378.996 51.5312 380.621V389H49.5859ZM65.9102 389H54.6484V387.324L59.1602 382.789C60.5352 381.398 61.4414 380.406 61.8789 379.812C62.3164 379.219 62.6445 378.641 62.8633 378.078C63.082 377.516 63.1914 376.91 63.1914 376.262C63.1914 375.348 62.9141 374.625 62.3594 374.094C61.8047 373.555 61.0352 373.285 60.0508 373.285C59.3398 373.285 58.6641 373.402 58.0234 373.637C57.3906 373.871 56.6836 374.297 55.9023 374.914L54.8711 373.59C56.4492 372.277 58.168 371.621 60.0273 371.621C61.6367 371.621 62.8984 372.035 63.8125 372.863C64.7266 373.684 65.1836 374.789 65.1836 376.18C65.1836 377.266 64.8789 378.34 64.2695 379.402C63.6602 380.465 62.5195 381.809 60.8477 383.434L57.0977 387.102V387.195H65.9102V389ZM79.7383 380.41C79.7383 383.371 79.2695 385.582 78.332 387.043C77.4023 388.504 75.9766 389.234 74.0547 389.234C72.2109 389.234 70.8086 388.488 69.8477 386.996C68.8867 385.496 68.4062 383.301 68.4062 380.41C68.4062 377.426 68.8711 375.211 69.8008 373.766C70.7305 372.32 72.1484 371.598 74.0547 371.598C75.9141 371.598 77.3242 372.352 78.2852 373.859C79.2539 375.367 79.7383 377.551 79.7383 380.41ZM70.375 380.41C70.375 382.902 70.668 384.719 71.2539 385.859C71.8398 386.992 72.7734 387.559 74.0547 387.559C75.3516 387.559 76.2891 386.984 76.8672 385.836C77.4531 384.68 77.7461 382.871 77.7461 380.41C77.7461 377.949 77.4531 376.148 76.8672 375.008C76.2891 373.859 75.3516 373.285 74.0547 373.285C72.7734 373.285 71.8398 373.852 71.2539 374.984C70.668 376.109 70.375 377.918 70.375 380.41ZM105.613 389V380.645C105.613 379.621 105.395 378.855 104.957 378.348C104.52 377.832 103.84 377.574 102.918 377.574C101.707 377.574 100.812 377.922 100.234 378.617C99.6562 379.312 99.3672 380.383 99.3672 381.828V389H97.4219V380.645C97.4219 379.621 97.2031 378.855 96.7656 378.348C96.3281 377.832 95.6445 377.574 94.7148 377.574C93.4961 377.574 92.6016 377.941 92.0312 378.676C91.4688 379.402 91.1875 380.598 91.1875 382.262V389H89.2422V376.156H90.8242L91.1406 377.914H91.2344C91.6016 377.289 92.1172 376.801 92.7812 376.449C93.4531 376.098 94.2031 375.922 95.0312 375.922C97.0391 375.922 98.3516 376.648 98.9688 378.102H99.0625C99.4453 377.43 100 376.898 100.727 376.508C101.453 376.117 102.281 375.922 103.211 375.922C104.664 375.922 105.75 376.297 106.469 377.047C107.195 377.789 107.559 378.98 107.559 380.621V389H105.613ZM113.523 389H111.578V376.156H113.523V389ZM111.414 372.676C111.414 372.23 111.523 371.906 111.742 371.703C111.961 371.492 112.234 371.387 112.562 371.387C112.875 371.387 113.145 371.492 113.371 371.703C113.598 371.914 113.711 372.238 113.711 372.676C113.711 373.113 113.598 373.441 113.371 373.66C113.145 373.871 112.875 373.977 112.562 373.977C112.234 373.977 111.961 373.871 111.742 373.66C111.523 373.441 111.414 373.113 111.414 372.676ZM126.438 389V380.691C126.438 379.645 126.199 378.863 125.723 378.348C125.246 377.832 124.5 377.574 123.484 377.574C122.141 377.574 121.156 377.938 120.531 378.664C119.906 379.391 119.594 380.59 119.594 382.262V389H117.648V376.156H119.23L119.547 377.914H119.641C120.039 377.281 120.598 376.793 121.316 376.449C122.035 376.098 122.836 375.922 123.719 375.922C125.266 375.922 126.43 376.297 127.211 377.047C127.992 377.789 128.383 378.98 128.383 380.621V389H126.438Z" fill="#0A261D"/>
<path d="M25.8145 359H24.8184V351.318H22.1055V350.434H28.5273V351.318H25.8145V359ZM34.5977 359H29.8223V350.434H34.5977V351.318H30.8184V354.078H34.3691V354.957H30.8184V358.109H34.5977V359ZM40.293 359L37.3867 351.406H37.3398C37.3945 352.008 37.4219 352.723 37.4219 353.551V359H36.502V350.434H38.002L40.7148 357.5H40.7617L43.498 350.434H44.9863V359H43.9902V353.48C43.9902 352.848 44.0176 352.16 44.0723 351.418H44.0254L41.0957 359H40.293ZM52.7734 352.93C52.7734 353.797 52.4766 354.465 51.8828 354.934C51.293 355.398 50.4473 355.631 49.3457 355.631H48.3379V359H47.3418V350.434H49.5625C51.7031 350.434 52.7734 351.266 52.7734 352.93ZM48.3379 354.775H49.2344C50.1172 354.775 50.7559 354.633 51.1504 354.348C51.5449 354.062 51.7422 353.605 51.7422 352.977C51.7422 352.41 51.5566 351.988 51.1855 351.711C50.8145 351.434 50.2363 351.295 49.4512 351.295H48.3379V354.775ZM62.0078 354.705C62.0078 356.076 61.6602 357.154 60.9648 357.939C60.2734 358.725 59.3105 359.117 58.0762 359.117C56.8145 359.117 55.8398 358.732 55.1523 357.963C54.4688 357.189 54.127 356.1 54.127 354.693C54.127 353.299 54.4707 352.219 55.1582 351.453C55.8457 350.684 56.8223 350.299 58.0879 350.299C59.3184 350.299 60.2793 350.689 60.9707 351.471C61.6621 352.252 62.0078 353.33 62.0078 354.705ZM55.1816 354.705C55.1816 355.865 55.4277 356.746 55.9199 357.348C56.416 357.945 57.1348 358.244 58.0762 358.244C59.0254 358.244 59.7422 357.945 60.2266 357.348C60.7109 356.75 60.9531 355.869 60.9531 354.705C60.9531 353.553 60.7109 352.68 60.2266 352.086C59.7461 351.488 59.0332 351.189 58.0879 351.189C57.1387 351.189 56.416 351.49 55.9199 352.092C55.4277 352.689 55.1816 353.561 55.1816 354.705ZM72.4258 359L71.3594 356.275H67.9258L66.8711 359H65.8633L69.25 350.398H70.0879L73.457 359H72.4258ZM71.0488 355.379L70.0527 352.725C69.9238 352.389 69.791 351.977 69.6543 351.488C69.5684 351.863 69.4453 352.275 69.2852 352.725L68.2773 355.379H71.0488ZM77.2715 359H76.2754V351.318H73.5625V350.434H79.9844V351.318H77.2715V359ZM87.748 350.434V355.977C87.748 356.953 87.4531 357.721 86.8633 358.279C86.2734 358.838 85.4629 359.117 84.4316 359.117C83.4004 359.117 82.6016 358.836 82.0352 358.273C81.4727 357.711 81.1914 356.938 81.1914 355.953V350.434H82.1875V356.023C82.1875 356.738 82.3828 357.287 82.7734 357.67C83.1641 358.053 83.7383 358.244 84.4961 358.244C85.2188 358.244 85.7754 358.053 86.166 357.67C86.5566 357.283 86.752 356.73 86.752 356.012V350.434H87.748ZM95.4062 359L94.3398 356.275H90.9062L89.8516 359H88.8438L92.2305 350.398H93.0684L96.4375 359H95.4062ZM94.0293 355.379L93.0332 352.725C92.9043 352.389 92.7715 351.977 92.6348 351.488C92.5488 351.863 92.4258 352.275 92.2656 352.725L91.2578 355.379H94.0293ZM97.6152 359V350.434H98.6113V358.098H102.391V359H97.6152Z" fill="#9B9B9B"/>
<g clip-path="url(#clip0)">
<path d="M36.9062 314H27.3555V296.867H36.9062V298.637H29.3477V304.156H36.4492V305.914H29.3477V312.219H36.9062V314ZM48.707 310.496C48.707 311.691 48.2617 312.613 47.3711 313.262C46.4805 313.91 45.2305 314.234 43.6211 314.234C41.918 314.234 40.5898 313.965 39.6367 313.426V311.621C40.2539 311.934 40.9141 312.18 41.6172 312.359C42.3281 312.539 43.0117 312.629 43.668 312.629C44.6836 312.629 45.4648 312.469 46.0117 312.148C46.5586 311.82 46.832 311.324 46.832 310.66C46.832 310.16 46.6133 309.734 46.1758 309.383C45.7461 309.023 44.9023 308.602 43.6445 308.117C42.4492 307.672 41.5977 307.285 41.0898 306.957C40.5898 306.621 40.2148 306.242 39.9648 305.82C39.7227 305.398 39.6016 304.895 39.6016 304.309C39.6016 303.262 40.0273 302.438 40.8789 301.836C41.7305 301.227 42.8984 300.922 44.3828 300.922C45.7656 300.922 47.1172 301.203 48.4375 301.766L47.7461 303.348C46.457 302.816 45.2891 302.551 44.2422 302.551C43.3203 302.551 42.625 302.695 42.1562 302.984C41.6875 303.273 41.4531 303.672 41.4531 304.18C41.4531 304.523 41.5391 304.816 41.7109 305.059C41.8906 305.301 42.1758 305.531 42.5664 305.75C42.957 305.969 43.707 306.285 44.8164 306.699C46.3398 307.254 47.3672 307.812 47.8984 308.375C48.4375 308.938 48.707 309.645 48.707 310.496ZM56.0312 312.629C56.375 312.629 56.707 312.605 57.0273 312.559C57.3477 312.504 57.6016 312.449 57.7891 312.395V313.883C57.5781 313.984 57.2656 314.066 56.8516 314.129C56.4453 314.199 56.0781 314.234 55.75 314.234C53.2656 314.234 52.0234 312.926 52.0234 310.309V302.668H50.1836V301.73L52.0234 300.922L52.8438 298.18H53.9688V301.156H57.6953V302.668H53.9688V310.227C53.9688 311 54.1523 311.594 54.5195 312.008C54.8867 312.422 55.3906 312.629 56.0312 312.629ZM68.2656 314L67.8789 312.172H67.7852C67.1445 312.977 66.5039 313.523 65.8633 313.812C65.2305 314.094 64.4375 314.234 63.4844 314.234C62.2109 314.234 61.2109 313.906 60.4844 313.25C59.7656 312.594 59.4062 311.66 59.4062 310.449C59.4062 307.855 61.4805 306.496 65.6289 306.371L67.8086 306.301V305.504C67.8086 304.496 67.5898 303.754 67.1523 303.277C66.7227 302.793 66.0312 302.551 65.0781 302.551C64.0078 302.551 62.7969 302.879 61.4453 303.535L60.8477 302.047C61.4805 301.703 62.1719 301.434 62.9219 301.238C63.6797 301.043 64.4375 300.945 65.1953 300.945C66.7266 300.945 67.8594 301.285 68.5938 301.965C69.3359 302.645 69.707 303.734 69.707 305.234V314H68.2656ZM63.8711 312.629C65.082 312.629 66.0312 312.297 66.7188 311.633C67.4141 310.969 67.7617 310.039 67.7617 308.844V307.684L65.8164 307.766C64.2695 307.82 63.1523 308.062 62.4648 308.492C61.7852 308.914 61.4453 309.574 61.4453 310.473C61.4453 311.176 61.6562 311.711 62.0781 312.078C62.5078 312.445 63.1055 312.629 63.8711 312.629ZM78.8594 314.234C77 314.234 75.5586 313.664 74.5352 312.523C73.5195 311.375 73.0117 309.754 73.0117 307.66C73.0117 305.512 73.5273 303.852 74.5586 302.68C75.5977 301.508 77.0742 300.922 78.9883 300.922C79.6055 300.922 80.2227 300.988 80.8398 301.121C81.457 301.254 81.9414 301.41 82.293 301.59L81.6953 303.242C81.2656 303.07 80.7969 302.93 80.2891 302.82C79.7812 302.703 79.332 302.645 78.9414 302.645C76.332 302.645 75.0273 304.309 75.0273 307.637C75.0273 309.215 75.3438 310.426 75.9766 311.27C76.6172 312.113 77.5625 312.535 78.8125 312.535C79.8828 312.535 80.9805 312.305 82.1055 311.844V313.566C81.2461 314.012 80.1641 314.234 78.8594 314.234ZM87.1094 314H85.1641V301.156H87.1094V314ZM85 297.676C85 297.23 85.1094 296.906 85.3281 296.703C85.5469 296.492 85.8203 296.387 86.1484 296.387C86.4609 296.387 86.7305 296.492 86.957 296.703C87.1836 296.914 87.2969 297.238 87.2969 297.676C87.2969 298.113 87.1836 298.441 86.957 298.66C86.7305 298.871 86.4609 298.977 86.1484 298.977C85.8203 298.977 85.5469 298.871 85.3281 298.66C85.1094 298.441 85 298.113 85 297.676ZM102.32 307.566C102.32 309.66 101.793 311.297 100.738 312.477C99.6836 313.648 98.2266 314.234 96.3672 314.234C95.2188 314.234 94.1992 313.965 93.3086 313.426C92.418 312.887 91.7305 312.113 91.2461 311.105C90.7617 310.098 90.5195 308.918 90.5195 307.566C90.5195 305.473 91.043 303.844 92.0898 302.68C93.1367 301.508 94.5898 300.922 96.4492 300.922C98.2461 300.922 99.6719 301.52 100.727 302.715C101.789 303.91 102.32 305.527 102.32 307.566ZM92.5352 307.566C92.5352 309.207 92.8633 310.457 93.5195 311.316C94.1758 312.176 95.1406 312.605 96.4141 312.605C97.6875 312.605 98.6523 312.18 99.3086 311.328C99.9727 310.469 100.305 309.215 100.305 307.566C100.305 305.934 99.9727 304.695 99.3086 303.852C98.6523 303 97.6797 302.574 96.3906 302.574C95.1172 302.574 94.1562 302.992 93.5078 303.828C92.8594 304.664 92.5352 305.91 92.5352 307.566ZM114.531 314V305.691C114.531 304.645 114.293 303.863 113.816 303.348C113.34 302.832 112.594 302.574 111.578 302.574C110.234 302.574 109.25 302.938 108.625 303.664C108 304.391 107.688 305.59 107.688 307.262V314H105.742V301.156H107.324L107.641 302.914H107.734C108.133 302.281 108.691 301.793 109.41 301.449C110.129 301.098 110.93 300.922 111.812 300.922C113.359 300.922 114.523 301.297 115.305 302.047C116.086 302.789 116.477 303.98 116.477 305.621V314H114.531ZM128.383 314L127.996 312.172H127.902C127.262 312.977 126.621 313.523 125.98 313.812C125.348 314.094 124.555 314.234 123.602 314.234C122.328 314.234 121.328 313.906 120.602 313.25C119.883 312.594 119.523 311.66 119.523 310.449C119.523 307.855 121.598 306.496 125.746 306.371L127.926 306.301V305.504C127.926 304.496 127.707 303.754 127.27 303.277C126.84 302.793 126.148 302.551 125.195 302.551C124.125 302.551 122.914 302.879 121.562 303.535L120.965 302.047C121.598 301.703 122.289 301.434 123.039 301.238C123.797 301.043 124.555 300.945 125.312 300.945C126.844 300.945 127.977 301.285 128.711 301.965C129.453 302.645 129.824 303.734 129.824 305.234V314H128.383ZM123.988 312.629C125.199 312.629 126.148 312.297 126.836 311.633C127.531 310.969 127.879 310.039 127.879 308.844V307.684L125.934 307.766C124.387 307.82 123.27 308.062 122.582 308.492C121.902 308.914 121.562 309.574 121.562 310.473C121.562 311.176 121.773 311.711 122.195 312.078C122.625 312.445 123.223 312.629 123.988 312.629ZM142.586 312.277H142.48C141.582 313.582 140.238 314.234 138.449 314.234C136.77 314.234 135.461 313.66 134.523 312.512C133.594 311.363 133.129 309.73 133.129 307.613C133.129 305.496 133.598 303.852 134.535 302.68C135.473 301.508 136.777 300.922 138.449 300.922C140.191 300.922 141.527 301.555 142.457 302.82H142.609L142.527 301.895L142.48 300.992V295.766H144.426V314H142.844L142.586 312.277ZM138.695 312.605C140.023 312.605 140.984 312.246 141.578 311.527C142.18 310.801 142.48 309.633 142.48 308.023V307.613C142.48 305.793 142.176 304.496 141.566 303.723C140.965 302.941 140 302.551 138.672 302.551C137.531 302.551 136.656 302.996 136.047 303.887C135.445 304.77 135.145 306.02 135.145 307.637C135.145 309.277 135.445 310.516 136.047 311.352C136.648 312.188 137.531 312.605 138.695 312.605ZM159.648 307.566C159.648 309.66 159.121 311.297 158.066 312.477C157.012 313.648 155.555 314.234 153.695 314.234C152.547 314.234 151.527 313.965 150.637 313.426C149.746 312.887 149.059 312.113 148.574 311.105C148.09 310.098 147.848 308.918 147.848 307.566C147.848 305.473 148.371 303.844 149.418 302.68C150.465 301.508 151.918 300.922 153.777 300.922C155.574 300.922 157 301.52 158.055 302.715C159.117 303.91 159.648 305.527 159.648 307.566ZM149.863 307.566C149.863 309.207 150.191 310.457 150.848 311.316C151.504 312.176 152.469 312.605 153.742 312.605C155.016 312.605 155.98 312.18 156.637 311.328C157.301 310.469 157.633 309.215 157.633 307.566C157.633 305.934 157.301 304.695 156.637 303.852C155.98 303 155.008 302.574 153.719 302.574C152.445 302.574 151.484 302.992 150.836 303.828C150.188 304.664 149.863 305.91 149.863 307.566Z" fill="#0A261D"/>
<path d="M31.0117 281.721C31.0117 282.475 30.7383 283.062 30.1914 283.484C29.6445 283.906 28.9023 284.117 27.9648 284.117C26.9492 284.117 26.168 283.986 25.6211 283.725V282.764C25.9727 282.912 26.3555 283.029 26.7695 283.115C27.1836 283.201 27.5938 283.244 28 283.244C28.6641 283.244 29.1641 283.119 29.5 282.869C29.8359 282.615 30.0039 282.264 30.0039 281.814C30.0039 281.518 29.9434 281.275 29.8223 281.088C29.7051 280.896 29.5059 280.721 29.2246 280.561C28.9473 280.4 28.5234 280.219 27.9531 280.016C27.1562 279.73 26.5859 279.393 26.2422 279.002C25.9023 278.611 25.7324 278.102 25.7324 277.473C25.7324 276.812 25.9805 276.287 26.4766 275.896C26.9727 275.506 27.6289 275.311 28.4453 275.311C29.2969 275.311 30.0801 275.467 30.7949 275.779L30.4844 276.646C29.7773 276.35 29.0898 276.201 28.4219 276.201C27.8945 276.201 27.4824 276.314 27.1855 276.541C26.8887 276.768 26.7402 277.082 26.7402 277.484C26.7402 277.781 26.7949 278.025 26.9043 278.217C27.0137 278.404 27.1973 278.578 27.4551 278.738C27.7168 278.895 28.1152 279.068 28.6504 279.26C29.5488 279.58 30.166 279.924 30.502 280.291C30.8418 280.658 31.0117 281.135 31.0117 281.721ZM35.4004 284H34.4043V276.318H31.6914V275.434H38.1133V276.318H35.4004V284ZM44.793 284L43.7266 281.275H40.293L39.2383 284H38.2305L41.6172 275.398H42.4551L45.8242 284H44.793ZM43.416 280.379L42.4199 277.725C42.291 277.389 42.1582 276.977 42.0215 276.488C41.9355 276.863 41.8125 277.275 41.6523 277.725L40.6445 280.379H43.416ZM49.6387 284H48.6426V276.318H45.9297V275.434H52.3516V276.318H49.6387V284ZM60.1152 275.434V280.977C60.1152 281.953 59.8203 282.721 59.2305 283.279C58.6406 283.838 57.8301 284.117 56.7988 284.117C55.7676 284.117 54.9688 283.836 54.4023 283.273C53.8398 282.711 53.5586 281.938 53.5586 280.953V275.434H54.5547V281.023C54.5547 281.738 54.75 282.287 55.1406 282.67C55.5312 283.053 56.1055 283.244 56.8633 283.244C57.5859 283.244 58.1426 283.053 58.5332 282.67C58.9238 282.283 59.1191 281.73 59.1191 281.012V275.434H60.1152ZM67.2227 281.721C67.2227 282.475 66.9492 283.062 66.4023 283.484C65.8555 283.906 65.1133 284.117 64.1758 284.117C63.1602 284.117 62.3789 283.986 61.832 283.725V282.764C62.1836 282.912 62.5664 283.029 62.9805 283.115C63.3945 283.201 63.8047 283.244 64.2109 283.244C64.875 283.244 65.375 283.119 65.7109 282.869C66.0469 282.615 66.2148 282.264 66.2148 281.814C66.2148 281.518 66.1543 281.275 66.0332 281.088C65.916 280.896 65.7168 280.721 65.4355 280.561C65.1582 280.4 64.7344 280.219 64.1641 280.016C63.3672 279.73 62.7969 279.393 62.4531 279.002C62.1133 278.611 61.9434 278.102 61.9434 277.473C61.9434 276.812 62.1914 276.287 62.6875 275.896C63.1836 275.506 63.8398 275.311 64.6562 275.311C65.5078 275.311 66.291 275.467 67.0059 275.779L66.6953 276.646C65.9883 276.35 65.3008 276.201 64.6328 276.201C64.1055 276.201 63.6934 276.314 63.3965 276.541C63.0996 276.768 62.9512 277.082 62.9512 277.484C62.9512 277.781 63.0059 278.025 63.1152 278.217C63.2246 278.404 63.4082 278.578 63.666 278.738C63.9277 278.895 64.3262 279.068 64.8613 279.26C65.7598 279.58 66.377 279.924 66.7129 280.291C67.0527 280.658 67.2227 281.135 67.2227 281.721Z" fill="#9B9B9B"/>
</g>
<path d="M45.7812 238L42.4043 229.372H31.5312L28.1914 238H25L35.7246 210.762H38.3779L49.0469 238H45.7812ZM41.4209 226.533L38.2666 218.128C37.8584 217.064 37.4378 215.759 37.0049 214.213C36.7327 215.4 36.3431 216.705 35.8359 218.128L32.6445 226.533H41.4209ZM52.7764 210.873H60.4395C64.0391 210.873 66.6429 211.411 68.251 212.487C69.859 213.563 70.6631 215.264 70.6631 217.59C70.6631 219.198 70.2116 220.528 69.3086 221.579C68.418 222.618 67.113 223.292 65.3936 223.602V223.787C69.5127 224.492 71.5723 226.657 71.5723 230.281C71.5723 232.706 70.7497 234.598 69.1045 235.959C67.4717 237.32 65.1833 238 62.2393 238H52.7764V210.873ZM55.9307 222.488H61.126C63.3525 222.488 64.9544 222.142 65.9316 221.449C66.9089 220.744 67.3975 219.563 67.3975 217.905C67.3975 216.384 66.8532 215.289 65.7646 214.621C64.6761 213.941 62.9443 213.601 60.5693 213.601H55.9307V222.488ZM55.9307 225.16V235.31H61.5898C63.7793 235.31 65.4245 234.889 66.5254 234.048C67.6387 233.194 68.1953 231.865 68.1953 230.059C68.1953 228.376 67.6263 227.139 66.4883 226.348C65.3626 225.556 63.6432 225.16 61.3301 225.16H55.9307ZM89.0322 213.304C86.0511 213.304 83.6947 214.299 81.9629 216.291C80.2435 218.27 79.3838 220.985 79.3838 224.437C79.3838 227.987 80.2126 230.733 81.8701 232.675C83.54 234.604 85.915 235.569 88.9951 235.569C90.8877 235.569 93.0462 235.229 95.4707 234.549V237.313C93.5905 238.019 91.2712 238.371 88.5127 238.371C84.5173 238.371 81.431 237.159 79.2539 234.734C77.0892 232.31 76.0068 228.865 76.0068 224.399C76.0068 221.604 76.5264 219.155 77.5654 217.052C78.6169 214.949 80.126 213.328 82.0928 212.19C84.0719 211.052 86.3975 210.483 89.0693 210.483C91.9144 210.483 94.4007 211.003 96.5283 212.042L95.1924 214.751C93.139 213.786 91.0856 213.304 89.0322 213.304ZM99.2188 229.224V226.403H108.329V229.224H99.2188ZM123.173 238H120.167V218.666C120.167 217.058 120.216 215.536 120.315 214.102C120.056 214.361 119.765 214.633 119.443 214.918C119.122 215.202 117.65 216.409 115.027 218.536L113.395 216.421L120.575 210.873H123.173V238ZM151.339 238H133.508V235.347L140.651 228.166C142.828 225.964 144.263 224.393 144.956 223.453C145.649 222.513 146.168 221.598 146.515 220.707C146.861 219.816 147.034 218.858 147.034 217.831C147.034 216.384 146.595 215.24 145.717 214.398C144.839 213.545 143.62 213.118 142.062 213.118C140.936 213.118 139.866 213.304 138.852 213.675C137.85 214.046 136.73 214.72 135.493 215.697L133.86 213.601C136.359 211.522 139.08 210.483 142.024 210.483C144.573 210.483 146.57 211.139 148.018 212.45C149.465 213.749 150.188 215.499 150.188 217.701C150.188 219.421 149.706 221.121 148.741 222.804C147.776 224.486 145.97 226.614 143.323 229.187L137.386 234.994V235.143H151.339V238ZM172.064 217.256C172.064 218.988 171.576 220.404 170.599 221.505C169.634 222.606 168.261 223.342 166.479 223.713V223.861C168.657 224.133 170.271 224.826 171.322 225.939C172.374 227.053 172.899 228.512 172.899 230.318C172.899 232.904 172.003 234.895 170.209 236.293C168.415 237.678 165.867 238.371 162.564 238.371C161.13 238.371 159.812 238.26 158.612 238.037C157.425 237.827 156.268 237.45 155.143 236.905V233.974C156.318 234.555 157.567 235 158.891 235.31C160.227 235.606 161.488 235.755 162.676 235.755C167.364 235.755 169.708 233.918 169.708 230.244C169.708 226.954 167.123 225.309 161.952 225.309H159.28V222.655H161.989C164.104 222.655 165.781 222.191 167.018 221.264C168.255 220.324 168.873 219.025 168.873 217.367C168.873 216.044 168.415 215.005 167.5 214.25C166.597 213.495 165.366 213.118 163.808 213.118C162.62 213.118 161.501 213.279 160.449 213.601C159.398 213.922 158.198 214.516 156.85 215.382L155.291 213.304C156.404 212.425 157.685 211.739 159.132 211.244C160.591 210.737 162.125 210.483 163.733 210.483C166.368 210.483 168.415 211.09 169.875 212.302C171.335 213.502 172.064 215.153 172.064 217.256ZM196.111 231.766H192.085V238H189.135V231.766H175.942V229.075L188.819 210.725H192.085V228.964H196.111V231.766ZM189.135 228.964V219.946C189.135 218.177 189.197 216.18 189.32 213.953H189.172C188.578 215.141 188.021 216.124 187.502 216.903L179.022 228.964H189.135Z" fill="#00BCD4"/>
<path d="M31.6094 186.93C31.6094 187.797 31.3125 188.465 30.7188 188.934C30.1289 189.398 29.2832 189.631 28.1816 189.631H27.1738V193H26.1777V184.434H28.3984C30.5391 184.434 31.6094 185.266 31.6094 186.93ZM27.1738 188.775H28.0703C28.9531 188.775 29.5918 188.633 29.9863 188.348C30.3809 188.062 30.5781 187.605 30.5781 186.977C30.5781 186.41 30.3926 185.988 30.0215 185.711C29.6504 185.434 29.0723 185.295 28.2871 185.295H27.1738V188.775ZM33.4082 193V184.434H34.4043V192.098H38.1836V193H33.4082ZM45.0273 193L43.9609 190.275H40.5273L39.4727 193H38.4648L41.8516 184.398H42.6895L46.0586 193H45.0273ZM43.6504 189.379L42.6543 186.725C42.5254 186.389 42.3926 185.977 42.2559 185.488C42.1699 185.863 42.0469 186.275 41.8867 186.725L40.8789 189.379H43.6504ZM50.9043 185.201C49.9629 185.201 49.2188 185.516 48.6719 186.145C48.1289 186.77 47.8574 187.627 47.8574 188.717C47.8574 189.838 48.1191 190.705 48.6426 191.318C49.1699 191.928 49.9199 192.232 50.8926 192.232C51.4902 192.232 52.1719 192.125 52.9375 191.91V192.783C52.3438 193.006 51.6113 193.117 50.7402 193.117C49.4785 193.117 48.5039 192.734 47.8164 191.969C47.1328 191.203 46.791 190.115 46.791 188.705C46.791 187.822 46.9551 187.049 47.2832 186.385C47.6152 185.721 48.0918 185.209 48.7129 184.85C49.3379 184.49 50.0723 184.311 50.916 184.311C51.8145 184.311 52.5996 184.475 53.2715 184.803L52.8496 185.658C52.2012 185.354 51.5527 185.201 50.9043 185.201ZM60.1914 193L59.125 190.275H55.6914L54.6367 193H53.6289L57.0156 184.398H57.8535L61.2227 193H60.1914ZM58.8145 189.379L57.8184 186.725C57.6895 186.389 57.5566 185.977 57.4199 185.488C57.334 185.863 57.2109 186.275 57.0508 186.725L56.043 189.379H58.8145Z" fill="#9B9B9B"/>
<path d="M37.273 131.009C37.717 130.565 38.416 130.565 38.86 131.009C39.289 131.438 39.289 132.152 38.86 132.58L30.813 140.627H57.367C57.986 140.627 58.494 141.119 58.494 141.738C58.494 142.357 57.986 142.865 57.367 142.865H30.813L38.86 150.897C39.289 151.341 39.289 152.056 38.86 152.484C38.416 152.928 37.717 152.928 37.273 152.484L27.321 142.532C26.892 142.103 26.892 141.389 27.321 140.961L37.273 131.009Z" fill="#00BCD4"/>
<defs>
<clipPath id="clip0">
<rect width="136" height="50" fill="white" transform="translate(25 271)"/>
</clipPath>
</defs>
</svg>
