<svg width="360" height="640" viewBox="0 0 360 640" fill="none" xmlns="http://www.w3.org/2000/svg">
<rect width="360" height="640" fill="#F2F2F2"/>
<path fill-rule="evenodd" clip-rule="evenodd" d="M0 0V24H360V0H0Z" fill="#757575"/>
<g opacity="0.9">
<path d="M321.696 17H320.042V9.00879L317.602 9.84277V8.44141L321.484 7.0127H321.696V17ZM331.848 17H325.155V15.8584L328.471 12.2422C328.949 11.709 329.289 11.2646 329.489 10.9092C329.694 10.5492 329.797 10.1891 329.797 9.8291C329.797 9.35514 329.662 8.97233 329.394 8.68066C329.129 8.389 328.771 8.24316 328.32 8.24316C327.783 8.24316 327.366 8.40723 327.069 8.73535C326.773 9.06348 326.625 9.51237 326.625 10.082H324.964C324.964 9.47591 325.101 8.93132 325.374 8.44824C325.652 7.96061 326.046 7.58236 326.557 7.31348C327.072 7.0446 327.664 6.91016 328.334 6.91016C329.3 6.91016 330.061 7.15397 330.617 7.6416C331.178 8.12467 331.458 8.7946 331.458 9.65137C331.458 10.1481 331.317 10.6699 331.034 11.2168C330.756 11.7591 330.298 12.3766 329.66 13.0693L327.227 15.6738H331.848V17ZM334.22 15.25C334.53 15.25 334.769 15.3389 334.938 15.5166C335.106 15.6898 335.19 15.9085 335.19 16.1729C335.19 16.4326 335.106 16.6491 334.938 16.8223C334.769 16.9909 334.53 17.0752 334.22 17.0752C333.924 17.0752 333.689 16.9909 333.516 16.8223C333.342 16.6536 333.256 16.4372 333.256 16.1729C333.256 15.9085 333.34 15.6898 333.509 15.5166C333.677 15.3389 333.914 15.25 334.22 15.25ZM334.22 9.44629C334.53 9.44629 334.769 9.53516 334.938 9.71289C335.106 9.88607 335.19 10.1048 335.19 10.3691C335.19 10.6289 335.106 10.8454 334.938 11.0186C334.769 11.1872 334.53 11.2715 334.22 11.2715C333.924 11.2715 333.689 11.1872 333.516 11.0186C333.342 10.8499 333.256 10.6335 333.256 10.3691C333.256 10.1048 333.34 9.88607 333.509 9.71289C333.677 9.53516 333.914 9.44629 334.22 9.44629ZM338.752 11.2646H339.764C340.274 11.2601 340.677 11.1279 340.974 10.8682C341.274 10.6084 341.425 10.2324 341.425 9.74023C341.425 9.26628 341.299 8.89941 341.049 8.63965C340.803 8.37533 340.424 8.24316 339.914 8.24316C339.467 8.24316 339.101 8.37305 338.813 8.63281C338.526 8.88802 338.383 9.22298 338.383 9.6377H336.722C336.722 9.12728 336.856 8.66243 337.125 8.24316C337.398 7.82389 337.777 7.49805 338.26 7.26562C338.747 7.02865 339.292 6.91016 339.894 6.91016C340.887 6.91016 341.666 7.16081 342.231 7.66211C342.801 8.15885 343.086 8.85156 343.086 9.74023C343.086 10.1868 342.942 10.6084 342.655 11.0049C342.373 11.3968 342.006 11.693 341.555 11.8936C342.102 12.0804 342.516 12.3743 342.799 12.7754C343.086 13.1764 343.229 13.6549 343.229 14.2109C343.229 15.1042 342.922 15.8151 342.307 16.3438C341.696 16.8724 340.892 17.1367 339.894 17.1367C338.937 17.1367 338.153 16.8815 337.542 16.3711C336.931 15.8607 336.626 15.1816 336.626 14.334H338.287C338.287 14.7715 338.433 15.127 338.725 15.4004C339.021 15.6738 339.417 15.8105 339.914 15.8105C340.429 15.8105 340.835 15.6738 341.131 15.4004C341.427 15.127 341.575 14.7305 341.575 14.2109C341.575 13.6868 341.42 13.2835 341.11 13.001C340.8 12.7184 340.34 12.5771 339.729 12.5771H338.752V11.2646ZM351.275 12.8096C351.275 14.2406 351.007 15.3206 350.469 16.0498C349.936 16.7744 349.122 17.1367 348.028 17.1367C346.953 17.1367 346.142 16.7835 345.595 16.0771C345.052 15.3662 344.774 14.3158 344.761 12.9258V11.2031C344.761 9.77214 345.027 8.69889 345.561 7.9834C346.098 7.2679 346.916 6.91016 348.015 6.91016C349.104 6.91016 349.915 7.25879 350.448 7.95605C350.986 8.65332 351.262 9.69694 351.275 11.0869V12.8096ZM349.614 10.9502C349.614 10.016 349.487 9.33236 349.231 8.89941C348.976 8.46191 348.571 8.24316 348.015 8.24316C347.472 8.24316 347.074 8.45052 346.818 8.86523C346.563 9.27539 346.429 9.91797 346.415 10.793V13.0488C346.415 13.9785 346.545 14.6712 346.805 15.127C347.064 15.5827 347.472 15.8105 348.028 15.8105C348.562 15.8105 348.956 15.6009 349.211 15.1816C349.466 14.7578 349.601 14.097 349.614 13.1992V10.9502Z" fill="white"/>
</g>
<path fill-rule="evenodd" clip-rule="evenodd" d="M306 5.875V5L303 5V5.875H300V19H309V5.875H306Z" fill="white"/>
<path fill-rule="evenodd" clip-rule="evenodd" d="M277 19H291V5L277 19Z" fill="white"/>
<path fill-rule="evenodd" clip-rule="evenodd" d="M256.977 8.01593C259.488 6.12256 262.613 5 266 5C269.387 5 272.512 6.12256 275.023 8.01593L266 19L256.977 8.01593Z" fill="white"/>
<path fill-rule="evenodd" clip-rule="evenodd" d="M0 592V640H360V592H0Z" fill="black"/>
<path d="M274 610C274 609.448 274.448 609 275 609H287C287.552 609 288 609.448 288 610V622C288 622.552 287.552 623 287 623H275C274.448 623 274 622.552 274 622V610Z" stroke="white" stroke-width="2"/>
<circle cx="180" cy="616" r="7" stroke="white" stroke-width="2"/>
<path d="M84.4995 608.849C85.1662 608.464 86 608.945 86 609.715V621.287C86 622.057 85.1662 622.538 84.4995 622.153L74.4904 616.367C73.8244 615.982 73.8244 615.02 74.4904 614.635L84.4995 608.849Z" stroke="white" stroke-width="2"/>
<rect y="24" width="360" height="60" fill="#4DD0E1"/>
<path d="M42.604 40.6785C42.2765 40.3333 41.7054 40.3326 41.3629 40.6639L40.1485 41.8387C39.8236 42.153 39.8275 42.6503 40.1366 42.9792C43.0962 46.1297 44.5759 50.1252 44.5758 54.1207C44.5756 58.1157 43.0959 62.1106 40.1366 65.2607C39.8275 65.5897 39.8236 66.0869 40.1485 66.4012L41.3629 67.5759C41.7054 67.9073 42.2765 67.9066 42.6041 67.5614C46.2016 63.7701 48.0003 58.9445 48 54.1189C47.9998 49.2942 46.2011 44.4693 42.604 40.6785Z" fill="white"/>
<path d="M11.4242 54.1195C11.4243 50.1244 12.9041 46.1294 15.8635 42.9792C16.1725 42.6502 16.1764 42.153 15.8515 41.8387L14.6372 40.664C14.2946 40.3326 13.7236 40.3333 13.3959 40.6785C9.79856 44.4696 7.99992 49.295 8 54.1204C8.00008 58.9454 9.7988 63.7704 13.3959 67.5614C13.7235 67.9066 14.2946 67.9073 14.6372 67.5759L15.8515 66.4011C16.1764 66.0868 16.1725 65.5896 15.8635 65.2606C12.9039 62.1102 11.4242 58.1149 11.4242 54.1195Z" fill="white"/>
<path fill-rule="evenodd" clip-rule="evenodd" d="M13.2381 53.8837C13.2381 45.6764 19.9674 39 28.2381 39C36.5088 39 43.2381 45.6764 43.2381 53.8837C43.2381 62.0911 36.5088 68.7674 28.2381 68.7674C19.9674 68.7674 13.2381 62.0911 13.2381 53.8837ZM26.5617 55.5374H29.0617C31.359 55.5374 33.2283 53.6835 33.2283 51.4031C33.2283 49.1227 31.359 47.2688 29.0617 47.2687H25.7283C25.2677 47.2687 24.895 47.6385 24.895 48.0956V59.6718C24.895 60.1288 25.2677 60.4987 25.7283 60.4987C26.189 60.4987 26.5617 60.1288 26.5617 59.6718V55.5374Z" fill="white"/>
<path d="M29.1905 48.9224H26.5714V53.6474H29.1905C30.6347 53.6474 31.8095 52.5876 31.8095 51.2849C31.8095 49.9821 30.6347 48.9224 29.1905 48.9224Z" fill="white"/>
<path fill-rule="evenodd" clip-rule="evenodd" d="M336.614 53.9991L344.457 46.156C345.179 45.434 345.179 44.2635 344.457 43.5416C343.735 42.8196 342.564 42.8196 341.842 43.5416L333.999 51.3848L326.156 43.5415C325.434 42.8195 324.263 42.8195 323.541 43.5415C322.82 44.2635 322.82 45.434 323.541 46.1559L331.385 53.999L323.541 61.8423C322.82 62.5642 322.82 63.7348 323.541 64.4567C324.263 65.1786 325.434 65.1786 326.156 64.4567L333.999 56.6134L341.842 64.4567C342.564 65.1786 343.735 65.1786 344.457 64.4567C345.179 63.7347 345.179 62.5642 344.457 61.8423L336.614 53.9991Z" fill="white"/>
<rect y="84" width="360" height="509" fill="#4DD0E1"/>
<path d="M22.9688 149H16.5078V137.578H22.9688V139.156H18.375V142.266H22.6797V143.828H18.375V147.414H22.9688V149ZM32.8516 149H31.0078V143.688C31.0078 143.021 30.8724 142.523 30.6016 142.195C30.3359 141.867 29.9115 141.703 29.3281 141.703C28.5521 141.703 27.9844 141.932 27.625 142.391C27.2656 142.849 27.0859 143.617 27.0859 144.695V149H25.25V140.359H26.6875L26.9453 141.492H27.0391C27.2995 141.081 27.6693 140.763 28.1484 140.539C28.6276 140.315 29.1589 140.203 29.7422 140.203C31.8151 140.203 32.8516 141.258 32.8516 143.367V149ZM38.625 147.672C39.0729 147.672 39.5208 147.602 39.9688 147.461V148.844C39.7656 148.932 39.5026 149.005 39.1797 149.062C38.862 149.125 38.5312 149.156 38.1875 149.156C36.4479 149.156 35.5781 148.24 35.5781 146.406V141.75H34.3984V140.938L35.6641 140.266L36.2891 138.438H37.4219V140.359H39.8828V141.75H37.4219V146.375C37.4219 146.818 37.5312 147.146 37.75 147.359C37.974 147.568 38.2656 147.672 38.625 147.672ZM46.0859 140.203C46.4557 140.203 46.7604 140.229 47 140.281L46.8203 141.992C46.5599 141.93 46.2891 141.898 46.0078 141.898C45.2734 141.898 44.6771 142.138 44.2188 142.617C43.7656 143.096 43.5391 143.719 43.5391 144.484V149H41.7031V140.359H43.1406L43.3828 141.883H43.4766C43.763 141.367 44.1354 140.958 44.5938 140.656C45.0573 140.354 45.5547 140.203 46.0859 140.203ZM54.0156 149L53.6484 147.797H53.5859C53.1693 148.323 52.75 148.682 52.3281 148.875C51.9062 149.062 51.3646 149.156 50.7031 149.156C49.8542 149.156 49.1901 148.927 48.7109 148.469C48.237 148.01 48 147.362 48 146.523C48 145.633 48.3307 144.961 48.9922 144.508C49.6536 144.055 50.6615 143.807 52.0156 143.766L53.5078 143.719V143.258C53.5078 142.706 53.3776 142.294 53.1172 142.023C52.862 141.747 52.4635 141.609 51.9219 141.609C51.4792 141.609 51.0547 141.674 50.6484 141.805C50.2422 141.935 49.8516 142.089 49.4766 142.266L48.8828 140.953C49.3516 140.708 49.8646 140.523 50.4219 140.398C50.9792 140.268 51.5052 140.203 52 140.203C53.099 140.203 53.9271 140.443 54.4844 140.922C55.0469 141.401 55.3281 142.154 55.3281 143.18V149H54.0156ZM51.2812 147.75C51.9479 147.75 52.4818 147.565 52.8828 147.195C53.2891 146.82 53.4922 146.297 53.4922 145.625V144.875L52.3828 144.922C51.5182 144.953 50.888 145.099 50.4922 145.359C50.1016 145.615 49.9062 146.008 49.9062 146.539C49.9062 146.924 50.0208 147.224 50.25 147.438C50.4792 147.646 50.8229 147.75 51.2812 147.75ZM60.8047 149.156C59.7266 149.156 58.8854 148.766 58.2812 147.984C57.6771 147.203 57.375 146.107 57.375 144.695C57.375 143.279 57.6797 142.177 58.2891 141.391C58.9036 140.599 59.7526 140.203 60.8359 140.203C61.9714 140.203 62.8359 140.622 63.4297 141.461H63.5234C63.4349 140.841 63.3906 140.352 63.3906 139.992V136.844H65.2344V149H63.7969L63.4766 147.867H63.3906C62.8021 148.727 61.9401 149.156 60.8047 149.156ZM61.2969 147.672C62.0521 147.672 62.6016 147.461 62.9453 147.039C63.2891 146.612 63.4661 145.922 63.4766 144.969V144.711C63.4766 143.622 63.2995 142.849 62.9453 142.391C62.5911 141.932 62.0365 141.703 61.2812 141.703C60.6354 141.703 60.138 141.966 59.7891 142.492C59.4401 143.013 59.2656 143.758 59.2656 144.727C59.2656 145.685 59.4349 146.417 59.7734 146.922C60.112 147.422 60.6198 147.672 61.2969 147.672ZM73.2656 149L72.8984 147.797H72.8359C72.4193 148.323 72 148.682 71.5781 148.875C71.1562 149.062 70.6146 149.156 69.9531 149.156C69.1042 149.156 68.4401 148.927 67.9609 148.469C67.487 148.01 67.25 147.362 67.25 146.523C67.25 145.633 67.5807 144.961 68.2422 144.508C68.9036 144.055 69.9115 143.807 71.2656 143.766L72.7578 143.719V143.258C72.7578 142.706 72.6276 142.294 72.3672 142.023C72.112 141.747 71.7135 141.609 71.1719 141.609C70.7292 141.609 70.3047 141.674 69.8984 141.805C69.4922 141.935 69.1016 142.089 68.7266 142.266L68.1328 140.953C68.6016 140.708 69.1146 140.523 69.6719 140.398C70.2292 140.268 70.7552 140.203 71.25 140.203C72.349 140.203 73.1771 140.443 73.7344 140.922C74.2969 141.401 74.5781 142.154 74.5781 143.18V149H73.2656ZM70.5312 147.75C71.1979 147.75 71.7318 147.565 72.1328 147.195C72.5391 146.82 72.7422 146.297 72.7422 145.625V144.875L71.6328 144.922C70.7682 144.953 70.138 145.099 69.7422 145.359C69.3516 145.615 69.1562 146.008 69.1562 146.539C69.1562 146.924 69.2708 147.224 69.5 147.438C69.7292 147.646 70.0729 147.75 70.5312 147.75Z" fill="white"/>
<path d="M23.0938 213.898C23.0938 214.914 22.7266 215.711 21.9922 216.289C21.2578 216.867 20.2448 217.156 18.9531 217.156C17.6615 217.156 16.6042 216.956 15.7812 216.555V214.789C16.3021 215.034 16.8542 215.227 17.4375 215.367C18.026 215.508 18.5729 215.578 19.0781 215.578C19.8177 215.578 20.362 215.438 20.7109 215.156C21.0651 214.875 21.2422 214.497 21.2422 214.023C21.2422 213.596 21.0807 213.234 20.7578 212.938C20.4349 212.641 19.7682 212.289 18.7578 211.883C17.7161 211.461 16.9818 210.979 16.5547 210.438C16.1276 209.896 15.9141 209.245 15.9141 208.484C15.9141 207.531 16.2526 206.781 16.9297 206.234C17.6068 205.688 18.5156 205.414 19.6562 205.414C20.75 205.414 21.8385 205.654 22.9219 206.133L22.3281 207.656C21.3125 207.229 20.4062 207.016 19.6094 207.016C19.0052 207.016 18.5469 207.148 18.2344 207.414C17.9219 207.674 17.7656 208.021 17.7656 208.453C17.7656 208.75 17.8281 209.005 17.9531 209.219C18.0781 209.427 18.2839 209.625 18.5703 209.812C18.8568 210 19.3724 210.247 20.1172 210.555C20.9557 210.904 21.5703 211.229 21.9609 211.531C22.3516 211.833 22.638 212.174 22.8203 212.555C23.0026 212.935 23.0938 213.383 23.0938 213.898ZM30.5156 217L30.1484 215.797H30.0859C29.6693 216.323 29.25 216.682 28.8281 216.875C28.4062 217.062 27.8646 217.156 27.2031 217.156C26.3542 217.156 25.6901 216.927 25.2109 216.469C24.737 216.01 24.5 215.362 24.5 214.523C24.5 213.633 24.8307 212.961 25.4922 212.508C26.1536 212.055 27.1615 211.807 28.5156 211.766L30.0078 211.719V211.258C30.0078 210.706 29.8776 210.294 29.6172 210.023C29.362 209.747 28.9635 209.609 28.4219 209.609C27.9792 209.609 27.5547 209.674 27.1484 209.805C26.7422 209.935 26.3516 210.089 25.9766 210.266L25.3828 208.953C25.8516 208.708 26.3646 208.523 26.9219 208.398C27.4792 208.268 28.0052 208.203 28.5 208.203C29.599 208.203 30.4271 208.443 30.9844 208.922C31.5469 209.401 31.8281 210.154 31.8281 211.18V217H30.5156ZM27.7812 215.75C28.4479 215.75 28.9818 215.565 29.3828 215.195C29.7891 214.82 29.9922 214.297 29.9922 213.625V212.875L28.8828 212.922C28.0182 212.953 27.388 213.099 26.9922 213.359C26.6016 213.615 26.4062 214.008 26.4062 214.539C26.4062 214.924 26.5208 215.224 26.75 215.438C26.9792 215.646 27.3229 215.75 27.7812 215.75ZM36.2266 217H34.3906V208.359H36.2266V217ZM34.2969 207.305V207.109C34.5938 206.745 34.8984 206.339 35.2109 205.891C35.5286 205.443 35.7786 205.06 35.9609 204.742H38.0938V204.906C37.8229 205.224 37.4167 205.635 36.875 206.141C36.3385 206.641 35.8854 207.029 35.5156 207.305H34.2969ZM41.7734 217.156C40.6953 217.156 39.8542 216.766 39.25 215.984C38.6458 215.203 38.3438 214.107 38.3438 212.695C38.3438 211.279 38.6484 210.177 39.2578 209.391C39.8724 208.599 40.7214 208.203 41.8047 208.203C42.9401 208.203 43.8047 208.622 44.3984 209.461H44.4922C44.4036 208.841 44.3594 208.352 44.3594 207.992V204.844H46.2031V217H44.7656L44.4453 215.867H44.3594C43.7708 216.727 42.9089 217.156 41.7734 217.156ZM42.2656 215.672C43.0208 215.672 43.5703 215.461 43.9141 215.039C44.2578 214.612 44.4349 213.922 44.4453 212.969V212.711C44.4453 211.622 44.2682 210.849 43.9141 210.391C43.5599 209.932 43.0052 209.703 42.25 209.703C41.6042 209.703 41.1068 209.966 40.7578 210.492C40.4089 211.013 40.2344 211.758 40.2344 212.727C40.2344 213.685 40.4036 214.417 40.7422 214.922C41.0807 215.422 41.5885 215.672 42.2656 215.672ZM54.2344 217L53.8672 215.797H53.8047C53.388 216.323 52.9688 216.682 52.5469 216.875C52.125 217.062 51.5833 217.156 50.9219 217.156C50.0729 217.156 49.4089 216.927 48.9297 216.469C48.4557 216.01 48.2188 215.362 48.2188 214.523C48.2188 213.633 48.5495 212.961 49.2109 212.508C49.8724 212.055 50.8802 211.807 52.2344 211.766L53.7266 211.719V211.258C53.7266 210.706 53.5964 210.294 53.3359 210.023C53.0807 209.747 52.6823 209.609 52.1406 209.609C51.6979 209.609 51.2734 209.674 50.8672 209.805C50.4609 209.935 50.0703 210.089 49.6953 210.266L49.1016 208.953C49.5703 208.708 50.0833 208.523 50.6406 208.398C51.1979 208.268 51.724 208.203 52.2188 208.203C53.3177 208.203 54.1458 208.443 54.7031 208.922C55.2656 209.401 55.5469 210.154 55.5469 211.18V217H54.2344ZM51.5 215.75C52.1667 215.75 52.7005 215.565 53.1016 215.195C53.5078 214.82 53.7109 214.297 53.7109 213.625V212.875L52.6016 212.922C51.737 212.953 51.1068 213.099 50.7109 213.359C50.3203 213.615 50.125 214.008 50.125 214.539C50.125 214.924 50.2396 215.224 50.4688 215.438C50.6979 215.646 51.0417 215.75 51.5 215.75Z" fill="white"/>
</svg>
